<?xml version="1.0" encoding="utf-8"?>
<!-- Generator: Adobe Illustrator 19.0.0, SVG Export Plug-In . SVG Version: 6.00 Build 0)  -->
<svg version="1.1" id="Слой_1" xmlns="http://www.w3.org/2000/svg" xmlns:xlink="http://www.w3.org/1999/xlink" x="0px" y="0px"
	 viewBox="0 106.9 1000 288.1" style="enable-background:new 0 106.9 1000 288.1;" xml:space="preserve">
<style type="text/css">
	.st0{opacity:0.35;}
	.st1{fill:#4D4D4D;}
	.st2{fill:#F5CF00;stroke:#000000;stroke-miterlimit:10;}
	.st3{fill:#606054;}
	.st4{fill:#C6DEC3;}
	.st5{fill:#E2EFE1;}
	.st6{fill:#D18B00;}
	.st7{fill:#F3DE9C;}
	.st8{fill:#D18B00;stroke:#000000;stroke-miterlimit:10;}
	.st9{fill:#F3DE9C;stroke:#000000;stroke-miterlimit:10;}
	.st10{fill:#CCCCCC;}
	.st11{fill:#999999;}
	.st12{fill:#54544A;}
	.st13{fill:#F7B10D;stroke:#000000;stroke-miterlimit:10;}
	.st14{fill:#FFFFFF;}
	.st15{opacity:0.45;}
	.st16{fill:#424242;}
	.st17{fill:#F7D077;}
	.st18{fill:#F7B10D;}
	.st19{fill:#F5CF00;}
	.st20{opacity:0.7;}
	.st21{fill:#606054;stroke:#000000;stroke-miterlimit:10;}
	.st22{fill:#999999;stroke:#000000;stroke-miterlimit:10;}
	.st23{fill:#CCCCCC;stroke:#000000;stroke-miterlimit:10;}
	.st24{fill:#E73400;}
	.st25{fill:#54544A;stroke:#000000;stroke-miterlimit:10;}
</style>
<g id="Слой_6" class="st0">
	<g id="XMLID_392_">
		<path id="XMLID_452_" class="st1" d="M387.3,358.1H205.4L210,376h172.7L387.3,358.1z"/>
		<g id="XMLID_427_">
			<path id="XMLID_451_" class="st2" d="M261.6,302.9v66.9h-63.2v-36.2l14.3-25.9c1.6-2.9,4.7-4.8,8.1-4.8H261.6z"/>
			<path id="XMLID_450_" class="st3" d="M221.7,341.3h-9.8c-0.8,0-1.5-0.7-1.5-1.5s0.7-1.5,1.5-1.5h9.8c0.8,0,1.5,0.7,1.5,1.5
				S222.6,341.3,221.7,341.3z"/>
			<g id="XMLID_444_">
				<path id="XMLID_449_" class="st4" d="M245.3,306.9v33.5c0,1.7-1.4,3.1-3.1,3.1h-10.3l-7.2-8.9l-22.4,0.1l11.9-21.5l1.9-3.5
					c0.9-1.7,2.7-2.7,4.6-2.7h24.6V306.9z"/>
				<path id="XMLID_448_" class="st5" d="M239.1,306.9v29.6c0,1-0.7,2-1.6,2.3c-1,0.3-2.1,0-2.7-0.8l-20.5-25l1.9-3.5
					c0.9-1.7,2.7-2.7,4.6-2.7L239.1,306.9L239.1,306.9z"/>
				<path id="XMLID_445_" class="st3" d="M242.3,344.2H232c-0.2,0-0.5-0.1-0.6-0.3l-7-8.6l-22,0.1c-0.3,0-0.5-0.1-0.7-0.4
					c-0.1-0.2-0.1-0.5,0-0.8l13.8-25c1.1-1.9,3.1-3.1,5.2-3.1h24.6c0.4,0,0.8,0.3,0.8,0.8v33.4C246.1,342.5,244.4,344.2,242.3,344.2
					z M232.3,342.7h9.9c1.3,0,2.3-1,2.3-2.3v-32.7h-23.9c-1.6,0-3.1,0.9-3.9,2.3l-13.1,23.9l21.1-0.1c0.2,0,0.5,0.1,0.6,0.3
					L232.3,342.7L232.3,342.7z"/>
			</g>
			<g id="XMLID_437_">
				<path id="XMLID_443_" class="st4" d="M194.9,352.8c-1.9,1.5-3,3.7-3,6.1s1.1,4.7,3,6.1V352.8L194.9,352.8z"/>
				<circle id="XMLID_442_" class="st5" cx="194.9" cy="358.9" r="2.4"/>
				<path id="XMLID_441_" class="st6" d="M204.8,361.4c0,3.4-2.7,6.1-6.1,6.1h-0.3v-12.3h0.3C202.1,355.2,204.8,358,204.8,361.4z"/>
				<path id="XMLID_440_" class="st2" d="M198.7,365.1c3.4,0,6.1-2.7,6.1-6.1s-2.7-6.1-6.1-6.1h-3.8v12.3L198.7,365.1L198.7,365.1z"
					/>
				<path id="XMLID_439_" class="st7" d="M202.6,357.7c-0.3,0-0.7-0.2-0.8-0.5c-0.6-1.2-1.9-2-3.3-2h-0.3c-0.5,0-0.9-0.4-0.9-0.9
					s0.4-0.9,0.9-0.9h0.3c2.1,0,4,1.2,5,3c0.2,0.5,0.1,1-0.4,1.2C202.9,357.6,202.7,357.7,202.6,357.7L202.6,357.7z"/>
				<path id="XMLID_438_" class="st3" d="M194.9,352.8h1.8v12.3h-1.8V352.8z"/>
			</g>
			<g id="XMLID_428_">
				<path id="XMLID_436_" class="st7" d="M258.2,308.6h-7.6c-0.6,0-1.1-0.5-1.1-1.1s0.5-1.1,1.1-1.1h7.7c0.6,0,1.1,0.5,1.1,1.1
					C259.3,308.1,258.8,308.6,258.2,308.6z"/>
				<path id="XMLID_435_" class="st7" d="M258.2,313.6h-7.6c-0.6,0-1.1-0.5-1.1-1.1s0.5-1.1,1.1-1.1h7.7c0.6,0,1.1,0.5,1.1,1.1
					C259.3,313.2,258.8,313.6,258.2,313.6z"/>
				<path id="XMLID_434_" class="st7" d="M258.2,318.7h-7.6c-0.6,0-1.1-0.5-1.1-1.1s0.5-1.1,1.1-1.1h7.7c0.6,0,1.1,0.5,1.1,1.1
					C259.3,318.2,258.8,318.7,258.2,318.7z"/>
				<path id="XMLID_433_" class="st7" d="M258.2,323.8h-7.6c-0.6,0-1.1-0.5-1.1-1.1s0.5-1.1,1.1-1.1h7.7c0.6,0,1.1,0.5,1.1,1.1
					C259.3,323.3,258.8,323.8,258.2,323.8z"/>
				<path id="XMLID_432_" class="st7" d="M258.2,328.8h-7.6c-0.6,0-1.1-0.5-1.1-1.1s0.5-1.1,1.1-1.1h7.7c0.6,0,1.1,0.5,1.1,1.1
					C259.3,328.3,258.8,328.8,258.2,328.8z"/>
				<path id="XMLID_431_" class="st7" d="M258.2,333.9h-7.6c-0.6,0-1.1-0.5-1.1-1.1s0.5-1.1,1.1-1.1h7.7c0.6,0,1.1,0.5,1.1,1.1
					C259.3,333.4,258.8,333.9,258.2,333.9z"/>
				<path id="XMLID_430_" class="st7" d="M258.2,338.9h-7.6c-0.6,0-1.1-0.5-1.1-1.1s0.5-1.1,1.1-1.1h7.7c0.6,0,1.1,0.5,1.1,1.1
					C259.3,338.4,258.8,338.9,258.2,338.9z"/>
				<path id="XMLID_429_" class="st7" d="M258.2,344h-7.6c-0.6,0-1.1-0.5-1.1-1.1s0.5-1.1,1.1-1.1h7.7c0.6,0,1.1,0.5,1.1,1.1
					C259.3,343.5,258.8,344,258.2,344z"/>
			</g>
		</g>
		<g id="XMLID_422_">
			<path id="XMLID_426_" class="st2" d="M268.2,335.6v-32.7L250.9,289l-5.1-4.2h15l30.9,24.3h100.8l3.3,9.5l1.4,4l4.5,13l-9.2,26.5
				H268.2V335.6z"/>
			<path id="XMLID_425_" class="st8" d="M401.7,335.6H268.2v26.5h124.3L401.7,335.6z"/>
			<path id="XMLID_424_" class="st6" d="M397.1,322.7H288.8l-19.4-15.6l-1.2-1v-3.2L250.9,289H262l30.9,24.2h100.9L397.1,322.7z"/>
			<path id="XMLID_423_" class="st9" d="M395.8,318.6H287.6l-19.4-15.7l-22.4-18.1h15l30.9,24.3h100.8L395.8,318.6z"/>
		</g>
		<g id="XMLID_393_">
			<g id="XMLID_417_">
				<path id="XMLID_421_" class="st3" d="M258.2,376c0,10.2-8.2,18.4-18.4,18.4s-18.4-8.2-18.4-18.4v-0.4c0.2-10,8.4-18,18.4-18
					s18.2,8,18.4,18V376z"/>
				<path id="XMLID_420_" class="st10" d="M250.6,376c0,5.9-4.8,10.7-10.7,10.7s-10.7-4.8-10.7-10.7v-0.2
					c0.1-5.8,4.9-10.6,10.7-10.6c5.9,0,10.6,4.7,10.7,10.5V376L250.6,376z"/>
				<circle id="XMLID_419_" class="st3" cx="239.8" cy="376" r="4.9"/>
				<path id="XMLID_418_" class="st11" d="M250.6,375.7c-0.2-4-4.9-7.8-10.7-7.8s-10.6,3.8-10.7,7.8c0.1-5.8,4.9-10.6,10.7-10.6
					C245.7,365.2,250.4,369.9,250.6,375.7z"/>
			</g>
			<g id="XMLID_412_">
				<circle id="XMLID_416_" class="st3" cx="318.2" cy="376" r="18.4"/>
				<path id="XMLID_415_" class="st10" d="M329,376c0,5.9-4.8,10.7-10.7,10.7c-5.9,0-10.7-4.8-10.7-10.7v-0.2
					c0.1-5.8,4.9-10.6,10.7-10.6c5.9,0,10.6,4.7,10.7,10.5V376L329,376z"/>
				<circle id="XMLID_414_" class="st3" cx="318.2" cy="376" r="4.9"/>
				<path id="XMLID_413_" class="st11" d="M329,375.7c-0.2-4-4.9-7.8-10.7-7.8c-5.8,0-10.6,3.8-10.7,7.8c0.1-5.8,4.9-10.6,10.7-10.6
					C324.1,365.2,328.9,369.9,329,375.7z"/>
			</g>
			<g id="XMLID_407_">
				<circle id="XMLID_411_" class="st3" cx="359" cy="376" r="18.4"/>
				<path id="XMLID_410_" class="st10" d="M369.8,376c0,5.9-4.8,10.7-10.7,10.7c-5.9,0-10.7-4.8-10.7-10.7v-0.2
					c0.1-5.8,4.9-10.6,10.7-10.6c5.9,0,10.6,4.7,10.7,10.5V376L369.8,376z"/>
				<circle id="XMLID_409_" class="st3" cx="359" cy="376" r="4.9"/>
				<path id="XMLID_408_" class="st11" d="M369.8,375.7c-0.2-4-4.9-7.8-10.7-7.8c-5.8,0-10.6,3.8-10.7,7.8
					c0.1-5.8,4.9-10.6,10.7-10.6C364.9,365.2,369.7,369.9,369.8,375.7z"/>
			</g>
			<g id="XMLID_394_">
				<path id="XMLID_396_" class="st12" d="M336.4,375.7c-0.3-7.8-8-14.2-18-14.2s-18.2,6.3-18.4,14.1c0.2-10,8.4-18,18.4-18
					C328.3,357.5,336.2,365.7,336.4,375.7z"/>
				<g id="XMLID_402_">
					<path id="XMLID_405_" class="st13" d="M296.8,379c-1.7,0-3.1-1.4-3.1-3.1c0-13.5,11-24.6,24.6-24.6c10.6,0,20,6.8,23.3,16.8
						c0.5,1.6-0.3,3.3-2,3.9c-1.6,0.5-3.3-0.3-3.9-2c-2.5-7.6-9.5-12.6-17.5-12.6c-10.2,0-18.4,8.3-18.4,18.4
						C299.8,377.6,298.5,379,296.8,379L296.8,379z"/>
					<path id="XMLID_406_" class="st13" d="M380.5,379c-1.7,0-3.1-1.4-3.1-3.1c0-10.2-8.3-18.4-18.4-18.4c-8,0-15,5.1-17.5,12.6
						c-0.5,1.6-2.3,2.5-3.9,2s-2.5-2.3-2-3.9c3.3-10.1,12.7-16.8,23.3-16.8c13.5,0,24.6,11,24.6,24.6
						C383.6,377.6,382.2,379,380.5,379z"/>
					<path id="XMLID_404_" class="st6" d="M244.7,351.4c6.5,0,12.5,2.6,16.9,6.8v10.5c-2.8-6.5-9.3-11.1-16.9-11.1
						C236.7,357.5,233.3,351.4,244.7,351.4L244.7,351.4z"/>
					<path id="XMLID_403_" class="st13" d="M261.3,379c-1.7,0-3.1-1.4-3.1-3.1c0-10.2-8.3-18.4-18.4-18.4
						c-10.2,0-18.4,8.3-18.4,18.4c0,1.7-1.4,3.1-3.1,3.1s-3.1-1.4-3.1-3.1c0-13.5,11-24.6,24.6-24.6c13.5,0,24.6,11,24.6,24.6
						C264.4,377.6,263,379,261.3,379z"/>
				</g>
				<g id="XMLID_398_">
					<path id="XMLID_401_" class="st7" d="M338.6,370.3c-0.1,0-0.2,0-0.3-0.1c-0.6-0.2-0.9-0.8-0.7-1.4c3.1-9.3,11.7-15.5,21.4-15.5
						c0.6,0,1.1,0.5,1.1,1.1s-0.5,1.1-1.1,1.1c-8.8,0-16.6,5.6-19.4,14C339.5,370,339.1,370.3,338.6,370.3z"/>
					<path id="XMLID_400_" class="st7" d="M296.8,377c-0.6,0-1.1-0.5-1.1-1.1c0-12.4,10.1-22.6,22.6-22.6c0.6,0,1.1,0.5,1.1,1.1
						s-0.5,1.1-1.1,1.1c-11.3,0-20.4,9.2-20.4,20.4C297.8,376.5,297.4,377,296.8,377z"/>
					<path id="XMLID_399_" class="st7" d="M218.3,377c-0.6,0-1.1-0.5-1.1-1.1c0-12.4,10.1-22.6,22.6-22.6c0.6,0,1.1,0.5,1.1,1.1
						s-0.5,1.1-1.1,1.1c-11.3,0-20.4,9.2-20.4,20.4C219.4,376.5,218.9,377,218.3,377z"/>
				</g>
				<path id="XMLID_397_" class="st12" d="M258.2,375.6c-0.3-7.8-8.4-14.1-18.4-14.1s-18.2,6.3-18.4,14.1c0.2-10,8.4-18,18.4-18
					C249.9,357.5,258,365.6,258.2,375.6z"/>
				<path id="XMLID_395_" class="st12" d="M377.5,375.6c-0.3-7.8-8.4-14.1-18.4-14.1s-18.2,6.3-18.4,14.1c0.2-10,8.4-18,18.4-18
					C369.1,357.5,377.3,365.6,377.5,375.6z"/>
			</g>
		</g>
	</g>
</g>
<g id="Слой_5">
	<path id="XMLID_880_" class="st14" d="M547.8,371.1C547.8,371,547.8,371,547.8,371.1C547.8,371,547.8,371,547.8,371.1V371v-0.5
		v-0.9v-0.4c0-0.5-0.1-1.1-0.2-1.6v-0.1c-0.1-0.4-0.1-0.8-0.2-1.3c0-0.1,0-0.2-0.1-0.3v-0.1v-0.1v-0.1c-0.1-0.3-0.2-0.6-0.2-0.9
		v-0.2v-0.1v-0.1v-0.1v-0.1V364v-0.1v-0.1v-0.1c-0.1-0.2-0.2-0.4-0.2-0.6V363v-0.1c-0.2-0.5-0.4-1-0.7-1.5c0-0.1-0.1-0.2-0.1-0.3
		c-0.3-0.5-0.5-1-0.8-1.5c-0.1-0.2-0.2-0.4-0.4-0.6c-0.1-0.1-0.1-0.2-0.2-0.3c-0.1-0.1-0.1-0.2-0.2-0.3c0-0.1-0.1-0.1-0.1-0.2
		l-0.1-0.1V358c0,0,0-0.1-0.1-0.1c0,0,0-0.1-0.1-0.1l-0.1-0.1v-0.1v-0.1l-0.1-0.1v-0.1l-0.3-0.3c-0.1-0.1-0.1-0.2-0.2-0.2l-0.1-0.1
		c-0.1-0.1-0.2-0.2-0.3-0.4l-0.1-0.1c-0.4-0.4-0.8-0.8-1.2-1.1c-0.1-0.1-0.2-0.1-0.2-0.2c-0.4-0.4-0.8-0.7-1.3-1l-0.3-0.3
		c0,0-0.1,0-0.1-0.1c-0.2-0.1-0.3-0.2-0.5-0.3c-0.1-0.1-0.2-0.1-0.3-0.2c-0.4-0.2-0.8-0.5-1.2-0.7h-0.1c-0.1-0.1-0.3-0.1-0.4-0.2
		c-0.4-0.2-0.8-0.4-1.1-0.5c-0.1,0-0.1-0.1-0.2-0.1l-1.5-0.6c-0.1,0-0.2-0.1-0.4-0.1c-0.3-0.1-0.5-0.2-0.8-0.2
		c-0.1,0-0.2-0.1-0.3-0.1h-0.3l-1.2-0.3c-0.1,0-0.2,0-0.4-0.1H531h-0.1c-0.4-0.1-0.8-0.1-1.2-0.2h-0.8c-0.6,0-1.1-0.1-1.7-0.1h-55.6
		v-1.7l5-1.6l3.8-3.7h59.8c3.9,0,6.8-0.8,6.8-4.7V307c0-3.9-2.9-9.4-6.8-9.4l-37.5,0.1l-20.6-62.1c-1.4-6.1-6.5-9.9-13.5-8.4
		l-0.8-0.4l-0.2-0.1l-2.9-1.3l-116.1-53.8c-5.4-2.4-11.7-0.1-14.1,5.3c-1,2.3-1.2,4.7-0.7,6.9l-0.6,1v0.2l-23.1,68.3
		c-0.4,1.2-0.7,2.3-0.8,3.4h-0.1c-0.4,2-0.6,3.9-0.5,5.9c0.3,11.8,8.7,22.3,20.8,24.8c12.1,2.5,23.9-3.9,28.8-14.7
		c0.8-1.8,1.4-3.6,1.8-5.6l2.4-11.6l-10.9,9.8l-29.1-5.9l21.1-64.4l0.5-0.8l0.1-0.1l0.6-0.8l106.1,48.4l4.1,1.9l17.9,54h-42.3v-38.2
		c0-3.9-3.2-7.1-7.1-7.1H377c-3.9,0-7.1,3.2-7.1,7.1v76.3c0,3.9,3.2,7.1,7.1,7.1h50.8v2.9h11.9v1.7l-50.5,0.4h-0.1
		c-0.6,0-1.1,0-1.7,0.1H387c-0.6,0-1.1,0.1-1.6,0.2h-0.1h-0.1c-0.2,0-0.3,0.1-0.5,0.1c-0.1,0-0.2,0-0.3,0.1c-0.1,0-0.2,0-0.2,0.1
		h-0.1c-0.2,0-0.3,0.1-0.5,0.1c-0.2,0.1-0.4,0.1-0.6,0.2h-0.1h-0.1c-0.1,0-0.1,0-0.2,0.1h-0.1c-0.1,0-0.2,0.1-0.4,0.1
		c-0.4,0.2-0.9,0.3-1.3,0.5c0,0-0.1,0-0.1,0.1c-0.5,0.2-1,0.4-1.4,0.7c-0.1,0-0.2,0.1-0.2,0.1c-0.2,0.1-0.5,0.3-0.7,0.4
		c-0.1,0.1-0.3,0.2-0.4,0.2c0,0-0.1,0-0.1,0.1h-0.1c0,0-0.1,0-0.1,0.1c-0.1,0-0.1,0.1-0.2,0.1c0,0-0.1,0-0.1,0.1
		c-0.3,0.2-0.7,0.5-1,0.7c-0.3,0.3-0.7,0.5-1,0.8l-0.1,0.1c-0.1,0-0.1,0.1-0.2,0.1l-0.2,0.2c-0.4,0.4-0.8,0.7-1.2,1.1l-0.1,0.1
		c-0.4,0.4-0.7,0.8-1.1,1.2l-0.1,0.1l-0.1,0.1c-0.1,0.1-0.1,0.2-0.2,0.3c0,0,0,0.1-0.1,0.1l-0.1,0.1v0.1l-0.1,0.1c0,0,0,0.1-0.1,0.1
		c-0.3,0.4-0.6,0.8-0.8,1.3c-0.1,0.2-0.2,0.3-0.3,0.5l-0.1,0.1c-0.2,0.3-0.3,0.5-0.4,0.8c0,0.1-0.1,0.2-0.1,0.3
		c-0.2,0.5-0.5,1-0.7,1.5c0,0.1-0.1,0.2-0.1,0.3c-0.1,0.3-0.3,0.7-0.4,1c0,0.1-0.1,0.2-0.1,0.3c0,0.1,0,0.1-0.1,0.1v0.1
		c0,0.1-0.1,0.2-0.1,0.3c0,0.1-0.1,0.2-0.1,0.2v0.1c0,0.1-0.1,0.2-0.1,0.4c0,0.1-0.1,0.2-0.1,0.4c0,0.1-1.1,2.2-1.1,2.4
		c0,0.3-0.1,0.5-0.1,0.8v0.1c-0.1,0.5-0.1,1-0.2,1.6v0.4c0,0.5-0.1,1.1-0.1,1.6v0.8c0,0.6,0.1,1.3,0.1,1.9v0.4l0.3,1.8
		c0.3,1.4,0.7,2.8,1.2,4.1c0,0.1,0,0.1,0.1,0.2c0.1,0.2,0.1,0.3,0.2,0.5c0.1,0.1,0.1,0.2,0.2,0.4v0.1l0.6,1.2c0,0.1,0.1,0.1,0.1,0.2
		c0.2,0.3,0.4,0.7,0.6,1c0,0,0.1,0.1,0.1,0.2c0.8,1.2,1.6,2.3,2.6,3.4l0.1,0.1c0.4,0.5,0.9,0.9,1.3,1.3l0.1,0.1l0.1,0.1
		c0,0,0.1,0,0.1,0.1l0.1,0.1c0.2,0.1,0.3,0.3,0.5,0.4c1.1,0.9,2.3,1.6,3.6,2.3c0,0,0.1,0,0.1,0.1c0.5,0.3,1.1,0.5,1.7,0.8
		c0.1,0,0.2,0.1,0.3,0.1l1.8,0.6h0.1c1.3,0.4,2.7,0.7,4.2,0.8h0.1c0.6,0.1,1.2,0.1,1.8,0.1l137.9-2.4c0.5,0,0.9-0.1,1.3-0.1
		c0.1,0,0.3,0,0.4-0.1c0.3,0,0.6-0.1,0.9-0.1h0.2c1.4-0.2,2.8-0.6,4.1-1.1c0.1,0,0.1-0.1,0.2-0.1s0.1-0.1,0.2-0.1
		c0.5-0.2,0.9-0.4,1.4-0.6c0,0,0.1,0,0.1-0.1h0.1c0,0,0.1,0,0.1-0.1c0.1,0,0.1-0.1,0.2-0.1s0.1-0.1,0.2-0.1c0,0,0.1,0,0.1-0.1
		c0.1-0.1,0.3-0.2,0.4-0.2c1.2-0.7,2.4-1.5,3.5-2.5c0.2-0.1,0.3-0.3,0.5-0.4l0.1-0.1l1.5-1.5c0,0,0.1,0,0.1-0.1l0.1-0.1v-0.1
		c0.9-1.1,1.7-2.3,2.4-3.5v-0.1c0.1-0.2,0.2-0.3,0.2-0.5c0.1-0.2,0.2-0.3,0.2-0.5v-0.1v-0.1v-0.1c0-0.1,0.1-0.2,0.1-0.3
		c0.1-0.3,0.2-0.6,0.3-0.8c0-0.1,0.1-0.2,0.1-0.2c0.4-1.3,0.8-2.7,1-4.1v-0.1c0.1-0.7,0.2-1.4,0.2-2.1v-0.1v-0.1
		C547.8,371.2,547.8,371.2,547.8,371.1C547.8,371.2,547.8,371.2,547.8,371.1C547.8,371.2,547.8,371.2,547.8,371.1
		C547.8,371.2,547.8,371.2,547.8,371.1C547.8,371.2,547.8,371.2,547.8,371.1C547.8,371.2,547.8,371.2,547.8,371.1L547.8,371.1z"/>
</g>
<g id="Слой_8" class="st15">
	<g id="XMLID_705_">
		<g id="XMLID_746_">
			<path id="XMLID_748_" class="st1" d="M439.7,337.7h28.7v16.1h-28.7V337.7z"/>
			<path id="XMLID_747_" class="st16" d="M427.8,340.8h51.1v4.9h-10.4v3h-28.8v-3h-11.9L427.8,340.8z"/>
		</g>
		<g id="XMLID_729_">
			<g id="XMLID_742_">
				<path id="XMLID_745_" class="st2" d="M309.1,256.7c-0.4,2-0.6,3.9-0.5,5.9c0.3,11.8,8.7,22.3,20.8,24.8
					c12.1,2.5,23.9-3.9,28.8-14.7c0.8-1.8,1.4-3.6,1.8-5.6l2.4-11.6l-10.8,9.8L309.1,256.7z"/>
				<path id="XMLID_744_" class="st6" d="M312.5,264c0.8,0.5,1.6,0.8,2.5,1c2.8,0.5,5.7-0.7,6.3-3.2l0.9-3.4l-12.7-2.4
					C308.5,258.9,309.7,262.2,312.5,264L312.5,264z"/>
				<path id="XMLID_743_" class="st1" d="M309.1,256.7c-0.4,2-0.6,3.9-0.5,5.9l49.6,10.1c0.8-1.8,1.4-3.6,1.8-5.6l2.4-11.6
					l-10.8,9.8L309.1,256.7z"/>
			</g>
			<path id="XMLID_741_" class="st2" d="M312.1,263.1c0.8,0.5,1.6,0.8,2.5,1c2.8,0.6,5.3-0.7,7.4-3.1l21.7-66.1l6.5-9.8
				c2.2-3.3,1.2-7.7-2-9.8c-3.3-2.2-7.7-1.2-9.8,2l-5,7.6l-23.3,68.4C308.6,257.6,308.8,261,312.1,263.1L312.1,263.1z"/>
			<path id="XMLID_740_" class="st6" d="M333.2,184.8c0.7,3.4,3.1,6.4,6.5,7.7l4.4,1.7L350,184c2-3.4,0.8-7.7-2.6-9.7
				s-7.7-0.8-9.7,2.6L333.2,184.8L333.2,184.8z"/>
			<path id="XMLID_739_" class="st2" d="M339.8,191L451,241.7l12.1,5.5c0.8,0.3,1.5,0.6,2.3,0.8c4.7,1,9.7-1.4,11.8-6
				c0.9-1.9,1.1-3.9,0.9-5.9c-0.5-3.5-2.7-6.7-6.1-8.2l-10.4-4.7l-113-51.6c-5.4-2.4-11.7-0.1-14.1,5.3
				C332.1,182.2,334.4,188.5,339.8,191L339.8,191z"/>
			<path id="XMLID_738_" class="st6" d="M453.1,239.6l0.3,3.1l11.9,5.8c0.7,0.4,1.5,0.6,2.3,0.8c4.7,1.1,9.7-1.2,12-5.7
				c0.9-1.9,1.2-3.9,1-5.8c-0.4-3.5-2.5-6.8-5.9-8.4l-10.2-5C457.4,225.8,452.4,232.3,453.1,239.6L453.1,239.6z"/>
			<path id="XMLID_737_" class="st2" d="M491.7,322.9c1.5,0,3-0.2,4.5-0.7c7.4-2.5,11.5-10.5,9-17.9l-23.2-70
				c-2.5-7.4-10.5-11.5-17.9-9s-11.5,10.5-9,17.9l23.2,70C480.2,319.1,485.7,322.9,491.7,322.9z"/>
			<circle id="XMLID_736_" class="st3" cx="468.5" cy="238.7" r="5.3"/>
			<circle id="XMLID_735_" class="st3" cx="344.2" cy="181.3" r="4.4"/>
			<circle id="XMLID_734_" class="st3" cx="316.4" cy="256.9" r="3.5"/>
			<g id="XMLID_730_">
				<path id="XMLID_733_" class="st7" d="M495.9,294.1c0.2,0,0.4,0,0.6-0.1c1-0.3,1.6-1.4,1.2-2.5l-18.6-56.1
					c-1.7-5.1-6.8-8.3-12.1-7.7c-1.1,0.1-1.8,1.1-1.7,2.2c0.1,1.1,1.1,1.8,2.2,1.7c3.5-0.4,6.8,1.7,7.9,5l18.6,56.1
					C494.3,293.6,495.1,294.1,495.9,294.1L495.9,294.1z"/>
				<path id="XMLID_732_" class="st7" d="M450.2,224.4c0.7,0.1,1.5-0.2,1.8-0.9c0.4-0.8,0-1.8-0.8-2.1l-92.6-42
					c-0.8-0.4-1.7,0-2.1,0.8s0,1.7,0.8,2.1l92.6,42C450,224.3,450.1,224.3,450.2,224.4L450.2,224.4z"/>
				<path id="XMLID_731_" class="st7" d="M318.5,250.8c0.5,0.1,1.1-0.1,1.5-0.6l18-53.9c0.3-1.1,0.3-1.5-0.4-2
					c-0.7-0.4-1.5-0.3-2,0.4l-18,54c-0.2,0.8-0.3,1.5,0.4,2C318.1,250.7,318.3,250.8,318.5,250.8z"/>
			</g>
		</g>
		<g id="XMLID_717_">
			<path id="XMLID_718_" class="st2" d="M543.9,304.7c0-3.9-3.2-7.1-7.1-7.1h-109v45.3h108.9c3.9,0,7.1-3.2,7.1-7.1L543.9,304.7
				L543.9,304.7z"/>
			<g id="XMLID_719_">
				<path id="XMLID_728_" class="st2" d="M377,252.3c-3.9,0-7.1,3.2-7.1,7.1v76.3c0,3.9,3.2,7.1,7.1,7.1h53.6v-83.4
					c0-3.9-3.2-7.1-7.1-7.1H377z"/>
				<path id="XMLID_727_" class="st17" d="M377.3,256.4h45.4c0.7,0,1.2-0.6,1.2-1.2s-0.6-1.2-1.2-1.2h-45.4c-0.7,0-1.2,0.6-1.2,1.2
					S376.7,256.4,377.3,256.4z"/>
				<path id="XMLID_726_" class="st3" d="M378.4,310.4h11c1,0,1.8-0.8,1.8-1.8s-0.8-1.8-1.8-1.8h-11c-1,0-1.8,0.8-1.8,1.8
					S377.4,310.4,378.4,310.4z"/>
				<g id="XMLID_720_">
					<path id="XMLID_725_" class="st4" d="M377.3,302h15.1l15.2,16.3h9.8c2.9,0,5.3-2.4,5.3-5.3v-49.7c0-2-1.6-3.5-3.5-3.5h-38.3
						c-2,0-3.5,1.6-3.5,3.5L377.3,302L377.3,302z"/>
					<path id="XMLID_724_" class="st5" d="M380.9,259.8c-2,0-3.5,1.6-3.5,3.5v13.2l29.6,32.6c1.6,1.1,3.7,1.1,5.4,0.2
						c1.7-0.9,2.8-2.7,2.8-4.7v-44.9L380.9,259.8L380.9,259.8z"/>
					<path id="XMLID_721_" class="st3" d="M419.2,259.8c2,0,3.5,1.6,3.5,3.5V313c0,2.9-2.4,5.3-5.3,5.3h-9.8L392.5,302h-15.1v-38.7
						c0-2,1.6-3.5,3.5-3.5H419.2L419.2,259.8z M375.6,263.3V302c0,1,0.8,1.8,1.8,1.8h14.4l14.6,15.8c0.3,0.4,0.8,0.6,1.3,0.6h9.8
						c3.9,0,7.1-3.2,7.1-7.1v-49.8c0-2.9-2.4-5.3-5.3-5.3H381C378,258,375.6,260.4,375.6,263.3z"/>
				</g>
			</g>
		</g>
		<g id="XMLID_706_">
			<g id="XMLID_708_">
				<path id="XMLID_716_" class="st18" d="M505.1,310.6h24.8c0.6,0,1.1-0.5,1.1-1.1s-0.5-1.1-1.1-1.1h-24.8c-0.6,0-1.1,0.5-1.1,1.1
					C504.1,310.1,504.5,310.6,505.1,310.6z"/>
				<path id="XMLID_715_" class="st18" d="M505.1,314.5h24.8c0.6,0,1.1-0.5,1.1-1.1s-0.5-1.1-1.1-1.1h-24.8c-0.6,0-1.1,0.5-1.1,1.1
					C504.1,314,504.5,314.5,505.1,314.5z"/>
				<path id="XMLID_714_" class="st18" d="M505.1,318.4h24.8c0.6,0,1.1-0.5,1.1-1.1s-0.5-1.1-1.1-1.1h-24.8c-0.6,0-1.1,0.5-1.1,1.1
					C504.1,317.9,504.5,318.4,505.1,318.4z"/>
				<path id="XMLID_713_" class="st18" d="M505.1,322.2h24.8c0.6,0,1.1-0.5,1.1-1.1s-0.5-1.1-1.1-1.1h-24.8c-0.6,0-1.1,0.5-1.1,1.1
					C504.1,321.8,504.5,322.2,505.1,322.2z"/>
				<path id="XMLID_712_" class="st18" d="M505.1,326.1h24.8c0.6,0,1.1-0.5,1.1-1.1s-0.5-1.1-1.1-1.1h-24.8c-0.6,0-1.1,0.5-1.1,1.1
					S504.5,326.1,505.1,326.1z"/>
				<path id="XMLID_711_" class="st18" d="M505.1,330h24.8c0.6,0,1.1-0.5,1.1-1.1s-0.5-1.1-1.1-1.1h-24.8c-0.6,0-1.1,0.5-1.1,1.1
					C504.1,329.5,504.5,330,505.1,330z"/>
				<path id="XMLID_710_" class="st18" d="M505.1,333.9h24.8c0.6,0,1.1-0.5,1.1-1.1s-0.5-1.1-1.1-1.1h-24.8c-0.6,0-1.1,0.5-1.1,1.1
					C504.1,333.4,504.5,333.9,505.1,333.9z"/>
				<path id="XMLID_709_" class="st18" d="M505.1,337.7h24.8c0.6,0,1.1-0.5,1.1-1.1s-0.5-1.1-1.1-1.1h-24.8c-0.6,0-1.1,0.5-1.1,1.1
					C504.1,337.3,504.5,337.7,505.1,337.7z"/>
			</g>
			<path id="XMLID_707_" class="st7" d="M433.7,303.7h101c1,0,1.8-0.8,1.8-1.8s-0.8-1.8-1.8-1.8h-101c-1,0-1.8,0.8-1.8,1.8
				S432.7,303.7,433.7,303.7L433.7,303.7z"/>
		</g>
		<g id="XMLID_73_">
			<g id="XMLID_74_">
				<path id="XMLID_640_" class="st19" d="M366.4,371.2c0,13.1,10.6,23.8,23.8,23.8H524c13.1,0,23.8-10.6,23.8-23.8
					c0-2.5-0.4-4.9-1.1-7.2c-3-9.6-12-16.6-22.7-16.6H390.2c-10.6,0-19.6,7-22.7,16.6C366.8,366.3,366.4,368.7,366.4,371.2z"/>
				<path id="XMLID_639_" class="st18" d="M367.5,364c7-4.6,12.8-8.1,22.7-8.1H524c9.8,0,17.6,3,22.7,8.1c-3-9.6-12-16.6-22.7-16.6
					H390.2C379.6,347.4,370.6,354.4,367.5,364z"/>
				<g id="XMLID_585_">
					<path id="XMLID_636_" class="st3" d="M524,351c11.2,0,20.2,9.1,20.2,20.2c0,11.2-9.1,20.2-20.2,20.2H390.2
						c-11.2,0-20.2-9.1-20.2-20.2c0-11.2,9.1-20.2,20.2-20.2H524z M366.4,371.2c0,13.1,10.6,23.8,23.8,23.8H524
						c13.1,0,23.8-10.6,23.8-23.8c0-13.1-10.6-23.8-23.8-23.8H390.2C377,347.4,366.4,358.1,366.4,371.2z"/>
					<path id="XMLID_586_" class="st3" d="M390.2,352.8h4.3v-5.3h-4.3V352.8z M398.7,352.8h4.3v-5.3h-4.3V352.8z M407.2,352.8h4.3
						v-5.3h-4.3V352.8z M415.7,352.8h4.3v-5.3h-4.3V352.8z M424.3,352.8h4.3v-5.3h-4.3V352.8z M432.8,352.8h4.3v-5.3h-4.3V352.8z
						 M441.3,352.8h4.3v-5.3h-4.3V352.8z M449.8,352.8h4.3v-5.3h-4.3V352.8z M458.3,352.8h4.3v-5.3h-4.3V352.8z M466.8,352.8h4.3
						v-5.3h-4.3V352.8z M475.4,352.8h4.3v-5.3h-4.3V352.8z M483.9,352.8h4.3v-5.3h-4.3V352.8z M492.4,352.8h4.3v-5.3h-4.3V352.8z
						 M500.9,352.8h4.3v-5.3h-4.3V352.8z M509.4,352.8h4.3v-5.3h-4.3V352.8L509.4,352.8z M518,352.8h4.3v-5.3H518V352.8z
						 M525.9,352.9c1.1,0.1,2.2,0.3,3.2,0.6l1.5-5.1c-0.1,0-0.2-0.1-0.3-0.1h-0.1c-1.1-0.3-2.2-0.5-3.4-0.6L525.9,352.9L525.9,352.9
						z M532.2,354.7c1,0.5,1.9,1.1,2.8,1.7l3.2-4.3c-0.1-0.1-0.2-0.2-0.4-0.3c0,0-0.1,0-0.1-0.1c-0.6-0.4-1.3-0.8-2-1.2
						c-0.2-0.1-0.3-0.2-0.5-0.3L532.2,354.7L532.2,354.7z M537.5,358.6c0.8,0.8,1.4,1.7,2,2.6l4.5-2.9c-0.2-0.3-0.4-0.5-0.5-0.8
						l-0.1-0.1v-0.1c0,0,0-0.1-0.1-0.1c0,0,0-0.1-0.1-0.1l-0.1-0.1v-0.1v-0.1l-0.1-0.1v-0.1l-0.6-0.6L537.5,358.6L537.5,358.6z
						 M541.1,364.2c0.4,1,0.7,2.1,1,3.1l5.2-1.1c0-0.1,0-0.2-0.1-0.3v-0.1v-0.1v-0.1c-0.1-0.3-0.2-0.6-0.2-0.9v-0.2v-0.1v-0.1v-0.1
						v-0.1V364v-0.1v-0.1c-0.1-0.3-0.2-0.6-0.3-0.8L541.1,364.2L541.1,364.2z M542.4,370.6v0.6c0,0.9-0.1,1.8-0.2,2.7l5.3,0.8
						c0.1-0.7,0.2-1.5,0.2-2.2v-0.1v-0.1v-0.5L542.4,370.6L542.4,370.6z M540.2,380.1l4.7,2.6c0.2-0.3,0.4-0.7,0.5-1v-0.1v-0.1v-0.1
						c0.2-0.4,0.3-0.9,0.5-1.3l-5-1.7C541.1,378.2,540.7,379.2,540.2,380.1z M536,385.2l3.5,4c0.2-0.1,0.3-0.3,0.5-0.4
						c0.6-0.5,1.1-1.1,1.7-1.7l0.1-0.1v-0.1l-4.1-3.4C537.6,383.7,536.8,384.5,536,385.2z M530.3,388.6l1.8,5c0.1,0,0.1-0.1,0.2-0.1
						c0.6-0.2,1.1-0.5,1.7-0.7h0.1c0,0,0.1,0,0.1-0.1c0.1,0,0.1-0.1,0.2-0.1s0.1-0.1,0.2-0.1c0,0,0.1,0,0.1-0.1
						c0.1-0.1,0.3-0.2,0.4-0.2l-2.7-4.6C532.4,387.7,531.4,388.2,530.3,388.6L530.3,388.6z M524,389.7h-0.2v5.3h0.7
						c1,0,1.9-0.2,2.9-0.3l-0.9-5.2C526.1,389.6,525.1,389.7,524,389.7z M515.3,395h4.3v-5.3h-4.3V395z M506.8,395h4.3v-5.3h-4.3
						V395z M498.3,395h4.3v-5.3h-4.3V395z M489.7,395h4.3v-5.3h-4.3V395z M481.2,395h4.3v-5.3h-4.3V395z M472.7,395h4.3v-5.3h-4.3
						V395z M464.2,395h4.3v-5.3h-4.3V395z M455.7,395h4.3v-5.3h-4.3V395z M447.2,395h4.3v-5.3h-4.3V395z M438.6,395h4.3v-5.3h-4.3
						V395L438.6,395z M430.1,395h4.3v-5.3h-4.3V395z M421.6,395h4.3v-5.3h-4.3V395L421.6,395z M413.1,395h4.3v-5.3h-4.3V395z
						 M404.6,395h4.3v-5.3h-4.3V395L404.6,395z M396,395h4.3v-5.3H396V395z M387.5,394.9c0.7,0.1,1.4,0.1,2,0.1h1.7v-5.3h-1.6
						c-0.7,0-1.4,0-2.1-0.1V394.9L387.5,394.9z M379.4,392.4c1.3,0.6,2.6,1.2,3.9,1.6l1.5-5.1c-1.1-0.3-2.1-0.7-3.1-1.2L379.4,392.4
						z M372.7,387.3l1.5,1.5l0.1,0.1c0,0,0.1,0,0.1,0.1l0.1,0.1c0.2,0.1,0.3,0.3,0.5,0.4l3.2-4.2c-0.9-0.7-1.7-1.4-2.4-2.2
						L372.7,387.3L372.7,387.3z M368.1,380.2c0.1,0.4,0.3,0.7,0.5,1c0.4,0.9,0.9,1.8,1.4,2.6l4.5-2.8c-0.6-0.9-1.1-1.9-1.5-2.9
						L368.1,380.2L368.1,380.2z M366.4,371.9c0,1.4,0.2,2.9,0.5,4.2l5.2-1.1c-0.2-1.1-0.3-2.2-0.4-3.3L366.4,371.9L366.4,371.9z
						 M367.3,364.7C367.3,364.8,367.3,364.8,367.3,364.7v0.2c-0.1,0.4-0.2,0.8-0.3,1.1v0.1c-0.1,0.3-0.1,0.6-0.2,0.9l5.3,0.8
						c0.2-1.1,0.4-2.2,0.8-3.2l-5-1.7C367.6,363.9,367.4,364.3,367.3,364.7L367.3,364.7z M371.6,356.4
						C371.5,356.5,371.5,356.5,371.6,356.4c-0.1,0.1-0.1,0.1-0.1,0.2l-0.1,0.1v0.1l-0.1,0.1c-0.5,0.7-0.9,1.3-1.3,2l4.6,2.6
						c0.5-1,1.2-1.9,1.9-2.7l-4.1-3.4C371.8,356.2,371.7,356.3,371.6,356.4L371.6,356.4z M377.8,350.9
						C377.8,351,377.8,351,377.8,350.9C377.7,351,377.7,351,377.8,350.9C377.7,351,377.7,351,377.8,350.9
						C377.7,351,377.7,351,377.8,350.9C377.7,351,377.7,351,377.8,350.9C377.7,351,377.7,351,377.8,350.9
						C377.7,351,377.7,351,377.8,350.9C377.7,351,377.7,351,377.8,350.9C377.7,351,377.7,351,377.8,350.9
						C377.7,351,377.7,351,377.8,350.9C377.7,351,377.7,351,377.8,350.9l-0.1,0.1c0,0-0.1,0-0.1,0.1c-0.1,0-0.1,0.1-0.2,0.1
						c-0.8,0.5-1.6,1.1-2.3,1.7l3.4,4.1c0.8-0.7,1.8-1.4,2.7-1.9l-2.7-4.6C378.1,350.7,377.9,350.8,377.8,350.9L377.8,350.9z
						 M386.3,347.8C386.2,347.8,386.2,347.8,386.3,347.8C386.2,347.8,386.2,347.8,386.3,347.8C386.2,347.8,386.2,347.8,386.3,347.8
						C386.2,347.8,386.2,347.8,386.3,347.8C386.2,347.8,386.2,347.8,386.3,347.8C386.2,347.8,386.2,347.8,386.3,347.8
						C386.2,347.8,386.2,347.8,386.3,347.8h-0.1h-0.1c-0.8,0.2-1.6,0.4-2.3,0.6h-0.1c-0.2,0.1-0.4,0.1-0.6,0.2l1.8,5
						c1-0.4,2.1-0.6,3.2-0.8L386.3,347.8z"/>
				</g>
				<g id="XMLID_539_">
					<g id="XMLID_580_">
						<path id="XMLID_582_" class="st6" d="M487.1,380.6c0-4.7,3.8-8.5,8.5-8.5s8.5,3.8,8.5,8.5s-3.8,8.5-8.5,8.5
							C490.9,389.2,487.1,385.3,487.1,380.6z M490.3,380.6c0,2.9,2.4,5.3,5.3,5.3s5.3-2.4,5.3-5.3s-2.4-5.3-5.3-5.3
							S490.3,377.7,490.3,380.6z"/>
						<circle id="XMLID_581_" class="st6" cx="495.6" cy="380.6" r="2.3"/>
					</g>
					<g id="XMLID_575_">
						<path id="XMLID_577_" class="st6" d="M468.1,380.6c0-4.7,3.8-8.5,8.5-8.5s8.5,3.8,8.5,8.5s-3.8,8.5-8.5,8.5
							C471.9,389.2,468.1,385.3,468.1,380.6z M471.3,380.6c0,2.9,2.4,5.3,5.3,5.3s5.3-2.4,5.3-5.3s-2.4-5.3-5.3-5.3
							S471.3,377.7,471.3,380.6z"/>
						<circle id="XMLID_576_" class="st6" cx="476.6" cy="380.6" r="2.3"/>
					</g>
					<g id="XMLID_570_">
						<path id="XMLID_572_" class="st6" d="M449.1,380.6c0-4.7,3.8-8.5,8.5-8.5s8.5,3.8,8.5,8.5s-3.8,8.5-8.5,8.5
							C452.9,389.2,449.1,385.3,449.1,380.6z M452.3,380.6c0,2.9,2.4,5.3,5.3,5.3s5.3-2.4,5.3-5.3s-2.4-5.3-5.3-5.3
							S452.3,377.7,452.3,380.6z"/>
						<circle id="XMLID_571_" class="st6" cx="457.6" cy="380.6" r="2.3"/>
					</g>
					<g id="XMLID_565_">
						<path id="XMLID_567_" class="st6" d="M430.1,380.6c0-4.7,3.8-8.5,8.5-8.5s8.5,3.8,8.5,8.5s-3.8,8.5-8.5,8.5
							C433.9,389.2,430.1,385.3,430.1,380.6z M433.3,380.6c0,2.9,2.4,5.3,5.3,5.3s5.3-2.4,5.3-5.3s-2.4-5.3-5.3-5.3
							S433.3,377.7,433.3,380.6z"/>
						<circle id="XMLID_566_" class="st6" cx="438.6" cy="380.6" r="2.3"/>
					</g>
					<g id="XMLID_560_">
						<path id="XMLID_562_" class="st6" d="M411.1,380.6c0-4.7,3.8-8.5,8.5-8.5s8.5,3.8,8.5,8.5s-3.8,8.5-8.5,8.5
							S411.1,385.3,411.1,380.6z M414.3,380.6c0,2.9,2.4,5.3,5.3,5.3s5.3-2.4,5.3-5.3s-2.4-5.3-5.3-5.3S414.3,377.7,414.3,380.6z"/>
						<circle id="XMLID_561_" class="st6" cx="419.6" cy="380.6" r="2.3"/>
					</g>
					<g id="XMLID_550_">
						<path id="XMLID_557_" class="st6" d="M402.6,373.4c0,6.3-5.1,11.4-11.4,11.4s-11.4-5.1-11.4-11.4s5.1-11.4,11.4-11.4
							S402.6,367.1,402.6,373.4z M376.3,373.4c0,8.2,6.7,14.9,14.9,14.9s14.9-6.7,14.9-14.9s-6.7-14.9-14.9-14.9
							S376.3,365.1,376.3,373.4z"/>
						<g id="XMLID_555_">
							<circle id="XMLID_556_" class="st6" cx="391.2" cy="373.4" r="4.8"/>
						</g>
						<path id="XMLID_554_" class="st6" d="M390.2,358.6h2.1v29.6h-2.1V358.6z"/>
						<path id="XMLID_553_" class="st6" d="M402.4,363.7l-20.9,20.9l-1.5-1.5l20.9-20.9L402.4,363.7z"/>
						<path id="XMLID_552_" class="st6" d="M376.5,372.3h29.6v2.1h-29.6V372.3z"/>
						<path id="XMLID_551_" class="st6" d="M402.4,383l-1.5,1.5L380,363.6l1.5-1.5L402.4,383z"/>
					</g>
					<g id="XMLID_540_">
						<path id="XMLID_547_" class="st6" d="M535.3,373.4c0,6.3-5.1,11.4-11.4,11.4c-6.3,0-11.4-5.1-11.4-11.4s5.1-11.4,11.4-11.4
							C530.3,362,535.3,367.1,535.3,373.4z M509.1,373.4c0,8.2,6.7,14.9,14.9,14.9s14.9-6.7,14.9-14.9s-6.7-14.9-14.9-14.9
							S509.1,365.1,509.1,373.4L509.1,373.4z"/>
						<g id="XMLID_545_">
							<circle id="XMLID_546_" class="st6" cx="524" cy="373.4" r="4.8"/>
						</g>
						<path id="XMLID_544_" class="st6" d="M522.9,358.6h2.1v29.6h-2.1V358.6z"/>
						<path id="XMLID_543_" class="st6" d="M535.2,363.6l-20.9,20.9l-1.5-1.5l20.9-20.9L535.2,363.6z"/>
						<path id="XMLID_542_" class="st6" d="M509.2,372.3h29.6v2.1h-29.6V372.3z"/>
						<path id="XMLID_541_" class="st6" d="M535.2,383l-1.5,1.5l-20.9-20.9l1.5-1.5L535.2,383z"/>
					</g>
				</g>
				<g id="XMLID_75_">
					<g id="XMLID_534_">
						<path id="XMLID_536_" class="st7" d="M487.1,378.5c0-4.7,3.8-8.5,8.5-8.5s8.5,3.8,8.5,8.5s-3.8,8.5-8.5,8.5
							S487.1,383.2,487.1,378.5z M490.3,378.5c0,2.9,2.4,5.3,5.3,5.3s5.3-2.4,5.3-5.3s-2.4-5.3-5.3-5.3
							C492.7,373.1,490.3,375.5,490.3,378.5z"/>
						<circle id="XMLID_535_" class="st7" cx="495.6" cy="378.5" r="2.3"/>
					</g>
					<g id="XMLID_529_">
						<path id="XMLID_531_" class="st7" d="M468.1,378.5c0-4.7,3.8-8.5,8.5-8.5s8.5,3.8,8.5,8.5s-3.8,8.5-8.5,8.5
							S468.1,383.2,468.1,378.5z M471.3,378.5c0,2.9,2.4,5.3,5.3,5.3s5.3-2.4,5.3-5.3s-2.4-5.3-5.3-5.3
							C473.7,373.1,471.3,375.5,471.3,378.5z"/>
						<circle id="XMLID_530_" class="st7" cx="476.6" cy="378.5" r="2.3"/>
					</g>
					<g id="XMLID_524_">
						<path id="XMLID_526_" class="st7" d="M449.1,378.5c0-4.7,3.8-8.5,8.5-8.5s8.5,3.8,8.5,8.5s-3.8,8.5-8.5,8.5
							S449.1,383.2,449.1,378.5z M452.3,378.5c0,2.9,2.4,5.3,5.3,5.3s5.3-2.4,5.3-5.3s-2.4-5.3-5.3-5.3
							C454.7,373.1,452.3,375.5,452.3,378.5z"/>
						<circle id="XMLID_525_" class="st7" cx="457.6" cy="378.5" r="2.3"/>
					</g>
					<g id="XMLID_519_">
						<path id="XMLID_521_" class="st7" d="M430.1,378.5c0-4.7,3.8-8.5,8.5-8.5s8.5,3.8,8.5,8.5s-3.8,8.5-8.5,8.5
							S430.1,383.2,430.1,378.5z M433.3,378.5c0,2.9,2.4,5.3,5.3,5.3s5.3-2.4,5.3-5.3s-2.4-5.3-5.3-5.3
							C435.7,373.1,433.3,375.5,433.3,378.5z"/>
						<circle id="XMLID_520_" class="st7" cx="438.6" cy="378.5" r="2.3"/>
					</g>
					<g id="XMLID_514_">
						<path id="XMLID_516_" class="st7" d="M411.1,378.5c0-4.7,3.8-8.5,8.5-8.5s8.5,3.8,8.5,8.5s-3.8,8.5-8.5,8.5
							S411.1,383.2,411.1,378.5z M414.3,378.5c0,2.9,2.4,5.3,5.3,5.3s5.3-2.4,5.3-5.3s-2.4-5.3-5.3-5.3
							C416.7,373.1,414.3,375.5,414.3,378.5z"/>
						<circle id="XMLID_515_" class="st7" cx="419.6" cy="378.5" r="2.3"/>
					</g>
					<g id="XMLID_504_">
						<path id="XMLID_511_" class="st7" d="M402.6,371.2c0,6.3-5.1,11.4-11.4,11.4s-11.4-5.1-11.4-11.4s5.1-11.4,11.4-11.4
							C397.5,359.9,402.6,365,402.6,371.2z M376.3,371.2c0,8.2,6.7,14.9,14.9,14.9s14.9-6.7,14.9-14.9s-6.7-14.9-14.9-14.9
							S376.3,363,376.3,371.2z"/>
						<g id="XMLID_509_">
							<circle id="XMLID_510_" class="st7" cx="391.2" cy="371.2" r="4.8"/>
						</g>
						<path id="XMLID_508_" class="st7" d="M390.2,356.5h2.1v29.6h-2.1V356.5z"/>
						<path id="XMLID_507_" class="st7" d="M402.4,361.5l-20.9,20.9l-1.5-1.5l20.9-20.9L402.4,361.5z"/>
						<path id="XMLID_506_" class="st7" d="M376.5,370.2h29.6v2.1h-29.6V370.2z"/>
						<path id="XMLID_505_" class="st7" d="M402.4,380.9l-1.5,1.5L380,361.5l1.5-1.5L402.4,380.9z"/>
					</g>
					<g id="XMLID_76_">
						<path id="XMLID_83_" class="st7" d="M535.3,371.2c0,6.3-5.1,11.4-11.4,11.4c-6.3,0-11.4-5.1-11.4-11.4s5.1-11.4,11.4-11.4
							C530.3,359.9,535.3,365,535.3,371.2z M509.1,371.2c0,8.2,6.7,14.9,14.9,14.9s14.9-6.7,14.9-14.9s-6.7-14.9-14.9-14.9
							S509.1,363,509.1,371.2L509.1,371.2z"/>
						<g id="XMLID_81_">
							<circle id="XMLID_82_" class="st7" cx="524" cy="371.2" r="4.8"/>
						</g>
						<path id="XMLID_80_" class="st7" d="M522.9,356.5h2.1v29.6h-2.1V356.5z"/>
						<path id="XMLID_79_" class="st7" d="M535.2,361.5l-20.9,20.9l-1.5-1.5l20.9-20.9L535.2,361.5z"/>
						<path id="XMLID_78_" class="st7" d="M509.2,370.2h29.6v2.1h-29.6V370.2z"/>
						<path id="XMLID_77_" class="st7" d="M535.2,380.9l-1.5,1.5l-20.9-21l1.5-1.5L535.2,380.9z"/>
					</g>
				</g>
			</g>
		</g>
	</g>
</g>
<g id="Слой_7">
	<path id="XMLID_879_" class="st14" d="M731.6,363.6C731.6,363.5,731.6,363.5,731.6,363.6C731.6,363.5,731.6,363.5,731.6,363.6
		C731.6,363.5,731.6,363.5,731.6,363.6v-0.1v-0.6c0-0.4,0-0.7-0.1-1.1v-0.5c-0.1-0.7-0.1-1.4-0.2-2.1V359c-0.1-0.5-0.2-1.1-0.3-1.6
		c0-0.1-0.1-0.3-0.1-0.4s-0.1-0.3-0.1-0.4c0-0.2-0.1-0.3-0.1-0.5c-0.1-0.4-0.2-0.8-0.4-1.2v-0.2v-0.1v-0.1c-0.1-0.4-0.3-0.8-0.4-1.1
		c0-0.1-0.1-0.3-0.2-0.4c-0.1-0.2-0.1-0.4-0.2-0.5c0-0.1,0-0.1-0.1-0.2v-0.1c-0.3-0.6-0.6-1.3-0.9-1.9c-0.1-0.1-0.1-0.2-0.2-0.3
		c-0.3-0.6-0.7-1.3-1-1.9c-0.1-0.2-0.3-0.5-0.5-0.7c0-0.1-0.1-0.1-0.1-0.2l-0.6-0.9c-0.1-0.1-0.1-0.2-0.2-0.3
		c-0.2-0.2-0.3-0.5-0.5-0.7c-0.1-0.1-0.2-0.2-0.2-0.3c-0.2-0.2-0.4-0.5-0.6-0.7l-0.2-0.2c-0.3-0.3-0.6-0.7-0.9-1l-0.1-0.1
		c-0.1-0.2-0.3-0.3-0.5-0.5l-0.2-0.2c-0.5-0.5-1-1-1.6-1.5c-0.1-0.1-0.2-0.2-0.3-0.2c-0.5-0.5-1.1-0.9-1.6-1.3h-0.1
		c-0.4-0.3-0.9-0.6-1.4-1c-0.1-0.1-0.3-0.2-0.4-0.3c-0.1-0.1-0.2-0.1-0.3-0.2c-0.3-0.2-0.5-0.3-0.8-0.5c-0.1-0.1-0.2-0.1-0.3-0.2
		c-0.1,0-0.1-0.1-0.2-0.1c0,0-0.1,0-0.1-0.1c-0.1,0-0.2-0.1-0.3-0.1c0,0-0.1,0-0.1-0.1c-0.2-0.1-0.3-0.2-0.5-0.2
		c-0.5-0.2-1-0.5-1.5-0.7c-0.1,0-0.1-0.1-0.2-0.1c-0.7-0.3-1.3-0.5-2-0.8c-0.1-0.1-0.3-0.1-0.4-0.2c-0.3-0.1-0.7-0.2-1-0.3
		c-0.1,0-0.3-0.1-0.4-0.1c-0.2-0.1-0.4-0.1-0.6-0.2c-0.1,0-0.2,0-0.3-0.1c-0.1,0-0.2-0.1-0.3-0.1h-0.1h-0.1h-0.1
		c-0.3-0.1-0.6-0.1-0.8-0.1c-0.1,0-0.3,0-0.4-0.1h-0.1h-0.1c-0.5-0.1-1-0.1-1.5-0.2h-0.9c-0.7-0.1-1.4-0.1-2.2-0.1h-0.1v-84.3
		c0-5.1-4.1-9.2-9.2-9.2h-60.3c-5.1,0-9.2,4.1-9.2,9.2v42.8h-36v-20.7h-2.3v-9.7c0-4.4-3.6-8.1-8.1-8.1h-7l3.9,6.9h3.1
		c0.6,0,1.2,0.5,1.2,1.2v9.7h-2.3v20.7h-38.1c-0.6,0-1.2,0.1-1.8,0.2c-1.4-4.7-5.8-8.1-11-8.1h-7.1c-3.5,2.8-6.2,7-5.6,11.5
		c0.7,5,2.2,7.9,5.7,10.7l7.1,0.1c1.3,0,2.5-0.2,3.6-0.6l-0.2,27l-2,1.6c-0.7,0-1.5,0-2.2,0.1h-0.5l-2.1,0.3h-0.6
		c-0.5,0.1-0.9,0.2-1.4,0.3c-0.1,0-0.2,0-0.3,0.1c-0.1,0-0.2,0.1-0.3,0.1s-0.2,0.1-0.4,0.1c-0.4,0.1-0.9,0.3-1.3,0.4
		c-0.2,0.1-0.3,0.1-0.5,0.2h-0.1c-0.1,0-0.1,0-0.2,0.1c-0.6,0.2-1.1,0.4-1.7,0.7c-0.1,0-0.1,0.1-0.2,0.1l-1.8,0.9
		c-0.1,0.1-0.2,0.1-0.4,0.2c-0.3,0.2-0.6,0.3-0.9,0.5c-0.1,0.1-0.3,0.2-0.4,0.3h-0.1c0,0-0.1,0-0.1,0.1h-0.1c0,0-0.1,0-0.1,0.1
		c-0.1,0-0.1,0.1-0.1,0.1l-0.2,0.2c-0.4,0.3-0.9,0.7-1.3,1l-0.1,0.1l-0.2,0.2l-0.3,0.3c-0.5,0.5-1.1,1-1.6,1.5l-0.2,0.2
		c-0.5,0.5-0.9,1-1.4,1.5l-0.2,0.2l-0.1,0.1c-0.4,0.5-0.8,0.9-1.1,1.4c0,0.1-0.1,0.1-0.1,0.2s-0.1,0.1-0.1,0.2
		c-0.2,0.2-0.3,0.4-0.4,0.7c-0.1,0.2-0.3,0.4-0.4,0.6c-0.1,0.1-0.1,0.2-0.2,0.3s-0.2,0.3-0.2,0.4c-0.1,0.1-0.2,0.3-0.3,0.4
		c-0.1,0.1-0.2,0.3-0.2,0.4l-19.1-0.1c-0.9-1.3-2-2.2-3.6-2.7v-38.7l-4.1,0.1c-6.4,39.7-33.7,72.9-71.4,86.9l70.9-8.7l4.6-1.7v-24.5
		c1.5-0.5,2.8-1.6,3.7-2.9h15.5c0,0.1,0.6,0.4,0.5,0.4c0,0.2-0.1,0.3-0.1,0.5c-0.1,0.4-0.2,0.8-0.2,1.3v0.1
		c-0.1,0.7-0.2,1.4-0.2,2.1v0.5c0,0.7-0.1,1.4-0.1,2.2v1.8c0,0.3,0,0.6,0.1,0.9c0,0.2,0,0.4,0.1,0.6c0,0.3,0.1,0.6,0.1,0.9
		c0,0.2,0,0.4,0.1,0.6c0.1,0.4,0.1,0.7,0.2,1.1c0,0.1,0,0.3,0.1,0.4c0.4,1.8,0.9,3.6,1.6,5.3c0,0.1,0.1,0.2,0.1,0.3
		c0,0.1,0,0.1,0.1,0.2c0,0.1,0.1,0.1,0.1,0.2c0,0,0,0.1,0.1,0.1v0.1c0,0,0,0.1,0.1,0.1c0.2,0.5,0.5,1,0.7,1.4
		c0.1,0.1,0.1,0.2,0.2,0.4c0.2,0.3,0.4,0.7,0.6,1c0,0,0,0.1,0.1,0.1l0.1,0.1c1,1.6,2.1,3,3.4,4.4l0.3,0.3l0.8,0.8l0.4,0.4l0.7,0.7
		l0.2,0.2c0,0,0.1,0,0.1,0.1h0.1l0.1,0.1c0.2,0.1,0.3,0.3,0.5,0.4s0.4,0.3,0.5,0.4c1.5,1.1,3,2.1,4.7,2.9c0.1,0.1,0.2,0.1,0.3,0.2
		l0.6,0.3c0.2,0.1,0.5,0.2,0.7,0.3l0.6,0.3c0.2,0.1,0.5,0.2,0.8,0.3c0.2,0.1,0.4,0.2,0.6,0.2c0.3,0.1,0.5,0.2,0.8,0.3
		c0.2,0.1,0.4,0.1,0.6,0.2c0.1,0,0.1,0,0.2,0.1c1.7,0.5,3.6,0.9,5.4,1.1h0.3c0.5,0,1,0.1,1.5,0.1l175.7-1c0.6,0,1.2-0.1,1.7-0.1h0.1
		c0.6-0.1,1.2-0.1,1.8-0.2h0.3c1.8-0.3,3.6-0.8,5.3-1.4c0.1,0,0.1,0,0.2-0.1h0.2c0.1,0,0.1-0.1,0.2-0.1c0.7-0.3,1.3-0.5,1.9-0.9
		c0.1,0,0.1-0.1,0.2-0.1l1.8-0.9c0.1,0,0.2-0.1,0.2-0.1c1.6-0.9,3.1-2,4.5-3.2l0.2-0.2c0.4-0.3,0.7-0.6,1.1-1l0.3-0.3
		c0.4-0.4,0.8-0.9,1.3-1.3l0.1-0.1c0,0,0-0.1,0.1-0.1c0.1-0.2,0.3-0.3,0.4-0.5c0.1-0.1,0.1-0.2,0.2-0.2l0.1-0.1
		c1.2-1.4,2.2-3,3.1-4.6v-0.1l0.9-1.8c0-0.1,0.1-0.1,0.1-0.2s0.1-0.2,0.1-0.3c0-0.1,0.1-0.2,0.1-0.3c0-0.1,0.1-0.1,0.1-0.2v-0.1
		c0,0,0-0.1,0.1-0.1c0-0.1,0-0.1,0.1-0.2c0.1-0.3,0.3-0.7,0.4-1c0-0.1,0-0.1,0.1-0.2c0-0.1,0-0.1,0.1-0.2v-0.1
		c0.6-1.7,1-3.5,1.3-5.4v-0.1v-0.1v-0.1v-0.1v-0.1C731.6,363.7,731.6,363.7,731.6,363.6C731.6,363.7,731.6,363.7,731.6,363.6
		C731.6,363.7,731.6,363.7,731.6,363.6L731.6,363.6z"/>
</g>
<g id="Слой_4" class="st20">
	<g id="XMLID_198_">
		<g id="XMLID_360_">
			<g id="XMLID_388_">
				<g id="XMLID_389_">
					<path id="XMLID_390_" class="st21" d="M576.6,253.2h-7l3.9,6.9h3.1c0.6,0,1.2,0.5,1.2,1.2v34h6.9v-34
						C584.7,256.9,581.1,253.2,576.6,253.2L576.6,253.2z"/>
				</g>
				<path id="XMLID_391_" class="st21" d="M575.5,271H587v21.5h-11.5V271z"/>
			</g>
			<path id="XMLID_387_" class="st2" d="M701.8,248.9c0-5.1-4.1-9.2-9.2-9.2h-60.3c-5.1,0-9.2,4.1-9.2,9.2v42.8h-85.7
				c-1.4,0-2.7,0.3-3.9,0.9c-3.1,1.5-5.3,4.7-5.3,8.3v47h94.9v9.2h78.8L701.8,248.9L701.8,248.9z"/>
			<path id="XMLID_386_" class="st7" d="M545,300h72.5c1.4,0,2.5-1.1,2.5-2.5s-1.1-2.5-2.5-2.5H545c-1.4,0-2.5,1.1-2.5,2.5
				C542.4,298.8,543.6,300,545,300z"/>
			<path id="XMLID_385_" class="st7" d="M633.2,245h59c0.9,0,1.6-0.7,1.6-1.6c0-0.9-0.7-1.6-1.6-1.6h-59c-0.9,0-1.6,0.7-1.6,1.6
				C631.5,244.2,632.3,245,633.2,245z"/>
			<path id="XMLID_384_" class="st3" d="M676.5,315.1h14.3c1.3,0,2.3-1,2.3-2.3s-1-2.3-2.3-2.3h-14.3c-1.3,0-2.3,1-2.3,2.3
				C674.2,314,675.2,315.1,676.5,315.1z"/>
			<g id="XMLID_374_">
				<path id="XMLID_383_" class="st6" d="M544.4,324.1h1.4c0.5,0,0.9-0.4,0.9-0.9v-15.7c0-0.5-0.4-0.9-0.9-0.9h-1.4v1.8h0.5v13.8
					h-0.5V324.1L544.4,324.1z"/>
				<path id="XMLID_382_" class="st6" d="M551.1,324.1h1.4c0.5,0,0.9-0.4,0.9-0.9v-15.7c0-0.5-0.4-0.9-0.9-0.9h-1.4v1.8h0.5v13.8
					h-0.5V324.1L551.1,324.1z"/>
				<path id="XMLID_381_" class="st6" d="M557.9,324.1h1.4c0.5,0,0.9-0.4,0.9-0.9v-15.7c0-0.5-0.4-0.9-0.9-0.9h-1.4v1.8h0.5v13.8
					h-0.5V324.1L557.9,324.1z"/>
				<path id="XMLID_380_" class="st6" d="M564.6,324.1h1.4c0.5,0,0.9-0.4,0.9-0.9v-15.7c0-0.5-0.4-0.9-0.9-0.9h-1.4v1.8h0.5v13.8
					h-0.5V324.1L564.6,324.1z"/>
				<path id="XMLID_379_" class="st6" d="M571.3,324.1h1.4c0.5,0,0.9-0.4,0.9-0.9v-15.7c0-0.5-0.4-0.9-0.9-0.9h-1.4v1.8h0.5v13.8
					h-0.5V324.1L571.3,324.1z"/>
				<path id="XMLID_378_" class="st6" d="M578,324.1h1.4c0.5,0,0.9-0.4,0.9-0.9v-15.7c0-0.5-0.4-0.9-0.9-0.9H578v1.8h0.5v13.8H578
					V324.1L578,324.1z"/>
				<path id="XMLID_377_" class="st6" d="M584.7,324.1h1.4c0.5,0,0.9-0.4,0.9-0.9v-15.7c0-0.5-0.4-0.9-0.9-0.9h-1.4v1.8h0.5v13.8
					h-0.5V324.1L584.7,324.1z"/>
				<path id="XMLID_376_" class="st6" d="M591.4,324.1h1.4c0.5,0,0.9-0.4,0.9-0.9v-15.7c0-0.5-0.4-0.9-0.9-0.9h-1.4v1.8h0.5v13.8
					h-0.5V324.1L591.4,324.1z"/>
				<path id="XMLID_375_" class="st6" d="M598.2,324.1h1.4c0.5,0,0.9-0.4,0.9-0.9v-15.7c0-0.5-0.4-0.9-0.9-0.9h-1.4v1.8h0.5v13.8
					h-0.5V324.1L598.2,324.1z"/>
			</g>
			<g id="XMLID_367_">
				<path id="XMLID_373_" class="st6" d="M536.7,299.7c0,5.1-3.3,9.4-7.9,10.9v-9.9c0-3.7,2.2-6.9,5.3-8.3
					C535.7,294.4,536.7,296.9,536.7,299.7L536.7,299.7z"/>
				<path id="XMLID_372_" class="st4" d="M517.5,283.7c-3.5,2.8-5.6,7-5.6,11.5s1.6,8.6,5.6,11.5V283.7z"/>
				<circle id="XMLID_371_" class="st5" cx="517.5" cy="295.3" r="4.5"/>
				<path id="XMLID_370_" class="st2" d="M524.6,306.8c6.4,0,11.5-5.2,11.5-11.5c0-6.4-5.2-11.5-11.5-11.5h-7.1v23H524.6z"/>
				<path id="XMLID_369_" class="st7" d="M531.9,292.6c0.2,0,0.4-0.1,0.6-0.2c0.7-0.4,0.9-1.2,0.6-1.9c-1.8-3.4-5.2-5.5-9-5.5h-0.6
					c-0.8,0-1.4,0.6-1.4,1.4s0.6,1.4,1.4,1.4h0.6c2.8,0,5.3,1.5,6.5,4C530.9,292.3,531.4,292.6,531.9,292.6L531.9,292.6z"/>
				<path id="XMLID_368_" class="st3" d="M517.5,283.7h3.3v23h-3.3V283.7z"/>
			</g>
			<g id="XMLID_361_">
				<path id="XMLID_366_" class="st4" d="M692.1,253.9c0-2.5-2.1-4.6-4.6-4.6h-49.7c-2.5,0-4.6,2.1-4.6,4.6v64.5
					c0,3.8,3.1,6.9,6.9,6.9h12.7l19.7-21.2h19.7v-50.2H692.1z"/>
				<path id="XMLID_365_" class="st5" d="M692.1,253.9c0-2.5-2.1-4.6-4.6-4.6h-44.4v58.2c0,2.5,1.4,4.9,3.6,6.1
					c2.2,1.2,4.9,1.1,7.1-0.3l38.4-42.4L692.1,253.9L692.1,253.9z"/>
				<path id="XMLID_362_" class="st3" d="M687.5,249.3c2.5,0,4.6,2.1,4.6,4.6v50.2h-19.7l-19.7,21.2H640c-3.8,0-6.9-3.1-6.9-6.9
					v-64.5c0-2.5,2.1-4.6,4.6-4.6H687.5L687.5,249.3z M630.9,253.9v64.5c0,5.1,4.1,9.2,9.2,9.2h12.7c0.6,0,1.3-0.3,1.7-0.7l19-20.4
					h18.6c1.3,0,2.3-1,2.3-2.3V254c0-3.8-3.1-6.9-6.9-6.9h-49.7C633.9,247,630.9,250.1,630.9,253.9L630.9,253.9z"/>
			</g>
		</g>
		<g id="XMLID_211_">
			<path id="XMLID_359_" class="st19" d="M732.6,364c0,17-13.8,30.9-30.9,30.9H528.1c-17,0-30.9-13.8-30.9-30.9
				c0-3.2,0.5-6.4,1.4-9.3c4-12.5,15.6-21.5,29.4-21.5h173.6c13.8,0,25.5,9.1,29.4,21.5C732.1,357.6,732.6,360.8,732.6,364z"/>
			<path id="XMLID_358_" class="st18" d="M731.2,354.7c-9.1-6-16.7-10.5-29.4-10.5H528.1c-12.7,0-22.8,3.9-29.4,10.5
				c4-12.5,15.6-21.5,29.4-21.5h173.6C715.6,333.1,727.3,342.2,731.2,354.7z"/>
			<g id="XMLID_304_">
				<path id="XMLID_355_" class="st3" d="M701.8,337.8c14.5,0,26.3,11.8,26.3,26.3s-11.8,26.3-26.3,26.3H528.1
					c-14.5,0-26.3-11.8-26.3-26.3s11.8-26.3,26.3-26.3H701.8z M497.3,364c0,17,13.8,30.9,30.9,30.9h173.6c17,0,30.9-13.8,30.9-30.9
					c0-17-13.8-30.9-30.9-30.9H528.1C511.1,333.2,497.3,347,497.3,364z"/>
				<path id="XMLID_305_" class="st3" d="M528.1,340.1h5.5v-6.9h-5.5V340.1z M539.2,340.1h5.5v-6.9h-5.5V340.1z M550.3,340.1h5.5
					v-6.9h-5.5V340.1z M561.3,340.1h5.5v-6.9h-5.5V340.1z M572.4,340.1h5.5v-6.9h-5.5V340.1z M583.4,340.1h5.5v-6.9h-5.5V340.1z
					 M594.5,340.1h5.5v-6.9h-5.5V340.1z M605.5,340.1h5.5v-6.9h-5.5V340.1z M616.6,340.1h5.5v-6.9h-5.5V340.1L616.6,340.1z
					 M627.6,340.1h5.5v-6.9h-5.5V340.1L627.6,340.1z M638.7,340.1h5.5v-6.9h-5.5V340.1z M649.7,340.1h5.5v-6.9h-5.5V340.1z
					 M660.8,340.1h5.5v-6.9h-5.5V340.1z M671.8,340.1h5.5v-6.9h-5.5V340.1z M682.9,340.1h5.5v-6.9h-5.5V340.1z M693.9,340.1h5.5
					v-6.9h-5.5V340.1z M704.3,340.2c1.4,0.1,2.8,0.4,4.2,0.8l1.9-6.6c-0.5-0.2-1.1-0.3-1.6-0.4h-0.1h-0.1h-0.1
					c-1-0.2-1.9-0.3-2.9-0.4L704.3,340.2L704.3,340.2z M712.5,342.6c1.3,0.6,2.5,1.4,3.6,2.3l4.1-5.5c-1-0.8-2.1-1.5-3.3-2.1
					c-0.1,0-0.1-0.1-0.2-0.1c0,0-0.1,0-0.1-0.1c-0.3-0.2-0.6-0.3-0.9-0.5L712.5,342.6L712.5,342.6z M719.3,347.7
					c1,1,1.9,2.2,2.6,3.4l5.8-3.7c-1-1.6-2.1-3-3.4-4.4L719.3,347.7L719.3,347.7z M723.9,354.9c0.5,1.3,1,2.7,1.3,4.1l6.8-1.5
					c-0.4-1.8-0.9-3.6-1.6-5.3L723.9,354.9z M725.7,363.2v0.8c0,1.2-0.1,2.3-0.3,3.5l6.8,1v-0.1v-0.1v-0.1v-0.1V368v-0.6
					L725.7,363.2L725.7,363.2z M722.8,375.6l6,3.3c0.4-0.7,0.7-1.3,1-2c0-0.1,0.1-0.2,0.1-0.3c0-0.1,0.1-0.2,0.1-0.3
					c0-0.1,0.1-0.1,0.1-0.2s0.1-0.1,0.1-0.2s0-0.1,0.1-0.2c0.1-0.3,0.3-0.7,0.4-1c0-0.1,0-0.1,0.1-0.2c0-0.1,0-0.1,0.1-0.2v-0.1
					l-6.5-2.2C724,373,723.5,374.3,722.8,375.6L722.8,375.6z M717.4,382.2l4.5,5.2c1-0.9,2-1.8,2.9-2.9c0,0,0-0.1,0.1-0.1
					c0.2-0.3,0.5-0.5,0.7-0.8l-5.4-4.4C719.5,380.2,718.5,381.3,717.4,382.2L717.4,382.2z M710,386.5l2.4,6.5c0.1,0,0.1,0,0.2-0.1
					h0.2c1.5-0.6,2.9-1.3,4.3-2.1l-3.5-6C712.7,385.4,711.3,386,710,386.5L710,386.5z M701.8,388h-0.2v6.9h0.5
					c1.3,0,2.6-0.2,3.9-0.4h0.1l-1.2-6.8C704.5,387.8,703.2,388,701.8,388z M690.5,394.9h5.5V388h-5.5V394.9z M679.4,394.9h5.5V388
					h-5.5V394.9z M668.4,394.9h5.5V388h-5.5V394.9z M657.3,394.9h5.5V388h-5.5V394.9z M646.3,394.9h5.5V388h-5.5V394.9z
					 M635.2,394.9h5.5V388h-5.5V394.9z M624.2,394.9h5.5V388h-5.5V394.9z M613.1,394.9h5.5V388h-5.5V394.9z M602.1,394.9h5.5V388
					h-5.5V394.9z M591,394.9h5.5V388H591V394.9z M580,394.9h5.5V388H580V394.9z M568.9,394.9h5.5V388h-5.5V394.9z M557.9,394.9h5.5
					V388h-5.5V394.9z M546.8,394.9h5.5V388h-5.5V394.9z M535.7,394.9h5.5V388h-5.5V394.9z M524.7,394.7
					C524.8,394.7,524.8,394.7,524.7,394.7C524.8,394.7,524.8,394.7,524.7,394.7C524.8,394.7,524.8,394.7,524.7,394.7
					C524.8,394.7,524.8,394.7,524.7,394.7h0.2c0.6,0.1,1.3,0.1,2,0.1h2.3v-6.9h-2.1c-0.9,0-1.8,0-2.7-0.1L524.7,394.7L524.7,394.7z
					 M514.2,391.5c1.6,0.8,3.3,1.5,5.1,2.1l2-6.6c-1.4-0.4-2.7-0.9-4-1.6L514.2,391.5z M505.4,384.9c0.7,0.8,1.5,1.6,2.4,2.3
					c0,0,0.1,0,0.1,0.1h0.1c0.4,0.3,0.7,0.6,1.1,0.9l4.2-5.5c-1.1-0.9-2.2-1.8-3.2-2.9L505.4,384.9z M499.5,375.6
					c0.1,0.2,0.2,0.5,0.3,0.7c0,0,0,0.1,0.1,0.1v0.1c0,0,0,0.1,0.1,0.1c0.5,1,1,2,1.6,2.9l0.1,0.1l5.8-3.7c-0.8-1.2-1.4-2.5-2-3.8
					L499.5,375.6L499.5,375.6z M497.3,364.8c0,1.9,0.3,3.7,0.6,5.5l6.8-1.4c-0.3-1.4-0.5-2.8-0.5-4.3L497.3,364.8L497.3,364.8z
					 M498.9,354C498.9,354.1,498.9,354.1,498.9,354C498.9,354.1,498.9,354.1,498.9,354C498.9,354.1,498.9,354.1,498.9,354
					C498.9,354.1,498.9,354.1,498.9,354L498.9,354c-0.6,1.8-1,3.5-1.3,5.3l6.8,1c0.2-1.4,0.6-2.8,1-4.2L498.9,354
					C499,354,499,354,498.9,354z M503.1,346C503,346,503,346.1,503.1,346C503,346.1,503,346.1,503.1,346l-0.1,0.1
					c-0.6,0.8-1.1,1.7-1.6,2.6l6,3.4c0.7-1.2,1.5-2.4,2.4-3.5l-5.3-4.4C503.9,344.9,503.5,345.4,503.1,346L503.1,346z M512.3,337.5
					C512.3,337.5,512.2,337.6,512.3,337.5C512.2,337.6,512.2,337.6,512.3,337.5C512.2,337.6,512.2,337.6,512.3,337.5
					C512.2,337.6,512.2,337.6,512.3,337.5C512.2,337.6,512.2,337.6,512.3,337.5L512.3,337.5l-0.2,0.1H512c0,0-0.1,0-0.1,0.1h-0.1
					c0,0-0.1,0-0.1,0.1c-0.1,0-0.1,0.1-0.1,0.1l-0.2,0.2l-1.5,1.2l4.5,5.3c1.1-0.9,2.3-1.8,3.5-2.5l-3.5-6
					C512.6,337.4,512.4,337.4,512.3,337.5L512.3,337.5z M522.8,333.6C522.7,333.6,522.7,333.6,522.8,333.6L522.8,333.6
					c-1.7,0.3-3.3,0.7-4.8,1.3l2.3,6.5c1.3-0.5,2.7-0.8,4.1-1.1l-1.1-6.8C523,333.6,522.9,333.6,522.8,333.6z"/>
			</g>
			<g id="XMLID_258_">
				<g id="XMLID_299_">
					<path id="XMLID_301_" class="st6" d="M565,387.3c-6.1,0-11.1-5-11.1-11.1s5-11.1,11.1-11.1s11.1,5,11.1,11.1
						S571.1,387.3,565,387.3z M565,369.3c-3.8,0-6.9,3.1-6.9,6.9s3.1,6.9,6.9,6.9c3.8,0,6.9-3.1,6.9-6.9S568.8,369.3,565,369.3z"/>
					<circle id="XMLID_300_" class="st6" cx="565" cy="376.2" r="3"/>
				</g>
				<g id="XMLID_294_">
					<path id="XMLID_296_" class="st6" d="M589.6,387.3c-6.1,0-11.1-5-11.1-11.1s5-11.1,11.1-11.1s11.1,5,11.1,11.1
						S595.7,387.3,589.6,387.3z M589.6,369.3c-3.8,0-6.9,3.1-6.9,6.9s3.1,6.9,6.9,6.9c3.8,0,6.9-3.1,6.9-6.9
						C596.6,372.4,593.5,369.3,589.6,369.3z"/>
					<circle id="XMLID_295_" class="st6" cx="589.6" cy="376.2" r="3"/>
				</g>
				<g id="XMLID_289_">
					<path id="XMLID_291_" class="st6" d="M614.3,387.3c-6.1,0-11.1-5-11.1-11.1s5-11.1,11.1-11.1s11.1,5,11.1,11.1
						S620.4,387.3,614.3,387.3z M614.3,369.3c-3.8,0-6.9,3.1-6.9,6.9s3.1,6.9,6.9,6.9c3.8,0,6.9-3.1,6.9-6.9
						S618.1,369.3,614.3,369.3z"/>
					<circle id="XMLID_290_" class="st6" cx="614.3" cy="376.2" r="3"/>
				</g>
				<g id="XMLID_284_">
					<path id="XMLID_286_" class="st6" d="M638.9,387.3c-6.1,0-11.1-5-11.1-11.1s5-11.1,11.1-11.1s11.1,5,11.1,11.1
						S645,387.3,638.9,387.3z M638.9,369.3c-3.8,0-6.9,3.1-6.9,6.9s3.1,6.9,6.9,6.9c3.8,0,6.9-3.1,6.9-6.9S642.7,369.3,638.9,369.3z
						"/>
					<circle id="XMLID_285_" class="st6" cx="638.9" cy="376.2" r="3"/>
				</g>
				<g id="XMLID_279_">
					<path id="XMLID_281_" class="st6" d="M663.6,387.3c-6.1,0-11.1-5-11.1-11.1s5-11.1,11.1-11.1s11.1,5,11.1,11.1
						C674.6,382.3,669.7,387.3,663.6,387.3z M663.6,369.3c-3.8,0-6.9,3.1-6.9,6.9s3.1,6.9,6.9,6.9c3.8,0,6.9-3.1,6.9-6.9
						S667.4,369.3,663.6,369.3z"/>
					<circle id="XMLID_280_" class="st6" cx="663.6" cy="376.2" r="3"/>
				</g>
				<g id="XMLID_269_">
					<path id="XMLID_276_" class="st6" d="M715.1,366.8c0,8.1-6.6,14.7-14.7,14.7s-14.7-6.6-14.7-14.7s6.6-14.7,14.7-14.7
						S715.1,358.6,715.1,366.8z M700.4,347.4c-10.7,0-19.3,8.7-19.3,19.3c0,10.7,8.7,19.3,19.3,19.3s19.3-8.7,19.3-19.3
						S711.1,347.4,700.4,347.4L700.4,347.4z"/>
					<g id="XMLID_274_">
						<circle id="XMLID_275_" class="st6" cx="700.4" cy="366.8" r="6.2"/>
					</g>
					<path id="XMLID_273_" class="st6" d="M699,347.6h2.8V386H699V347.6z"/>
					<path id="XMLID_272_" class="st6" d="M687.8,352.2l27.2,27.2l-2,2l-27.2-27.2L687.8,352.2z"/>
					<path id="XMLID_271_" class="st6" d="M681.2,365.4h38.4v2.8h-38.4V365.4z"/>
					<path id="XMLID_270_" class="st6" d="M712.9,352.2l2,2l-27.2,27.2l-2-2L712.9,352.2z"/>
				</g>
				<g id="XMLID_259_">
					<path id="XMLID_266_" class="st6" d="M542.9,366.8c0,8.1-6.6,14.7-14.7,14.7s-14.7-6.6-14.7-14.7s6.6-14.7,14.7-14.7
						S542.9,358.6,542.9,366.8z M528.1,347.4c-10.7,0-19.3,8.7-19.3,19.3c0,10.7,8.7,19.3,19.3,19.3s19.3-8.7,19.3-19.3
						C547.5,356.1,538.8,347.4,528.1,347.4L528.1,347.4z"/>
					<g id="XMLID_264_">
						<circle id="XMLID_265_" class="st6" cx="528.1" cy="366.8" r="6.2"/>
					</g>
					<path id="XMLID_263_" class="st6" d="M526.8,347.6h2.8V386h-2.8V347.6z"/>
					<path id="XMLID_262_" class="st6" d="M515.6,352.3l27.2,27.2l-2,2l-27.2-27.3L515.6,352.3z"/>
					<path id="XMLID_261_" class="st6" d="M509,365.4h38.4v2.8H509V365.4z"/>
					<path id="XMLID_260_" class="st6" d="M540.7,352.3l2,2l-27.2,27.2l-2-2L540.7,352.3z"/>
				</g>
			</g>
			<g id="XMLID_212_">
				<g id="XMLID_253_">
					<path id="XMLID_255_" class="st7" d="M565,384.5c-6.1,0-11.1-5-11.1-11.1s5-11.1,11.1-11.1s11.1,5,11.1,11.1
						S571.1,384.5,565,384.5z M565,366.5c-3.8,0-6.9,3.1-6.9,6.9s3.1,6.9,6.9,6.9c3.8,0,6.9-3.1,6.9-6.9S568.8,366.5,565,366.5z"/>
					<circle id="XMLID_254_" class="st7" cx="565" cy="373.4" r="3"/>
				</g>
				<g id="XMLID_248_">
					<path id="XMLID_250_" class="st7" d="M589.6,384.5c-6.1,0-11.1-5-11.1-11.1s5-11.1,11.1-11.1s11.1,5,11.1,11.1
						S595.7,384.5,589.6,384.5z M589.6,366.5c-3.8,0-6.9,3.1-6.9,6.9s3.1,6.9,6.9,6.9c3.8,0,6.9-3.1,6.9-6.9
						C596.6,369.6,593.5,366.5,589.6,366.5z"/>
					<circle id="XMLID_249_" class="st7" cx="589.6" cy="373.4" r="3"/>
				</g>
				<g id="XMLID_243_">
					<path id="XMLID_245_" class="st7" d="M614.3,384.5c-6.1,0-11.1-5-11.1-11.1s5-11.1,11.1-11.1s11.1,5,11.1,11.1
						S620.4,384.5,614.3,384.5z M614.3,366.5c-3.8,0-6.9,3.1-6.9,6.9s3.1,6.9,6.9,6.9c3.8,0,6.9-3.1,6.9-6.9
						S618.1,366.5,614.3,366.5z"/>
					<circle id="XMLID_244_" class="st7" cx="614.3" cy="373.4" r="3"/>
				</g>
				<g id="XMLID_238_">
					<path id="XMLID_240_" class="st7" d="M638.9,384.5c-6.1,0-11.1-5-11.1-11.1s5-11.1,11.1-11.1s11.1,5,11.1,11.1
						S645,384.5,638.9,384.5z M638.9,366.5c-3.8,0-6.9,3.1-6.9,6.9s3.1,6.9,6.9,6.9c3.8,0,6.9-3.1,6.9-6.9S642.7,366.5,638.9,366.5z
						"/>
					<circle id="XMLID_239_" class="st7" cx="638.9" cy="373.4" r="3"/>
				</g>
				<g id="XMLID_233_">
					<path id="XMLID_235_" class="st7" d="M663.6,384.5c-6.1,0-11.1-5-11.1-11.1s5-11.1,11.1-11.1s11.1,5,11.1,11.1
						S669.7,384.5,663.6,384.5z M663.6,366.5c-3.8,0-6.9,3.1-6.9,6.9s3.1,6.9,6.9,6.9c3.8,0,6.9-3.1,6.9-6.9
						S667.4,366.5,663.6,366.5z"/>
					<circle id="XMLID_234_" class="st7" cx="663.6" cy="373.4" r="3"/>
				</g>
				<g id="XMLID_223_">
					<path id="XMLID_230_" class="st7" d="M715.1,364c0,8.1-6.6,14.7-14.7,14.7s-14.7-6.6-14.7-14.7s6.6-14.7,14.7-14.7
						S715.1,355.9,715.1,364z M700.4,344.7c-10.7,0-19.3,8.7-19.3,19.3c0,10.7,8.7,19.3,19.3,19.3s19.3-8.7,19.3-19.3
						C719.7,353.3,711.1,344.7,700.4,344.7z"/>
					<g id="XMLID_228_">
						<circle id="XMLID_229_" class="st7" cx="700.4" cy="364" r="6.2"/>
					</g>
					<path id="XMLID_227_" class="st7" d="M699,344.8h2.8v38.4H699V344.8z"/>
					<path id="XMLID_226_" class="st7" d="M687.8,349.4l27.2,27.2l-2,2l-27.2-27.2L687.8,349.4z"/>
					<path id="XMLID_225_" class="st7" d="M681.2,362.6h38.4v2.8h-38.4V362.6z"/>
					<path id="XMLID_224_" class="st7" d="M713,349.4l2,2l-27.2,27.2l-2-2L713,349.4z"/>
				</g>
				<g id="XMLID_213_">
					<path id="XMLID_220_" class="st7" d="M542.9,364c0,8.1-6.6,14.7-14.7,14.7s-14.7-6.6-14.7-14.7s6.6-14.7,14.7-14.7
						S542.9,355.9,542.9,364z M528.1,344.7c-10.7,0-19.3,8.7-19.3,19.3c0,10.7,8.7,19.3,19.3,19.3s19.3-8.7,19.3-19.3
						C547.5,353.3,538.8,344.7,528.1,344.7z"/>
					<g id="XMLID_218_">
						<circle id="XMLID_219_" class="st7" cx="528.1" cy="364" r="6.2"/>
					</g>
					<path id="XMLID_217_" class="st7" d="M526.8,344.8h2.8v38.4h-2.8V344.8z"/>
					<path id="XMLID_216_" class="st7" d="M515.6,349.5l27.2,27.2l-2,2l-27.2-27.3L515.6,349.5z"/>
					<path id="XMLID_215_" class="st7" d="M509,362.6h38.4v2.8H509V362.6z"/>
					<path id="XMLID_214_" class="st7" d="M540.8,349.5l2,2l-27.2,27.1l-2-2L540.8,349.5z"/>
				</g>
			</g>
		</g>
		<g id="XMLID_199_">
			<g id="XMLID_207_">
				<path id="XMLID_210_" class="st2" d="M402.9,394.9c37.7-14,65-47.2,71.4-86.9v78.2L402.9,394.9L402.9,394.9z"/>
				<path id="XMLID_209_" class="st18" d="M402.9,394.4c29.1-3.6,55.6-18.6,73.7-41.6l-2.3,32.9L402.9,394.4L402.9,394.4z"/>
				<path id="XMLID_208_" class="st21" d="M474.3,307.9h4.6v76.6l-4.6,1.6V307.9z"/>
			</g>
			<path id="XMLID_206_" class="st21" d="M476.6,349.3h137.7v7.8H476.6V349.3z"/>
			<g id="XMLID_203_">
				<circle id="XMLID_205_" class="st21" cx="613.8" cy="353.3" r="7.1"/>
				<circle id="XMLID_204_" class="st18" cx="613.8" cy="353.3" r="3.2"/>
			</g>
			<g id="XMLID_200_">
				<circle id="XMLID_202_" class="st21" cx="476.6" cy="353.3" r="7.1"/>
				<circle id="XMLID_201_" class="st18" cx="476.6" cy="353.3" r="3.2"/>
			</g>
		</g>
	</g>
</g>
<g id="Слой_1_1_">
	<g id="XMLID_2_">
		<g id="XMLID_70_">
			<g id="XMLID_71_">
				<g id="XMLID_105_">
					<path id="XMLID_124_" class="st13" d="M862.9,318.9l-14.8,7.3l-5.4-10.7l-1.8-3.6l-3.6-7.2l14.8-7.4l7.3,14.6l1.8,3.6
						L862.9,318.9z"/>
					<path id="XMLID_123_" class="st22" d="M849.7,298.5l-9.9,5l-24.7-49.4l-1.7-3.6l9.8-4.9l1.8,3.5L849.7,298.5z"/>
					<path id="XMLID_122_" class="st10" d="M820.3,247l26.4,53l-3,1.5l-26.4-53L820.3,247z"/>
					<path id="XMLID_121_" class="st13" d="M825.7,244.3l-14.8,7.4l-9.1-18.3l-3.9-7.7l14.8-7.4l12.1,24.2L825.7,244.3z"/>
					<path id="XMLID_120_" class="st23" d="M813.4,250.5l9.8-4.9l1.8,3.6l-9.8,4.9L813.4,250.5z"/>
					<path id="XMLID_119_" class="st2" d="M950.1,315.5h-155c-3,0-5.5,2.5-5.5,5.5v8.5h160.5V315.5z"/>
					<path id="XMLID_118_" class="st22" d="M675.8,156l-4.1,10.3l-3.7-1.5l-69.1-26.7l4-10.3l69.2,26.8L675.8,156z"/>
					<path id="XMLID_117_" class="st10" d="M675.9,162.9L603,134.7l1.2-3.1l72.9,28.2L675.9,162.9z"/>
					<path id="XMLID_116_" class="st22" d="M676.8,153.5l35.9,14.2l-6.1,15.3l-35.9-14.2L676.8,153.5z"/>
					<path id="XMLID_115_" class="st23" d="M668,164.8l4-10.2l3.7,1.5l-4,10.2L668,164.8z"/>
					<path id="XMLID_114_" class="st10" d="M675.1,157.7l36.6,14.5l-1.4,3.6l-36.6-14.5L675.1,157.7z"/>
					<path id="XMLID_113_" class="st22" d="M713.7,165.1l35.9,14.2l-8.1,20.6l-35.9-14.3L713.7,165.1z"/>
					<path id="XMLID_112_" class="st10" d="M746,188.2L710.2,174l1.8-4.6l35.8,14.2L746,188.2z"/>
					<path id="XMLID_111_" class="st6" d="M824.4,242.8l-21.9-9l-2.1-4.2l12.4-10.9L824.4,242.8z"/>
					<path id="XMLID_1_" class="st2" d="M995.9,306.3L739.5,204.9l12.1-30.8l244.3,96.6"/>
					<path id="XMLID_109_" class="st7" d="M750.1,178.1l-2,5.1l236.4,93.5l2.3-5.1L750.1,178.1z"/>
					<path id="XMLID_108_" class="st23" d="M712.7,167.7l-6.1,15.3l-3.7-1.4l6.1-15.4L712.7,167.7z"/>
					<path id="XMLID_107_" class="st23" d="M749.6,179.3l-8.1,20.5l-3.7-1.5l8.1-20.5L749.6,179.3z"/>
					<path id="XMLID_106_" class="st17" d="M875.5,322.2h-77.4c-1.1,0-1.9-0.9-1.9-1.9c0-1.1,0.9-1.9,1.9-1.9h77.4
						c1.1,0,1.9,0.9,1.9,1.9C877.5,321.4,876.6,322.2,875.5,322.2z"/>
				</g>
				<g id="XMLID_84_">
					<g id="XMLID_99_">
						<path id="XMLID_102_" class="st3" d="M610.8,134.1v59.3h-19.9v-59.3H610.8z M611.9,133h-22.1v61.5h22.1V133z"/>
						<circle id="XMLID_101_" class="st3" cx="600.9" cy="133" r="11"/>
						<circle id="XMLID_100_" class="st11" cx="600.9" cy="133" r="5.5"/>
					</g>
					<path id="XMLID_98_" class="st3" d="M598.4,212.7c0,2.1-2.9,4.4-5.2,7.2c-5.1,6-3,12.1,0,15.1c3.9,3.9,10.6,4,13.6,1
						c4.1-4.1,3.4-9.6,3.4-13.7c-3.8,2-4.6,5.8-6.3,7.5c-3,3-8.8-1.8-5.1-6.7c1.5-1.9,4-2.9,4.8-10.3h-5.2V212.7z"/>
					<g id="XMLID_96_">
						<path id="XMLID_97_" class="st3" d="M616,194.5c0-6-1.6-11.4-4.1-15.4h-22c-2.6,4-4.1,9.5-4.1,15.4c0,8.2,3,15.4,7.4,19.3
							h15.4C613.1,209.9,616,202.7,616,194.5z"/>
					</g>
					<g id="XMLID_89_">
						<g id="XMLID_94_">
							<path id="XMLID_95_" class="st14" d="M612.7,194.5c0,1.4-0.1,2.8-0.3,4.1c-0.2,1.8-0.7,3.5-1.2,5.1c-0.9,2.7-2.3,5-3.9,6.8
								h-12.8c-0.3-0.3-0.6-0.6-0.8-1c-0.6-0.7-1.1-1.5-1.6-2.4c-0.5-0.8-0.9-1.7-1.2-2.7c-0.4-1-0.7-2-0.9-3s-0.5-2.2-0.6-3.3
								c-0.1-1.2-0.2-2.4-0.2-3.6L612.7,194.5L612.7,194.5z"/>
						</g>
						<path id="XMLID_93_" class="st24" d="M596.8,194.5l-6.9,6.9c-0.3-1.1-0.5-2.2-0.6-3.3l3.6-3.6L596.8,194.5L596.8,194.5z"/>
						<path id="XMLID_92_" class="st24" d="M604.6,194.5L592,207.1c-0.5-0.8-0.9-1.7-1.2-2.7l9.9-9.9L604.6,194.5L604.6,194.5z"/>
						<path id="XMLID_91_" class="st24" d="M612.5,194.5l-16,16h-2.1c-0.3-0.3-0.6-0.6-0.8-1l15-15H612.5L612.5,194.5z"/>
						<path id="XMLID_90_" class="st24" d="M612.4,198.6c-0.2,1.8-0.7,3.5-1.2,5.1l-6.8,6.8h-3.9L612.4,198.6z"/>
					</g>
					<g id="XMLID_85_">
						<circle id="XMLID_88_" class="st11" cx="593.6" cy="185.1" r="2.2"/>
						<circle id="XMLID_87_" class="st11" cx="608.1" cy="185.1" r="2.2"/>
						<circle id="XMLID_86_" class="st3" cx="600.3" cy="207.1" r="2.2"/>
					</g>
				</g>
			</g>
		</g>
		<g id="XMLID_3_">
			<path id="XMLID_69_" class="st1" d="M996.5,329.7H669.6l8.3,32.1h310.3L996.5,329.7z"/>
			<g id="XMLID_59_">
				<path id="XMLID_68_" class="st2" d="M996.5,200.1v129.6h-94.3V200.1c0-6.1,4.9-11,11-11h72.3C991.6,189.1,996.5,194,996.5,200.1
					z"/>
				<path id="XMLID_67_" class="st7" d="M984.9,195.4h-70.6c-1.1,0-1.9-0.9-1.9-1.9c0-1.1,0.9-1.9,1.9-1.9h70.6
					c1.1,0,1.9,0.9,1.9,1.9C986.9,194.5,986,195.4,984.9,195.4z"/>
				<path id="XMLID_66_" class="st3" d="M983.3,279.4h-17.1c-1.5,0-2.8-1.2-2.8-2.8c0-1.5,1.2-2.8,2.8-2.8h17.1
					c1.5,0,2.8,1.2,2.8,2.8C986,278.2,984.8,279.4,983.3,279.4z"/>
				<g id="XMLID_60_">
					<path id="XMLID_65_" class="st4" d="M984.9,266.3h-23.5l-23.5,25.4h-15.3c-4.6,0-8.3-3.7-8.3-8.3v-77.2c0-3,2.5-5.5,5.5-5.5
						h59.6c3,0,5.5,2.5,5.5,5.5V266.3z"/>
					<path id="XMLID_64_" class="st5" d="M979.4,200.7c3,0,5.5,2.5,5.5,5.5v20.5l-46,50.7c-2.5,1.6-5.8,1.8-8.4,0.3
						c-2.7-1.5-4.3-4.2-4.3-7.3v-69.7H979.4z"/>
					<path id="XMLID_61_" class="st3" d="M979.4,200.7c3,0,5.5,2.5,5.5,5.5v60.1h-23.5l-23.5,25.4h-15.3c-4.6,0-8.3-3.7-8.3-8.3
						v-77.2c0-3,2.5-5.5,5.5-5.5H979.4z M987.7,206.2c0-4.6-3.7-8.3-8.3-8.3h-59.6c-4.6,0-8.3,3.7-8.3,8.3v77.2c0,6.1,4.9,11,11,11
						h15.3c0.8,0,1.5-0.3,2-0.9l22.7-24.5h22.3c1.5,0,2.8-1.2,2.8-2.8L987.7,206.2L987.7,206.2z"/>
				</g>
			</g>
			<g id="XMLID_34_">
				<path id="XMLID_58_" class="st2" d="M770.6,230.5v120.3H656.9v-65.1l25.6-46.6c2.9-5.3,8.5-8.6,14.5-8.6
					C697,230.5,770.6,230.5,770.6,230.5z"/>
				<path id="XMLID_57_" class="st3" d="M698.9,299.4h-17.7c-1.5,0-2.8-1.2-2.8-2.8c0-1.5,1.2-2.8,2.8-2.8h17.7
					c1.5,0,2.8,1.2,2.8,2.8S700.4,299.4,698.9,299.4z"/>
				<g id="XMLID_51_">
					<path id="XMLID_56_" class="st4" d="M741.4,237.7v60.1c0,3-2.5,5.5-5.5,5.5h-18.5l-13-16l-40.3,0.2l21.3-38.7l3.4-6.2
						c1.6-3,4.8-4.9,8.2-4.9L741.4,237.7L741.4,237.7z"/>
					<path id="XMLID_55_" class="st5" d="M730.1,237.7V291c0,1.9-1.2,3.5-2.9,4.2c-1.8,0.6-3.7,0.1-4.9-1.4l-36.8-45l3.4-6.2
						c1.6-3,4.8-4.9,8.2-4.9L730.1,237.7L730.1,237.7z"/>
					<path id="XMLID_52_" class="st3" d="M742.8,297.8c0,3.8-3.1,6.9-6.9,6.9h-18.5c-0.4,0-0.8-0.2-1.1-0.5l-12.5-15.5l-39.6,0.2
						c-0.5,0-0.9-0.3-1.2-0.7s-0.3-0.9,0-1.4l24.7-45c1.9-3.4,5.5-5.6,9.4-5.6h44.3c0.8,0,1.4,0.6,1.4,1.4L742.8,297.8L742.8,297.8z
						 M718,301.9h17.9c2.3,0,4.1-1.9,4.1-4.1v-58.7h-42.9c-2.9,0-5.6,1.6-7,4.1l-23.6,42.9l37.9-0.2c0.4,0,0.8,0.2,1.1,0.5
						L718,301.9L718,301.9z"/>
				</g>
				<g id="XMLID_44_">
					<path id="XMLID_50_" class="st4" d="M650.7,320.1c-3.4,2.7-5.4,6.7-5.4,11s2,8.4,5.4,11V320.1z"/>
					<circle id="XMLID_49_" class="st5" cx="650.7" cy="331.1" r="4.3"/>
					<path id="XMLID_48_" class="st6" d="M668.5,335.5c0,6.1-4.9,11-11,11h-0.6v-22.1h0.6C663.6,324.5,668.5,329.5,668.5,335.5z"/>
					<path id="XMLID_47_" class="st13" d="M657.5,342.2c6.1,0,11-4.9,11-11s-4.9-11-11-11h-6.8v22.1h6.8V342.2z"/>
					<path id="XMLID_46_" class="st7" d="M664.5,328.9c-0.6,0-1.2-0.3-1.5-0.9c-1.2-2.2-3.5-3.6-6-3.6h-0.6c-0.9,0-1.7-0.7-1.7-1.7
						c0-0.9,0.7-1.7,1.7-1.7h0.6c3.8,0,7.2,2.1,8.9,5.4c0.4,0.8,0.1,1.8-0.7,2.2C665,328.9,664.8,328.9,664.5,328.9z"/>
					<path id="XMLID_45_" class="st3" d="M650.7,320.1h3.2v22.1h-3.2V320.1z"/>
				</g>
				<g id="XMLID_35_">
					<path id="XMLID_43_" class="st7" d="M766.5,238.8c0,1.1-0.9,1.9-1.9,1.9h-13.8c-1.1,0-1.9-0.9-1.9-1.9c0-1.1,0.9-1.9,1.9-1.9
						h13.8C765.6,236.8,766.5,237.7,766.5,238.8z"/>
					<path id="XMLID_42_" class="st7" d="M766.5,247.8c0,1.1-0.9,1.9-1.9,1.9h-13.8c-1.1,0-1.9-0.9-1.9-1.9c0-1.1,0.9-1.9,1.9-1.9
						h13.8C765.6,245.9,766.5,246.8,766.5,247.8z"/>
					<path id="XMLID_41_" class="st7" d="M766.5,256.9c0,1.1-0.9,1.9-1.9,1.9h-13.8c-1.1,0-1.9-0.9-1.9-1.9c0-1.1,0.9-1.9,1.9-1.9
						h13.8C765.6,255,766.5,255.9,766.5,256.9z"/>
					<path id="XMLID_40_" class="st7" d="M766.5,266c0,1.1-0.9,1.9-1.9,1.9h-13.8c-1.1,0-1.9-0.9-1.9-1.9c0-1.1,0.9-1.9,1.9-1.9
						h13.8C765.6,264.1,766.5,264.9,766.5,266z"/>
					<path id="XMLID_39_" class="st7" d="M764.5,277h-13.8c-1.1,0-1.9-0.9-1.9-1.9c0-1.1,0.9-1.9,1.9-1.9h13.8
						c1.1,0,1.9,0.9,1.9,1.9C766.5,276.2,765.6,277,764.5,277z"/>
					<path id="XMLID_38_" class="st7" d="M764.5,286.1h-13.8c-1.1,0-1.9-0.9-1.9-1.9c0-1.1,0.9-1.9,1.9-1.9h13.8
						c1.1,0,1.9,0.9,1.9,1.9C766.5,285.2,765.6,286.1,764.5,286.1z"/>
					<path id="XMLID_37_" class="st7" d="M764.5,295.2h-13.8c-1.1,0-1.9-0.9-1.9-1.9c0-1.1,0.9-1.9,1.9-1.9h13.8
						c1.1,0,1.9,0.9,1.9,1.9C766.5,294.3,765.6,295.2,764.5,295.2z"/>
					<path id="XMLID_36_" class="st7" d="M764.5,304.3h-13.8c-1.1,0-1.9-0.9-1.9-1.9c0-1.1,0.9-1.9,1.9-1.9h13.8
						c1.1,0,1.9,0.9,1.9,1.9C766.5,303.4,765.6,304.3,764.5,304.3z"/>
				</g>
			</g>
			<g id="XMLID_4_">
				<g id="XMLID_29_">
					<path id="XMLID_33_" class="st3" d="M764.5,361.8c0,18.3-14.8,33.1-33.1,33.1s-33.1-14.8-33.1-33.1v-0.7
						c0.4-18,15-32.4,33.1-32.4s32.7,14.5,33.1,32.4V361.8L764.5,361.8z"/>
					<path id="XMLID_32_" class="st10" d="M750.7,361.8c0,10.7-8.6,19.3-19.3,19.3s-19.3-8.6-19.3-19.3v-0.3
						c0.2-10.5,8.8-19,19.3-19s19.1,8.4,19.3,18.9V361.8L750.7,361.8z"/>
					<circle id="XMLID_31_" class="st3" cx="731.4" cy="361.8" r="8.8"/>
					<path id="XMLID_30_" class="st11" d="M750.7,361.4c-0.3-7.1-8.8-14-19.3-14s-19,6.9-19.3,14c0.2-10.5,8.8-19,19.3-19
						C742,342.5,750.5,350.9,750.7,361.4z"/>
				</g>
				<g id="XMLID_24_">
					<circle id="XMLID_28_" class="st3" cx="872.4" cy="361.8" r="33.1"/>
					<path id="XMLID_27_" class="st10" d="M891.7,361.8c0,10.7-8.6,19.3-19.3,19.3s-19.3-8.6-19.3-19.3v-0.3
						c0.2-10.5,8.8-19,19.3-19s19.1,8.4,19.3,18.9V361.8L891.7,361.8z"/>
					<circle id="XMLID_26_" class="st3" cx="872.4" cy="361.8" r="8.8"/>
					<path id="XMLID_25_" class="st11" d="M891.7,361.4c-0.3-7.1-8.8-14-19.3-14s-19,6.9-19.3,14c0.2-10.5,8.8-19,19.3-19
						C883,342.5,891.5,350.9,891.7,361.4z"/>
				</g>
				<g id="XMLID_19_">
					<circle id="XMLID_23_" class="st3" cx="945.8" cy="361.8" r="33.1"/>
					<path id="XMLID_22_" class="st10" d="M965.1,361.8c0,10.7-8.6,19.3-19.3,19.3s-19.3-8.6-19.3-19.3v-0.3
						c0.2-10.5,8.8-19,19.3-19s19.1,8.4,19.3,18.9V361.8L965.1,361.8z"/>
					<circle id="XMLID_21_" class="st3" cx="945.8" cy="361.8" r="8.8"/>
					<path id="XMLID_20_" class="st11" d="M965.1,361.4c-0.3-7.1-8.8-14-19.3-14s-19,6.9-19.3,14c0.2-10.5,8.8-19,19.3-19
						C956.3,342.5,964.9,350.9,965.1,361.4z"/>
				</g>
				<g id="XMLID_5_">
					<g id="XMLID_13_">
						<path id="XMLID_18_" class="st6" d="M985.9,329.7h-22c-2.6-0.7-5.4-1.1-8.3-1.1c-14.4,0-20.5-11,0-11
							C967.3,317.6,977.9,322.2,985.9,329.7z"/>
						<path id="XMLID_16_" class="st13" d="M833.8,367.3c-3,0-5.5-2.5-5.5-5.5c0-24.3,19.8-44.1,44.1-44.1
							c19.1,0,35.9,12.2,41.9,30.3c1,2.9-0.6,6-3.5,7s-6-0.6-7-3.5c-4.5-13.6-17.1-22.7-31.4-22.7c-18.3,0-33.1,14.8-33.1,33.1
							C839.3,364.8,836.9,367.3,833.8,367.3z"/>
						<path id="XMLID_17_" class="st13" d="M984.4,367.3c-3,0-5.5-2.5-5.5-5.5c0-18.3-14.8-33.1-33.1-33.1
							c-14.3,0-26.9,9.1-31.4,22.7c-1,2.9-4.1,4.5-7,3.5s-4.5-4.1-3.5-7c6-18.1,22.8-30.3,41.9-30.3c24.3,0,44.1,19.8,44.1,44.1
							C989.9,364.8,987.4,367.3,984.4,367.3z"/>
						<path id="XMLID_15_" class="st6" d="M740.2,317.6c11.8,0,22.5,4.6,30.4,12.1v18.8c-5.1-11.7-16.8-20-30.4-20
							C725.9,328.7,719.7,317.6,740.2,317.6L740.2,317.6z"/>
						<path id="XMLID_14_" class="st13" d="M770.1,367.3c-3,0-5.5-2.5-5.5-5.5c0-18.3-14.8-33.1-33.1-33.1s-33.1,14.8-33.1,33.1
							c0,3-2.5,5.5-5.5,5.5s-5.5-2.5-5.5-5.5c0-24.3,19.8-44.1,44.1-44.1s44.1,19.7,44.1,44.1C775.6,364.8,773.1,367.3,770.1,367.3z
							"/>
					</g>
					<g id="XMLID_9_">
						<path id="XMLID_12_" class="st7" d="M909.1,351.6c-0.2,0-0.4,0-0.6-0.1c-1-0.3-1.6-1.4-1.2-2.4c5.5-16.6,21-27.8,38.5-27.8
							c1.1,0,1.9,0.9,1.9,1.9c0,1.1-0.9,1.9-1.9,1.9c-15.9,0-29.9,10.1-34.8,25.2C910.7,351.1,909.9,351.6,909.1,351.6L909.1,351.6z
							"/>
						<path id="XMLID_11_" class="st7" d="M833.8,363.7c-1.1,0-1.9-0.9-1.9-1.9c0-22.4,18.2-40.5,40.5-40.5c1.1,0,1.9,0.9,1.9,1.9
							c0,1.1-0.9,1.9-1.9,1.9c-20.2,0-36.7,16.5-36.7,36.7C835.7,362.8,834.9,363.7,833.8,363.7L833.8,363.7z"/>
						<path id="XMLID_10_" class="st7" d="M692.8,363.7c-1.1,0-1.9-0.9-1.9-1.9c0-22.4,18.2-40.5,40.5-40.5c1.1,0,1.9,0.9,1.9,1.9
							c0,1.1-0.9,1.9-1.9,1.9c-20.2,0-36.7,16.5-36.7,36.7C694.8,362.8,693.9,363.7,692.8,363.7L692.8,363.7z"/>
					</g>
					<path id="XMLID_8_" class="st12" d="M764.5,361.1c-0.5-14-15.1-25.3-33.1-25.3s-32.6,11.2-33.1,25.3c0.4-18,15-32.4,33.1-32.4
						S764.2,343.1,764.5,361.1L764.5,361.1z"/>
					<path id="XMLID_7_" class="st12" d="M905.5,361.1c-0.5-14-15.1-25.3-33.1-25.3s-32.6,11.2-33.1,25.3c0.4-18,15-32.4,33.1-32.4
						S905.2,343.1,905.5,361.1L905.5,361.1z"/>
					<path id="XMLID_6_" class="st12" d="M978.8,361.1c-0.5-14-15.1-25.3-33.1-25.3s-32.6,11.2-33.1,25.3c0.4-18,15-32.4,33.1-32.4
						S978.5,343.1,978.8,361.1L978.8,361.1z"/>
				</g>
			</g>
		</g>
	</g>
</g>
<g id="Слой_2" class="st0">
	<g id="XMLID_453_">
		<path id="XMLID_502_" class="st2" d="M2,353.3v15.3h83.9v-51.2c0-2.4-2-4.4-4.4-4.4H53c-2.4,0-4.4,2-4.4,4.4v27H11
			C6.1,344.3,2,348.4,2,353.3L2,353.3z"/>
		<path id="XMLID_501_" class="st7" d="M9.8,348.8h33.8c0.7,0,1.4-0.6,1.4-1.4c0-0.7-0.6-1.3-1.4-1.3H9.8c-0.7,0-1.4,0.6-1.4,1.3
			C8.5,348.2,9.1,348.8,9.8,348.8z"/>
		<g id="XMLID_495_">
			<path id="XMLID_500_" class="st18" d="M9,352.4h15.2c0.4,0,0.7-0.3,0.7-0.7c0-0.4-0.3-0.7-0.7-0.7H9c-0.4,0-0.7,0.3-0.7,0.7
				C8.4,352.1,8.7,352.4,9,352.4z"/>
			<path id="XMLID_499_" class="st18" d="M9,354.8h15.2c0.4,0,0.7-0.3,0.7-0.7c0-0.4-0.3-0.7-0.7-0.7H9c-0.4,0-0.7,0.3-0.7,0.7
				C8.4,354.5,8.7,354.8,9,354.8z"/>
			<path id="XMLID_498_" class="st18" d="M9,357.2h15.2c0.4,0,0.7-0.3,0.7-0.7c0-0.4-0.3-0.7-0.7-0.7H9c-0.4,0-0.7,0.3-0.7,0.7
				C8.4,356.9,8.7,357.2,9,357.2z"/>
			<path id="XMLID_497_" class="st18" d="M9,359.6h15.2c0.4,0,0.7-0.3,0.7-0.7s-0.3-0.7-0.7-0.7H9c-0.4,0-0.7,0.3-0.7,0.7
				C8.4,359.3,8.7,359.6,9,359.6z"/>
			<path id="XMLID_496_" class="st18" d="M9,362h15.2c0.4,0,0.7-0.3,0.7-0.7s-0.3-0.7-0.7-0.7H9c-0.4,0-0.7,0.3-0.7,0.7
				C8.4,361.7,8.7,362,9,362z"/>
		</g>
		<g id="XMLID_486_">
			<path id="XMLID_494_" class="st7" d="M53.3,315.5h27.9c0.4,0,0.8-0.3,0.8-0.8c0-0.4-0.3-0.8-0.8-0.8H53.3c-0.4,0-0.8,0.3-0.8,0.8
				S52.8,315.5,53.3,315.5z"/>
			<path id="XMLID_493_" class="st3" d="M53.9,348.7h6.7c0.6,0,1.1-0.5,1.1-1.1s-0.5-1.1-1.1-1.1h-6.7c-0.6,0-1.1,0.5-1.1,1.1
				S53.3,348.7,53.9,348.7z"/>
			<g id="XMLID_487_">
				<path id="XMLID_492_" class="st4" d="M53.3,343.5h9.3l9.3,10h6c1.8,0,3.3-1.5,3.3-3.3v-30.5c0-1.2-1-2.2-2.2-2.2H55.4
					c-1.2,0-2.2,1-2.2,2.2v23.8H53.3z"/>
				<path id="XMLID_491_" class="st5" d="M55.4,317.6c-1.2,0-2.2,1-2.2,2.2v8.1L71.4,348c1,0.6,2.3,0.7,3.3,0.1
					c1.1-0.6,1.7-1.7,1.7-2.9v-27.6L55.4,317.6L55.4,317.6z"/>
				<path id="XMLID_488_" class="st3" d="M79,317.6c1.2,0,2.2,1,2.2,2.2v30.5c0,1.8-1.5,3.3-3.3,3.3h-6l-9.3-10h-9.3v-23.8
					c0-1.2,1-2.2,2.2-2.2C55.5,317.6,79,317.6,79,317.6z M52.2,319.8v23.8c0,0.6,0.5,1.1,1.1,1.1h8.8l9,9.7c0.2,0.2,0.5,0.3,0.8,0.3
					h6c2.4,0,4.4-2,4.4-4.4v-30.5c0-1.8-1.5-3.3-3.3-3.3H55.4C53.6,316.5,52.2,318,52.2,319.8L52.2,319.8z"/>
			</g>
		</g>
		<g id="XMLID_462_">
			<path id="XMLID_485_" class="st1" d="M2,368.6h84l-3.3,12.7H5.3L2,368.6z"/>
			<g id="XMLID_463_">
				<g id="XMLID_482_">
					<path id="XMLID_484_" class="st6" d="M48.3,368.6H57c1-0.3,2.1-0.4,3.3-0.4s4.6-4.4,0-4.4C55.6,363.8,51.4,365.7,48.3,368.6z"
						/>
					<path id="XMLID_483_" class="st6" d="M10.1,368.6h8.7c1-0.3,2.1-0.4,3.3-0.4s4.6-4.4,0-4.4S13.3,365.7,10.1,368.6z"/>
				</g>
				<g id="XMLID_473_">
					<path id="XMLID_481_" class="st3" d="M49.9,381.3c0,7.2,5.9,13.1,13.1,13.1s13.1-5.9,13.1-13.1V381
						c-0.1-7.1-5.9-12.8-13.1-12.8c-7.1,0-12.9,5.7-13.1,12.8C49.9,381,49.9,381.3,49.9,381.3z"/>
					<path id="XMLID_480_" class="st10" d="M55.3,381.3c0,4.2,3.4,7.6,7.6,7.6s7.6-3.4,7.6-7.6v-0.1c-0.1-4.2-3.5-7.5-7.6-7.5
						c-4.2,0-7.6,3.3-7.6,7.5C55.3,381.2,55.3,381.3,55.3,381.3z"/>
					<circle id="XMLID_479_" class="st3" cx="62.9" cy="381.3" r="3.5"/>
					<path id="XMLID_478_" class="st11" d="M55.3,381.1c0.1-2.8,3.5-5.5,7.6-5.5s7.5,2.7,7.6,5.5c-0.1-4.2-3.5-7.5-7.6-7.5
						C58.8,373.7,55.4,377,55.3,381.1z"/>
					<path id="XMLID_477_" class="st12" d="M49.9,381c0.2-5.5,6-10,13.1-10s12.9,4.4,13.1,10c-0.1-7.1-5.9-12.8-13.1-12.8
						S50,373.9,49.9,381z"/>
					<g id="XMLID_474_">
						<path id="XMLID_476_" class="st13" d="M47.7,383.5c1.2,0,2.2-1,2.2-2.2c0-7.2,5.9-13.1,13.1-13.1s13.1,5.9,13.1,13.1
							c0,1.2,1,2.2,2.2,2.2s2.2-1,2.2-2.2c0-9.6-7.8-17.4-17.4-17.4s-17.4,7.8-17.4,17.4C45.5,382.5,46.5,383.5,47.7,383.5z"/>
						<path id="XMLID_475_" class="st7" d="M78.2,382c0.4,0,0.8-0.3,0.8-0.8c0-8.8-7.2-16-16-16c-0.4,0-0.8,0.3-0.8,0.8
							c0,0.4,0.3,0.8,0.8,0.8c8,0,14.5,6.5,14.5,14.5C77.4,381.7,77.8,382,78.2,382z"/>
					</g>
				</g>
				<g id="XMLID_464_">
					<circle id="XMLID_472_" class="st3" cx="24.9" cy="381.3" r="13.1"/>
					<path id="XMLID_471_" class="st10" d="M17.3,381.3c0,4.2,3.4,7.6,7.6,7.6s7.6-3.4,7.6-7.6v-0.1c-0.1-4.2-3.5-7.5-7.6-7.5
						c-4.2,0-7.6,3.3-7.6,7.5V381.3z"/>
					<circle id="XMLID_470_" class="st3" cx="24.9" cy="381.3" r="3.5"/>
					<path id="XMLID_469_" class="st11" d="M17.3,381.1c0.1-2.8,3.5-5.5,7.6-5.5s7.5,2.7,7.6,5.5c-0.1-4.2-3.5-7.5-7.6-7.5
						C20.8,373.7,17.4,377,17.3,381.1z"/>
					<path id="XMLID_468_" class="st12" d="M11.8,381c0.2-5.5,6-10,13.1-10s12.9,4.4,13.1,10c-0.1-7.1-5.9-12.8-13.1-12.8
						C17.8,368.2,12,373.9,11.8,381z"/>
					<g id="XMLID_465_">
						<path id="XMLID_467_" class="st13" d="M9.7,383.5c1.2,0,2.2-1,2.2-2.2c0-7.2,5.9-13.1,13.1-13.1s13.1,5.9,13.1,13.1
							c0,1.2,1,2.2,2.2,2.2s2.2-1,2.2-2.2c0-9.6-7.8-17.4-17.4-17.4s-17.4,7.8-17.4,17.4C7.5,382.5,8.5,383.5,9.7,383.5z"/>
						<path id="XMLID_466_" class="st7" d="M40.2,382c0.4,0,0.8-0.3,0.8-0.8c0-8.8-7.2-16-16-16c-0.4,0-0.8,0.3-0.8,0.8
							c0,0.4,0.3,0.8,0.8,0.8c8,0,14.5,6.5,14.5,14.5C39.4,381.7,39.8,382,40.2,382z"/>
					</g>
				</g>
			</g>
		</g>
		<g id="XMLID_454_">
			<path id="XMLID_461_" class="st25" d="M99.1,383.4h29.4l-4.9-3.6h-20.9v-44.2h-3.6L99.1,383.4z"/>
			<path id="XMLID_460_" class="st21" d="M91.1,321.5h6.3v64.8h-6.3V321.5z"/>
			<path id="XMLID_459_" class="st11" d="M94.7,324.6h0.9v57.7h-0.9V324.6z"/>
			<path id="XMLID_458_" class="st21" d="M89.2,338.9h15.9v3.6H89.2V338.9z"/>
			<path id="XMLID_457_" class="st21" d="M76.6,360h28.5v3.6H76.6V360z"/>
			<circle id="XMLID_456_" class="st21" cx="76.6" cy="361.8" r="3.6"/>
			<circle id="XMLID_455_" class="st18" cx="76.6" cy="361.8" r="1.8"/>
		</g>
	</g>
</g>
</svg>
