<?xml version="1.0" encoding="utf-8"?>
<!-- Generator: Adobe Illustrator 19.0.0, SVG Export Plug-In . SVG Version: 6.00 Build 0)  -->
<svg version="1.1" id="Objects" xmlns="http://www.w3.org/2000/svg" xmlns:xlink="http://www.w3.org/1999/xlink" x="0px" y="0px"
	 viewBox="0 0 50 50" style="enable-background:new 0 0 50 50;" xml:space="preserve">
<style type="text/css">
	.st0{fill:#FFFFFF;}
</style>
<g id="XMLID_5_">
	<g id="XMLID_3_">
		<g id="XMLID_25_">
			<path id="XMLID_28_" class="st0" d="M39.1,19.1c0,0,0-0.4-0.1-1c0-0.2,0-0.5-0.1-0.9c-0.1-0.4-0.2-0.8-0.3-1.3
				c-0.2-0.9-0.6-2-1.1-3.2c-0.3-0.6-0.6-1.1-0.9-1.7c-0.4-0.6-0.7-1.1-1.2-1.7c-0.4-0.5-0.9-1.1-1.4-1.6c-0.5-0.5-1-0.9-1.5-1.4
				c-1-0.8-2.1-1.5-3.1-2c-1-0.5-1.9-0.9-2.5-1.1c-0.6-0.2-1-0.3-1-0.3s0.4,0,1,0c0.7,0,1.6,0.1,2.8,0.3c1.2,0.2,2.5,0.5,3.9,1.1
				c0.7,0.3,1.4,0.6,2.1,1c0.7,0.4,1.4,0.8,2.1,1.2c1.4,0.9,2.7,2,3.8,3.2c1.1,1.2,2,2.4,2.7,3.5c0.3,0.6,0.7,1.1,0.9,1.6
				c0.3,0.5,0.5,1,0.6,1.3c0.3,0.6,0.4,1,0.4,1L39.1,19.1z"/>
			<g id="XMLID_26_">
				<polygon id="XMLID_27_" class="st0" points="49.8,15.7 42.3,29.1 34.5,15.9 				"/>
			</g>
		</g>
	</g>
	<g id="XMLID_2_">
		<g id="XMLID_20_">
			<path id="XMLID_23_" class="st0" d="M19.1,38.9c0,0,0.4,0.1,1,0.4c0.2,0.1,0.3,0.1,0.5,0.2c0.1,0,0.3,0.1,0.5,0.2
				c0.2,0.1,0.4,0.1,0.6,0.2c0.2,0.1,0.5,0.1,0.7,0.2c0.5,0.1,1.1,0.2,1.6,0.3c0.6,0.1,1.2,0.1,1.9,0.1c0.7,0,1.4,0,2.1-0.1
				c0.7-0.1,1.4-0.2,2.1-0.4c0.7-0.2,1.4-0.4,2.1-0.7c0.7-0.2,1.3-0.6,2-0.9c0.6-0.4,1.3-0.7,1.8-1.1c0.3-0.2,0.5-0.4,0.8-0.5
				c0.2-0.2,0.5-0.4,0.7-0.6c0.5-0.4,0.9-0.7,1.2-1.1c0.4-0.3,0.7-0.6,0.9-0.9c0.5-0.5,0.7-0.8,0.7-0.8s-0.2,0.4-0.5,1
				c-0.1,0.3-0.3,0.7-0.6,1.1c-0.2,0.4-0.5,0.9-0.9,1.4c-0.2,0.3-0.4,0.5-0.6,0.8c-0.2,0.3-0.4,0.5-0.7,0.8c-0.4,0.6-1,1.1-1.6,1.7
				c-0.6,0.5-1.2,1.1-1.9,1.6c-0.7,0.5-1.4,1-2.2,1.5c-0.8,0.4-1.6,0.9-2.4,1.2c-0.8,0.4-1.6,0.6-2.4,0.9c-0.8,0.2-1.6,0.5-2.4,0.6
				c-0.8,0.1-1.5,0.3-2.2,0.3c-0.4,0-0.7,0.1-1,0.1c-0.3,0-0.7,0-1,0c-0.3,0-0.6,0-0.9,0c-0.2,0-0.4,0-0.6,0c-0.7,0-1.1-0.1-1.1-0.1
				L19.1,38.9z"/>
			<g id="XMLID_21_">
				<polygon id="XMLID_22_" class="st0" points="17.1,50.1 8.7,37.2 24,36.4 				"/>
			</g>
		</g>
	</g>
	<g id="XMLID_1_">
		<g id="XMLID_15_">
			<path id="XMLID_18_" class="st0" d="M13.9,9.6c0,0-0.1,0.1-0.3,0.2c-0.2,0.1-0.4,0.2-0.7,0.4c-0.6,0.3-1.4,0.8-2.4,1.6
				c-0.5,0.4-1,0.8-1.5,1.3c-0.2,0.3-0.5,0.5-0.7,0.8L8.3,14l0,0.1l0,0l0,0c0,0.1,0.1-0.1,0-0.1l0,0L8,14.3l-0.4,0.5
				c-0.3,0.4-0.5,0.7-0.7,1c-0.2,0.3-0.4,0.7-0.6,1c-0.4,0.7-0.8,1.5-1.1,2.3c-0.6,1.6-1,3.4-1.1,5.1c-0.1,0.8-0.1,1.7,0,2.5
				c0.1,0.8,0.1,1.5,0.3,2.2c0.1,0.7,0.3,1.3,0.4,1.9c0.2,0.6,0.3,1,0.5,1.4c0.3,0.8,0.5,1.2,0.5,1.2S5.5,33.1,5,32.4
				c-0.2-0.4-0.5-0.8-0.8-1.3c-0.3-0.5-0.6-1.1-0.9-1.8c-0.3-0.7-0.6-1.4-0.9-2.3c-0.3-0.8-0.5-1.7-0.7-2.7c-0.4-1.9-0.5-4-0.3-6.1
				c0.1-1.1,0.3-2.1,0.5-3.2c0.1-0.5,0.2-1,0.4-1.6c0.2-0.5,0.4-1.1,0.5-1.5C2.9,11.9,3,11.7,3,11.5l0.1-0.3l0,0l0.1-0.1l0,0l0-0.1
				l0.1-0.2C3.6,10.3,3.8,9.9,4,9.5C4.5,8.6,5,7.9,5.5,7.2c1-1.4,2-2.4,2.7-3.1C8.5,3.7,8.9,3.3,9,3.2C9.2,3.1,9.3,3,9.3,3L13.9,9.6
				z"/>
			<g id="XMLID_16_">
				<polygon id="XMLID_17_" class="st0" points="6.9,0.4 22.1,2.8 12.5,14.7 				"/>
			</g>
		</g>
	</g>
</g>
</svg>
