<?xml version="1.0" encoding="utf-8"?>
<!-- Generator: Adobe Illustrator 19.0.0, SVG Export Plug-In . SVG Version: 6.00 Build 0)  -->
<svg version="1.1" id="Слой_1" xmlns="http://www.w3.org/2000/svg" xmlns:xlink="http://www.w3.org/1999/xlink" x="0px" y="0px"
	 viewBox="207 -206 463 463" style="enable-background:new 207 -206 463 463;" xml:space="preserve">
<style type="text/css">
	.st0{fill:#FFFFFF;}
</style>
<g>
	<path class="st0" d="M574.5-174h-57.7c-3.1-9.3-11.9-16-22.3-16h-24.4c-7.4-10-19.1-16-31.6-16s-24.2,6-31.6,16h-24.4
		c-10.3,0-19.1,6.7-22.3,16h-57.7c-17.4,0-31.5,14.1-31.5,31.5v368c0,17.4,14.1,31.5,31.5,31.5h272c17.4,0,31.5-14.1,31.5-31.5v-368
		C606-159.9,591.9-174,574.5-174L574.5-174z M360.2-127c3.1,9.3,11.9,16,22.3,16h112c10.3,0,19.1-6.7,22.3-16H559v337H318v-337
		H360.2L360.2-127z M382.5-175h28.4c2.7,0,5.1-1.4,6.5-3.7c4.5-7.7,12.4-12.3,21.1-12.3s16.6,4.6,21.1,12.3c1.3,2.3,3.8,3.7,6.5,3.7
		h28.4c4.7,0,8.5,3.8,8.5,8.5v32c0,0,0,0,0,0c0,0,0,0,0,0c0,4.7-3.8,8.5-8.5,8.5h-112c-4.7,0-8.5-3.8-8.5-8.5c0,0,0,0,0,0
		c0,0,0,0,0,0v-32C374-171.2,377.8-175,382.5-175L382.5-175z M591,225.5c0,9.1-7.4,16.5-16.5,16.5h-272c-9.1,0-16.5-7.4-16.5-16.5
		v-368c0-9.1,7.4-16.5,16.5-16.5H359v17h-48.5c-4.1,0-7.5,3.4-7.5,7.5v352c0,4.1,3.4,7.5,7.5,7.5h256c4.1,0,7.5-3.4,7.5-7.5v-352
		c0-4.1-3.4-7.5-7.5-7.5H518v-17h56.5c9.1,0,16.5,7.4,16.5,16.5V225.5z"/>
	<path class="st0" d="M438.5-143c4.1,0,7.5-3.4,7.5-7.5v-16c0-4.1-3.4-7.5-7.5-7.5s-7.5,3.4-7.5,7.5v16
		C431-146.4,434.4-143,438.5-143z"/>
	<path class="st0" d="M446.5-39h48c4.1,0,7.5-3.4,7.5-7.5s-3.4-7.5-7.5-7.5h-48c-4.1,0-7.5,3.4-7.5,7.5S442.4-39,446.5-39z"/>
	<path class="st0" d="M446.5-7h80c4.1,0,7.5-3.4,7.5-7.5s-3.4-7.5-7.5-7.5h-80c-4.1,0-7.5,3.4-7.5,7.5S442.4-7,446.5-7z"/>
	<path class="st0" d="M369.2-9.2c1.5,1.5,3.4,2.2,5.3,2.2s3.8-0.7,5.3-2.2l40-40c2.9-2.9,2.9-7.7,0-10.6c-2.9-2.9-7.7-2.9-10.6,0
		l-34.7,34.7l-18.7-18.7c-2.9-2.9-7.7-2.9-10.6,0c-2.9,2.9-2.9,7.7,0,10.6L369.2-9.2L369.2-9.2z"/>
	<path class="st0" d="M446.5,41h48c4.1,0,7.5-3.4,7.5-7.5s-3.4-7.5-7.5-7.5h-48c-4.1,0-7.5,3.4-7.5,7.5S442.4,41,446.5,41z"/>
	<path class="st0" d="M446.5,73h80c4.1,0,7.5-3.4,7.5-7.5s-3.4-7.5-7.5-7.5h-80c-4.1,0-7.5,3.4-7.5,7.5S442.4,73,446.5,73z"/>
	<path class="st0" d="M369.2,70.8c1.5,1.5,3.4,2.2,5.3,2.2s3.8-0.7,5.3-2.2l40-40c2.9-2.9,2.9-7.7,0-10.6c-2.9-2.9-7.7-2.9-10.6,0
		l-34.7,34.7l-18.7-18.7c-2.9-2.9-7.7-2.9-10.6,0c-2.9,2.9-2.9,7.7,0,10.6L369.2,70.8L369.2,70.8z"/>
	<path class="st0" d="M446.5,121h48c4.1,0,7.5-3.4,7.5-7.5s-3.4-7.5-7.5-7.5h-48c-4.1,0-7.5,3.4-7.5,7.5S442.4,121,446.5,121z"/>
	<path class="st0" d="M446.5,153h80c4.1,0,7.5-3.4,7.5-7.5s-3.4-7.5-7.5-7.5h-80c-4.1,0-7.5,3.4-7.5,7.5S442.4,153,446.5,153z"/>
	<path class="st0" d="M369.2,150.8c1.5,1.5,3.4,2.2,5.3,2.2s3.8-0.7,5.3-2.2l40-40c2.9-2.9,2.9-7.7,0-10.6c-2.9-2.9-7.7-2.9-10.6,0
		l-34.7,34.7l-18.7-18.7c-2.9-2.9-7.7-2.9-10.6,0c-2.9,2.9-2.9,7.7,0,10.6L369.2,150.8L369.2,150.8z"/>
</g>
</svg>
