<?xml version="1.0" encoding="utf-8"?>
<!-- Generator: Adobe Illustrator 19.0.0, SVG Export Plug-In . SVG Version: 6.00 Build 0)  -->
<svg version="1.1" id="Слой_1" xmlns="http://www.w3.org/2000/svg" xmlns:xlink="http://www.w3.org/1999/xlink" x="0px" y="0px"
	 viewBox="0 0 20 20" style="enable-background:new 0 0 20 20;" xml:space="preserve">
<style type="text/css">
	.st0{fill:#D8000C;}
</style>
<path id="XMLID_1_" class="st0" d="M16.3,10l3-3c1-1,1-2.7,0-3.7l-2.6-2.6c-1-1-2.7-1-3.7,0l-3,3l-3-3c-1-1-2.7-1-3.7,0L0.8,3.3
	c-1,1-1,2.7,0,3.7l3,3l-3,3c-1,1-1,2.7,0,3.7l2.6,2.6c1,1,2.7,1,3.7,0l3-3l3,3c1,1,2.7,1,3.7,0l2.6-2.6c1-1,1-2.7,0-3.7L16.3,10z"/>
</svg>
