<?xml version="1.0" encoding="utf-8"?>
<!-- Generator: Adobe Illustrator 19.0.0, SVG Export Plug-In . SVG Version: 6.00 Build 0)  -->
<svg version="1.1" id="Layer_1" xmlns="http://www.w3.org/2000/svg" xmlns:xlink="http://www.w3.org/1999/xlink" x="0px" y="0px"
	 viewBox="0 0 336.7 174" style="enable-background:new 0 0 336.7 174;" xml:space="preserve">
<style type="text/css">
	.st0{fill:#7C7C7B;}
	.st1{fill:#E38A42;}
	.st2{fill:#FFFFFF;}
	.st3{fill:#2E333A;}
	.st4{fill:#1A1D22;}
	.st5{fill:#9EA8B7;}
	.st6{fill:#F8AC00;}
	.st7{fill:#FEBF10;}
	.st8{fill:#393939;}
	.st9{fill:#FFCD40;}
	.st10{fill:#666262;}
	.st11{fill:#747474;}
	.st12{fill:#D8ECEC;stroke:#393939;stroke-width:0.5;stroke-miterlimit:10;}
	.st13{fill:#151515;}
	.st14{fill:#3F3F3D;}
	.st15{fill:#B8B8B8;}
	.st16{fill:#4C4C4C;}
	.st17{fill:#A3A29F;}
	.st18{fill:#D1BA9E;}
	.st19{fill:#DBC9B1;}
</style>
<g id="Слой_5">
	<rect id="XMLID_383_" x="133.5" y="112.9" class="st0" width="0.8" height="21.6"/>
	<rect id="XMLID_384_" x="127.8" y="133.4" class="st0" width="12.1" height="1.1"/>
	<rect id="XMLID_386_" x="181.1" y="113.2" class="st0" width="0.8" height="21.6"/>
	<rect id="XMLID_385_" x="175.4" y="133.7" class="st0" width="12.1" height="1.1"/>
	<rect id="XMLID_382_" x="123.9" y="105.1" class="st1" width="65.5" height="9.1"/>
	<polygon id="XMLID_387_" class="st2" points="126.1,114.2 131.9,105.1 136.9,105.1 130.8,114.2 	"/>
	<polygon id="XMLID_388_" class="st2" points="158.1,114.2 163.9,105.1 168.9,105.1 162.8,114.2 	"/>
	<polygon id="XMLID_389_" class="st2" points="147.6,114.2 153.4,105.1 158.4,105.1 152.4,114.2 	"/>
	<polygon id="XMLID_390_" class="st2" points="136.9,114.2 142.7,105.1 147.6,105.1 141.6,114.2 	"/>
	<polygon id="XMLID_391_" class="st2" points="168,114.2 173.8,105.1 178.8,105.1 172.7,114.2 	"/>
	<polygon id="XMLID_392_" class="st2" points="178.2,114.2 184,105.1 189,105.1 182.9,114.2 	"/>
</g>
<g id="XMLID_350_">
	<rect id="XMLID_348_" x="255.9" y="73" class="st3" width="2.7" height="10.4"/>
	<path id="XMLID_347_" class="st4" d="M195.8,81.4c-9.3-14.3-15.8-21.9-19.6-25.9c-4.1-4.3-6.1-5.2-6.1-5.2l0.4-0.9
		c0.1,0,2.1,0.9,6.3,5.2c3.9,4,10.4,11.7,19.8,26.1L195.8,81.4z"/>
	
		<rect id="XMLID_346_" x="82.6" y="41.1" transform="matrix(0.992 0.1259 -0.1259 0.992 6.1639 -14.3258)" class="st4" width="67.7" height="0.9"/>
	<polygon id="XMLID_345_" class="st5" points="115.1,32.7 80.6,23.9 79.8,25.7 114.5,34.8 	"/>
	<g id="XMLID_738_">
		<path id="XMLID_344_" class="st6" d="M110.7,133l8.9-8.8l-7.7,2.3l-9.1-1.6l-13.6-9.6l-6.2,0l-6.1,9.6c0,0,0.2,1.2,0.6,2.9l6-8.8
			l21.2,14.4h3.4l0.4-0.4H110.7z"/>
		<path id="XMLID_343_" class="st6" d="M83.4,118.9l-6,8.9c1,4.1,3.3,11.2,7.4,13.4c5.8,3.2,11.9,1.4,11.9,1.4l11.3-9.2h-3.4
			L83.4,118.9z"/>
	</g>
	<g id="XMLID_735_">
		<path id="XMLID_342_" class="st7" d="M85,37.5c0,0,0-0.1-0.1-0.1h-2.5c0,0-2.3,0.3-3.1,2.8c-0.9,2.5-0.1,6.6-0.1,6.6l0,7.7
			c0,0,0.2,5.2-2.4,6.3c-1.7,0.7-3.2,0.7-4,0.6l10,52.5l6.4,0.8l-2.5-77.1H85z"/>
		<path id="XMLID_341_" class="st6" d="M76.8,60.8c2.6-1.1,2.4-6.3,2.4-6.3l0-7.8c0,0-0.8-4.1,0.1-6.6c0.9-2.5,3.1-2.8,3.1-2.8h2.5
			c-0.3-1-1.7-5.1-3.3-6.1l-0.8-6.4c0,0-0.2-3.3-2.8-3.5c-2.6-0.2-3.4,3.5-3.4,3.5l-5.9,13l1.1,8.3l-2.8,11c0,0-0.8,2.6,1.1,3.4
			c1.9,0.8,3.9,0.2,4.3-0.9l0.3,1.7C73.6,61.5,75.1,61.5,76.8,60.8z"/>
	</g>
	
		<rect id="XMLID_340_" x="70.8" y="93" transform="matrix(0.9986 -5.206842e-02 5.206842e-02 0.9986 -5.2219 3.8693)" class="st5" width="1.7" height="18.3"/>
	<rect id="XMLID_339_" x="115.9" y="39.9" class="st4" width="1.2" height="3.5"/>
	<rect id="XMLID_338_" x="90.8" y="36.1" class="st4" width="2.2" height="4.9"/>
	<path id="XMLID_337_" class="st7" d="M179.1,60.9c0,0-1.1-1.6-3.9-3.9c0-10-23-16.8-23-16.8l-16.4-4.5l-0.9,1.1l0,0l-3.3,3.7
		l17.7,5v1.2l-62.6-6.6v6l53.5,14c0,0,15.5,3.5,23.1,8.1c7.6,4.5,17,14.2,17,14.2l13.4-2.3L179.1,60.9z"/>
	<polygon id="XMLID_336_" class="st8" points="166.3,72.6 170.6,70.6 180.3,86.8 178.4,93.7 	"/>
	<path id="XMLID_727_" d="M213.1,78.8c0-1.7,1.4-3.1,3.1-3.1h50.2c1.7,0,3.1,1.4,3.1,3.1v15.6c0,1.7-1.4,3.1-3.1,3.1h-50.2
		c-1.7,0-3.1-1.4-3.1-3.1V78.8z M214.4,94.4c0,1,0.8,1.8,1.8,1.8h50.2c1,0,1.8-0.8,1.8-1.8V78.8c0-1-0.8-1.8-1.8-1.8h-50.2
		c-1,0-1.8,0.8-1.8,1.8V94.4z"/>
	<path id="XMLID_333_" class="st8" d="M236.7,85.9c0-1.4,1.1-2.5,2.5-2.5h23.4c1.4,0,2.5,1.1,2.5,2.5v7.2c0,1.4-1.1,2.5-2.5,2.5
		h-23.4c-1.4,0-2.5-1.1-2.5-2.5V85.9z"/>
	<path id="XMLID_332_" class="st7" d="M209.7,96.5c0-1.8,1.4-3.2,3.2-3.2h56.5c1.8,0,3.2,1.4,3.2,3.2v17.6c0,1.8-1.4,3.2-3.2,3.2
		h-56.5c-1.8,0-3.2-1.4-3.2-3.2V96.5z"/>
	<path id="XMLID_331_" class="st7" d="M207.1,102.4V80.2h-24.7c0,0-5.5,3.9-7.8,15.6c-2.3,11.6,2.7,21.4,2.7,21.4L207.1,102.4z"/>
	<polygon id="XMLID_330_" class="st6" points="211.8,117 177.3,117.2 200.4,102.4 211.8,102.4 	"/>
	<rect id="XMLID_329_" x="198" y="117.2" class="st3" width="34.1" height="3.4"/>
	<rect id="XMLID_328_" x="201" y="120.6" class="st4" width="28.3" height="3.6"/>
	<polygon id="XMLID_327_" class="st8" points="68.2,61.2 69.2,86.5 72.4,86.5 71.3,61.2 	"/>
	
		<rect id="XMLID_326_" x="67.7" y="86.8" transform="matrix(-1.943624e-02 -0.9998 0.9998 -1.943624e-02 -17.298 162.4026)" class="st8" width="6.6" height="5.7"/>
	<rect id="XMLID_325_" x="256.7" y="117.2" class="st9" width="11.5" height="3.4"/>
	<polygon id="XMLID_324_" class="st8" points="81.8,109 74.6,112.8 78.6,120.5 75.3,123.2 69.7,112.8 81.4,106.1 	"/>
	<polygon id="XMLID_323_" class="st5" points="152.5,46.8 167.1,72.3 169.9,70.9 155.4,45.9 	"/>
	<g id="XMLID_711_">
		<circle id="XMLID_322_" class="st8" cx="84.8" cy="106.1" r="1.9"/>
	</g>
	<g id="XMLID_706_">
		<circle id="XMLID_319_" class="st8" cx="152.6" cy="44.2" r="2.6"/>
		<path id="XMLID_707_" class="st10" d="M152.6,41.5c1.5,0,2.6,1.2,2.6,2.6c0,1.5-1.2,2.6-2.6,2.6c-1.5,0-2.6-1.2-2.6-2.6
			C150,42.7,151.2,41.5,152.6,41.5 M152.6,39.7c-2.5,0-4.5,2-4.5,4.5c0,2.5,2,4.5,4.5,4.5c2.5,0,4.5-2,4.5-4.5
			C157.1,41.7,155.1,39.7,152.6,39.7L152.6,39.7z"/>
	</g>
	<g id="XMLID_701_">
		<circle id="XMLID_316_" class="st8" cx="72.4" cy="112.6" r="1.9"/>
		<path id="XMLID_702_" class="st10" d="M72.4,110.7c1,0,1.9,0.8,1.9,1.9c0,1-0.8,1.9-1.9,1.9c-1,0-1.9-0.8-1.9-1.9
			C70.5,111.5,71.4,110.7,72.4,110.7 M72.4,109.8c-1.5,0-2.8,1.3-2.8,2.8c0,1.5,1.3,2.8,2.8,2.8s2.8-1.3,2.8-2.8
			C75.2,111,73.9,109.8,72.4,109.8L72.4,109.8z"/>
	</g>
	<g id="XMLID_696_">
		<circle id="XMLID_313_" class="st8" cx="78" cy="123" r="1.9"/>
		<path id="XMLID_697_" class="st10" d="M78,121.1c1,0,1.9,0.8,1.9,1.9c0,1-0.8,1.9-1.9,1.9c-1,0-1.9-0.8-1.9-1.9
			C76.1,121.9,76.9,121.1,78,121.1 M78,120.2c-1.5,0-2.8,1.3-2.8,2.8s1.3,2.8,2.8,2.8c1.5,0,2.8-1.3,2.8-2.8S79.5,120.2,78,120.2
			L78,120.2z"/>
	</g>
	<g id="XMLID_691_">
		<ellipse id="XMLID_310_" class="st8" cx="85.6" cy="115.2" rx="2.7" ry="2.8"/>
		<path id="XMLID_692_" class="st10" d="M85.6,112.4c1.5,0,2.7,1.2,2.7,2.8c0,1.5-1.2,2.8-2.7,2.8c-1.5,0-2.7-1.2-2.7-2.8
			C82.9,113.7,84.1,112.4,85.6,112.4 M85.6,111.1c-2.2,0-4,1.8-4,4.1c0,2.3,1.8,4.1,4,4.1c2.2,0,4-1.8,4-4.1
			C89.6,112.9,87.8,111.1,85.6,111.1L85.6,111.1z"/>
	</g>
	<g id="XMLID_686_">
		<circle id="XMLID_307_" class="st8" cx="69.6" cy="58.9" r="1.9"/>
		<path id="XMLID_687_" class="st10" d="M69.6,57c1,0,1.9,0.8,1.9,1.9c0,1-0.8,1.9-1.9,1.9c-1,0-1.9-0.8-1.9-1.9
			C67.8,57.9,68.6,57,69.6,57 M69.6,56.1c-1.5,0-2.8,1.3-2.8,2.8c0,1.5,1.3,2.8,2.8,2.8c1.5,0,2.8-1.3,2.8-2.8
			C72.5,57.4,71.2,56.1,69.6,56.1L69.6,56.1z"/>
	</g>
	<g id="XMLID_681_">
		<circle id="XMLID_304_" class="st8" cx="78" cy="23.9" r="1.9"/>
		<path id="XMLID_682_" class="st10" d="M78,22c1,0,1.9,0.8,1.9,1.9c0,1-0.8,1.9-1.9,1.9c-1,0-1.9-0.8-1.9-1.9
			C76.1,22.8,76.9,22,78,22 M78,21c-1.5,0-2.8,1.3-2.8,2.8c0,1.5,1.3,2.8,2.8,2.8c1.5,0,2.8-1.3,2.8-2.8C80.8,22.3,79.5,21,78,21
			L78,21z"/>
	</g>
	<g id="XMLID_676_">
		<circle id="XMLID_301_" class="st8" cx="91.4" cy="43.5" r="1.3"/>
	</g>
	<g id="XMLID_671_">
		<circle id="XMLID_298_" class="st8" cx="82.8" cy="42.2" r="1.3"/>
	</g>
	<g id="XMLID_666_">
		<circle id="XMLID_295_" class="st8" cx="171.9" cy="54.8" r="1.6"/>
	</g>
	<g id="XMLID_661_">
		<circle id="XMLID_292_" class="st8" cx="78" cy="72.7" r="1.3"/>
	</g>
	<g id="XMLID_656_">
		<circle id="XMLID_289_" class="st8" cx="79.8" cy="81.5" r="1.3"/>
	</g>
	<g id="XMLID_651_">
		<circle id="XMLID_286_" class="st8" cx="81.1" cy="89.7" r="1.3"/>
	</g>
	<path id="XMLID_648_" class="st11" d="M215.8,97.9c0-1.1,0.9-2,2-2h8.3c1.1,0,2,0.9,2,2V113c0,1.1-0.9,2-2,2h-8.3c-1.1,0-2-0.9-2-2
		V97.9z M216.5,113c0,0.8,0.6,1.4,1.4,1.4h8.3c0.8,0,1.4-0.6,1.4-1.4V97.9c0-0.8-0.6-1.4-1.4-1.4h-8.3c-0.8,0-1.4,0.6-1.4,1.4V113z"
		/>
	<path id="XMLID_645_" class="st11" d="M228.9,97.9c0-1.1,0.9-2,2-2h8.3c1.1,0,2,0.9,2,2V113c0,1.1-0.9,2-2,2h-8.3c-1.1,0-2-0.9-2-2
		V97.9z M229.6,113c0,0.8,0.6,1.4,1.4,1.4h8.3c0.8,0,1.4-0.6,1.4-1.4V97.9c0-0.8-0.6-1.4-1.4-1.4h-8.3c-0.8,0-1.4,0.6-1.4,1.4V113z"
		/>
	<path id="XMLID_642_" class="st11" d="M241.9,97.9c0-1.1,0.9-2,2-2h8.3c1.1,0,2,0.9,2,2V113c0,1.1-0.9,2-2,2h-8.3c-1.1,0-2-0.9-2-2
		V97.9z M242.6,113c0,0.8,0.6,1.4,1.4,1.4h8.3c0.8,0,1.4-0.6,1.4-1.4V97.9c0-0.8-0.6-1.4-1.4-1.4h-8.3c-0.8,0-1.4,0.6-1.4,1.4V113z"
		/>
	<path id="XMLID_639_" class="st11" d="M254.7,97.9c0-1.1,0.9-2,2-2h8.3c1.1,0,2,0.9,2,2V113c0,1.1-0.9,2-2,2h-8.3c-1.1,0-2-0.9-2-2
		V97.9z M255.3,113c0,0.8,0.6,1.4,1.4,1.4h8.3c0.8,0,1.4-0.6,1.4-1.4V97.9c0-0.8-0.6-1.4-1.4-1.4h-8.3c-0.8,0-1.4,0.6-1.4,1.4V113z"
		/>
	<path id="XMLID_636_" class="st4" d="M232.9,117.6h-13.3V75.9h13.3V117.6z M220.6,116.7H232V76.8h-11.4V116.7z"/>
	<rect id="XMLID_273_" x="220.1" y="84.8" class="st4" width="12.4" height="1"/>
	<rect id="XMLID_272_" x="220.1" y="94" class="st4" width="12.4" height="1"/>
	<rect id="XMLID_271_" x="220.1" y="103.1" class="st4" width="12.4" height="1"/>
	<rect id="XMLID_270_" x="211.8" y="112" class="st4" width="60.9" height="1.9"/>
	<path id="XMLID_269_" class="st4" d="M265.1,117.7c-0.3,0-0.5-0.2-0.5-0.5v-2.4c0-0.3,0.2-0.5,0.5-0.5c0.3,0,0.5,0.2,0.5,0.5v2.4
		C265.5,117.4,265.3,117.7,265.1,117.7z"/>
	<path id="XMLID_268_" class="st4" d="M257,117.7c-0.3,0-0.5-0.2-0.5-0.5v-2.4c0-0.3,0.2-0.5,0.5-0.5c0.3,0,0.5,0.2,0.5,0.5v2.4
		C257.5,117.4,257.3,117.7,257,117.7z"/>
	<path id="XMLID_267_" class="st4" d="M264.8,101.6c-0.3,0-0.5-0.2-0.5-0.5v-2.4c0-0.3,0.2-0.5,0.5-0.5c0.3,0,0.5,0.2,0.5,0.5v2.4
		C265.3,101.4,265,101.6,264.8,101.6z"/>
	<path id="XMLID_266_" class="st4" d="M256.8,101.6c-0.3,0-0.5-0.2-0.5-0.5v-2.4c0-0.3,0.2-0.5,0.5-0.5c0.3,0,0.5,0.2,0.5,0.5v2.4
		C257.2,101.4,257,101.6,256.8,101.6z"/>
	<path id="XMLID_265_" class="st4" d="M249.2,117.7c-0.3,0-0.5-0.2-0.5-0.5v-2.4c0-0.3,0.2-0.5,0.5-0.5s0.5,0.2,0.5,0.5v2.4
		C249.6,117.4,249.4,117.7,249.2,117.7z"/>
	<path id="XMLID_264_" class="st4" d="M241.2,117.7c-0.3,0-0.5-0.2-0.5-0.5v-2.4c0-0.3,0.2-0.5,0.5-0.5c0.3,0,0.5,0.2,0.5,0.5v2.4
		C241.7,117.4,241.4,117.7,241.2,117.7z"/>
	<path id="XMLID_263_" class="st4" d="M226.3,117.7c-0.3,0-0.5-0.2-0.5-0.5v-2.4c0-0.3,0.2-0.5,0.5-0.5c0.3,0,0.5,0.2,0.5,0.5v2.4
		C226.7,117.4,226.5,117.7,226.3,117.7z"/>
	<path id="XMLID_262_" class="st4" d="M211.8,117.7c-0.3,0-0.5-0.2-0.5-0.5v-2.4c0-0.3,0.3-0.5,0.5-0.5c0.3,0,0.5,0.2,0.5,0.5v2.4
		C212.3,117.4,212,117.7,211.8,117.7z"/>
	<path id="XMLID_261_" class="st4" d="M203.8,117.7c-0.3,0-0.5-0.2-0.5-0.5v-2.4c0-0.3,0.2-0.5,0.5-0.5s0.5,0.2,0.5,0.5v2.4
		C204.2,117.4,204,117.7,203.8,117.7z"/>
	<path id="XMLID_260_" class="st4" d="M195.9,117.7c-0.3,0-0.5-0.2-0.5-0.5v-2.4c0-0.3,0.2-0.5,0.5-0.5s0.5,0.2,0.5,0.5v2.4
		C196.4,117.4,196.2,117.7,195.9,117.7z"/>
	<path id="XMLID_259_" class="st4" d="M187.9,117.7c-0.3,0-0.5-0.2-0.5-0.5v-2.4c0-0.3,0.2-0.5,0.5-0.5c0.3,0,0.5,0.2,0.5,0.5v2.4
		C188.4,117.4,188.1,117.7,187.9,117.7z"/>
	<path id="XMLID_258_" class="st8" d="M255.9,73c0,0-0.2-2.9,1.4-3.5c1.6-0.5,3.3-0.6,3.3-0.6l-0.8,2.4c0,0-1.8,0.2-1.2,1.7"/>
	<g id="XMLID_617_">
		<path id="XMLID_257_" class="st12" d="M200.3,82.5h-20.1c0,0-4.4,5.1-5.8,14.4c-0.2,1.2-0.3,2.4-0.4,3.5h26.3V82.5z"/>
		<path id="XMLID_256_" class="st12" d="M174,100.4c-0.4,6,0.9,9.6,0.9,9.6h14l11.4-7.5v-2.1H174z"/>
	</g>
	<path id="XMLID_284_" class="st2" d="M176,91.4l24.1-8.7l-19.7,0c0,0-0.4,0.5-1,1.4C178.3,85.8,176.9,88.4,176,91.4"/>
	<g id="XMLID_352_">
		<g id="XMLID_612_">
			<path id="XMLID_255_" class="st13" d="M259.8,130l-26.7-2.8c-10.9-1.5-35.7,0-35.7,0l-27.2,2.8l0,0c-3.5,0.3-6.3,3.3-6.3,6.9
				c0,3.8,3.1,6.9,6.9,6.9l87.3-0.1c0.4,0.1,0.7,0.1,1.1,0.1c3.8,0,6.9-3.1,6.9-6.9C266.2,133.2,263.4,130.2,259.8,130z"/>
			<path id="XMLID_613_" class="st14" d="M219,126.5c5.3,0,10.5,0.2,14.1,0.7l26.7,2.8c3.6,0.3,6.4,3.3,6.4,6.9
				c0,3.8-3.1,6.9-6.9,6.9c-0.4,0-0.7,0-1.1-0.1l-87.3,0.1c-3.8,0-6.9-3.1-6.9-6.9c0-3.6,2.8-6.6,6.3-6.9l0,0l27.2-2.8
				C197.5,127.2,208.4,126.5,219,126.5 M219,123.3c-10.5,0-21.6,0.7-21.7,0.7l-0.1,0l-0.1,0l-27.2,2.8l-2.3,0.5
				c-1.5,0.5-3.3,1.7-4.2,2.8c-1.7,1.9-2.7,4.3-2.7,6.9c0,5.6,4.6,10.2,10.2,10.2l87.1-0.1c0.4,0.1,0.9,0.1,1.3,0.1
				c5.6,0,10.2-4.6,10.2-10.2c0-2.6-1-5-2.7-6.9c-1.7-1.9-4.1-3-6.6-3.2l-26.6-2.8C230.2,123.5,225.3,123.3,219,123.3L219,123.3z"/>
		</g>
		<path id="XMLID_505_" class="st14" d="M259.3,148c-0.1,0-0.2,0-0.3,0l0.1-1.9c0.3,0,0.7,0,1,0l0.2,1.9
			C259.9,148,259.6,148,259.3,148z M170.9,148c-0.2,0-0.4,0-0.6,0l0.1-1.9c0.2,0,0.3,0,0.5,0l0.6,0l0,1.9L170.9,148z M172.6,148
			l0-1.9l1.1,0l0,1.9L172.6,148z M174.9,148l0-1.9l1.1,0l0,1.9L174.9,148z M177.2,148l0-1.9l1.1,0l0,1.9L177.2,148z M179.5,148
			l0-1.9l1.1,0l0,1.9L179.5,148z M181.7,148l0-1.9l1.1,0l0,1.9L181.7,148z M184,148l0-1.9l1.1,0l0,1.9L184,148z M186.3,148l0-1.9
			l1.1,0l0,1.9L186.3,148z M188.5,148l0-1.9l1.1,0l0,1.9L188.5,148z M190.8,148l0-1.9l1.1,0l0,1.9L190.8,148z M193.1,148l0-1.9
			l1.1,0l0,1.9L193.1,148z M195.4,147.9l0-1.9l1.1,0l0,1.9L195.4,147.9z M197.6,147.9l0-1.9l1.1,0l0,1.9L197.6,147.9z M199.9,147.9
			l0-1.9l1.1,0l0,1.9L199.9,147.9z M202.2,147.9l0-1.9l1.1,0l0,1.9L202.2,147.9z M204.4,147.9l0-1.9l1.1,0l0,1.9L204.4,147.9z
			 M206.7,147.9l0-1.9l1.1,0l0,1.9L206.7,147.9z M209,147.9l0-1.9l1.1,0l0,1.9L209,147.9z M211.3,147.9l0-1.9l1.1,0l0,1.9
			L211.3,147.9z M213.5,147.9l0-1.9l1.1,0l0,1.9L213.5,147.9z M215.8,147.9l0-1.9l1.1,0l0,1.9L215.8,147.9z M218.1,147.9l0-1.9
			l1.1,0l0,1.9L218.1,147.9z M220.4,147.9l0-1.9l1.1,0l0,1.9L220.4,147.9z M222.6,147.9l0-1.9l1.1,0l0,1.9L222.6,147.9z
			 M224.9,147.9l0-1.9l1.1,0l0,1.9L224.9,147.9z M227.2,147.9l0-1.9l1.1,0l0,1.9L227.2,147.9z M229.4,147.9l0-1.9l1.1,0l0,1.9
			L229.4,147.9z M231.7,147.9l0-1.9l1.1,0l0,1.9L231.7,147.9z M234,147.9l0-1.9l1.1,0l0,1.9L234,147.9z M236.3,147.9l0-1.9l1.1,0
			l0,1.9L236.3,147.9z M238.5,147.9l0-1.9l1.1,0l0,1.9L238.5,147.9z M240.8,147.9l0-1.9l1.1,0l0,1.9L240.8,147.9z M243.1,147.9
			l0-1.9l1.1,0l0,1.9L243.1,147.9z M245.3,147.9l0-1.9l1.1,0l0,1.9L245.3,147.9z M247.6,147.9l0-1.9l1.1,0l0,1.9L247.6,147.9z
			 M249.9,147.9l0-1.9l1.1,0l0,1.9L249.9,147.9z M252.2,147.9l0-1.9l1.1,0l0,1.9L252.2,147.9z M254.4,147.9l0-1.9l1.1,0l0,1.9
			L254.4,147.9z M256.7,147.9l0-1.9l1.1,0l0,1.9L256.7,147.9z M169.1,147.8c-0.4-0.1-0.8-0.2-1.2-0.3l0.5-1.8c0.3,0.1,0.7,0.2,1,0.2
			L169.1,147.8z M261.4,147.8l-0.4-1.9c0.3-0.1,0.7-0.2,1-0.3l0.6,1.8C262.2,147.6,261.8,147.7,261.4,147.8z M166.7,147.1
			c-0.4-0.2-0.8-0.3-1.1-0.5l0.9-1.7c0.3,0.2,0.6,0.3,0.9,0.4L166.7,147.1z M263.8,147l-0.8-1.7c0.3-0.1,0.6-0.3,0.9-0.5l1,1.6
			C264.5,146.7,264.2,146.9,263.8,147z M164.5,145.9c-0.3-0.2-0.7-0.5-1-0.8l1.3-1.4c0.3,0.2,0.5,0.4,0.8,0.6L164.5,145.9z
			 M265.9,145.8l-1.1-1.5c0.3-0.2,0.5-0.4,0.8-0.7l1.3,1.4C266.6,145.3,266.3,145.5,265.9,145.8z M162.7,144.3
			c-0.3-0.3-0.5-0.6-0.8-1l1.5-1.1c0.2,0.3,0.4,0.5,0.6,0.8L162.7,144.3z M267.7,144.1l-1.4-1.2c0.2-0.3,0.4-0.5,0.6-0.8l1.6,1.1
			C268.3,143.4,268,143.8,267.7,144.1z M161.2,142.3c-0.2-0.4-0.4-0.7-0.5-1.1l1.7-0.7c0.1,0.3,0.3,0.6,0.5,0.9L161.2,142.3z
			 M269.1,142l-1.7-0.9c0.2-0.3,0.3-0.6,0.4-0.9l1.8,0.7C269.5,141.3,269.3,141.7,269.1,142z M160.3,140c-0.1-0.4-0.2-0.8-0.3-1.2
			l1.9-0.3c0.1,0.3,0.1,0.7,0.2,1L160.3,140z M270,139.7l-1.8-0.5c0.1-0.3,0.2-0.7,0.2-1l1.9,0.3C270.2,138.9,270.1,139.3,270,139.7
			z M159.9,137.5c0-0.2,0-0.4,0-0.7c0-0.2,0-0.4,0-0.6l1.9,0.1c0,0.2,0,0.3,0,0.5c0,0.2,0,0.4,0,0.6L159.9,137.5z M270.4,137.3
			l-1.9-0.1c0-0.1,0-0.2,0-0.3c0-0.2,0-0.5,0-0.7l1.9-0.1c0,0.3,0,0.6,0,0.8C270.4,137,270.4,137.1,270.4,137.3z M161.8,135.4
			l-1.9-0.3c0.1-0.4,0.2-0.8,0.3-1.2l1.8,0.5C162,134.7,161.9,135,161.8,135.4z M268.3,135.2c-0.1-0.3-0.1-0.7-0.2-1l1.8-0.6
			c0.1,0.4,0.2,0.8,0.3,1.2L268.3,135.2z M162.4,133.4l-1.8-0.7c0.2-0.4,0.3-0.8,0.5-1.1l1.7,0.9
			C162.7,132.8,162.5,133.1,162.4,133.4z M267.7,133.2c-0.1-0.3-0.3-0.6-0.5-0.9l1.6-0.9c0.2,0.4,0.4,0.7,0.6,1.1L267.7,133.2z
			 M163.4,131.6l-1.5-1.1c0.2-0.3,0.5-0.7,0.8-1l1.4,1.3C163.8,131,163.6,131.3,163.4,131.6z M266.7,131.4c-0.2-0.3-0.4-0.5-0.7-0.8
			l1.4-1.3c0.3,0.3,0.5,0.6,0.8,1L266.7,131.4z M164.8,130.1l-1.3-1.4c0.3-0.3,0.6-0.5,1-0.8l1.1,1.5
			C165.3,129.6,165,129.8,164.8,130.1z M265.3,129.9c-0.3-0.2-0.5-0.4-0.8-0.6l1.1-1.6c0.3,0.2,0.7,0.5,1,0.8L265.3,129.9z
			 M166.4,128.8l-1-1.6c0.4-0.2,0.8-0.4,1.1-0.6l0.8,1.7C167,128.5,166.7,128.6,166.4,128.8z M263.6,128.7c-0.3-0.2-0.6-0.3-0.9-0.4
			l0.7-1.8c0.4,0.2,0.8,0.3,1.1,0.5L263.6,128.7z M168.2,128.1l-0.4-1.8l1.1-0.2l0.4,1.8L168.2,128.1z M261.7,128
			c-0.3-0.1-0.7-0.2-1-0.2l0.3-1.9c0.4,0.1,0.8,0.1,1.2,0.3L261.7,128z M259.6,127.6l-1.1-0.1l0.2-1.9l1.1,0.1L259.6,127.6z
			 M170.4,127.6l-0.2-1.9l1.1-0.1l0.2,1.9L170.4,127.6z M172.6,127.4l-0.2-1.9l1.1-0.1l0.2,1.9L172.6,127.4z M257.4,127.4l-1.1-0.1
			l0.2-1.9l1.1,0.1L257.4,127.4z M174.9,127.2l-0.2-1.9l1.1-0.1l0.2,1.9L174.9,127.2z M255.1,127.2l-1.1-0.1l0.2-1.9l1.1,0.1
			L255.1,127.2z M177.1,126.9l-0.2-1.9l1.1-0.1l0.2,1.9L177.1,126.9z M252.8,126.9l-1.1-0.1l0.2-1.9l1.1,0.1L252.8,126.9z
			 M179.4,126.7l-0.2-1.9l1.1-0.1l0.2,1.9L179.4,126.7z M250.6,126.7l-1.1-0.1l0.2-1.9l1.1,0.1L250.6,126.7z M181.7,126.5l-0.2-1.9
			l1.1-0.1l0.2,1.9L181.7,126.5z M248.3,126.5l-1.1-0.1l0.2-1.9l1.1,0.1L248.3,126.5z M183.9,126.3l-0.2-1.9l1.1-0.1l0.2,1.9
			L183.9,126.3z M246.1,126.2l-1.1-0.1l0.2-1.9l1.1,0.1L246.1,126.2z M186.2,126l-0.2-1.9l1.1-0.1l0.2,1.9L186.2,126z M243.8,126
			l-1.1-0.1l0.2-1.9l1.1,0.1L243.8,126z M188.4,125.8l-0.2-1.9l1.1-0.1l0.2,1.9L188.4,125.8z M241.5,125.8l-1.1-0.1l0.2-1.9l1.1,0.1
			L241.5,125.8z M190.7,125.6l-0.2-1.9l1.1-0.1l0.2,1.9L190.7,125.6z M239.3,125.5l-1.1-0.1l0.2-1.9l1.1,0.1L239.3,125.5z
			 M193,125.3l-0.2-1.9l1.1-0.1l0.2,1.9L193,125.3z M237,125.3l-1.1-0.1l0.2-1.9l1.1,0.1L237,125.3z M195.2,125.1l-0.2-1.9l1.1-0.1
			l0.2,1.9L195.2,125.1z M234.8,125l-1.1-0.1l0.2-1.9l1.1,0.1L234.8,125z M197.5,124.9l-0.1-1.9c0.2,0,0.6,0,1.1-0.1l0.1,1.9
			C198,124.8,197.6,124.9,197.5,124.9z M232.5,124.8c-0.4,0-0.7-0.1-1.1-0.1l0.2-1.9c0.4,0,0.8,0.1,1.1,0.1L232.5,124.8z
			 M199.7,124.8l-0.1-1.9c0.3,0,0.7,0,1.1-0.1l0.1,1.9C200.4,124.7,200.1,124.7,199.7,124.8z M202,124.6l-0.1-1.9
			c0.4,0,0.7,0,1.1-0.1l0.1,1.9C202.7,124.6,202.3,124.6,202,124.6z M230.3,124.6c-0.4,0-0.7-0.1-1.1-0.1l0.1-1.9
			c0.4,0,0.8,0.1,1.1,0.1L230.3,124.6z M204.3,124.5l-0.1-1.9c0.4,0,0.7,0,1.1,0l0.1,1.9C205,124.5,204.6,124.5,204.3,124.5z
			 M206.5,124.5l-0.1-1.9c0.4,0,0.8,0,1.1,0l0.1,1.9C207.3,124.4,206.9,124.4,206.5,124.5z M228,124.4c-0.4,0-0.7,0-1.1-0.1l0.1-1.9
			c0.4,0,0.8,0,1.1,0.1L228,124.4z M208.8,124.4l-0.1-1.9c0.4,0,0.8,0,1.1,0l0.1,1.9C209.5,124.4,209.2,124.4,208.8,124.4z
			 M225.8,124.3c-0.4,0-0.7,0-1.1,0l0.1-1.9c0.4,0,0.8,0,1.1,0L225.8,124.3z M211.1,124.3l0-1.9c0.4,0,0.8,0,1.1,0l0,1.9
			C211.8,124.3,211.4,124.3,211.1,124.3z M213.3,124.3l0-1.9c0.4,0,0.8,0,1.1,0l0,1.9C214.1,124.3,213.7,124.3,213.3,124.3z
			 M223.5,124.3c-0.4,0-0.7,0-1.1,0l0-1.9c0.4,0,0.8,0,1.1,0L223.5,124.3z M215.6,124.2l0-1.9c0.4,0,0.8,0,1.1,0l0,1.9
			C216.3,124.2,216,124.2,215.6,124.2z M221.2,124.2c-0.4,0-0.7,0-1.1,0l0-1.9c0.4,0,0.8,0,1.1,0L221.2,124.2z M217.8,124.2l0-1.9
			c0.4,0,0.7,0,1.1,0v1.9C218.6,124.2,218.2,124.2,217.8,124.2z"/>
		<circle id="XMLID_146_" class="st15" cx="199.8" cy="131.6" r="3.4"/>
		<circle id="XMLID_145_" class="st15" cx="182.4" cy="141.3" r="2.4"/>
		<circle id="XMLID_144_" class="st15" cx="194" cy="141.3" r="2.4"/>
		<circle id="XMLID_143_" class="st15" cx="206.4" cy="141.3" r="2.4"/>
		<circle id="XMLID_142_" class="st15" cx="218.1" cy="141.3" r="2.4"/>
		<circle id="XMLID_141_" class="st15" cx="230.3" cy="141.3" r="2.4"/>
		<circle id="XMLID_140_" class="st15" cx="242" cy="141.3" r="2.4"/>
		<circle id="XMLID_139_" class="st15" cx="227.9" cy="131.6" r="3.4"/>
		<g id="XMLID_398_">
			<path id="XMLID_138_" class="st14" d="M169.9,131l-0.2-1l-0.4,0l0-0.9l1.5-0.1l0.1,1l0.4,0l0,0.9l-0.9,0.1
				C170.2,130.9,170.1,131,169.9,131z"/>
			<path id="XMLID_399_" class="st14" d="M259.3,144.7c-0.3,0-0.7,0-1-0.1l0.2-1.9c0.3,0,0.7,0.1,1,0l0.1,1.9
				C259.5,144.7,259.4,144.7,259.3,144.7z M170.8,144.7c-0.4,0-0.9,0-1.3-0.1l0.3-1.9c0.3,0.1,0.6,0.1,1,0.1L170.8,144.7z
				 M172,144.7l0-1.9l1.1,0l0,1.9L172,144.7z M174.3,144.7l0-1.9l1.1,0l0,1.9L174.3,144.7z M176.5,144.7l0-1.9l1.1,0l0,1.9
				L176.5,144.7z M178.8,144.7l0-1.9l1.1,0l0,1.9L178.8,144.7z M181.1,144.7l0-1.9l1.1,0l0,1.9L181.1,144.7z M183.4,144.7l0-1.9
				l1.1,0l0,1.9L183.4,144.7z M185.6,144.7l0-1.9l1.1,0l0,1.9L185.6,144.7z M187.9,144.7l0-1.9l1.1,0l0,1.9L187.9,144.7z
				 M190.2,144.7l0-1.9l1.1,0l0,1.9L190.2,144.7z M192.5,144.7l0-1.9l1.1,0l0,1.9L192.5,144.7z M194.7,144.7l0-1.9l1.1,0l0,1.9
				L194.7,144.7z M197,144.7l0-1.9l1.1,0l0,1.9L197,144.7z M199.3,144.7l0-1.9l1.1,0l0,1.9L199.3,144.7z M201.5,144.7l0-1.9l1.1,0
				l0,1.9L201.5,144.7z M203.8,144.7l0-1.9l1.1,0l0,1.9L203.8,144.7z M206.1,144.7l0-1.9l1.1,0l0,1.9L206.1,144.7z M208.4,144.7
				l0-1.9l1.1,0l0,1.9L208.4,144.7z M210.6,144.7l0-1.9l1.1,0l0,1.9L210.6,144.7z M212.9,144.7l0-1.9l1.1,0l0,1.9L212.9,144.7z
				 M215.2,144.7l0-1.9l1.1,0l0,1.9L215.2,144.7z M217.5,144.7l0-1.9l1.1,0l0,1.9L217.5,144.7z M219.7,144.7l0-1.9l1.1,0l0,1.9
				L219.7,144.7z M222,144.7l0-1.9l1.1,0l0,1.9L222,144.7z M224.3,144.7l0-1.9l1.1,0l0,1.9L224.3,144.7z M226.6,144.7l0-1.9l1.1,0
				l0,1.9L226.6,144.7z M228.8,144.7l0-1.9l1.1,0l0,1.9L228.8,144.7z M231.1,144.7l0-1.9l1.1,0l0,1.9L231.1,144.7z M233.4,144.7
				l0-1.9l1.1,0l0,1.9L233.4,144.7z M235.7,144.7l0-1.9l1.1,0l0,1.9L235.7,144.7z M237.9,144.7l0-1.9l1.1,0l0,1.9L237.9,144.7z
				 M240.2,144.7l0-1.9l1.1,0l0,1.9L240.2,144.7z M242.5,144.7l0-1.9l1.1,0l0,1.9L242.5,144.7z M244.8,144.7l0-1.9l1.1,0l0,1.9
				L244.8,144.7z M247,144.7l0-1.9l1.1,0l0,1.9L247,144.7z M249.3,144.7l0-1.9l1.1,0l0,1.9L249.3,144.7z M251.6,144.7l0-1.9l1.1,0
				l0,1.9L251.6,144.7z M253.8,144.7l0-1.9l1.1,0l0,1.9L253.8,144.7z M256.1,144.7l0-1.9l1.1,0l0,1.9L256.1,144.7z M260.8,144.6
				l-0.4-1.9c0.3-0.1,0.6-0.2,0.9-0.3l0.7,1.8C261.7,144.4,261.3,144.5,260.8,144.6z M168.3,144.3c-0.4-0.1-0.8-0.3-1.2-0.5l0.9-1.7
				c0.3,0.2,0.6,0.3,0.9,0.4L168.3,144.3z M263.2,143.7l-1-1.6c0.3-0.2,0.6-0.4,0.8-0.6l1.2,1.5C264,143.2,263.6,143.5,263.2,143.7z
				 M166.1,143c-0.3-0.3-0.7-0.6-0.9-0.9l1.4-1.3c0.2,0.2,0.5,0.5,0.7,0.7L166.1,143z M265.2,142l-1.4-1.2c0.2-0.2,0.4-0.5,0.6-0.8
				l1.6,1C265.8,141.4,265.5,141.7,265.2,142z M164.3,141.1c-0.2-0.4-0.4-0.7-0.6-1.1l1.7-0.8c0.1,0.3,0.3,0.6,0.5,0.9L164.3,141.1z
				 M266.6,139.9l-1.7-0.7c0.1-0.3,0.2-0.6,0.3-0.9l1.8,0.4C266.9,139,266.7,139.5,266.6,139.9z M163.3,138.8
				c-0.1-0.4-0.2-0.8-0.2-1.3l1.9-0.2c0,0.3,0.1,0.7,0.2,1L163.3,138.8z M267.1,137.3l-1.9-0.1c0-0.1,0-0.2,0-0.4c0-0.2,0-0.4,0-0.6
				l1.9-0.2c0,0.3,0,0.5,0,0.8C267.2,137,267.2,137.2,267.1,137.3z M165,136.4l-1.9-0.2c0-0.4,0.1-0.9,0.2-1.3l1.8,0.5
				C165.1,135.7,165,136,165,136.4z M265.1,135.3c-0.1-0.3-0.2-0.6-0.3-0.9l1.7-0.8c0.2,0.4,0.3,0.8,0.4,1.2L265.1,135.3z
				 M165.5,134.5l-1.7-0.8c0.2-0.4,0.4-0.8,0.6-1.1l1.6,1C165.7,133.9,165.6,134.2,165.5,134.5z M264.2,133.5
				c-0.2-0.3-0.4-0.5-0.6-0.8l1.4-1.3c0.3,0.3,0.6,0.6,0.8,1L264.2,133.5z M166.5,132.8l-1.4-1.3c0.3-0.3,0.6-0.6,0.9-0.9l1.2,1.5
				C167,132.4,166.7,132.6,166.5,132.8z M262.9,132.1c-0.3-0.2-0.5-0.4-0.8-0.5l0.9-1.7c0.4,0.2,0.7,0.4,1.1,0.7L262.9,132.1z
				 M168.1,131.6l-0.9-1.7c0.4-0.2,0.8-0.4,1.2-0.5l0.6,1.8C168.6,131.3,168.3,131.5,168.1,131.6z M261.2,131.2
				c-0.3-0.1-0.6-0.2-1-0.2l0.3-1.9c0.4,0.1,0.8,0.2,1.3,0.3L261.2,131.2z M259.1,130.8l-1.1-0.1l0.2-1.9l1.1,0.1L259.1,130.8z
				 M172.1,130.7l-0.2-1.9l1.1-0.1l0.2,1.9L172.1,130.7z M256.9,130.6l-1.1-0.1l0.2-1.9l1.1,0.1L256.9,130.6z M174.3,130.5l-0.2-1.9
				l1.1-0.1l0.2,1.9L174.3,130.5z M254.6,130.4l-1.1-0.1l0.2-1.9l1.1,0.1L254.6,130.4z M176.6,130.3l-0.2-1.9l1.1-0.1l0.2,1.9
				L176.6,130.3z M252.3,130.1l-1.1-0.1l0.2-1.9l1.1,0.1L252.3,130.1z M178.9,130l-0.2-1.9l1.1-0.1l0.2,1.9L178.9,130z M250.1,129.9
				l-1.1-0.1l0.2-1.9l1.1,0.1L250.1,129.9z M181.1,129.8l-0.2-1.9l1.1-0.1l0.2,1.9L181.1,129.8z M247.8,129.7l-1.1-0.1l0.2-1.9
				l1.1,0.1L247.8,129.7z M183.4,129.6l-0.2-1.9l1.1-0.1l0.2,1.9L183.4,129.6z M245.6,129.4l-1.1-0.1l0.2-1.9l1.1,0.1L245.6,129.4z
				 M185.6,129.3l-0.2-1.9l1.1-0.1l0.2,1.9L185.6,129.3z M243.3,129.2l-1.1-0.1l0.2-1.9l1.1,0.1L243.3,129.2z M187.9,129.1l-0.2-1.9
				l1.1-0.1l0.2,1.9L187.9,129.1z M241,129l-1.1-0.1l0.2-1.9l1.1,0.1L241,129z M190.2,128.9L190,127l1.1-0.1l0.2,1.9L190.2,128.9z
				 M238.8,128.7l-1.1-0.1l0.2-1.9l1.1,0.1L238.8,128.7z M192.4,128.6l-0.2-1.9l1.1-0.1l0.2,1.9L192.4,128.6z M236.5,128.5l-1.1-0.1
				l0.2-1.9l1.1,0.1L236.5,128.5z M194.7,128.4l-0.2-1.9l1.1-0.1l0.2,1.9L194.7,128.4z M234.3,128.2l-1.1-0.1l0.2-1.9l1.1,0.1
				L234.3,128.2z M197,128.2l-0.2-1.9l0.6-0.1c0,0,0.2,0,0.5,0l0.1,1.9c-0.3,0-0.5,0-0.5,0L197,128.2z M199.2,128l-0.1-1.9
				c0.3,0,0.7,0,1.1-0.1l0.1,1.9C199.9,128,199.5,128,199.2,128z M232,128c-0.4,0-0.7-0.1-1.1-0.1l0.2-1.9c0.4,0,0.8,0.1,1.2,0.1
				L232,128z M201.5,127.9l-0.1-1.9c0.4,0,0.7,0,1.1-0.1l0.1,1.9C202.2,127.9,201.8,127.9,201.5,127.9z M203.7,127.8l-0.1-1.9
				c0.4,0,0.7,0,1.1,0l0.1,1.9C204.5,127.8,204.1,127.8,203.7,127.8z M229.8,127.8c-0.4,0-0.7-0.1-1.1-0.1l0.1-1.9
				c0.4,0,0.8,0.1,1.1,0.1L229.8,127.8z M206,127.7l-0.1-1.9c0.4,0,0.8,0,1.1,0l0.1,1.9C206.7,127.7,206.4,127.7,206,127.7z
				 M208.3,127.6l-0.1-1.9c0.4,0,0.8,0,1.1,0l0.1,1.9C209,127.6,208.6,127.6,208.3,127.6z M227.5,127.6c-0.4,0-0.7,0-1.1-0.1
				l0.1-1.9c0.4,0,0.8,0,1.1,0.1L227.5,127.6z M210.5,127.6l-0.1-1.9c0.4,0,0.8,0,1.1,0l0,1.9C211.3,127.5,210.9,127.6,210.5,127.6z
				 M225.3,127.5c-0.4,0-0.7,0-1.1,0l0-1.9c0.4,0,0.8,0,1.1,0L225.3,127.5z M212.8,127.5l0-1.9c0.4,0,0.8,0,1.1,0l0,1.9
				C213.6,127.5,213.2,127.5,212.8,127.5z M223,127.5c-0.4,0-0.8,0-1.1,0l0-1.9c0.4,0,0.8,0,1.1,0L223,127.5z M215.1,127.5l0-1.9
				c0.4,0,0.8,0,1.1,0l0,1.9C215.8,127.5,215.4,127.5,215.1,127.5z M220.7,127.4c-0.4,0-0.8,0-1.1,0l0-1.9c0.4,0,0.8,0,1.1,0
				L220.7,127.4z M217.3,127.4l0-1.9c0.4,0,0.8,0,1.1,0l0,1.9C218.1,127.4,217.7,127.4,217.3,127.4z"/>
		</g>
		<g id="XMLID_395_">
			<polygon id="XMLID_41_" class="st0" points="170.9,133.2 170.9,140.7 200.8,140.7 232.2,133.2 			"/>
			<polygon id="XMLID_40_" class="st16" points="258.7,133.2 232.2,133.2 200.8,140.7 258.7,140.7 			"/>
		</g>
		<g id="XMLID_374_">
			<circle id="XMLID_39_" class="st14" cx="169.7" cy="136.8" r="4.1"/>
			<path id="XMLID_375_" class="st17" d="M169.7,131.8c0,0-0.6,0-0.9,0.1l0.2,0.9c0,0,0.1,0,0.1,0l0,0c0,0,0,0,0,0c0,0,0,0,0,0
				c0,0,0,0,0,0c0,0,0,0,0,0c0,0,0,0,0,0c0,0,0,0,0,0c0,0,0,0,0,0c0,0,0,0,0,0c0,0,0,0,0,0c0,0,0,0,0,0c0,0,0,0,0,0c0,0,0,0,0,0
				c0,0,0,0,0,0c0,0,0,0,0,0c0,0,0,0,0,0c0,0,0,0,0,0c0,0,0,0,0,0c0,0,0,0,0,0c0,0,0,0,0,0c0,0,0,0,0,0c0,0,0,0,0,0c0,0,0,0,0,0
				c0,0,0,0,0,0c0,0,0,0,0,0c0,0,0,0,0,0c0,0,0,0,0,0c0,0,0,0,0,0c0,0,0,0,0,0c0,0,0,0,0,0c0,0,0,0,0,0c0,0,0,0,0,0c0,0,0,0,0,0
				c0,0,0,0,0,0c0,0,0,0,0,0c0,0,0,0,0,0c0,0,0,0,0,0c0,0,0,0,0,0c0,0,0,0,0,0c0,0,0,0,0,0c0,0,0,0,0,0c0,0,0,0,0,0c0,0,0,0,0,0
				c0,0,0,0,0,0c0,0,0,0,0,0c0,0,0,0,0,0c0,0,0,0,0,0c0,0,0,0,0,0c0,0,0,0,0,0h0c0,0,0,0,0,0c0,0,0,0,0,0c0,0,0,0,0,0c0,0,0,0,0,0
				c0,0,0,0,0,0c0,0,0,0,0,0c0,0,0,0,0,0c0,0,0,0,0,0c0,0,0,0,0,0c0,0,0,0,0,0c0,0,0,0,0,0c0,0,0,0,0,0c0,0,0,0,0,0h0c0,0,0,0,0,0
				c0,0,0,0,0,0c0,0,0,0,0,0c0,0,0,0,0,0c0,0,0,0,0,0c0,0,0,0,0,0c0,0,0,0,0,0v0c0,0,0.1,0,0.1,0l0,0c0,0,0.1,0,0.2,0v0c0,0,0,0,0,0
				v0c0,0,0,0,0,0v0c0,0-0.1,0,0,0c0,0,0,0,0,0c0,0,0,0,0,0c0,0,0,0,0,0c0,0,0,0,0,0v0c0,0,0,0,0,0c0,0,0,0,0,0c0,0,0,0,0,0
				c0,0,0,0,0,0c0,0,0,0,0,0c0,0,0,0,0,0c0,0,0,0,0,0c0,0,0,0,0,0c0,0,0,0,0,0c0,0,0,0,0,0c0,0,0,0,0,0c0,0,0,0,0,0c0,0,0,0,0,0
				c0,0,0,0,0,0c0,0,0,0,0,0c0,0,0,0,0,0c0,0,0,0,0,0c0,0,0,0,0,0c0,0,0,0,0,0c0,0,0,0,0,0c0,0,0,0,0,0c0,0,0,0,0,0c0,0,0,0,0,0
				c0,0,0,0,0,0c0,0,0,0,0,0c0,0,0,0,0,0c0,0,0,0,0,0c0,0,0,0,0,0c0,0,0,0,0,0c0,0,0,0,0,0c0,0,0,0,0,0c0,0,0,0,0,0c0,0,0,0,0,0
				c0,0,0,0,0,0c0,0,0,0,0,0c0,0,0,0,0,0c0,0,0,0,0,0c0,0,0,0,0,0c0,0,0,0,0,0c0,0,0,0,0,0c0,0,0,0,0,0c0,0,0,0,0,0c0,0,0,0,0,0
				c0,0,0,0,0,0c0,0,0,0,0,0c0,0,0,0,0,0c0,0,0,0,0,0c0,0,0,0,0,0c0,0,0,0,0,0c0,0,0,0,0,0c0,0,0,0,0,0c0,0,0,0,0,0c0,0,0,0,0,0
				c0,0,0,0,0,0c0,0,0,0,0,0c0,0,0,0,0,0c0,0,0,0,0,0c0,0,0,0,0,0c0,0,0,0,0,0c0,0,0,0,0,0c0,0,0,0,0,0c0,0,0,0,0,0c0,0,0,0,0,0
				c0,0,0,0,0,0c0,0,0,0,0,0c0,0,0,0,0,0c0,0,0,0,0,0c0,0,0,0,0,0c0,0,0,0,0,0c0,0,0,0,0,0c0,0,0,0,0,0c0,0,0,0,0,0c0,0,0,0,0,0
				c0,0,0,0,0,0c0,0,0,0,0,0c0,0,0,0,0,0c0,0,0,0,0,0c0,0,0,0,0,0c0,0,0,0,0,0c0,0,0,0,0,0c0,0,0,0,0,0c0,0,0,0,0,0c0,0,0,0,0,0
				c0,0,0,0,0,0c0,0,0,0,0,0c0,0,0,0,0,0c0,0,0,0,0,0c0,0,0,0,0,0c0,0,0,0,0,0c0,0,0,0,0,0c0,0,0,0,0,0c0,0,0,0,0,0c0,0,0,0,0,0
				c0,0,0,0,0,0c0,0,0,0,0,0c0,0,0,0,0,0c0,0,0,0,0,0c0,0,0,0,0,0c0,0,0,0,0,0c0,0,0,0,0,0c0,0,0,0,0,0c0,0,0,0,0,0c0,0,0,0,0,0
				c0,0,0,0,0,0c0,0,0,0,0,0c0,0,0,0,0,0c0,0,0,0,0,0c0,0,0,0,0,0c0,0,0,0,0,0c0,0,0,0,0,0c0,0,0,0,0,0c0,0,0,0,0,0c0,0,0,0,0,0
				c0,0,0,0,0,0c0,0,0,0,0,0c0,0,0,0,0,0c0,0,0,0,0,0c0,0,0,0,0,0c0,0,0,0,0,0c0,0,0,0,0,0c0,0,0,0,0,0c0,0,0,0,0,0c0,0,0,0,0,0
				c0,0,0,0,0,0c0,0,0,0,0,0c0,0,0,0,0,0c0,0,0,0,0,0c0,0,0,0,0,0c0,0,0,0,0,0c0,0,0,0,0,0V131.8L169.7,131.8z M167.9,132.1
				c-0.3,0.1-0.6,0.2-0.8,0.4l0.5,0.8c0,0,0,0,0,0l0,0c0,0,0,0,0,0c0,0,0,0,0,0c0,0,0,0,0,0l0,0c0,0,0,0,0,0c0,0,0,0,0,0
				c0,0,0,0,0,0c0,0,0,0,0,0c0,0,0,0,0,0c0,0,0,0,0,0c0,0,0,0,0,0l0,0c0,0,0,0,0,0v0c0,0,0,0,0.1,0h0c0,0,0,0,0,0l0,0c0,0,0,0,0,0
				l0,0c0,0,0,0,0,0l0,0c0,0,0,0,0,0c0,0,0,0,0,0c0,0,0,0,0,0l0,0c0,0,0,0,0,0h0c0,0,0.1,0,0.1,0v0c0,0,0,0,0,0v0c0,0,0,0,0,0l0,0
				c0,0,0,0,0,0v0c0,0,0,0,0,0h0c0,0,0,0,0,0h0c0,0,0,0,0,0v0c0,0,0,0,0,0v0c0.1,0,0.1,0,0.1,0v0c0,0,0,0,0,0v0c0,0-0.1,0-0.1,0h0
				c0,0,0.1,0,0.1,0v0c0,0-0.1,0-0.1,0h0c0,0,0.1,0,0.1,0v0c0,0,0,0,0,0v0c0,0,0,0,0,0h0c0,0,0,0,0,0v0c0,0,0,0,0,0v0c0,0,0,0,0,0
				l0,0c0,0,0,0,0,0l0,0c0,0,0,0,0,0l0,0c0,0,0,0,0,0l0,0c0,0,0,0,0,0l0,0c0,0,0,0,0,0c0,0,0,0,0,0c0,0,0,0,0,0l0,0c0,0,0,0,0,0h0
				c0,0-0.1,0-0.1,0v0c0,0,0,0,0,0c0,0,0,0,0,0c0,0,0,0,0,0c0,0,0,0,0,0c0,0,0,0,0,0c0,0,0,0,0,0c0,0,0,0,0,0c0,0,0,0,0,0
				c0,0,0,0,0,0c0,0,0,0,0,0c0,0,0,0,0,0c0,0,0,0,0,0c0,0,0,0,0,0c0,0,0,0,0,0c0,0,0,0,0,0c0,0,0,0,0,0c0,0,0,0,0,0c0,0,0,0,0,0
				c0,0,0,0,0,0c0,0,0,0,0,0c0,0,0,0,0,0c0,0,0,0,0,0c0,0,0,0,0,0h0c0,0,0,0,0,0c0,0,0,0,0,0c0,0,0,0,0,0c0,0,0,0,0,0c0,0,0,0,0,0
				c0,0,0,0,0,0c0,0,0,0,0,0c0,0,0,0,0,0c0,0,0,0,0,0c0,0,0,0,0,0c0,0,0,0,0,0c0,0,0,0,0,0c0,0,0,0,0,0c0,0,0,0,0,0c0,0,0,0,0,0
				c0,0,0,0,0,0c0,0,0,0,0,0c0,0,0,0,0,0c0,0,0,0,0,0c0,0,0,0,0,0c0,0,0,0,0,0c0,0,0,0,0,0c0,0,0,0,0,0c0,0,0,0,0,0c0,0,0,0,0,0
				c0,0,0,0,0,0c0,0,0,0,0,0c0,0,0,0,0,0c0,0,0,0,0,0c0,0,0,0,0,0c0,0,0,0,0,0c0,0,0,0,0,0c0,0,0,0,0,0c0,0,0,0,0,0c0,0,0,0,0,0
				c0,0,0,0,0,0c0,0,0,0,0,0c0,0,0,0,0,0c0,0,0,0,0,0c0,0,0,0,0,0c0,0,0,0,0,0c0,0,0,0,0,0c0,0,0,0,0,0c0,0,0,0,0,0c0,0,0,0,0,0
				c0,0,0,0,0,0c0,0,0,0,0,0c0,0,0,0,0,0c0,0,0,0,0,0c0,0,0,0,0,0c0,0,0,0,0,0c0,0,0,0,0,0c0,0,0,0,0,0c0,0,0,0,0,0c0,0,0,0,0,0
				c0,0,0,0,0,0c0,0,0,0,0,0c0,0,0,0,0,0c0,0,0,0,0,0c0,0,0,0,0,0c0,0,0,0,0,0c0,0,0,0,0,0c0,0,0,0,0,0c0,0,0,0,0,0c0,0,0,0,0,0
				c0,0,0,0,0,0c0,0,0,0,0,0c0,0,0,0,0,0c0,0,0,0,0,0c0,0,0,0,0,0c0,0,0,0,0,0c0,0,0,0,0,0c0,0,0,0,0,0c0,0,0,0,0,0c0,0,0,0,0,0
				c0,0,0,0,0,0c0,0,0,0,0,0c0,0,0,0,0,0c0,0,0,0,0,0c0,0,0,0,0,0c0,0,0,0,0,0c0,0,0,0,0,0c0,0,0,0,0,0c0,0,0,0,0,0c0,0,0,0,0,0
				c0,0,0,0,0,0h0c0,0,0,0,0,0v0c0,0,0,0,0,0h0c0,0,0.1,0,0.1,0L167.9,132.1L167.9,132.1z M166.3,133.1c-0.2,0.2-0.4,0.4-0.6,0.7
				l0.7,0.6c0.1-0.1,0.1-0.1,0.2-0.2l0,0c0,0,0,0,0,0c0,0,0,0,0,0c0,0,0,0,0,0c0,0,0,0,0,0c0,0,0,0,0,0c0,0,0,0,0,0c0,0,0,0,0,0
				c0,0,0,0,0,0c0,0,0,0,0,0c0,0,0,0,0,0c0,0,0,0,0,0c0,0,0,0,0,0c0,0,0,0,0,0c0,0,0,0,0,0c0,0,0,0,0,0c0,0,0,0,0,0c0,0,0,0,0,0
				c0,0,0,0,0,0c0,0,0,0,0,0c0,0,0,0,0,0c0,0,0,0,0,0c0,0,0,0,0,0c0,0,0,0,0,0c0,0,0,0,0,0c0,0,0,0,0,0c0,0,0,0,0,0c0,0,0,0,0,0
				c0,0,0,0,0,0c0,0,0,0,0,0s0,0,0,0c0,0,0,0,0,0c0,0,0,0,0,0c0,0,0,0,0,0c0,0,0,0,0,0c0,0,0,0,0,0c0,0,0,0,0,0c0,0,0,0,0,0
				c0,0,0,0,0,0c0,0,0,0,0,0c0,0,0,0,0,0c0,0,0,0,0,0c0,0,0,0,0,0c0,0,0,0,0,0c0,0,0,0,0,0c0,0,0,0,0,0c0,0,0,0,0,0c0,0,0,0,0,0
				c0,0,0,0,0,0c0,0,0,0,0,0c0,0,0,0,0,0c0,0,0,0,0,0c0,0,0,0,0,0c0,0,0,0,0,0c0,0,0,0,0,0v0c0.1-0.1,0.1-0.1,0.2-0.2h0c0,0,0,0,0,0
				l0,0c0,0,0,0,0,0v0c0,0,0,0,0,0l0,0c0,0,0,0,0,0l0,0c0,0,0,0,0,0l0,0c0,0,0,0,0,0c0,0,0,0,0,0c0,0,0,0,0,0c0,0,0,0,0,0
				c0,0,0,0,0,0c0,0,0,0,0,0c0,0,0,0,0,0c0,0,0,0,0,0c0,0,0,0,0,0c0,0,0,0,0,0c0,0,0,0,0,0c0,0,0,0,0,0c0,0,0,0,0,0c0,0,0,0,0,0
				c0,0,0,0,0,0c0,0,0,0,0,0c0,0,0,0,0,0c0,0,0,0,0,0c0,0,0,0,0,0c0,0,0,0,0,0c0,0,0,0,0,0c0,0,0,0,0,0c0,0,0,0,0,0c0,0,0,0,0,0
				c0,0,0,0,0,0c0,0,0,0,0,0l0,0c0,0,0,0,0,0c0,0,0,0,0,0c0,0,0,0,0,0L166.3,133.1L166.3,133.1z M165.2,134.6
				c-0.1,0.3-0.3,0.6-0.3,0.9l0.9,0.3c0,0,0-0.1,0-0.1v0c0,0,0,0,0,0c0,0,0,0,0,0c0,0,0,0,0,0c0,0,0,0,0,0c0,0,0,0,0,0c0,0,0,0,0,0
				c0,0,0,0,0,0c0,0,0,0,0,0c0,0,0,0,0,0c0,0,0,0,0,0c0,0,0,0,0,0c0,0,0,0,0,0c0,0,0,0,0,0c0,0,0,0,0,0c0,0,0,0,0,0c0,0,0,0,0,0
				c0,0,0,0,0,0c0,0,0,0,0,0c0,0,0,0,0,0c0,0,0,0,0,0c0,0,0,0,0,0c0,0,0,0,0,0c0,0,0,0,0,0c0,0,0,0,0,0c0,0,0,0,0,0c0,0,0,0,0,0
				c0,0,0,0,0,0c0,0,0,0,0,0c0,0,0,0,0,0c0,0,0,0,0,0c0,0,0,0,0,0c0,0,0,0,0,0c0,0,0,0,0,0c0,0,0,0,0,0c0,0,0,0,0,0c0,0,0,0,0,0
				c0,0,0,0,0,0c0,0,0,0,0,0c0,0,0,0,0,0c0,0,0,0,0,0c0,0,0,0,0,0c0,0,0,0,0,0c0,0,0,0,0,0c0,0,0,0,0,0c0,0,0,0,0,0c0,0,0,0,0,0
				c0,0,0,0,0,0c0,0,0,0,0,0c0,0,0,0,0,0c0,0,0,0,0,0c0,0,0,0,0,0c0,0,0,0,0,0c0,0,0,0,0,0c0,0,0,0,0,0c0,0,0,0,0,0c0,0,0,0,0,0
				c0,0,0,0,0,0c0,0,0,0,0,0c0,0,0,0,0,0c0,0,0,0,0,0c0,0,0,0,0,0c0,0,0,0,0,0c0,0,0,0,0,0c0,0,0,0,0,0c0,0,0,0,0,0c0,0,0,0,0,0
				c0,0,0,0,0,0c0,0,0,0,0,0c0,0,0,0,0,0c0,0,0,0,0,0c0,0,0,0,0,0c0,0,0,0,0,0s0,0,0,0c0,0,0,0,0,0c0,0,0,0,0,0c0,0,0,0,0,0
				c0,0,0,0,0,0c0,0,0,0,0,0c0,0,0,0,0,0c0,0,0,0,0,0c0,0,0,0,0,0c0,0,0,0,0,0c0,0,0,0,0,0c0,0,0,0,0,0s0,0,0,0s0,0,0,0c0,0,0,0,0,0
				c0,0,0,0,0,0c0,0,0,0,0,0c0,0,0,0,0,0c0,0,0,0,0,0c0,0,0,0,0,0c0,0,0,0,0,0c0,0,0,0,0,0c0,0,0,0,0,0c0,0,0,0,0,0c0,0,0,0,0,0
				c0,0,0,0,0,0c0,0,0,0,0,0c0,0,0,0,0,0c0,0,0,0,0,0c0,0,0,0,0,0c0,0,0,0,0,0c0,0,0,0,0,0c0,0,0,0,0,0c0,0,0,0,0,0c0,0,0,0,0,0
				c0,0,0,0,0,0c0,0,0,0,0,0c0,0,0,0,0,0c0,0,0,0,0,0c0,0,0,0,0,0c0,0,0,0,0,0c0,0,0,0,0,0c0,0,0,0,0,0c0,0,0,0,0,0c0,0,0,0,0,0
				c0,0,0,0,0,0c0,0,0,0,0,0c0,0,0,0,0,0c0,0,0,0,0,0c0,0,0,0,0,0c0,0,0,0,0,0c0,0,0,0,0,0c0,0,0,0,0,0c0,0,0,0,0,0c0,0,0,0,0,0
				c0,0,0,0,0,0c0,0,0,0,0,0c0,0,0,0,0,0c0,0,0,0,0,0v0c0,0,0,0,0,0v0c0,0,0,0,0,0h0c0,0,0,0,0,0v0c0,0,0,0,0,0h0c0,0,0,0,0,0h0
				c0,0,0,0,0,0l0,0c0-0.1,0.1-0.2,0.2-0.4L165.2,134.6L165.2,134.6z M164.7,136.3c0,0.2,0,0.3,0,0.5c0,0.1,0,0.3,0,0.4l1-0.1
				c0-0.1,0-0.2,0-0.2v0c0,0,0,0,0,0c0,0,0,0,0,0c0,0,0,0,0,0c0,0,0,0,0,0c0,0,0,0,0,0c0,0,0,0,0,0c0,0,0,0,0,0c0,0,0,0,0,0
				c0,0,0,0,0,0c0,0,0,0,0,0c0,0,0,0,0,0c0,0,0,0,0,0c0,0,0,0,0,0c0,0,0,0,0,0c0,0,0,0,0,0c0,0,0,0,0,0c0,0,0,0,0,0c0,0,0,0,0,0
				c0,0,0,0,0,0c0,0,0,0,0,0c0,0,0,0,0,0c0,0,0,0,0,0c0,0,0,0,0,0c0,0,0,0,0,0c0,0,0,0,0,0c0,0,0,0,0,0c0,0,0,0,0,0c0,0,0,0,0,0
				c0,0,0,0,0,0c0,0,0,0,0,0c0,0,0,0,0,0c0,0,0,0,0,0s0,0,0,0c0,0,0,0,0,0c0,0,0,0,0,0c0,0,0,0,0,0c0,0,0,0,0,0c0,0,0,0,0,0
				c0,0,0,0,0,0c0,0,0,0,0,0c0,0,0,0,0,0c0,0,0,0,0,0c0,0,0,0,0,0c0,0,0,0,0,0c0,0,0,0,0,0c0,0,0,0,0,0c0,0,0,0,0,0c0,0,0,0,0,0
				c0,0,0,0,0,0c0,0,0,0,0,0c0,0,0,0,0,0c0,0,0,0,0,0c0,0,0,0,0,0c0,0,0,0,0,0c0,0,0,0,0,0c0,0,0,0,0,0c0,0,0,0,0,0c0,0,0,0,0,0l0,0
				l0,0l0,0l0,0c0,0,0,0,0,0c0,0,0,0,0,0c0,0,0,0,0,0c0,0,0,0,0,0c0,0,0,0,0,0c0,0,0,0,0,0c0,0,0,0,0,0c0,0,0,0,0,0c0,0,0,0,0,0
				c0,0,0,0,0,0c0,0,0,0,0,0c0,0,0,0,0,0c0,0,0,0,0,0c0,0,0,0,0,0c0,0,0,0,0,0c0,0,0,0,0,0c0,0,0,0,0,0c0,0,0,0,0,0s0,0,0,0
				c0,0,0,0,0,0s0,0,0,0s0,0,0,0s0,0,0,0s0,0,0,0s0,0,0,0c0,0,0,0,0,0c0,0,0,0,0,0c0,0,0,0,0,0c0,0,0,0,0,0c0,0,0,0,0,0c0,0,0,0,0,0
				c0,0,0,0,0,0c0,0,0,0,0,0c0,0,0,0,0,0c0,0,0,0,0,0c0,0,0,0,0,0c0,0,0,0,0,0s0,0,0,0s0,0,0,0c0,0,0,0,0,0c0,0,0,0,0,0c0,0,0,0,0,0
				c0,0,0,0,0,0c0,0,0,0,0,0c0,0,0,0,0,0c0,0,0,0,0,0c0,0,0,0,0,0c0,0,0,0,0,0c0,0,0,0,0,0c0,0,0,0,0,0c0,0,0,0,0,0c0,0,0,0,0,0
				c0,0,0,0,0,0c0,0,0,0,0,0c0,0,0,0,0,0c0,0,0,0,0,0c0,0,0,0,0,0c0,0,0,0,0,0c0,0,0,0,0,0c0,0,0,0,0,0c0,0,0,0,0,0c0,0,0,0,0,0
				c0,0,0,0,0,0c0,0,0,0,0,0c0,0,0,0,0,0s0,0,0,0c0,0,0,0,0,0c0,0,0,0,0,0c0,0,0,0,0,0c0,0,0,0,0,0c0,0,0,0,0,0c0,0,0,0,0,0
				c0,0,0,0,0,0c0,0,0,0,0,0c0,0,0,0,0,0c0,0,0,0,0,0c0,0,0,0,0,0c0,0,0,0,0,0c0,0,0,0,0,0c0,0,0,0,0,0c0,0,0,0,0,0c0,0,0,0,0,0
				c0,0,0,0,0,0c0,0,0,0,0,0s0,0,0,0c0,0,0,0,0,0c0,0,0,0,0,0c0,0,0,0,0,0c0,0,0,0,0,0s0,0,0,0c0,0,0,0,0,0c0,0,0,0,0,0c0,0,0,0,0,0
				c0,0,0,0,0,0c0,0,0,0,0,0c0,0,0,0,0,0c0,0,0,0,0,0c0,0,0,0,0,0c0,0,0,0,0,0c0,0,0,0,0,0c0,0,0,0,0,0c0,0,0,0,0,0c0,0,0,0,0,0
				c0,0,0,0,0,0c0,0,0,0,0,0c0,0,0,0,0,0c0,0,0,0,0,0c0,0,0,0,0,0c0,0,0,0,0,0c0,0,0,0,0,0c0,0,0,0,0,0c0,0,0,0,0,0c0,0,0,0,0,0
				c0,0,0,0,0,0c0,0,0,0,0,0c0,0,0,0,0,0c0,0,0,0,0,0c0,0,0,0,0,0c0,0,0,0,0,0c0,0,0,0,0,0c0,0,0,0,0,0c0,0,0,0,0,0c0,0,0,0,0,0
				c0,0,0,0,0,0c0,0,0,0,0,0c0,0,0,0,0,0c0,0,0,0,0,0c0,0,0,0,0,0c0,0,0,0,0,0c0,0,0,0,0,0c0,0,0,0,0,0c0,0,0,0,0,0c0,0,0,0,0,0
				c0,0,0,0,0,0c0,0,0,0,0,0c0,0,0,0,0,0c0,0,0,0,0,0c0,0,0,0,0,0c0,0,0,0,0,0c0,0,0,0,0,0c0,0,0,0,0,0c0,0,0,0,0,0c0,0,0,0,0,0
				c0,0,0,0,0,0c0,0,0,0,0,0c0,0,0,0,0,0c0,0,0,0,0,0c0,0,0,0,0,0c0,0,0,0,0,0c0,0,0,0,0,0c0,0,0,0,0,0c0,0,0,0,0,0c0,0,0,0,0,0
				c0,0,0,0,0,0v0c0,0,0,0,0,0v0c0,0,0,0,0,0l0,0c0-0.1,0-0.1,0-0.2L164.7,136.3L164.7,136.3z M165.7,137.9l-0.9,0.2
				c0.1,0.3,0.2,0.6,0.3,0.9l0.9-0.4C165.9,138.4,165.8,138.2,165.7,137.9L165.7,137.9z M166.4,139.3l-0.8,0.6
				c0.2,0.2,0.4,0.5,0.6,0.7l0.6-0.7c0,0,0,0,0,0h0c0,0,0,0,0,0c0,0,0,0,0,0c0,0,0,0,0,0c0,0,0,0,0,0c0,0,0,0,0,0c0,0,0,0,0,0
				c0,0,0,0,0,0c0,0,0,0,0,0c0,0,0,0,0,0c0,0,0,0,0,0c0,0,0,0,0,0c0,0,0,0,0,0c0,0,0,0,0,0c0,0,0,0,0,0c0,0,0,0,0,0c0,0,0,0,0,0
				c0,0,0,0,0,0c0,0,0,0,0,0c0,0,0,0,0,0c0,0,0,0,0,0c0,0,0,0,0,0c0,0,0,0,0,0c0,0,0,0,0,0c0,0,0,0,0,0c0,0,0,0,0,0c0,0,0,0,0,0
				c0,0,0,0,0,0c0,0,0,0,0,0c0,0,0,0,0,0c0,0,0,0,0,0c0,0,0,0,0,0c0,0,0,0,0,0c0,0,0,0,0,0c0,0,0,0,0,0c0,0,0,0,0,0c0,0,0,0,0,0
				c0,0,0,0,0,0c0,0,0,0,0,0c0,0,0,0,0,0c0,0,0,0,0,0c0,0,0,0,0,0c0,0,0,0,0,0c0,0,0,0,0,0c0,0,0,0,0,0c0,0,0,0,0,0c0,0,0,0,0,0
				c0,0,0,0,0,0c0,0,0,0,0,0c0,0,0,0,0,0c0,0,0,0,0,0c0,0,0,0,0,0c0,0,0,0,0,0c0,0,0,0,0,0c0,0,0,0,0,0c0,0,0,0,0,0c0,0,0,0,0,0
				c0,0,0,0,0,0c0,0,0,0,0,0c0,0,0,0,0,0c0,0,0,0,0,0c0,0,0,0,0,0c0,0,0,0,0,0c0,0,0,0,0,0c0,0,0,0,0,0c0,0,0,0,0,0c0,0,0,0,0,0
				c0,0,0,0,0,0c0,0,0,0,0,0c0,0,0,0,0,0c0,0,0,0,0,0c0,0,0,0,0,0c0,0,0,0,0,0c0,0,0,0,0,0c0,0,0,0,0,0c0,0,0,0,0,0c0,0,0,0,0,0
				c0,0,0,0,0,0c0,0,0,0,0,0c0,0,0,0,0,0c0,0,0,0,0,0c0,0,0,0,0,0c0,0,0,0,0,0c0,0,0,0,0,0c0,0,0,0,0,0c0,0,0,0,0,0c0,0,0,0,0,0
				c0,0,0,0,0,0c0,0,0,0,0,0c0,0,0,0,0,0c0,0,0,0,0,0c0,0,0,0,0,0c0,0,0,0,0,0c0,0,0,0,0,0c0,0,0,0,0,0c0,0,0,0,0,0c0,0,0,0,0,0
				c0,0,0,0,0,0c0,0,0,0,0,0c0,0,0,0,0,0c0,0,0,0,0,0c0,0,0,0,0,0c0,0,0,0,0,0c0,0,0,0,0,0c0,0,0,0,0,0c0,0,0,0,0,0c0,0,0,0,0,0
				c0,0,0,0,0,0c0,0,0,0,0,0c0,0,0,0,0,0c0,0,0,0,0,0c0,0,0,0,0,0c0,0,0,0,0,0c0,0,0,0,0,0c0,0,0,0,0,0c0,0,0,0,0,0c0,0,0,0,0,0
				c0,0,0,0,0,0c0,0,0,0,0,0c0,0,0,0,0,0c0,0,0,0,0,0c0,0,0,0,0,0c0,0,0,0,0,0c0,0,0,0,0,0c0,0,0,0,0,0c0,0,0,0,0,0c0,0,0,0,0,0
				c0,0,0,0,0,0c0,0,0,0,0,0c0,0,0,0,0,0c0,0,0,0,0,0c0,0,0,0,0,0c0,0,0,0,0,0c0,0,0,0,0,0c0,0,0,0,0,0c0,0,0,0,0,0c0,0,0,0,0,0
				c0,0,0,0,0,0c0,0,0,0,0,0c0,0,0,0,0,0c0,0,0,0,0,0c0,0,0,0,0,0c0,0,0,0,0,0c0,0,0,0,0,0c0,0,0,0,0,0c0,0,0,0,0,0c0,0,0,0,0,0
				c0,0,0,0,0,0c0,0,0,0,0,0c0,0,0,0,0,0c0,0,0,0,0,0c0,0,0,0,0,0c0,0,0,0,0,0c0,0,0,0,0,0c0,0,0,0,0,0c0,0,0,0,0,0c0,0,0,0,0,0
				c0,0,0,0,0,0c0,0,0,0,0,0c0,0,0,0,0,0c0,0,0,0,0,0c0,0,0,0,0,0c0,0,0,0,0,0c0,0,0,0,0,0c0,0,0,0,0,0c0,0,0,0,0,0c0,0,0,0,0,0
				c0,0,0,0,0,0c0,0,0,0,0,0c0,0,0,0,0,0c0,0,0,0,0,0c0,0,0,0,0,0c0,0,0,0,0,0c0,0,0,0,0,0c0,0,0,0,0,0c0,0,0,0,0,0c0,0,0,0,0,0v0
				c0,0,0,0,0,0h0c0,0,0,0,0,0c0,0,0,0,0,0c0,0,0,0,0,0c0,0,0,0,0,0c0,0,0,0,0,0c0,0,0,0,0,0c0,0,0,0,0,0c0,0,0,0,0,0c0,0,0,0,0,0
				c0,0,0,0,0,0c0,0,0,0,0,0c0,0,0,0,0,0c0,0,0,0,0,0c0,0,0,0,0,0c0,0,0,0,0,0c0,0,0,0,0,0c0,0,0,0,0,0c0,0,0,0,0,0c0,0,0,0,0,0
				c0,0,0,0,0,0c0,0,0,0,0,0c0,0,0,0,0,0c0,0,0,0,0,0c0,0,0,0,0,0c0,0,0,0,0,0c0,0,0,0,0,0c0,0,0,0,0,0h0c0,0,0-0.1,0-0.1v0
				c0,0,0,0,0,0c0,0,0,0,0,0c0,0,0,0,0,0c0,0,0,0,0,0c0,0,0,0,0,0c0,0,0,0,0,0c0,0,0,0,0,0c0,0,0,0,0,0c0,0,0,0,0,0c0,0,0,0,0,0
				c0,0,0,0,0,0c0,0,0,0,0,0c0,0,0,0,0,0c0,0,0,0,0,0c0,0,0,0,0,0c0,0,0,0,0,0c0,0,0,0,0,0c0,0,0,0,0,0c0,0,0,0,0,0c0,0,0,0,0,0
				c0,0,0,0,0,0c0,0,0,0,0,0c0,0,0,0,0,0c0,0,0,0,0,0c0,0,0,0,0,0c0,0,0,0,0,0c0,0,0,0,0,0c0,0,0,0,0,0c0,0,0,0,0,0v0c0,0,0,0,0,0h0
				c0,0,0,0,0,0c0,0,0,0,0,0c0,0,0,0,0,0c0,0,0,0,0,0c0,0,0,0,0,0c0,0,0,0,0,0c0,0,0,0,0,0c0,0,0,0,0,0c0,0,0,0,0,0c0,0,0,0,0,0
				c0,0,0,0,0,0c0,0,0,0,0,0c0,0,0,0,0,0c0,0,0,0,0,0c0,0,0,0,0,0c0,0,0,0,0,0c0,0,0,0,0,0c0,0,0,0,0,0c0,0,0,0,0,0c0,0,0,0,0,0
				c0,0,0,0,0,0c0,0,0,0,0,0c0,0,0,0,0,0c0,0,0,0,0,0c0,0,0,0,0,0c0,0,0,0,0,0c0,0,0,0,0,0c0,0,0,0,0,0c0,0,0,0,0,0c0,0,0,0,0,0
				c0,0,0,0,0,0l0,0c0,0,0,0,0,0l0,0c0,0,0,0,0,0l0,0c0,0,0,0,0,0c0,0,0,0,0,0c0,0,0,0,0,0c0,0,0,0,0,0c0,0,0,0,0,0c0,0,0,0,0,0
				c0,0,0,0,0,0c0,0,0,0,0,0c0,0,0,0,0,0c0,0,0,0,0,0c0,0,0,0,0,0c0,0,0,0,0,0c0,0,0,0,0,0c0,0,0,0,0,0c0,0,0,0,0,0c0,0,0,0,0,0
				c0,0,0,0,0,0c0,0,0,0,0,0c0,0,0,0,0,0c0,0,0,0,0,0c0,0,0,0,0,0c0,0,0,0,0,0c0,0,0,0,0,0c0,0,0,0,0,0c0,0,0,0,0,0l0,0c0,0,0,0,0,0
				l0,0c0,0,0,0,0,0c0,0,0,0,0,0c0,0,0,0,0,0c0,0,0,0,0,0c0,0,0,0,0,0c0,0,0,0,0,0c0,0,0,0,0,0c0,0,0,0,0,0c0,0,0,0,0,0c0,0,0,0,0,0
				c0,0,0,0,0,0c0,0,0,0,0,0c0,0,0,0,0,0c0,0,0,0,0,0c0,0,0,0,0,0c0,0,0,0,0,0C166.4,139.4,166.4,139.4,166.4,139.3L166.4,139.3
				C166.4,139.4,166.4,139.4,166.4,139.3L166.4,139.3C166.4,139.4,166.4,139.4,166.4,139.3L166.4,139.3
				C166.4,139.4,166.4,139.4,166.4,139.3L166.4,139.3C166.4,139.4,166.4,139.3,166.4,139.3L166.4,139.3
				C166.4,139.3,166.4,139.4,166.4,139.3L166.4,139.3C166.4,139.2,166.4,139.3,166.4,139.3L166.4,139.3
				C166.4,139.3,166.4,139.3,166.4,139.3L166.4,139.3C166.4,139.3,166.4,139.3,166.4,139.3L166.4,139.3
				C166.4,139.3,166.4,139.3,166.4,139.3L166.4,139.3z M167.5,140.3l-0.5,0.8c0.3,0.2,0.5,0.3,0.8,0.4l0.4-0.9c-0.1,0-0.1,0-0.2-0.1
				c0,0,0,0,0,0c0,0,0,0,0,0c0,0,0,0,0,0c0,0,0,0,0,0c0,0,0,0,0,0c0,0,0,0,0,0c0,0,0,0,0,0c0,0,0,0,0,0c0,0,0,0,0,0c0,0,0,0,0,0
				c0,0,0,0,0,0c0,0,0,0,0,0c0,0,0,0,0,0c0,0,0,0,0,0c0,0,0,0,0,0c0,0,0,0,0,0c0,0,0,0,0,0c0,0,0,0,0,0c0,0,0,0,0,0c0,0,0,0,0,0
				c0,0,0,0,0,0c0,0,0,0,0,0c0,0,0,0,0,0c0,0,0,0,0,0C167.8,140.5,167.7,140.5,167.5,140.3C167.5,140.4,167.5,140.4,167.5,140.3
				C167.5,140.4,167.5,140.4,167.5,140.3C167.5,140.4,167.5,140.4,167.5,140.3C167.5,140.4,167.5,140.4,167.5,140.3
				C167.5,140.3,167.5,140.3,167.5,140.3C167.5,140.3,167.5,140.3,167.5,140.3C167.5,140.3,167.5,140.3,167.5,140.3
				C167.5,140.3,167.5,140.3,167.5,140.3C167.5,140.3,167.5,140.3,167.5,140.3C167.5,140.3,167.5,140.3,167.5,140.3
				C167.5,140.3,167.5,140.3,167.5,140.3C167.5,140.3,167.5,140.3,167.5,140.3C167.5,140.3,167.5,140.3,167.5,140.3
				C167.5,140.3,167.5,140.3,167.5,140.3C167.5,140.3,167.5,140.3,167.5,140.3C167.5,140.3,167.5,140.3,167.5,140.3
				C167.5,140.3,167.5,140.3,167.5,140.3C167.5,140.3,167.5,140.3,167.5,140.3C167.5,140.3,167.5,140.3,167.5,140.3
				C167.5,140.3,167.5,140.3,167.5,140.3C167.5,140.3,167.5,140.3,167.5,140.3C167.5,140.3,167.5,140.3,167.5,140.3
				C167.5,140.3,167.5,140.3,167.5,140.3C167.5,140.3,167.5,140.3,167.5,140.3C167.5,140.3,167.5,140.3,167.5,140.3
				C167.5,140.3,167.5,140.3,167.5,140.3C167.5,140.3,167.5,140.3,167.5,140.3C167.5,140.3,167.5,140.3,167.5,140.3
				C167.5,140.3,167.5,140.3,167.5,140.3C167.5,140.3,167.5,140.3,167.5,140.3C167.5,140.3,167.5,140.3,167.5,140.3
				C167.5,140.3,167.5,140.3,167.5,140.3C167.5,140.3,167.5,140.3,167.5,140.3C167.5,140.3,167.5,140.3,167.5,140.3
				C167.5,140.3,167.5,140.3,167.5,140.3C167.5,140.3,167.5,140.3,167.5,140.3C167.5,140.3,167.5,140.3,167.5,140.3
				C167.5,140.3,167.5,140.3,167.5,140.3C167.5,140.3,167.5,140.3,167.5,140.3C167.5,140.3,167.5,140.3,167.5,140.3
				C167.5,140.3,167.5,140.3,167.5,140.3C167.5,140.3,167.5,140.3,167.5,140.3C167.5,140.3,167.5,140.3,167.5,140.3
				C167.5,140.3,167.5,140.3,167.5,140.3C167.5,140.3,167.5,140.3,167.5,140.3L167.5,140.3C167.5,140.3,167.5,140.3,167.5,140.3
				L167.5,140.3z M168.8,140.9l-0.2,0.9c0.3,0.1,0.6,0.1,0.9,0.1l0-0.9c0,0-0.1,0-0.1,0h0c0,0,0,0,0,0h0c0,0,0,0,0,0h0c0,0,0,0,0,0
				v0c0,0,0,0,0,0c0,0,0,0,0,0c0,0,0,0,0,0c0,0,0,0,0,0c0,0,0,0,0,0c0,0,0,0,0,0c0,0,0,0,0,0c0,0,0,0,0,0c0,0,0,0,0,0c0,0,0,0,0,0
				c0,0,0,0,0,0c0,0,0,0,0,0c0,0,0,0,0,0c0,0,0,0,0,0c0,0,0,0,0,0c0,0,0,0,0,0c0,0,0,0,0,0c0,0,0,0,0,0c0,0,0,0,0,0c0,0,0,0,0,0
				c0,0,0,0,0,0c0,0,0,0,0,0c0,0,0,0,0,0c0,0,0,0,0,0c0,0,0,0,0,0s0,0,0,0c0,0,0,0,0,0c0,0,0,0,0,0c0,0,0,0,0,0c0,0,0,0,0,0
				c0,0,0,0,0,0c0,0,0,0,0,0c0,0,0,0,0,0c0,0,0,0,0,0c0,0,0,0,0,0c0,0,0,0,0,0c0,0,0,0,0,0c0,0,0,0,0,0c0,0,0,0,0,0c0,0,0,0,0,0
				c0,0,0,0,0,0c0,0,0,0,0,0c0,0,0,0,0,0c0,0,0,0,0,0c0,0,0,0,0,0c0,0,0,0,0,0c0,0,0,0,0,0c0,0,0,0,0,0c0,0,0,0,0,0c0,0,0,0,0,0
				c0,0,0,0,0,0c0,0,0,0,0,0c0,0,0,0,0,0c0,0,0,0,0,0c0,0,0,0,0,0c0,0,0,0,0,0c0,0,0,0,0,0c0,0,0,0,0,0c0,0,0,0,0,0c0,0,0,0,0,0
				c0,0,0,0,0,0c0,0,0,0,0,0c0,0,0,0,0,0c0,0,0,0,0,0c0,0,0,0,0,0c0,0,0,0,0,0c0,0,0,0,0,0c0,0,0,0,0,0c0,0,0,0,0,0c0,0,0,0,0,0v0
				c0,0,0,0,0,0c0,0,0,0,0,0c0,0,0,0,0,0c0,0,0,0,0,0c0,0,0,0,0,0c0,0,0,0,0,0c0,0,0,0,0,0c0,0,0,0,0,0c0,0,0,0,0,0c0,0,0,0,0,0
				c0,0,0,0,0,0c0,0,0,0,0,0c0,0,0,0,0,0c0,0,0,0,0,0c0,0,0,0,0,0c0,0,0,0,0,0c0,0,0,0,0,0c0,0,0,0,0,0c0,0,0,0,0,0c0,0,0,0,0,0
				c0,0,0,0,0,0c0,0,0,0,0,0c0,0-0.1,0-0.1,0v0c0,0,0.1,0,0.1,0c0,0,0,0,0,0c0,0,0,0,0,0c0,0,0,0,0,0c0,0,0,0,0,0c0,0,0,0,0,0
				c0,0,0,0,0,0h0c0,0,0,0,0,0c0,0,0,0,0,0c0,0,0,0,0,0c0,0,0,0,0,0c0,0,0,0,0,0h0c0,0,0,0,0,0v0c0,0,0,0,0,0c0,0,0,0,0,0
				c0,0,0,0,0,0c0,0,0,0,0,0c0,0,0,0,0,0c0,0,0,0,0,0c0,0,0,0,0,0c0,0,0,0,0,0c0,0-0.1,0-0.1,0v0c0,0,0,0,0,0c0,0,0,0,0,0
				c0,0,0,0,0,0c0,0,0,0,0,0c0,0,0,0,0,0c0,0,0,0,0,0c0,0,0,0,0,0c0,0,0,0,0,0c0,0,0,0,0,0v0c0,0,0,0,0,0c0,0,0,0,0,0c0,0,0,0,0,0
				c0,0,0,0,0,0c0,0,0,0,0,0c0,0,0,0,0,0c0,0,0,0,0,0c0,0,0,0,0,0c0,0,0,0,0,0c0,0,0,0,0,0c0,0,0,0,0,0c0,0,0,0,0,0c0,0,0,0,0,0
				c0,0,0,0,0,0c0,0,0,0,0,0h0c0,0,0,0,0,0c0,0,0,0,0,0c0,0,0,0,0,0c0,0,0,0,0,0c0,0,0,0,0,0c0,0,0,0,0,0c0,0,0,0,0,0v0c0,0,0,0,0,0
				h0c0,0,0,0,0,0c0,0,0,0,0,0c0,0,0,0,0,0c0,0,0,0,0,0c0,0,0,0,0,0h0c0,0,0,0,0,0l0,0c0,0,0,0,0,0v0c0,0,0,0,0,0c0,0,0,0,0,0
				c0,0,0,0,0,0c0,0,0,0,0,0c0,0,0,0,0,0c0,0,0,0,0,0c0,0,0,0,0,0h0c0,0-0.1,0-0.1,0v0c0,0,0,0,0,0h0c0,0,0,0,0,0v0
				C169,140.9,168.9,140.9,168.8,140.9L168.8,140.9z M171.1,140.7C171.1,140.7,171,140.7,171.1,140.7L171.1,140.7
				C171,140.7,171,140.7,171.1,140.7C171,140.7,171,140.7,171.1,140.7C171,140.7,171,140.7,171.1,140.7
				C171,140.7,171,140.7,171.1,140.7C171,140.7,171,140.8,171.1,140.7C171,140.8,171,140.8,171.1,140.7
				C171,140.8,171,140.8,171.1,140.7C171,140.8,171,140.8,171.1,140.7C171,140.8,171,140.8,171.1,140.7
				C171,140.8,171,140.8,171.1,140.7C171,140.8,171,140.8,171.1,140.7C171,140.8,171,140.8,171.1,140.7
				C171,140.8,171,140.8,171.1,140.7C171,140.8,171,140.8,171.1,140.7C171,140.8,171,140.8,171.1,140.7
				C171,140.8,171,140.8,171.1,140.7c-0.1,0.1-0.1,0.1-0.1,0.1c0,0,0,0,0,0c0,0,0,0,0,0c0,0,0,0,0,0c0,0,0,0,0,0c0,0,0,0,0,0
				c0,0,0,0,0,0c0,0,0,0,0,0c0,0,0,0,0,0c0,0,0,0,0,0c0,0,0,0,0,0c0,0,0,0,0,0c0,0,0,0,0,0c0,0,0,0,0,0c0,0,0,0,0,0c0,0,0,0,0,0
				c0,0,0,0,0,0c0,0,0,0,0,0c0,0,0,0,0,0c0,0,0,0,0,0c0,0,0,0,0,0c0,0,0,0,0,0c0,0,0,0,0,0c0,0,0,0,0,0c0,0,0,0,0,0c0,0,0,0,0,0
				c0,0,0,0,0,0c0,0,0,0,0,0c0,0,0,0,0,0c0,0,0,0,0,0c0,0,0,0,0,0c0,0,0,0,0,0c0,0,0,0,0,0c0,0,0,0,0,0c0,0,0,0,0,0c0,0,0,0,0,0
				c0,0,0,0,0,0c0,0,0,0,0,0c0,0,0,0,0,0c0,0,0,0,0,0v0c0,0,0,0,0,0c0,0,0,0,0,0c0,0,0,0,0,0c0,0,0,0,0,0c0,0,0,0,0,0c0,0,0,0,0,0
				c0,0,0,0,0,0v0c-0.1,0-0.3,0.1-0.4,0.1l0,0c0,0,0,0,0,0c0,0,0,0,0,0c0,0,0,0,0,0c0,0,0,0,0,0c0,0,0,0,0,0c0,0,0,0,0,0
				c0,0,0,0,0,0c0,0,0,0,0,0c0,0,0,0,0,0c0,0,0,0,0,0c0,0,0,0,0,0c0,0,0,0,0,0c0,0,0,0,0,0c0,0,0,0,0,0c0,0,0,0,0,0c0,0,0,0,0,0
				c0,0,0,0,0,0c0,0,0,0,0,0c0,0,0,0,0,0c0,0,0,0,0,0c0,0,0,0,0,0c0,0,0,0,0,0c0,0,0,0,0,0c0,0,0,0,0,0c0,0,0,0,0,0c0,0,0,0,0,0
				c0,0,0,0,0,0c0,0,0,0,0,0c0,0,0,0,0,0c0,0,0,0,0,0c0,0,0,0,0,0c0,0,0,0,0,0c0,0,0,0,0,0c0,0,0,0,0,0c0,0,0,0,0,0c0,0,0,0,0,0
				c0,0,0,0,0,0c0,0,0,0,0,0h0c0,0-0.1,0-0.1,0l0.2,0.9c0.3,0,0.6-0.2,0.9-0.3L171.1,140.7L171.1,140.7z M172.4,140
				C172.4,140,172.3,140,172.4,140L172.4,140C172.3,140,172.3,140,172.4,140L172.4,140C172.3,140,172.3,140,172.4,140L172.4,140
				C172.3,140,172.3,140,172.4,140L172.4,140C172.3,140,172.3,140,172.4,140L172.4,140C172.3,140,172.3,140,172.4,140L172.4,140
				C172.3,140,172.3,140,172.4,140l-0.1,0.1c0,0,0,0,0,0v0c0,0,0,0,0,0v0c0,0,0,0,0,0c0,0,0,0,0,0c0,0,0,0,0,0c0,0,0,0,0,0
				c0,0,0,0,0,0c0,0,0,0,0,0c0,0,0,0,0,0c0,0,0,0,0,0c0,0,0,0,0,0c0,0,0,0,0,0c0,0,0,0,0,0c0,0,0,0,0,0c0,0,0,0,0,0c0,0,0,0,0,0
				c0,0,0,0,0,0c0,0,0,0,0,0c0,0,0,0,0,0c0,0,0,0,0,0c0,0,0,0,0,0c0,0,0,0,0,0c0,0,0,0,0,0c0,0,0,0,0,0c0,0,0,0,0,0c0,0,0,0,0,0
				c0,0,0,0,0,0c0,0,0,0,0,0c0,0,0,0,0,0c0,0,0,0,0,0c0,0,0,0,0,0c0,0,0,0,0,0h0c-0.2,0.3-0.3,0.3-0.5,0.4l0.5,0.8
				c0.3-0.2,0.5-0.3,0.8-0.5L172.4,140L172.4,140z M173.3,138.8c0,0.1-0.1,0.1-0.1,0.1c0,0,0,0,0,0c0,0,0,0,0,0c0,0,0,0,0,0
				c0,0,0,0,0,0c0,0,0,0,0,0c0,0,0,0,0,0c0,0,0,0,0,0c0,0,0,0,0,0c0,0,0,0,0,0c0,0,0,0,0,0c0,0,0,0,0,0c0,0,0,0,0,0c0,0,0,0,0,0
				c0,0,0,0,0,0c0,0,0,0,0,0c0,0,0,0,0,0c0,0,0,0,0,0c0,0,0,0,0,0v0c0,0,0,0,0,0c0,0,0,0,0,0c0,0,0,0,0,0v0c0,0,0,0,0,0c0,0,0,0,0,0
				c0,0,0,0,0,0c0,0,0,0,0,0c0,0,0,0,0,0c0,0,0,0,0,0c0,0,0,0,0,0c0,0,0,0,0,0c0,0,0,0,0,0c0,0,0,0,0,0c0,0,0,0,0,0c0,0,0,0,0,0
				c0,0,0,0,0,0c0,0,0,0,0,0c0,0,0,0,0,0c0,0,0,0,0,0c0,0,0,0,0,0c0,0,0,0,0,0c0,0,0,0,0,0c0,0,0,0,0,0c0,0,0,0,0,0c0,0,0,0,0,0
				c0,0,0,0,0,0c0,0,0,0,0,0c0,0,0,0,0,0c0,0,0,0,0,0c0,0,0,0,0,0c0,0,0,0,0,0c0,0,0,0,0,0c0,0,0,0,0,0c0,0,0,0,0,0c0,0,0,0,0,0
				c0,0,0,0,0,0c0,0,0,0,0,0c0,0,0,0,0,0c0,0,0,0,0,0c0,0,0,0,0,0c0,0,0,0,0,0c0,0,0,0,0,0c0,0,0,0,0,0c0,0,0,0,0,0c0,0,0,0,0,0
				c0,0,0,0,0,0c0,0,0,0,0,0c0,0,0,0,0,0c0,0,0,0,0,0c0,0,0,0,0,0c0,0,0,0,0,0c0,0,0,0,0,0c0,0,0,0,0,0c0,0,0,0,0,0c0,0,0,0,0,0
				c0,0,0,0,0,0c0,0,0,0,0,0c0,0,0,0,0,0c0,0,0,0,0,0c0,0,0,0,0,0c0,0,0,0,0,0c0,0,0,0,0,0c0,0,0,0,0,0c0,0,0,0,0,0c0,0,0,0,0,0
				c0,0,0,0,0,0c0,0,0,0,0,0c0,0,0,0,0,0c0,0,0,0,0,0c0,0,0,0,0,0c0,0,0,0,0,0c0,0,0,0,0,0c0,0,0,0,0,0l0,0c0,0,0,0,0,0c0,0,0,0,0,0
				c0,0,0,0,0,0c0,0,0,0,0,0c0,0,0,0,0,0c0,0,0,0,0,0c0,0,0,0,0,0c0,0,0,0,0,0c0,0,0,0,0,0c0,0,0,0,0,0c0,0,0,0,0,0c0,0,0,0,0,0
				c0,0,0,0,0,0c0,0,0,0,0,0c0,0,0,0,0,0c0,0,0,0,0,0c0,0,0,0,0,0c0,0,0,0,0,0c0,0,0,0,0,0c0,0,0,0,0,0c0,0,0,0,0,0c0,0,0,0,0,0
				c0,0,0,0,0,0c0,0,0,0,0,0c0,0,0,0,0,0c0,0,0,0,0,0c0,0,0,0,0,0c0,0,0,0,0,0c0,0,0,0,0,0c0,0,0,0,0,0c0,0,0,0,0,0c0,0,0,0,0,0
				c0,0,0,0,0,0c0,0,0,0,0,0c0,0,0,0,0,0v0c0,0,0,0,0,0h0c0,0,0,0,0,0c0,0,0,0,0,0c0,0,0,0,0,0c0,0,0,0,0,0c0,0,0,0,0,0c0,0,0,0,0,0
				c0,0,0,0,0,0c0,0,0,0,0,0c0,0,0,0,0,0c0,0,0,0,0,0c0,0,0,0,0,0c0,0,0,0,0,0c0,0,0,0,0,0c0,0,0,0,0,0c0,0,0,0,0,0c0,0,0,0,0,0
				c0,0,0,0,0,0c0,0,0,0,0,0c0,0,0,0,0,0c0,0,0,0,0,0c0,0,0,0,0,0c0,0,0,0,0,0c0,0,0,0,0,0c0,0,0,0,0,0c0,0,0,0,0,0c0,0,0,0,0,0
				c0,0,0,0,0,0c0,0,0,0,0,0c0,0,0,0,0,0c0,0,0,0,0,0c0,0,0,0,0,0c0,0,0,0,0,0c0,0,0,0,0,0v0c0,0,0,0,0,0c0,0,0,0,0,0c0,0,0,0,0,0
				c0,0,0,0,0,0c0,0,0,0,0,0c0,0,0,0,0,0c0,0,0,0,0,0c0,0,0,0,0,0c0,0,0,0,0,0c0,0,0,0,0,0c0,0,0,0,0,0c0,0,0,0,0,0c0,0,0,0,0,0
				c0,0,0,0,0,0c0,0,0,0,0,0c0,0,0,0,0,0c0,0,0,0,0,0c0,0,0,0,0,0c0,0,0,0,0,0c0,0,0,0,0,0c0,0,0,0,0,0c0,0,0,0,0,0c0,0,0,0,0,0
				c0,0,0,0,0,0c0,0,0,0,0,0c0,0,0,0,0,0c0,0,0,0,0,0c0,0,0,0,0,0c0,0,0,0,0,0c0,0,0,0,0,0c0,0,0,0,0,0l0,0c0,0,0,0,0,0l0,0
				c0,0,0,0,0,0c0,0,0,0,0,0c0,0,0,0,0,0c0,0,0,0,0,0c0,0,0,0,0,0c0,0,0,0,0,0c0,0,0,0,0,0c0,0,0,0,0,0c0,0,0,0,0,0c0,0,0,0,0,0
				c0,0,0,0,0,0c0,0,0,0,0,0c0,0,0,0,0,0c0,0,0,0,0,0c0,0,0,0,0,0c0,0,0,0,0,0c0,0,0,0,0,0c0,0,0,0,0,0c0,0,0,0,0,0c0,0,0,0,0,0
				c0,0,0,0,0,0c0,0,0,0,0,0c0,0,0,0,0,0c0,0,0,0,0,0c0,0,0,0,0,0c0,0,0,0,0,0c0,0,0,0,0,0c0,0,0,0,0,0c0,0,0,0,0,0v0c0,0,0,0,0,0h0
				c0,0,0,0.1,0,0.1v0c0,0,0,0,0,0c0,0,0,0,0,0c0,0,0,0,0,0c0,0,0,0,0,0c0,0,0,0,0,0c0,0,0,0,0,0c0,0,0,0,0,0c0,0,0,0,0,0
				c0,0,0,0,0,0c0,0,0,0,0,0c0,0,0,0,0,0c0,0,0,0,0,0c0,0,0,0,0,0c0,0,0,0,0,0c0,0,0,0,0,0c0,0,0,0,0,0c0,0,0,0,0,0c0,0,0,0,0,0
				c0,0,0,0,0,0l0,0c0,0,0,0,0,0c0,0,0,0,0,0c0,0,0,0,0,0h0c0,0,0,0,0,0l0,0c0,0,0,0,0,0l0,0c0,0,0,0,0,0l0,0c0,0,0,0,0,0l0,0
				c0,0,0,0,0,0.1l0.7,0.6c0.2-0.2,0.4-0.5,0.5-0.8L173.3,138.8L173.3,138.8z M173.8,137.4c0,0,0,0.1,0,0.1c0,0,0,0,0,0c0,0,0,0,0,0
				v0c0,0,0,0,0,0c0,0,0,0,0,0c0,0,0,0,0,0c0,0,0,0,0,0c0,0,0,0,0,0c0,0,0,0,0,0c0,0,0,0,0,0v0c0,0,0,0,0,0c0,0,0,0,0,0c0,0,0,0,0,0
				c0,0,0,0,0,0c0,0,0,0,0,0c0,0,0,0,0,0c0,0,0,0,0,0c0,0,0,0,0,0c0,0,0,0,0,0c0,0,0,0,0,0c0,0,0,0,0,0c0,0,0,0,0,0c0,0,0,0,0,0
				c0,0,0,0,0,0c0,0,0,0,0,0c0,0,0,0,0,0c0,0,0,0,0,0c0,0,0,0,0,0c0,0,0,0,0,0v0c0,0,0,0,0,0c0,0,0,0,0,0c0,0,0,0,0,0c0,0,0,0,0,0
				c0,0,0,0,0,0c0,0,0,0,0,0c0,0,0,0,0,0c0,0,0,0,0,0c0,0,0,0,0,0c0,0,0,0,0,0c0,0,0,0,0,0c0,0,0,0,0,0c0,0,0,0,0,0c0,0,0,0,0,0
				c0,0,0,0,0,0c0,0,0,0,0,0c0,0,0,0,0,0c0,0,0,0,0,0c0,0,0,0,0,0c0,0,0,0,0,0c0,0,0,0,0,0c0,0,0,0,0,0c0,0,0,0,0,0c0,0,0,0,0,0
				c0,0,0,0,0,0c0,0,0,0,0,0c0,0,0,0,0,0c0,0,0,0,0,0c0,0,0,0,0,0c0,0,0,0,0,0c0,0,0,0,0,0c0,0,0,0,0,0c0,0,0,0,0,0c0,0,0,0,0,0
				c0,0,0,0,0,0c0,0,0,0,0,0c0,0,0,0,0,0c0,0,0,0,0,0c0,0,0,0,0,0c0,0,0,0,0,0c0,0,0,0,0,0c0,0,0,0,0,0c0,0,0,0,0,0c0,0,0,0,0,0h0
				c0,0,0,0.1,0,0.1c0,0,0,0,0,0c0,0,0,0,0,0c0,0,0,0,0,0c0,0,0,0,0,0c0,0,0,0,0,0c0,0,0,0,0,0c0,0,0,0,0,0c0,0,0,0,0,0c0,0,0,0,0,0
				c0,0,0,0,0,0c0,0,0,0,0,0c0,0,0,0,0,0c0,0,0,0,0,0c0,0,0,0,0,0c0,0,0,0,0,0c0,0,0,0,0,0c0,0,0,0,0,0c0,0,0,0,0,0c0,0,0,0,0,0
				c0,0,0,0,0,0c0,0,0,0,0,0c0,0,0,0,0,0v0c0,0.1,0,0.2,0,0.3l0,0c0,0,0,0,0,0c0,0,0,0,0,0c0,0,0-0.1,0-0.1h0c0,0,0,0,0,0h0
				c0,0,0,0.1,0,0.1c0,0,0,0,0,0c0,0,0,0,0,0c0,0,0,0,0,0c0,0,0,0,0,0c0,0,0,0,0,0c0,0,0,0,0,0c0,0,0,0,0,0c0,0,0,0,0,0c0,0,0,0,0,0
				c0,0,0,0,0,0c0,0,0,0,0,0c0,0,0,0,0,0c0,0,0,0,0,0c0,0,0,0,0,0c0,0,0,0,0,0c0,0,0,0,0,0c0,0,0,0,0,0c0,0,0,0,0,0c0,0,0,0,0,0
				c0,0,0,0,0,0c0,0,0,0,0,0c0,0,0,0,0,0c0,0,0,0,0,0c0,0,0,0,0,0c0,0,0,0,0,0c0,0,0,0,0,0c0,0,0,0,0,0c0,0,0,0,0,0c0,0,0,0,0,0
				c0,0,0,0,0,0c0,0,0,0,0,0c0,0,0,0,0,0c0,0,0,0,0,0c0,0,0,0,0,0c0,0,0,0,0,0c0,0,0,0,0,0c0,0,0,0,0,0v0c0,0,0,0,0,0c0,0,0,0,0,0
				c0,0,0,0,0,0c0,0,0,0,0,0c0,0,0,0,0,0c0,0,0,0,0,0c0,0,0,0,0,0c0,0,0,0,0,0c0,0,0,0,0,0c0,0,0,0,0,0c0,0,0,0,0,0c0,0,0,0,0,0
				c0,0,0,0,0,0l0.9,0.3c0.1-0.3,0.2-0.6,0.2-0.9L173.8,137.4L173.8,137.4z M174.6,135.6l-0.9,0.2c0.1,0.2,0.1,0.5,0.1,0.7v0
				c0,0,0,0,0,0v0c0,0,0,0,0,0v0c0,0,0,0,0,0l0.9-0.1C174.7,136.2,174.7,135.9,174.6,135.6L174.6,135.6z M173.8,134l-0.8,0.5
				c0.1,0.2,0.2,0.4,0.3,0.6h0c0,0,0,0.1,0,0.1v0c0,0,0,0,0,0c0,0,0,0,0,0c0,0,0,0,0,0c0,0,0,0,0,0c0,0,0,0,0,0c0,0,0,0,0,0
				c0,0,0,0,0,0c0,0,0,0,0,0c0,0,0,0,0,0c0,0,0,0,0,0c0,0,0,0,0,0c0,0,0,0,0,0c0,0,0,0,0,0c0,0,0,0,0,0c0,0,0,0,0,0c0,0,0,0,0,0
				c0,0,0,0,0,0c0,0,0,0,0,0c0,0,0,0,0,0c0,0,0,0,0,0c0,0,0,0,0,0c0,0,0,0,0,0c0,0,0,0,0,0c0,0,0,0,0,0c0,0,0,0,0,0c0,0,0,0,0,0
				c0,0,0,0,0,0c0,0,0,0,0,0c0,0,0,0,0,0c0,0,0,0,0,0c0,0,0,0,0,0c0,0,0,0,0,0c0,0,0,0,0,0c0,0,0,0,0,0l0.9-0.4
				C174.2,134.5,174,134.2,173.8,134L173.8,134z M172.5,132.7l-0.5,0.8c0.2,0.1,0.4,0.3,0.6,0.5l0.7-0.7
				C173,133,172.8,132.8,172.5,132.7L172.5,132.7z M170.8,131.9l-0.2,0.9c0.1,0,0.2,0,0.3,0.1h0c0,0,0,0,0,0v0c0,0,0,0,0,0
				c0,0,0,0,0,0c0,0,0,0,0,0c0,0,0,0,0,0c0,0,0,0,0,0c0,0,0,0,0,0c0,0,0,0,0,0c0,0,0,0,0,0c0,0,0,0,0,0h0c0,0,0,0,0,0v0
				c0.1,0,0.2,0.1,0.3,0.1l0.4-0.9C171.4,132.1,171.1,132,170.8,131.9L170.8,131.9z M169.7,131.8v1c0,0,0,0,0,0c0,0,0,0,0,0
				c0,0,0,0,0,0c0,0,0,0,0,0c0,0,0,0,0,0c0,0,0,0,0,0c0,0,0,0,0,0c0,0,0,0,0,0c0,0,0,0,0,0c0,0,0,0,0,0c0,0,0,0,0,0c0,0,0,0,0,0
				c0,0,0,0,0,0c0,0,0,0,0,0c0,0,0,0,0,0c0,0,0,0,0,0c0,0,0,0,0,0c0,0,0,0,0,0c0,0,0,0,0,0c0,0,0,0,0,0c0,0,0,0,0,0c0,0,0,0,0,0
				c0,0,0,0,0,0c0,0,0,0,0,0c0,0,0,0,0,0c0,0,0,0,0,0c0,0,0,0,0,0c0,0,0,0,0,0c0,0,0,0,0,0h0c0,0,0,0,0,0h0c0,0,0.1,0,0.1,0l0.1-1
				C169.9,131.8,169.7,131.8,169.7,131.8L169.7,131.8z"/>
		</g>
		<g id="XMLID_353_">
			<circle id="XMLID_20_" class="st14" cx="260" cy="136.8" r="4.1"/>
			<path id="XMLID_354_" class="st17" d="M260,131.8c0,0-0.6,0-0.9,0.1l0.2,0.9c0,0,0.1,0,0.1,0l0,0c0,0,0,0,0,0c0,0,0,0,0,0
				c0,0,0,0,0,0c0,0,0,0,0,0c0,0,0,0,0,0c0,0,0,0,0,0c0,0,0,0,0,0c0,0,0,0,0,0c0,0,0,0,0,0c0,0,0,0,0,0c0,0,0,0,0,0c0,0,0,0,0,0
				c0,0,0,0,0,0c0,0,0,0,0,0c0,0,0,0,0,0c0,0,0,0,0,0c0,0,0,0,0,0c0,0,0,0,0,0c0,0,0,0,0,0c0,0,0,0,0,0c0,0,0,0,0,0c0,0,0,0,0,0
				c0,0,0,0,0,0c0,0,0,0,0,0c0,0,0,0,0,0c0,0,0,0,0,0c0,0,0,0,0,0c0,0,0,0,0,0c0,0,0,0,0,0c0,0,0,0,0,0c0,0,0,0,0,0c0,0,0,0,0,0
				c0,0,0,0,0,0c0,0,0,0,0,0c0,0,0,0,0,0c0,0,0,0,0,0c0,0,0,0,0,0c0,0,0,0,0,0c0,0,0,0,0,0c0,0,0,0,0,0c0,0,0,0,0,0c0,0,0,0,0,0
				c0,0,0,0,0,0c0,0,0,0,0,0c0,0,0,0,0,0c0,0,0,0,0,0c0,0,0,0,0,0c0,0,0,0,0,0h0c0,0,0,0,0,0c0,0,0,0,0,0c0,0,0,0,0,0c0,0,0,0,0,0
				c0,0,0,0,0,0c0,0,0,0,0,0c0,0,0,0,0,0c0,0,0,0,0,0c0,0,0,0,0,0c0,0,0,0,0,0c0,0,0,0,0,0c0,0,0,0,0,0c0,0,0,0,0,0c0,0,0,0,0,0
				c0,0,0,0,0,0c0,0,0,0,0,0c0,0,0,0,0,0c0,0,0,0,0,0c0,0,0,0,0,0c0,0,0,0,0,0c0,0,0,0,0,0v0c0,0,0,0,0,0l0,0c0,0,0.1,0,0.1,0v0
				c0,0,0,0,0,0v0c0,0,0,0,0,0v0c0,0,0.1,0,0.1,0c0,0,0,0,0,0c0,0,0,0,0,0c0,0,0,0,0,0c0,0-0.1,0-0.1,0v0c0.1,0,0.1,0,0.1,0
				c0,0,0,0,0,0c0,0,0,0,0,0c0,0,0,0,0,0c0,0,0,0,0,0c0,0,0,0,0,0c0,0,0,0,0,0c0,0,0,0,0,0c0,0,0,0,0,0h0c0,0,0,0,0,0c0,0,0,0,0,0
				c0,0,0,0,0,0c0,0,0,0,0,0c0,0,0,0,0,0c0,0,0,0,0,0c0,0,0,0,0,0c0,0,0,0,0,0c0,0,0,0,0,0c0,0,0,0,0,0c0,0,0,0,0,0c0,0,0,0,0,0
				c0,0,0,0,0,0c0,0,0,0,0,0c0,0,0,0,0,0c0,0,0,0,0,0c0,0,0,0,0,0c0,0,0,0,0,0c0,0,0,0,0,0c0,0,0,0,0,0c0,0,0,0,0,0c0,0,0,0,0,0
				c0,0,0,0,0,0c0,0,0,0,0,0c0,0,0,0,0,0c0,0,0,0,0,0c0,0,0,0,0,0c0,0,0,0,0,0c0,0,0,0,0,0c0,0,0,0,0,0c0,0,0,0,0,0c0,0,0,0,0,0
				c0,0,0,0,0,0c0,0,0,0,0,0c0,0,0,0,0,0c0,0,0,0,0,0c0,0,0,0,0,0c0,0,0,0,0,0c0,0,0,0,0,0c0,0,0,0,0,0c0,0,0,0,0,0c0,0,0,0,0,0
				c0,0,0,0,0,0c0,0,0,0,0,0c0,0,0,0,0,0c0,0,0,0,0,0c0,0,0,0,0,0c0,0,0,0,0,0c0,0,0,0,0,0c0,0,0,0,0,0c0,0,0,0,0,0c0,0,0,0,0,0
				c0,0,0,0,0,0c0,0,0,0,0,0c0,0,0,0,0,0c0,0,0,0,0,0c0,0,0,0,0,0c0,0,0,0,0,0c0,0,0,0,0,0s0,0,0,0c0,0,0,0,0,0s0,0,0,0c0,0,0,0,0,0
				c0,0,0,0,0,0c0,0,0,0,0,0c0,0,0,0,0,0c0,0,0,0,0,0c0,0,0,0,0,0c0,0,0,0,0,0s0,0,0,0c0,0,0,0,0,0c0,0,0,0,0,0s0,0,0,0s0,0,0,0
				s0,0,0,0s0,0,0,0c0,0,0,0,0,0c0,0,0,0,0,0c0,0,0,0,0,0c0,0,0,0,0,0c0,0,0,0,0,0c0,0,0,0,0,0c0,0,0,0,0,0c0,0,0,0,0,0c0,0,0,0,0,0
				c0,0,0,0,0,0c0,0,0,0,0,0c0,0,0,0,0,0c0,0,0,0,0,0c0,0,0,0,0,0c0,0,0,0,0,0c0,0,0,0,0,0c0,0,0,0,0,0s0,0,0,0c0,0,0,0,0,0
				c0,0,0,0,0,0c0,0,0,0,0,0c0,0,0,0,0,0c0,0,0,0,0,0c0,0,0,0,0,0c0,0,0,0,0,0c0,0,0,0,0,0c0,0,0,0,0,0c0,0,0,0,0,0c0,0,0,0,0,0
				c0,0,0,0,0,0c0,0,0,0,0,0c0,0,0,0,0,0c0,0,0,0,0,0c0,0,0,0,0,0c0,0,0,0,0,0c0,0,0,0,0,0c0,0,0,0,0,0c0,0,0,0,0,0c0,0,0,0,0,0
				c0,0,0,0,0,0c0,0,0,0,0,0c0,0,0,0,0,0c0,0,0,0,0,0c0,0,0,0,0,0V131.8L260,131.8z M258.2,132.1c-0.3,0.1-0.6,0.2-0.8,0.4l0.5,0.8
				c0,0,0,0,0,0l0,0c0,0,0,0,0,0c0,0,0,0,0,0c0,0,0,0,0,0l0,0c0,0,0,0,0,0c0,0,0,0,0,0c0,0,0,0,0,0c0,0,0,0,0,0c0,0,0,0,0,0
				c0,0,0,0,0,0c0,0,0,0,0,0l0,0c0,0,0,0,0,0v0c0,0,0,0,0,0h0c0,0,0,0,0,0l0,0c0,0,0,0,0,0l0,0c0,0,0,0,0,0l0,0c0,0,0,0,0,0
				c0,0,0,0,0,0c0,0,0,0,0,0l0,0c0,0,0,0,0,0h0c0,0,0,0,0,0v0c0,0,0,0,0,0v0c0,0,0,0,0,0l0,0c0,0,0,0,0,0v0c0,0,0,0,0,0h0
				c0,0,0,0,0,0h0c0,0,0,0,0,0v0c0,0,0,0,0,0v0c0,0,0,0,0,0v0c0,0,0,0,0,0v0c0,0,0.1,0,0.1,0h0c0,0-0.1,0,0.1,0v0c0,0-0.1,0-0.1,0h0
				c0,0,0.1,0,0.1,0v0c0,0,0,0,0,0v0c0,0,0,0,0,0h0c0,0,0,0,0,0v0c0,0,0,0,0,0v0c0,0,0,0,0,0l0,0c0,0,0,0,0,0l0,0c0,0,0,0,0,0l0,0
				c0,0,0,0,0,0l0,0c0,0,0,0,0,0l0,0c0,0,0,0,0,0c0,0,0,0,0,0c0,0,0,0,0,0l0,0c0,0,0,0,0,0h0c0,0,0.1,0,0.1,0v0c0,0,0,0,0,0
				c0,0,0,0,0,0c0,0,0,0,0,0c0,0,0,0,0,0c0,0,0,0,0,0c0,0,0,0,0,0c0,0,0,0,0,0c0,0,0,0,0,0c0,0,0,0,0,0c0,0,0,0,0,0c0,0,0,0,0,0
				c0,0,0,0,0,0c0,0,0,0,0,0c0,0,0,0,0,0c0,0,0,0,0,0c0,0,0,0,0,0c0,0,0,0,0,0c0,0,0,0,0,0c0,0,0,0,0,0c0,0,0,0,0,0c0,0,0,0,0,0
				c0,0,0,0,0,0c0,0,0,0,0,0h0c0,0,0,0,0,0c0,0,0,0,0,0c0,0,0,0,0,0c0,0,0,0,0,0c0,0,0,0,0,0c0,0,0,0,0,0c0,0,0,0,0,0c0,0,0,0,0,0
				c0,0,0,0,0,0c0,0,0,0,0,0c0,0,0,0,0,0c0,0,0,0,0,0c0,0,0,0,0,0c0,0,0,0,0,0c0,0,0,0,0,0c0,0,0,0,0,0c0,0,0,0,0,0c0,0,0,0,0,0
				c0,0,0,0,0,0c0,0,0,0,0,0c0,0,0,0,0,0c0,0,0,0,0,0c0,0,0,0,0,0c0,0,0,0,0,0c0,0,0,0,0,0c0,0,0,0,0,0c0,0,0,0,0,0c0,0,0,0,0,0
				c0,0,0,0,0,0c0,0,0,0,0,0c0,0,0,0,0,0c0,0,0,0,0,0c0,0,0,0,0,0c0,0,0,0,0,0c0,0,0,0,0,0c0,0,0,0,0,0c0,0,0,0,0,0c0,0,0,0,0,0
				c0,0,0,0,0,0c0,0,0,0,0,0c0,0,0,0,0,0c0,0,0,0,0,0c0,0,0,0,0,0c0,0,0,0,0,0c0,0,0,0,0,0c0,0,0,0,0,0c0,0,0,0,0,0c0,0,0,0,0,0
				c0,0,0,0,0,0c0,0,0,0,0,0c0,0,0,0,0,0c0,0,0,0,0,0c0,0,0,0,0,0c0,0,0,0,0,0c0,0,0,0,0,0c0,0,0,0,0,0c0,0,0,0,0,0c0,0,0,0,0,0
				c0,0,0,0,0,0c0,0,0,0,0,0c0,0,0,0,0,0c0,0,0,0,0,0c0,0,0,0,0,0c0,0,0,0,0,0c0,0,0,0,0,0c0,0,0,0,0,0c0,0,0,0,0,0c0,0,0,0,0,0
				c0,0,0,0,0,0c0,0,0,0,0,0c0,0,0,0,0,0c0,0,0,0,0,0c0,0,0,0,0,0c0,0,0,0,0,0c0,0,0,0,0,0c0,0,0,0,0,0c0,0,0,0,0,0c0,0,0,0,0,0
				c0,0,0,0,0,0c0,0,0,0,0,0c0,0,0,0,0,0c0,0,0,0,0,0c0,0,0,0,0,0c0,0,0,0,0,0c0,0,0,0,0,0c0,0,0,0,0,0c0,0,0,0,0,0c0,0,0,0,0,0v0
				c0,0,0,0,0,0c0,0,0,0,0,0c0,0,0.1,0,0.1,0L258.2,132.1L258.2,132.1z M256.6,133.1c-0.2,0.2-0.4,0.4-0.6,0.7l0.7,0.6
				c0.1-0.1,0.1-0.1,0.2-0.2c0,0,0,0,0,0c0,0,0,0,0,0c0,0,0,0,0,0c0,0,0,0,0,0c0,0,0,0,0,0c0,0,0,0,0,0c0,0,0,0,0,0c0,0,0,0,0,0
				c0,0,0,0,0,0c0,0,0,0,0,0c0,0,0,0,0,0c0,0,0,0,0,0c0,0,0,0,0,0c0,0,0,0,0,0c0,0,0,0,0,0c0,0,0,0,0,0c0,0,0,0,0,0c0,0,0,0,0,0
				c0,0,0,0,0,0c0,0,0,0,0,0c0,0,0,0,0,0c0,0,0,0,0,0c0,0,0,0,0,0c0,0,0,0,0,0c0,0,0,0,0,0c0,0,0,0,0,0c0,0,0,0,0,0c0,0,0,0,0,0
				c0,0,0,0,0,0c0,0,0,0,0,0s0,0,0,0c0,0,0,0,0,0s0,0,0,0c0,0,0,0,0,0c0,0,0,0,0,0c0,0,0,0,0,0c0,0,0,0,0,0c0,0,0,0,0,0c0,0,0,0,0,0
				c0,0,0,0,0,0c0,0,0,0,0,0c0,0,0,0,0,0c0,0,0,0,0,0c0,0,0,0,0,0c0,0,0,0,0,0c0,0,0,0,0,0c0,0,0,0,0,0c0,0,0,0,0,0c0,0,0,0,0,0
				c0,0,0,0,0,0c0,0,0,0,0,0c0,0,0,0,0,0c0,0,0,0,0,0c0,0,0,0,0,0c0,0,0,0,0,0v0c0.1-0.1,0.1-0.1,0.2-0.2h0c0,0,0,0,0,0l0,0
				c0,0,0,0,0,0l0,0c0,0,0,0,0,0h0c0,0,0,0,0,0l0,0c0,0,0,0,0,0l0,0c0,0,0,0,0,0c0,0,0,0,0,0c0,0,0,0,0,0c0,0,0,0,0,0c0,0,0,0,0,0
				c0,0,0,0,0,0c0,0,0,0,0,0c0,0,0,0,0,0c0,0,0,0,0,0c0,0,0,0,0,0s0,0,0,0c0,0,0,0,0,0c0,0,0,0,0,0c0,0,0,0,0,0c0,0,0,0,0,0
				c0,0,0,0,0,0c0,0,0,0,0,0c0,0,0,0,0,0c0,0,0,0,0,0c0,0,0,0,0,0c0,0,0,0,0,0c0,0,0,0,0,0c0,0,0,0,0,0c0,0,0,0,0,0c0,0,0,0,0,0
				c0,0,0,0,0,0c0,0,0,0,0,0c0,0,0,0,0,0c0,0,0,0,0,0c0,0,0,0,0,0L256.6,133.1L256.6,133.1z M255.5,134.6c-0.1,0.3-0.3,0.6-0.3,0.9
				l0.9,0.3c0,0,0-0.1,0-0.1v0c0,0,0,0,0,0c0,0,0,0,0,0c0,0,0,0,0,0c0,0,0,0,0,0c0,0,0,0,0,0c0,0,0,0,0,0c0,0,0,0,0,0c0,0,0,0,0,0
				c0,0,0,0,0,0c0,0,0,0,0,0c0,0,0,0,0,0c0,0,0,0,0,0c0,0,0,0,0,0c0,0,0,0,0,0c0,0,0,0,0,0c0,0,0,0,0,0c0,0,0,0,0,0c0,0,0,0,0,0
				c0,0,0,0,0,0c0,0,0,0,0,0c0,0,0,0,0,0c0,0,0,0,0,0c0,0,0,0,0,0c0,0,0,0,0,0c0,0,0,0,0,0c0,0,0,0,0,0c0,0,0,0,0,0c0,0,0,0,0,0
				c0,0,0,0,0,0c0,0,0,0,0,0c0,0,0,0,0,0c0,0,0,0,0,0c0,0,0,0,0,0c0,0,0,0,0,0c0,0,0,0,0,0c0,0,0,0,0,0c0,0,0,0,0,0c0,0,0,0,0,0
				c0,0,0,0,0,0c0,0,0,0,0,0c0,0,0,0,0,0c0,0,0,0,0,0c0,0,0,0,0,0c0,0,0,0,0,0c0,0,0,0,0,0c0,0,0,0,0,0c0,0,0,0,0,0c0,0,0,0,0,0
				c0,0,0,0,0,0c0,0,0,0,0,0c0,0,0,0,0,0c0,0,0,0,0,0c0,0,0,0,0,0c0,0,0,0,0,0c0,0,0,0,0,0c0,0,0,0,0,0c0,0,0,0,0,0c0,0,0,0,0,0
				c0,0,0,0,0,0c0,0,0,0,0,0c0,0,0,0,0,0c0,0,0,0,0,0c0,0,0,0,0,0c0,0,0,0,0,0c0,0,0,0,0,0c0,0,0,0,0,0c0,0,0,0,0,0c0,0,0,0,0,0
				c0,0,0,0,0,0c0,0,0,0,0,0c0,0,0,0,0,0c0,0,0,0,0,0s0,0,0,0c0,0,0,0,0,0c0,0,0,0,0,0c0,0,0,0,0,0c0,0,0,0,0,0c0,0,0,0,0,0
				c0,0,0,0,0,0c0,0,0,0,0,0c0,0,0,0,0,0c0,0,0,0,0,0c0,0,0,0,0,0c0,0,0,0,0,0s0,0,0,0s0,0,0,0c0,0,0,0,0,0c0,0,0,0,0,0c0,0,0,0,0,0
				c0,0,0,0,0,0c0,0,0,0,0,0c0,0,0,0,0,0c0,0,0,0,0,0c0,0,0,0,0,0c0,0,0,0,0,0c0,0,0,0,0,0c0,0,0,0,0,0c0,0,0,0,0,0c0,0,0,0,0,0
				c0,0,0,0,0,0c0,0,0,0,0,0c0,0,0,0,0,0c0,0,0,0,0,0c0,0,0,0,0,0c0,0,0,0,0,0c0,0,0,0,0,0c0,0,0,0,0,0c0,0,0,0,0,0c0,0,0,0,0,0
				c0,0,0,0,0,0c0,0,0,0,0,0c0,0,0,0,0,0c0,0,0,0,0,0c0,0,0,0,0,0c0,0,0,0,0,0c0,0,0,0,0,0c0,0,0,0,0,0c0,0,0,0,0,0c0,0,0,0,0,0
				c0,0,0,0,0,0c0,0,0,0,0,0c0,0,0,0,0,0c0,0,0,0,0,0c0,0,0,0,0,0c0,0,0,0,0,0c0,0,0,0,0,0c0,0,0,0,0,0c0,0,0,0,0,0c0,0,0,0,0,0
				c0,0,0,0,0,0c0,0,0,0,0,0v0c0,0,0.1,0,0.1,0v0c0,0,0,0,0,0h0c0,0,0,0,0,0v0c0,0,0,0,0,0h0c0,0,0,0,0,0h0c0,0,0,0,0,0l0,0
				c0-0.1,0.1-0.2,0.2-0.4L255.5,134.6L255.5,134.6z M254.9,136.3c0,0.2,0,0.3,0,0.5c0,0.1,0,0.3,0,0.4l1-0.1c0-0.1,0-0.2,0-0.2v0
				c0,0,0,0,0,0c0,0,0,0,0,0c0,0,0,0,0,0c0,0,0,0,0,0c0,0,0,0,0,0c0,0,0,0,0,0c0,0,0,0,0,0c0,0,0,0,0,0c0,0,0,0,0,0c0,0,0,0,0,0
				c0,0,0,0,0,0c0,0,0,0,0,0c0,0,0,0,0,0c0,0,0,0,0,0c0,0,0,0,0,0c0,0,0,0,0,0c0,0,0,0,0,0c0,0,0,0,0,0c0,0,0,0,0,0c0,0,0,0,0,0
				c0,0,0,0,0,0c0,0,0,0,0,0c0,0,0,0,0,0c0,0,0,0,0,0c0,0,0,0,0,0c0,0,0,0,0,0c0,0,0,0,0,0c0,0,0,0,0,0c0,0,0,0,0,0c0,0,0,0,0,0
				c0,0,0,0,0,0c0,0,0,0,0,0s0,0,0,0c0,0,0,0,0,0c0,0,0,0,0,0c0,0,0,0,0,0c0,0,0,0,0,0c0,0,0,0,0,0c0,0,0,0,0,0c0,0,0,0,0,0
				c0,0,0,0,0,0c0,0,0,0,0,0c0,0,0,0,0,0c0,0,0,0,0,0c0,0,0,0,0,0c0,0,0,0,0,0c0,0,0,0,0,0c0,0,0,0,0,0c0,0,0,0,0,0c0,0,0,0,0,0
				c0,0,0,0,0,0c0,0,0,0,0,0c0,0,0,0,0,0c0,0,0,0,0,0c0,0,0,0,0,0c0,0,0,0,0,0c0,0,0,0,0,0c0,0,0,0,0,0l0,0l0,0l0,0l0,0c0,0,0,0,0,0
				c0,0,0,0,0,0c0,0,0,0,0,0c0,0,0,0,0,0c0,0,0,0,0,0c0,0,0,0,0,0c0,0,0,0,0,0c0,0,0,0,0,0c0,0,0,0,0,0c0,0,0,0,0,0c0,0,0,0,0,0
				c0,0,0,0,0,0c0,0,0,0,0,0c0,0,0,0,0,0c0,0,0,0,0,0c0,0,0,0,0,0c0,0,0,0,0,0c0,0,0,0,0,0s0,0,0,0c0,0,0,0,0,0s0,0,0,0s0,0,0,0
				s0,0,0,0s0,0,0,0s0,0,0,0c0,0,0,0,0,0c0,0,0,0,0,0c0,0,0,0,0,0c0,0,0,0,0,0c0,0,0,0,0,0c0,0,0,0,0,0c0,0,0,0,0,0c0,0,0,0,0,0
				c0,0,0,0,0,0c0,0,0,0,0,0c0,0,0,0,0,0c0,0,0,0,0,0s0,0,0,0s0,0,0,0c0,0,0,0,0,0c0,0,0,0,0,0c0,0,0,0,0,0c0,0,0,0,0,0c0,0,0,0,0,0
				c0,0,0,0,0,0c0,0,0,0,0,0c0,0,0,0,0,0c0,0,0,0,0,0c0,0,0,0,0,0c0,0,0,0,0,0c0,0,0,0,0,0c0,0,0,0,0,0c0,0,0,0,0,0c0,0,0,0,0,0
				c0,0,0,0,0,0c0,0,0,0,0,0c0,0,0,0,0,0c0,0,0,0,0,0c0,0,0,0,0,0c0,0,0,0,0,0c0,0,0,0,0,0c0,0,0,0,0,0c0,0,0,0,0,0c0,0,0,0,0,0
				c0,0,0,0,0,0s0,0,0,0c0,0,0,0,0,0c0,0,0,0,0,0c0,0,0,0,0,0c0,0,0,0,0,0c0,0,0,0,0,0c0,0,0,0,0,0c0,0,0,0,0,0c0,0,0,0,0,0
				c0,0,0,0,0,0c0,0,0,0,0,0c0,0,0,0,0,0c0,0,0,0,0,0c0,0,0,0,0,0c0,0,0,0,0,0c0,0,0,0,0,0c0,0,0,0,0,0c0,0,0,0,0,0c0,0,0,0,0,0
				s0,0,0,0c0,0,0,0,0,0c0,0,0,0,0,0c0,0,0,0,0,0c0,0,0,0,0,0s0,0,0,0c0,0,0,0,0,0c0,0,0,0,0,0c0,0,0,0,0,0c0,0,0,0,0,0c0,0,0,0,0,0
				c0,0,0,0,0,0c0,0,0,0,0,0c0,0,0,0,0,0c0,0,0,0,0,0c0,0,0,0,0,0c0,0,0,0,0,0c0,0,0,0,0,0c0,0,0,0,0,0c0,0,0,0,0,0c0,0,0,0,0,0
				c0,0,0,0,0,0c0,0,0,0,0,0c0,0,0,0,0,0c0,0,0,0,0,0c0,0,0,0,0,0c0,0,0,0,0,0c0,0,0,0,0,0c0,0,0,0,0,0c0,0,0,0,0,0c0,0,0,0,0,0
				c0,0,0,0,0,0c0,0,0,0,0,0c0,0,0,0,0,0c0,0,0,0,0,0c0,0,0,0,0,0c0,0,0,0,0,0c0,0,0,0,0,0c0,0,0,0,0,0c0,0,0,0,0,0c0,0,0,0,0,0
				c0,0,0,0,0,0c0,0,0,0,0,0c0,0,0,0,0,0c0,0,0,0,0,0c0,0,0,0,0,0c0,0,0,0,0,0c0,0,0,0,0,0c0,0,0,0,0,0c0,0,0,0,0,0c0,0,0,0,0,0
				c0,0,0,0,0,0c0,0,0,0,0,0c0,0,0,0,0,0c0,0,0,0,0,0c0,0,0,0,0,0c0,0,0,0,0,0c0,0,0,0,0,0c0,0,0,0,0,0c0,0,0,0,0,0c0,0,0,0,0,0
				c0,0,0,0,0,0c0,0,0,0,0,0c0,0,0,0,0,0c0,0,0,0,0,0c0,0,0,0,0,0c0,0,0,0,0,0c0,0,0,0,0,0c0,0,0,0,0,0c0,0,0,0,0,0v0c0,0,0,0,0,0v0
				c0,0,0,0,0,0l0,0c0-0.1,0-0.1,0-0.2L254.9,136.3L254.9,136.3z M256,137.9l-0.9,0.2c0.1,0.3,0.2,0.6,0.3,0.9l0.9-0.4
				C256.2,138.4,256.1,138.2,256,137.9L256,137.9z M256.6,139.3l-0.8,0.6c0.2,0.2,0.4,0.5,0.6,0.7l0.7-0.7c0,0,0,0,0,0c0,0,0,0,0,0
				c0,0,0,0,0,0c0,0,0,0,0,0c0,0,0,0,0,0c0,0,0,0,0,0c0,0,0,0,0,0c0,0,0,0,0,0c0,0,0,0,0,0c0,0,0,0,0,0c0,0,0,0,0,0c0,0,0,0,0,0
				c0,0,0,0,0,0c0,0,0,0,0,0c0,0,0,0,0,0c0,0,0,0,0,0c0,0,0,0,0,0c0,0,0,0,0,0c0,0,0,0,0,0c0,0,0,0,0,0c0,0,0,0,0,0c0,0,0,0,0,0
				c0,0,0,0,0,0c0,0,0,0,0,0c0,0,0,0,0,0c0,0,0,0,0,0c0,0,0,0,0,0c0,0,0,0,0,0c0,0,0,0,0,0c0,0,0,0,0,0c0,0,0,0,0,0c0,0,0,0,0,0
				c0,0,0,0,0,0c0,0,0,0,0,0c0,0,0,0,0,0c0,0,0,0,0,0c0,0,0,0,0,0c0,0,0,0,0,0c0,0,0,0,0,0c0,0,0,0,0,0c0,0,0,0,0,0c0,0,0,0,0,0
				c0,0,0,0,0,0c0,0,0,0,0,0c0,0,0,0,0,0c0,0,0,0,0,0c0,0,0,0,0,0c0,0,0,0,0,0c0,0,0,0,0,0c0,0,0,0,0,0c0,0,0,0,0,0c0,0,0,0,0,0
				c0,0,0,0,0,0c0,0,0,0,0,0c0,0,0,0,0,0c0,0,0,0,0,0c0,0,0,0,0,0c0,0,0,0,0,0c0,0,0,0,0,0c0,0,0,0,0,0c0,0,0,0,0,0c0,0,0,0,0,0
				c0,0,0,0,0,0c0,0,0,0,0,0c0,0,0,0,0,0c0,0,0,0,0,0c0,0,0,0,0,0c0,0,0,0,0,0c0,0,0,0,0,0c0,0,0,0,0,0c0,0,0,0,0,0c0,0,0,0,0,0
				c0,0,0,0,0,0c0,0,0,0,0,0c0,0,0,0,0,0c0,0,0,0,0,0s0,0,0,0c0,0,0,0,0,0c0,0,0,0,0,0c0,0,0,0,0,0c0,0,0,0,0,0c0,0,0,0,0,0
				c0,0,0,0,0,0c0,0,0,0,0,0c0,0,0,0,0,0c0,0,0,0,0,0c0,0,0,0,0,0c0,0,0,0,0,0c0,0,0,0,0,0c0,0,0,0,0,0c0,0,0,0,0,0c0,0,0,0,0,0
				c0,0,0,0,0,0c0,0,0,0,0,0c0,0,0,0,0,0c0,0,0,0,0,0c0,0,0,0,0,0c0,0,0,0,0,0c0,0,0,0,0,0c0,0,0,0,0,0c0,0,0,0,0,0c0,0,0,0,0,0
				c0,0,0,0,0,0c0,0,0,0,0,0c0,0,0,0,0,0c0,0,0,0,0,0c0,0,0,0,0,0c0,0,0,0,0,0c0,0,0,0,0,0c0,0,0,0,0,0c0,0,0,0,0,0c0,0,0,0,0,0
				c0,0,0,0,0,0c0,0,0,0,0,0c0,0,0,0,0,0c0,0,0,0,0,0c0,0,0,0,0,0c0,0,0,0,0,0c0,0,0,0,0,0c0,0,0,0,0,0c0,0,0,0,0,0c0,0,0,0,0,0
				c0,0,0,0,0,0c0,0,0,0,0,0c0,0,0,0,0,0c0,0,0,0,0,0c0,0,0,0,0,0c0,0,0,0,0,0c0,0,0,0,0,0c0,0,0,0,0,0c0,0,0,0,0,0c0,0,0,0,0,0
				c0,0,0,0,0,0c0,0,0,0,0,0c0,0,0,0,0,0c0,0,0,0,0,0c0,0,0,0,0,0c0,0,0,0,0,0c0,0,0,0,0,0c0,0,0,0,0,0c0,0,0,0,0,0c0,0,0,0,0,0
				c0,0,0,0,0,0c0,0,0,0,0,0c0,0,0,0,0,0c0,0,0,0,0,0c0,0,0,0,0,0c0,0,0,0,0,0c0,0,0,0,0,0c0,0,0,0,0,0c0,0,0,0,0,0c0,0,0,0,0,0
				c0,0,0,0,0,0c0,0,0,0,0,0c0,0,0,0,0,0c0,0,0,0,0,0c0,0,0,0,0,0c0,0,0,0,0,0c0,0,0,0,0,0c0,0,0,0,0,0c0,0,0,0,0,0c0,0,0,0,0,0
				c0,0,0,0,0,0c0,0,0,0,0,0c0,0,0,0,0,0c0,0,0,0,0,0c0,0,0,0,0,0c0,0,0,0,0,0c0,0,0,0,0,0c0,0,0,0,0,0c0,0,0,0,0,0c0,0,0,0,0,0
				c0,0,0,0,0,0c0,0,0,0,0,0c0,0,0,0,0,0c0,0,0,0,0,0c0,0,0,0,0,0c0,0,0,0,0,0v0c0,0,0,0,0,0h0c0,0,0,0,0,0c0,0,0,0,0,0c0,0,0,0,0,0
				c0,0,0,0,0,0c0,0,0,0,0,0c0,0,0,0,0,0c0,0,0,0,0,0c0,0,0,0,0,0c0,0,0,0,0,0c0,0,0,0,0,0c0,0,0,0,0,0c0,0,0,0,0,0c0,0,0,0,0,0
				c0,0,0,0,0,0c0,0,0,0,0,0c0,0,0,0,0,0c0,0,0,0,0,0c0,0,0,0,0,0c0,0,0,0,0,0c0,0,0,0,0,0c0,0,0,0,0,0c0,0,0,0,0,0c0,0,0,0,0,0
				c0,0,0,0,0,0c0,0,0,0,0,0c0,0,0,0,0,0c0,0,0,0,0,0h0c0,0,0-0.1,0-0.1v0c0,0,0,0,0,0c0,0,0,0,0,0c0,0,0,0,0,0c0,0,0,0,0,0
				c0,0,0,0,0,0c0,0,0,0,0,0c0,0,0,0,0,0c0,0,0,0,0,0c0,0,0,0,0,0c0,0,0,0,0,0c0,0,0,0,0,0c0,0,0,0,0,0c0,0,0,0,0,0c0,0,0,0,0,0
				c0,0,0,0,0,0c0,0,0,0,0,0c0,0,0,0,0,0c0,0,0,0,0,0c0,0,0,0,0,0c0,0,0,0,0,0c0,0,0,0,0,0c0,0,0,0,0,0c0,0,0,0,0,0c0,0,0,0,0,0
				c0,0,0,0,0,0c0,0,0,0,0,0c0,0,0,0,0,0c0,0,0,0,0,0c0,0,0,0,0,0v0c0,0,0,0,0,0h0c0,0,0,0,0,0c0,0,0,0,0,0c0,0,0,0,0,0c0,0,0,0,0,0
				c0,0,0,0,0,0c0,0,0,0,0,0c0,0,0,0,0,0c0,0,0,0,0,0c0,0,0,0,0,0c0,0,0,0,0,0c0,0,0,0,0,0c0,0,0,0,0,0c0,0,0,0,0,0c0,0,0,0,0,0
				c0,0,0,0,0,0c0,0,0,0,0,0c0,0,0,0,0,0c0,0,0,0,0,0c0,0,0,0,0,0c0,0,0,0,0,0c0,0,0,0,0,0c0,0,0,0,0,0c0,0,0,0,0,0c0,0,0,0,0,0
				c0,0,0,0,0,0c0,0,0,0,0,0c0,0,0,0,0,0c0,0,0,0,0,0c0,0,0,0,0,0c0,0,0,0,0,0c0,0,0,0,0,0l0,0c0,0,0,0,0,0l0,0c0,0,0,0,0,0l0,0
				c0,0,0,0,0,0c0,0,0,0,0,0c0,0,0,0,0,0c0,0,0,0,0,0c0,0,0,0,0,0c0,0,0,0,0,0c0,0,0,0,0,0c0,0,0,0,0,0c0,0,0,0,0,0c0,0,0,0,0,0
				c0,0,0,0,0,0c0,0,0,0,0,0c0,0,0,0,0,0c0,0,0,0,0,0c0,0,0,0,0,0c0,0,0,0,0,0c0,0,0,0,0,0c0,0,0,0,0,0c0,0,0,0,0,0c0,0,0,0,0,0
				c0,0,0,0,0,0c0,0,0,0,0,0c0,0,0,0,0,0c0,0,0,0,0,0c0,0,0,0,0,0l0,0c0,0,0,0,0,0l0,0c0,0,0,0,0,0c0,0,0,0,0,0c0,0,0,0,0,0
				c0,0,0,0,0,0c0,0,0,0,0,0c0,0,0,0,0,0c0,0,0,0,0,0c0,0,0,0,0,0c0,0,0,0,0,0c0,0,0,0,0,0c0,0,0,0,0,0c0,0,0,0,0,0c0,0,0,0,0,0
				c0,0,0,0,0,0c0,0,0,0,0,0c0,0,0,0,0,0C256.7,139.4,256.7,139.4,256.6,139.3L256.6,139.3C256.7,139.4,256.7,139.4,256.6,139.3
				L256.6,139.3C256.7,139.4,256.7,139.4,256.6,139.3L256.6,139.3C256.7,139.4,256.7,139.4,256.6,139.3L256.6,139.3
				C256.7,139.4,256.7,139.3,256.6,139.3L256.6,139.3C256.7,139.3,256.7,139.4,256.6,139.3L256.6,139.3
				C256.7,139.2,256.7,139.3,256.6,139.3L256.6,139.3C256.7,139.3,256.7,139.3,256.6,139.3L256.6,139.3
				C256.7,139.3,256.7,139.3,256.6,139.3L256.6,139.3C256.7,139.3,256.6,139.3,256.6,139.3L256.6,139.3z M257.7,140.3l-0.5,0.8
				c0.3,0.2,0.5,0.3,0.8,0.4l0.4-0.9c-0.1,0-0.1,0-0.2-0.1c0,0,0,0,0,0c0,0,0,0,0,0c0,0,0,0,0,0c0,0,0,0,0,0c0,0,0,0,0,0
				c0,0,0,0,0,0c0,0,0,0,0,0c0,0,0,0,0,0c0,0,0,0,0,0c0,0,0,0,0,0c0,0,0,0,0,0c0,0,0,0,0,0c0,0,0,0,0,0c0,0,0,0,0,0c0,0,0,0,0,0
				c0,0,0,0,0,0c0,0,0,0,0,0c0,0,0,0,0,0c0,0,0,0,0,0c0,0,0,0,0,0c0,0,0,0,0,0c0,0,0,0,0,0c0,0,0,0,0,0c0,0,0,0,0,0
				C258.1,140.5,257.9,140.5,257.7,140.3C257.8,140.4,257.8,140.4,257.7,140.3C257.8,140.4,257.8,140.4,257.7,140.3
				C257.8,140.4,257.8,140.4,257.7,140.3C257.8,140.4,257.8,140.4,257.7,140.3C257.8,140.3,257.8,140.3,257.7,140.3
				C257.8,140.3,257.8,140.3,257.7,140.3C257.8,140.3,257.8,140.3,257.7,140.3C257.8,140.3,257.8,140.3,257.7,140.3
				C257.8,140.3,257.8,140.3,257.7,140.3C257.8,140.3,257.8,140.3,257.7,140.3C257.8,140.3,257.8,140.3,257.7,140.3
				C257.8,140.3,257.8,140.3,257.7,140.3C257.8,140.3,257.8,140.3,257.7,140.3C257.8,140.3,257.8,140.3,257.7,140.3
				C257.8,140.3,257.8,140.3,257.7,140.3C257.8,140.3,257.8,140.3,257.7,140.3C257.8,140.3,257.8,140.3,257.7,140.3
				C257.8,140.3,257.8,140.3,257.7,140.3C257.8,140.3,257.8,140.3,257.7,140.3C257.8,140.3,257.8,140.3,257.7,140.3
				C257.8,140.3,257.8,140.3,257.7,140.3C257.8,140.3,257.8,140.3,257.7,140.3C257.8,140.3,257.8,140.3,257.7,140.3
				C257.8,140.3,257.8,140.3,257.7,140.3C257.8,140.3,257.8,140.3,257.7,140.3C257.8,140.3,257.8,140.3,257.7,140.3
				C257.8,140.3,257.8,140.3,257.7,140.3C257.8,140.3,257.8,140.3,257.7,140.3C257.8,140.3,257.8,140.3,257.7,140.3
				C257.8,140.3,257.8,140.3,257.7,140.3C257.8,140.3,257.8,140.3,257.7,140.3C257.8,140.3,257.8,140.3,257.7,140.3
				C257.8,140.3,257.8,140.3,257.7,140.3C257.8,140.3,257.8,140.3,257.7,140.3C257.8,140.3,257.8,140.3,257.7,140.3
				C257.8,140.3,257.8,140.3,257.7,140.3C257.8,140.3,257.8,140.3,257.7,140.3C257.8,140.3,257.8,140.3,257.7,140.3
				C257.8,140.3,257.8,140.3,257.7,140.3C257.8,140.3,257.8,140.3,257.7,140.3C257.8,140.3,257.8,140.3,257.7,140.3
				C257.8,140.3,257.8,140.3,257.7,140.3C257.8,140.3,257.8,140.3,257.7,140.3C257.8,140.3,257.8,140.3,257.7,140.3
				C257.7,140.3,257.7,140.3,257.7,140.3L257.7,140.3C257.7,140.3,257.7,140.3,257.7,140.3L257.7,140.3z M259.1,140.9l-0.2,0.9
				c0.3,0.1,0.6,0.1,0.9,0.1l0-0.9c0,0-0.1,0-0.1,0h0c0,0,0,0,0,0h0c0,0,0,0,0,0h0c0,0,0,0,0,0v0c0,0,0,0,0,0c0,0,0,0,0,0
				c0,0,0,0,0,0c0,0,0,0,0,0c0,0,0,0,0,0c0,0,0,0,0,0c0,0,0,0,0,0c0,0,0,0,0,0c0,0,0,0,0,0c0,0,0,0,0,0c0,0,0,0,0,0c0,0,0,0,0,0
				c0,0,0,0,0,0c0,0,0,0,0,0c0,0,0,0,0,0c0,0,0,0,0,0c0,0,0,0,0,0c0,0,0,0,0,0c0,0,0,0,0,0c0,0,0,0,0,0c0,0,0,0,0,0c0,0,0,0,0,0
				c0,0,0,0,0,0c0,0,0,0,0,0c0,0,0,0,0,0s0,0,0,0s0,0,0,0c0,0,0,0,0,0c0,0,0,0,0,0c0,0,0,0,0,0s0,0,0,0c0,0,0,0,0,0c0,0,0,0,0,0
				c0,0,0,0,0,0c0,0,0,0,0,0c0,0,0,0,0,0c0,0,0,0,0,0c0,0,0,0,0,0c0,0,0,0,0,0c0,0,0,0,0,0c0,0,0,0,0,0c0,0,0,0,0,0c0,0,0,0,0,0
				c0,0,0,0,0,0c0,0,0,0,0,0c0,0,0,0,0,0c0,0,0,0,0,0c0,0,0,0,0,0c0,0,0,0,0,0c0,0,0,0,0,0c0,0,0,0,0,0c0,0,0,0,0,0c0,0,0,0,0,0
				c0,0,0,0,0,0c0,0,0,0,0,0c0,0,0,0,0,0c0,0,0,0,0,0c0,0,0,0,0,0c0,0,0,0,0,0c0,0,0,0,0,0c0,0,0,0,0,0c0,0,0,0,0,0c0,0,0,0,0,0
				c0,0,0,0,0,0c0,0,0,0,0,0c0,0,0,0,0,0c0,0,0,0,0,0c0,0,0,0,0,0c0,0,0,0,0,0c0,0,0,0,0,0v0c0,0,0,0,0,0c0,0,0,0,0,0c0,0,0,0,0,0
				c0,0,0,0,0,0c0,0,0,0,0,0c0,0,0,0,0,0c0,0,0,0,0,0c0,0,0,0,0,0c0,0,0,0,0,0c0,0,0,0,0,0c0,0,0,0,0,0c0,0,0,0,0,0c0,0,0,0,0,0
				c0,0,0,0,0,0c0,0,0,0,0,0c0,0,0,0,0,0c0,0,0,0,0,0c0,0,0,0,0,0c0,0,0,0,0,0c0,0,0,0,0,0c0,0,0,0,0,0c0,0,0,0,0,0c0,0,0,0,0,0v0
				c0,0-0.1,0-0.1,0c0,0,0,0,0,0c0,0,0,0,0,0c0,0,0,0,0,0c0,0,0,0,0,0c0,0,0,0,0,0c0,0,0,0,0,0c0,0,0,0,0,0c0,0,0,0,0,0c0,0,0,0,0,0
				c0,0,0,0,0,0c0,0,0,0,0,0c0,0,0,0,0,0c0,0,0,0,0,0c0,0,0,0,0,0v0c0,0,0,0,0,0c0,0,0,0,0,0c0,0,0,0,0,0c0,0,0,0,0,0c0,0,0,0,0,0
				c0,0,0,0,0,0c0,0,0,0,0,0c0,0,0,0,0,0c0,0,0,0,0,0v0c0,0,0,0,0,0c0,0,0,0,0,0c0,0,0,0,0,0c0,0,0,0,0,0c0,0,0,0,0,0c0,0,0,0,0,0
				c0,0,0,0,0,0c0,0,0,0,0,0c0,0,0,0,0,0v0c0,0-0.1,0-0.1,0c0,0,0,0,0,0c0,0,0,0,0,0c0,0,0,0,0,0c0,0,0,0,0,0c0,0,0,0,0,0
				c0,0,0,0,0,0c0,0,0,0,0,0c0,0,0,0,0,0c0,0,0,0,0,0c0,0,0,0,0,0c0,0,0,0,0,0c0,0,0,0,0,0c0,0,0,0,0,0c0,0,0,0,0,0c0,0,0,0,0,0
				c0,0,0,0,0,0c0,0,0,0,0,0c0,0,0,0,0,0c0,0,0,0,0,0c0,0,0,0,0,0c0,0,0,0,0,0c0,0,0,0,0,0v0c0,0,0,0,0,0h0c0,0,0,0,0,0c0,0,0,0,0,0
				c0,0,0,0,0,0c0,0,0,0,0,0c0,0,0,0,0,0c0,0,0,0,0,0c0,0,0,0,0,0l0,0c0,0-0.1,0-0.1,0v0c0,0,0.1,0,0.1,0c0,0,0,0,0,0c0,0,0,0,0,0
				c0,0,0,0,0,0c0,0,0,0,0,0c0,0,0,0,0,0c0,0,0,0,0,0c0,0,0,0,0,0c0,0-0.1,0-0.1,0v0c0,0,0,0,0,0h0c0,0,0,0,0,0v0
				C259.2,140.9,259.2,140.9,259.1,140.9L259.1,140.9z M261.4,140.7C261.3,140.7,261.3,140.7,261.4,140.7L261.4,140.7
				C261.3,140.7,261.3,140.7,261.4,140.7C261.3,140.7,261.3,140.7,261.4,140.7C261.3,140.7,261.3,140.7,261.4,140.7
				C261.3,140.7,261.3,140.7,261.4,140.7C261.3,140.7,261.3,140.8,261.4,140.7C261.3,140.8,261.3,140.8,261.4,140.7
				C261.3,140.8,261.3,140.8,261.4,140.7C261.3,140.8,261.3,140.8,261.4,140.7C261.3,140.8,261.3,140.8,261.4,140.7
				C261.3,140.8,261.3,140.8,261.4,140.7C261.3,140.8,261.3,140.8,261.4,140.7C261.3,140.8,261.3,140.8,261.4,140.7
				C261.3,140.8,261.3,140.8,261.4,140.7C261.3,140.8,261.3,140.8,261.4,140.7C261.3,140.8,261.3,140.8,261.4,140.7
				C261.3,140.8,261.3,140.8,261.4,140.7c-0.1,0.1-0.1,0.1-0.1,0.1c0,0,0,0,0,0c0,0,0,0,0,0c0,0,0,0,0,0c0,0,0,0,0,0c0,0,0,0,0,0
				c0,0,0,0,0,0c0,0,0,0,0,0c0,0,0,0,0,0c0,0,0,0,0,0c0,0,0,0,0,0c0,0,0,0,0,0c0,0,0,0,0,0c0,0,0,0,0,0c0,0,0,0,0,0c0,0,0,0,0,0
				c0,0,0,0,0,0c0,0,0,0,0,0c0,0,0,0,0,0c0,0,0,0,0,0c0,0,0,0,0,0c0,0,0,0,0,0c0,0,0,0,0,0c0,0,0,0,0,0c0,0,0,0,0,0c0,0,0,0,0,0
				c0,0,0,0,0,0c0,0,0,0,0,0c0,0,0,0,0,0c0,0,0,0,0,0c0,0,0,0,0,0c0,0,0,0,0,0c0,0,0,0,0,0c0,0,0,0,0,0c0,0,0,0,0,0c0,0,0,0,0,0
				c0,0,0,0,0,0c0,0,0,0,0,0h0c0,0,0,0,0,0v0c0,0,0,0,0,0c0,0,0,0,0,0c0,0,0,0,0,0c0,0,0,0,0,0c0,0,0,0,0,0c0,0,0,0,0,0c0,0,0,0,0,0
				v0c-0.2,0-0.3,0.1-0.4,0.1l0,0c0,0,0,0,0,0c0,0,0,0,0,0c0,0,0,0,0,0c0,0,0,0,0,0c0,0,0,0,0,0c0,0,0,0,0,0c0,0,0,0,0,0
				c0,0,0,0,0,0c0,0,0,0,0,0c0,0,0,0,0,0c0,0,0,0,0,0c0,0,0,0,0,0c0,0,0,0,0,0c0,0,0,0,0,0c0,0,0,0,0,0c0,0,0,0,0,0c0,0,0,0,0,0
				c0,0,0,0,0,0c0,0,0,0,0,0c0,0,0,0,0,0c0,0,0,0,0,0c0,0,0,0,0,0c0,0,0,0,0,0c0,0,0,0,0,0c0,0,0,0,0,0c0,0,0,0,0,0c0,0,0,0,0,0
				c0,0,0,0,0,0c0,0,0,0,0,0c0,0,0,0,0,0c0,0,0,0,0,0c0,0,0,0,0,0c0,0,0,0,0,0c0,0,0,0,0,0c0,0,0,0,0,0c0,0,0,0,0,0c0,0,0,0,0,0
				c0,0,0,0,0,0h0c0,0-0.1,0-0.1,0l0.2,0.9c0.3,0,0.6-0.2,0.9-0.3L261.4,140.7L261.4,140.7z M262.7,140
				C262.6,140,262.6,140,262.7,140L262.7,140C262.6,140,262.6,140,262.7,140L262.7,140C262.6,140,262.6,140,262.7,140L262.7,140
				C262.6,140,262.6,140,262.7,140L262.7,140C262.6,140,262.6,140,262.7,140L262.7,140C262.6,140,262.6,140,262.7,140L262.7,140
				C262.6,140,262.6,140,262.7,140L262.7,140C262.6,140,262.6,140,262.7,140L262.7,140C262.6,140,262.6,140,262.7,140L262.7,140
				C262.6,140,262.6,140,262.7,140C262.6,140,262.6,140,262.7,140C262.6,140,262.6,140,262.7,140C262.6,140.1,262.6,140.1,262.7,140
				c-0.1,0.1-0.1,0.1-0.1,0.1c0,0,0,0,0,0c0,0,0,0,0,0c0,0,0,0,0,0c0,0,0,0,0,0c0,0,0,0,0,0c0,0,0,0,0,0c0,0,0,0,0,0c0,0,0,0,0,0
				c0,0,0,0,0,0c0,0,0,0,0,0c0,0,0,0,0,0c0,0,0,0,0,0c0,0,0,0,0,0c0,0,0,0,0,0c0,0,0,0,0,0c0,0,0,0,0,0c0,0,0,0,0,0c0,0,0,0,0,0
				c0,0,0,0,0,0c0,0,0,0,0,0c0,0,0,0,0,0c0,0,0,0,0,0c0,0,0,0,0,0c0,0,0,0,0,0c0,0,0,0,0,0c0,0,0,0,0,0c-0.2,0.3-0.3,0.3-0.5,0.4
				l0.5,0.8c0.3-0.2,0.5-0.3,0.8-0.5L262.7,140L262.7,140z M263.6,138.8c0,0.1-0.1,0.1-0.1,0.1c0,0,0,0,0,0c0,0,0,0,0,0c0,0,0,0,0,0
				c0,0,0,0,0,0c0,0,0,0,0,0c0,0,0,0,0,0c0,0,0,0,0,0c0,0,0,0,0,0c0,0,0,0,0,0c0,0,0,0,0,0c0,0,0,0,0,0c0,0,0,0,0,0c0,0,0,0,0,0
				c0,0,0,0,0,0c0,0,0,0,0,0c0,0,0,0,0,0c0,0,0,0,0,0c0,0,0,0,0,0v0c0,0,0,0,0,0c0,0,0,0,0,0c0,0,0,0,0,0c0,0,0,0,0,0c0,0,0,0,0,0
				c0,0,0,0,0,0c0,0,0,0,0,0c0,0,0,0,0,0c0,0,0,0,0,0c0,0,0,0,0,0c0,0,0,0,0,0c0,0,0,0,0,0c0,0,0,0,0,0c0,0,0,0,0,0c0,0,0,0,0,0
				c0,0,0,0,0,0c0,0,0,0,0,0c0,0,0,0,0,0c0,0,0,0,0,0c0,0,0,0,0,0c0,0,0,0,0,0c0,0,0,0,0,0c0,0,0,0,0,0c0,0,0,0,0,0c0,0,0,0,0,0
				c0,0,0,0,0,0c0,0,0,0,0,0c0,0,0,0,0,0c0,0,0,0,0,0c0,0,0,0,0,0c0,0,0,0,0,0c0,0,0,0,0,0c0,0,0,0,0,0c0,0,0,0,0,0c0,0,0,0,0,0
				c0,0,0,0,0,0c0,0,0,0,0,0c0,0,0,0,0,0c0,0,0,0,0,0c0,0,0,0,0,0c0,0,0,0,0,0c0,0,0,0,0,0c0,0,0,0,0,0c0,0,0,0,0,0c0,0,0,0,0,0
				c0,0,0,0,0,0c0,0,0,0,0,0c0,0,0,0,0,0c0,0,0,0,0,0c0,0,0,0,0,0c0,0,0,0,0,0c0,0,0,0,0,0c0,0,0,0,0,0c0,0,0,0,0,0c0,0,0,0,0,0
				c0,0,0,0,0,0c0,0,0,0,0,0c0,0,0,0,0,0c0,0,0,0,0,0c0,0,0,0,0,0c0,0,0,0,0,0c0,0,0,0,0,0c0,0,0,0,0,0c0,0,0,0,0,0c0,0,0,0,0,0
				c0,0,0,0,0,0c0,0,0,0,0,0c0,0,0,0,0,0c0,0,0,0,0,0c0,0,0,0,0,0c0,0,0,0,0,0c0,0,0,0,0,0c0,0,0,0,0,0c0,0,0,0,0,0l0,0c0,0,0,0,0,0
				c0,0,0,0,0,0c0,0,0,0,0,0c0,0,0,0,0,0c0,0,0,0,0,0c0,0,0,0,0,0c0,0,0,0,0,0c0,0,0,0,0,0c0,0,0,0,0,0c0,0,0,0,0,0c0,0,0,0,0,0
				c0,0,0,0,0,0c0,0,0,0,0,0c0,0,0,0,0,0c0,0,0,0,0,0c0,0,0,0,0,0c0,0,0,0,0,0c0,0,0,0,0,0c0,0,0,0,0,0c0,0,0,0,0,0c0,0,0,0,0,0
				c0,0,0,0,0,0c0,0,0,0,0,0c0,0,0,0,0,0c0,0,0,0,0,0c0,0,0,0,0,0c0,0,0,0,0,0c0,0,0,0,0,0c0,0,0,0,0,0c0,0,0,0,0,0c0,0,0,0,0,0
				c0,0,0,0,0,0c0,0,0,0,0,0c0,0,0,0,0,0c0,0,0,0,0,0v0c0,0,0,0,0,0h0c0,0,0,0,0,0c0,0,0,0,0,0c0,0,0,0,0,0c0,0,0,0,0,0c0,0,0,0,0,0
				c0,0,0,0,0,0c0,0,0,0,0,0c0,0,0,0,0,0c0,0,0,0,0,0c0,0,0,0,0,0c0,0,0,0,0,0c0,0,0,0,0,0c0,0,0,0,0,0c0,0,0,0,0,0c0,0,0,0,0,0
				c0,0,0,0,0,0c0,0,0,0,0,0c0,0,0,0,0,0c0,0,0,0,0,0c0,0,0,0,0,0c0,0,0,0,0,0c0,0,0,0,0,0c0,0,0,0,0,0c0,0,0,0,0,0c0,0,0,0,0,0
				c0,0,0,0,0,0c0,0,0,0,0,0c0,0,0,0,0,0c0,0,0,0,0,0c0,0,0,0,0,0c0,0,0,0,0,0c0,0,0,0,0,0c0,0,0,0,0,0v0c0,0,0,0,0,0c0,0,0,0,0,0
				c0,0,0,0,0,0c0,0,0,0,0,0c0,0,0,0,0,0c0,0,0,0,0,0c0,0,0,0,0,0c0,0,0,0,0,0c0,0,0,0,0,0c0,0,0,0,0,0c0,0,0,0,0,0c0,0,0,0,0,0
				c0,0,0,0,0,0c0,0,0,0,0,0c0,0,0,0,0,0c0,0,0,0,0,0c0,0,0,0,0,0c0,0,0,0,0,0c0,0,0,0,0,0c0,0,0,0,0,0c0,0,0,0,0,0c0,0,0,0,0,0
				c0,0,0,0,0,0c0,0,0,0,0,0c0,0,0,0,0,0c0,0,0,0,0,0c0,0,0,0,0,0c0,0,0,0,0,0c0,0,0,0,0,0c0,0,0,0,0,0c0,0,0,0,0,0l0,0c0,0,0,0,0,0
				l0,0c0,0,0,0,0,0c0,0,0,0,0,0c0,0,0,0,0,0c0,0,0,0,0,0c0,0,0,0,0,0c0,0,0,0,0,0c0,0,0,0,0,0c0,0,0,0,0,0c0,0,0,0,0,0c0,0,0,0,0,0
				c0,0,0,0,0,0c0,0,0,0,0,0c0,0,0,0,0,0c0,0,0,0,0,0c0,0,0,0,0,0c0,0,0,0,0,0c0,0,0,0,0,0c0,0,0,0,0,0c0,0,0,0,0,0c0,0,0,0,0,0
				c0,0,0,0,0,0c0,0,0,0,0,0c0,0,0,0,0,0c0,0,0,0,0,0c0,0,0,0,0,0c0,0,0,0,0,0c0,0,0,0,0,0c0,0,0,0,0,0c0,0,0,0,0,0v0c0,0,0,0,0,0h0
				c0,0,0,0.1,0,0.1v0c0,0,0,0,0,0c0,0,0,0,0,0c0,0,0,0,0,0c0,0,0,0,0,0c0,0,0,0,0,0c0,0,0,0,0,0c0,0,0,0,0,0c0,0,0,0,0,0
				c0,0,0,0,0,0c0,0,0,0,0,0c0,0,0,0,0,0c0,0,0,0,0,0c0,0,0,0,0,0c0,0,0,0,0,0c0,0,0,0,0,0c0,0,0,0,0,0c0,0,0,0,0,0c0,0,0,0,0,0
				c0,0,0,0,0,0l0,0c0,0,0,0,0,0c0,0,0,0,0,0c0,0,0,0,0,0h0c0,0,0,0,0,0l0,0c0,0,0,0,0,0l0,0c0,0,0,0,0,0l0,0c0,0,0,0,0,0l0,0
				c0,0,0,0,0,0.1l0.7,0.6c0.2-0.2,0.4-0.5,0.5-0.8L263.6,138.8L263.6,138.8z M264.1,137.4c0,0,0,0.1,0,0.1c0,0,0,0,0,0c0,0,0,0,0,0
				v0c0,0,0,0,0,0c0,0,0,0,0,0c0,0,0,0,0,0c0,0,0,0,0,0c0,0,0,0,0,0c0,0,0,0,0,0c0,0,0,0,0,0v0c0,0,0,0,0,0c0,0,0,0,0,0c0,0,0,0,0,0
				c0,0,0,0,0,0c0,0,0,0,0,0c0,0,0,0,0,0c0,0,0,0,0,0c0,0,0,0,0,0c0,0,0,0,0,0c0,0,0,0,0,0c0,0,0,0,0,0c0,0,0,0,0,0c0,0,0,0,0,0
				c0,0,0,0,0,0c0,0,0,0,0,0c0,0,0,0,0,0c0,0,0,0,0,0c0,0,0,0,0,0c0,0,0,0,0,0v0c0,0,0,0,0,0c0,0,0,0,0,0c0,0,0,0,0,0c0,0,0,0,0,0
				c0,0,0,0,0,0c0,0,0,0,0,0c0,0,0,0,0,0c0,0,0,0,0,0c0,0,0,0,0,0c0,0,0,0,0,0c0,0,0,0,0,0c0,0,0,0,0,0c0,0,0,0,0,0c0,0,0,0,0,0
				c0,0,0,0,0,0c0,0,0,0,0,0c0,0,0,0,0,0s0,0,0,0c0,0,0,0,0,0c0,0,0,0,0,0c0,0,0,0,0,0c0,0,0,0,0,0c0,0,0,0,0,0c0,0,0,0,0,0
				c0,0,0,0,0,0c0,0,0,0,0,0c0,0,0,0,0,0c0,0,0,0,0,0c0,0,0,0,0,0c0,0,0,0,0,0c0,0,0,0,0,0c0,0,0,0,0,0c0,0,0,0,0,0c0,0,0,0,0,0
				c0,0,0,0,0,0c0,0,0,0,0,0c0,0,0,0,0,0c0,0,0,0,0,0c0,0,0,0,0,0c0,0,0,0,0,0c0,0,0,0,0,0c0,0,0,0,0,0c0,0,0,0,0,0c0,0,0,0,0,0h0
				c0,0,0,0.1,0,0.1c0,0,0,0,0,0c0,0,0,0,0,0c0,0,0,0,0,0c0,0,0,0,0,0c0,0,0,0,0,0c0,0,0,0,0,0c0,0,0,0,0,0c0,0,0,0,0,0c0,0,0,0,0,0
				c0,0,0,0,0,0c0,0,0,0,0,0c0,0,0,0,0,0c0,0,0,0,0,0c0,0,0,0,0,0c0,0,0,0,0,0c0,0,0,0,0,0c0,0,0,0,0,0c0,0,0,0,0,0c0,0,0,0,0,0
				c0,0,0,0,0,0c0,0,0,0,0,0c0,0,0,0,0,0v0c0,0.1-0.1,0.2-0.1,0.3l0,0c0,0,0,0,0,0c0,0,0,0,0,0c0,0,0-0.1,0-0.1h0c0,0,0,0,0,0h0
				c0,0,0,0.1,0,0.1c0,0,0,0,0,0c0,0,0,0,0,0c0,0,0,0,0,0c0,0,0,0,0,0c0,0,0,0,0,0c0,0,0,0,0,0c0,0,0,0,0,0c0,0,0,0,0,0c0,0,0,0,0,0
				c0,0,0,0,0,0c0,0,0,0,0,0c0,0,0,0,0,0c0,0,0,0,0,0c0,0,0,0,0,0c0,0,0,0,0,0c0,0,0,0,0,0c0,0,0,0,0,0c0,0,0,0,0,0c0,0,0,0,0,0
				c0,0,0,0,0,0c0,0,0,0,0,0c0,0,0,0,0,0c0,0,0,0,0,0c0,0,0,0,0,0c0,0,0,0,0,0c0,0,0,0,0,0c0,0,0,0,0,0c0,0,0,0,0,0c0,0,0,0,0,0
				c0,0,0,0,0,0c0,0,0,0,0,0c0,0,0,0,0,0c0,0,0,0,0,0c0,0,0,0,0,0c0,0,0,0,0,0c0,0,0,0,0,0c0,0,0,0,0,0v0c0,0,0,0,0,0c0,0,0,0,0,0
				c0,0,0,0,0,0c0,0,0,0,0,0c0,0,0,0,0,0c0,0,0,0,0,0c0,0,0,0,0,0c0,0,0,0,0,0c0,0,0,0,0,0c0,0,0,0,0,0c0,0,0,0,0,0c0,0,0,0,0,0
				c0,0,0,0,0,0l0.9,0.3c0.1-0.3,0.2-0.6,0.2-0.9L264.1,137.4L264.1,137.4z M264.9,135.6l-0.9,0.2c0.1,0.2,0.1,0.5,0.1,0.7v0
				c0,0,0,0,0,0v0c0,0,0,0,0,0v0c0,0,0,0,0,0l0.9-0.1C265,136.2,265,135.9,264.9,135.6L264.9,135.6z M264.1,134l-0.8,0.5
				c0.1,0.2,0.2,0.4,0.3,0.6h0c0,0,0.1,0.1,0.1,0.1v0c0,0,0,0,0,0c0,0,0,0,0,0c0,0,0,0,0,0c0,0,0,0,0,0c0,0,0,0,0,0c0,0,0,0,0,0
				c0,0,0,0,0,0c0,0,0,0,0,0c0,0,0,0,0,0c0,0,0,0,0,0c0,0,0,0,0,0c0,0,0,0,0,0c0,0,0,0,0,0c0,0,0,0,0,0c0,0,0,0,0,0c0,0,0,0,0,0
				c0,0,0,0,0,0c0,0,0,0,0,0c0,0,0,0,0,0c0,0,0,0,0,0c0,0,0,0,0,0c0,0,0,0,0,0c0,0,0,0,0,0c0,0,0,0,0,0c0,0,0,0,0,0c0,0,0,0,0,0
				c0,0,0,0,0,0c0,0,0,0,0,0c0,0,0,0,0,0c0,0,0,0,0,0c0,0,0,0,0,0c0,0,0,0,0,0c0,0,0,0,0,0c0,0,0,0,0,0l0.9-0.4
				C264.5,134.5,264.3,134.2,264.1,134L264.1,134z M262.8,132.7l-0.5,0.8c0.2,0.1,0.4,0.3,0.6,0.5l0.7-0.7
				C263.3,133,263.1,132.8,262.8,132.7L262.8,132.7z M261.1,131.9l-0.2,0.9c0.1,0,0.2,0,0.3,0.1c0,0,0,0,0,0c0,0,0,0,0,0v0
				c0.1,0,0.1,0,0.1,0c0,0,0,0,0,0c0,0,0,0,0,0c0,0,0,0,0,0c0,0,0,0,0,0c0,0,0,0,0,0c0,0,0,0,0,0c0,0,0,0,0,0c0,0,0,0,0,0h0
				c0,0,0,0,0,0v0c0.1,0,0.2,0.1,0.3,0.1l0.4-0.9C261.7,132.1,261.4,132,261.1,131.9L261.1,131.9z M260,131.8v1c0,0,0,0,0,0
				c0,0,0,0,0,0c0,0,0,0,0,0c0,0,0,0,0,0c0,0,0,0,0,0c0,0,0,0,0,0c0,0,0,0,0,0c0,0,0,0,0,0c0,0,0,0,0,0c0,0,0,0,0,0c0,0,0,0,0,0
				c0,0,0,0,0,0c0,0,0,0,0,0c0,0,0,0,0,0c0,0,0,0,0,0c0,0,0,0,0,0c0,0,0,0,0,0c0,0,0,0,0,0c0,0,0,0,0,0c0,0,0,0,0,0c0,0,0,0,0,0
				c0,0,0,0,0,0c0,0,0,0,0,0c0,0,0,0,0,0c0,0,0,0,0,0c0,0,0,0,0,0c0,0,0,0,0,0c0,0,0,0,0,0c0,0,0,0,0,0h0c0,0,0,0,0,0h0
				c0,0,0.1,0,0.1,0l0-1C260.1,131.8,260,131.8,260,131.8L260,131.8z"/>
		</g>
	</g>
	<polygon id="XMLID_1_" class="st8" points="134.9,36.9 115.4,31.6 114.2,35.7 131.5,40.6 	"/>
</g>
<g id="Слой_3">
	<g id="XMLID_287_">
		<g id="XMLID_288_">
			<rect id="XMLID_300_" x="247.1" y="160.6" class="st1" width="13.5" height="2"/>
			<path id="XMLID_299_" class="st1" d="M256.4,147c-0.2-1.2-1.3-2.1-2.5-2.1h0c-1.2,0-2.3,0.9-2.5,2.1l-0.5,2.5h6.1L256.4,147z"/>
			<polygon id="XMLID_297_" class="st1" points="248.7,160.6 259,160.6 258.4,157.4 249.3,157.4 			"/>
			<polygon id="XMLID_296_" class="st1" points="250.3,152 249.8,154.9 257.9,154.9 257.4,152 			"/>
		</g>
	</g>
	<g id="XMLID_285_">
		<g id="XMLID_290_">
			<rect id="XMLID_320_" x="56.3" y="147.4" class="st1" width="16.6" height="2.5"/>
			<path id="XMLID_294_" class="st1" d="M67.7,130.7c-0.3-1.5-1.6-2.6-3.1-2.6h-0.1c-1.5,0-2.8,1.1-3.1,2.6l-0.6,3.1h7.4L67.7,130.7
				z"/>
			<polygon id="XMLID_293_" class="st1" points="58.2,147.4 71,147.4 70.2,143.5 59,143.5 			"/>
			<polygon id="XMLID_291_" class="st1" points="60.3,136.9 59.6,140.4 69.6,140.4 68.9,136.9 			"/>
		</g>
	</g>
	<g id="XMLID_321_">
		<g id="XMLID_370_">
			<rect id="XMLID_376_" x="300.3" y="144.8" class="st1" width="17" height="2.5"/>
			<path id="XMLID_373_" class="st1" d="M311.9,127.7c-0.3-1.5-1.6-2.6-3.2-2.6h-0.1c-1.5,0-2.9,1.1-3.2,2.6l-0.6,3.1h7.6
				L311.9,127.7z"/>
			<polygon id="XMLID_372_" class="st1" points="302.3,144.8 315.3,144.8 314.5,140.7 303,140.7 			"/>
			<polygon id="XMLID_371_" class="st1" points="304.3,134 303.6,137.6 313.9,137.6 313.2,134 			"/>
		</g>
	</g>
</g>
<g id="Слой_4">
	<path id="XMLID_378_" class="st18" d="M118.3,160.4h43.6c0,0-8.4-16.5-21.2-16.9C127.2,143.2,118.3,160.4,118.3,160.4z"/>
	<path id="XMLID_377_" class="st19" d="M84.1,165.6h55.3c0,0-19.9-21.4-26.9-21.4C105.3,144.2,84.1,165.6,84.1,165.6z"/>
	<path id="XMLID_381_" class="st18" d="M249,54.6h34.7c0,0-11-13.4-16.8-13.4C258.9,41.2,249,54.6,249,54.6z"/>
	<path id="XMLID_380_" class="st19" d="M264.5,61.7h55.3c0,0-17-21.4-26.9-21.4C282.5,40.3,264.5,61.7,264.5,61.7z"/>
	<path id="XMLID_379_" class="st19" d="M17.2,61.8h35.9c0,0-10.4-13.9-17.5-13.9C29.5,47.9,17.2,61.8,17.2,61.8z"/>
</g>
</svg>
