<?xml version="1.0" encoding="utf-8"?>
<!-- Generator: Adobe Illustrator 19.0.0, SVG Export Plug-In . SVG Version: 6.00 Build 0)  -->
<svg version="1.1" xmlns="http://www.w3.org/2000/svg" xmlns:xlink="http://www.w3.org/1999/xlink" x="0px" y="0px"
	 viewBox="0 0 65.5 22.3" style="enable-background:new 0 0 65.5 22.3;" xml:space="preserve">
<style type="text/css">
	.st0{fill:#E38A42;}
	.st1{font-family:'MyriadPro-Regular';}
	.st2{font-size:24px;}
	.st3{fill:#F8AC00;}
	.st4{fill:#393939;}
</style>
<g id="Слой_1">
</g>
<g id="Layer_1">
	<text id="XMLID_603_" transform="matrix(1 0 0 1 49.5973 22.2869)" class="st0 st1 st2">A</text>
	<text id="XMLID_570_" transform="matrix(1 0 0 1 2.8961 22.2874)" class="st0 st1 st2">A</text>
	<rect id="XMLID_382_" x="0" y="0" class="st3" width="65.5" height="9.1"/>
	<polygon id="XMLID_387_" class="st4" points="2.2,9.1 8,0 13,0 6.9,9.1 	"/>
	<polygon id="XMLID_388_" class="st4" points="34.2,9.1 40,0 45,0 38.9,9.1 	"/>
	<polygon id="XMLID_390_" class="st4" points="13,9.1 18.8,0 23.7,0 17.7,9.1 	"/>
	<polygon id="XMLID_391_" class="st4" points="44.1,9.1 49.9,0 54.9,0 48.8,9.1 	"/>
	<polygon id="XMLID_392_" class="st4" points="54.3,9.1 60.1,0 65.1,0 59,9.1 	"/>
	<polygon id="XMLID_389_" class="st4" points="23.7,9.1 29.5,0 34.5,0 28.5,9.1 	"/>
</g>
</svg>
