<?xml version="1.0" encoding="utf-8"?>
<!-- Generator: Adobe Illustrator 19.0.0, SVG Export Plug-In . SVG Version: 6.00 Build 0)  -->
<svg version="1.1" id="Layer_1" xmlns="http://www.w3.org/2000/svg" xmlns:xlink="http://www.w3.org/1999/xlink" x="0px" y="0px"
	 viewBox="0 0 40 40" style="enable-background:new 0 0 40 40;" xml:space="preserve">
<style type="text/css">
	.st0{fill:#FAC012;}
</style>
<path id="XMLID_2_" class="st0" d="M20,0C9.5,0,1,9,1,20s8.5,20,19,20c10.5,0,19-9,19-20S30.5,0,20,0z M33.6,31.1
	c-0.6-0.6-2.1-1.9-4.7-2.9c0.8-3.1,1-5.9,1.1-7.3h7.2C37,24.7,35.7,28.3,33.6,31.1z M6.2,9.1c0.7,0.6,2.1,1.5,4.5,2.3
	c-0.6,2.1-1,4.7-1.1,7.7H2.8C3,15.4,4.2,11.9,6.2,9.1z M19.1,11c-2.5-0.1-4.5-0.4-6.1-0.7c2.2-5.8,5.9-7.7,6.1-7.8V1.9 M20.9,12.7
	c2.6,0,4.6-0.3,6.3-0.7c0.6,2,0.9,4.3,1,7.1h-7.3V12.7z M20.9,11V2.7c0.9,0.6,3.9,2.7,5.8,7.7C25.2,10.7,23.3,10.9,20.9,11z
	 M20.9,1.9V1.8c0,0,0,0,0,0V1.9z M19.1,12.7v6.4h-7.7c0.1-2.8,0.5-5.2,1-7.2C14.2,12.3,16.4,12.7,19.1,12.7z M9.6,20.9
	c0.1,1.4,0.3,4.3,1.1,7.4c-2.3,0.9-3.9,1.9-4.6,2.4c-1.9-2.8-3.1-6.2-3.3-9.8H9.6z M11.4,20.9h7.7v5.8c-2.6,0.1-4.8,0.5-6.6,1.1
	C11.7,24.9,11.5,22.2,11.4,20.9z M19.1,28.4v9.4c-3.2-1.5-5-4.9-6.1-8.4C14.7,28.9,16.7,28.5,19.1,28.4z M20.9,37.6v-9.2
	c2.3,0.1,4.2,0.4,5.8,0.9C25.7,32.6,23.9,36,20.9,37.6z M20.9,26.7v-5.8h7.3c-0.1,1.3-0.3,3.9-1,6.7C25.5,27.1,23.4,26.7,20.9,26.7z
	 M30,19.1c-0.1-3-0.5-5.5-1.1-7.6c2.5-0.9,3.8-2.1,4.5-2.9c2.2,2.9,3.6,6.5,3.7,10.5H30z M32.3,7.2C32,7.7,31,8.9,28.4,9.8
	c-1.5-4.1-3.7-6.5-5.2-7.7C26.7,2.8,29.9,4.6,32.3,7.2z M16.3,2.2c-1.5,1.3-3.6,3.6-5.1,7.5C9,9,7.8,8.1,7.3,7.7
	C9.7,5,12.8,3,16.3,2.2z M7.2,32.1c0.6-0.5,2-1.3,4.1-2.1c0.9,2.8,2.3,5.7,4.5,7.7C12.4,36.8,9.4,34.8,7.2,32.1z M23.7,37.8
	c2.3-2,3.8-5,4.7-7.9c2.5,1.1,3.8,2.3,4.1,2.6C30.2,35.1,27.1,37,23.7,37.8z"/>
</svg>
