<?xml version="1.0" encoding="utf-8"?>
<!-- Generator: Adobe Illustrator 19.0.0, SVG Export Plug-In . SVG Version: 6.00 Build 0)  -->
<svg version="1.1" id="Слой_2" xmlns="http://www.w3.org/2000/svg" xmlns:xlink="http://www.w3.org/1999/xlink" x="0px" y="0px"
	 viewBox="0 0 40 40" style="enable-background:new 0 0 40 40;" xml:space="preserve">
<style type="text/css">
	.st0{fill:#FAC012;}
</style>
<g id="XMLID_21_">
	<path id="XMLID_24_" class="st0" d="M19.8,28.7c0.7,1.1,1.7,1.1,3.1,0c1,2.6,5.6,11.1,5.6,11.1s-3,1.2-7.2-1.8
		c-2.7-1.9-8.2-7.7-11.5-15.9c-1.8-4.4-2.3-9.2-2.3-14.7c0.1-4.8,2.1-6.1,4.3-6.8l3.8,12c0,0-2.7,0.9-1.5,4.3
		C14.1,16.9,15.1,23,19.8,28.7z"/>
	<path id="XMLID_23_" class="st0" d="M13.5,0.2c0,0,3.2-1.2,4.9,2.1c1.7,3.3,2.9,8.4-1.1,10C16.1,9.2,13.5,0.2,13.5,0.2z"/>
	<path id="XMLID_22_" class="st0" d="M24.7,28l5.8,10.9c0,0,3.3-2.4,2-4.9c-1.3-2.4-2.9-5.5-2.9-5.5S28.1,26.1,24.7,28z"/>
</g>
</svg>
