<?xml version="1.0" encoding="utf-8"?>
<!-- Generator: Adobe Illustrator 19.0.0, SVG Export Plug-In . SVG Version: 6.00 Build 0)  -->
<svg version="1.1" id="Слой_3" xmlns="http://www.w3.org/2000/svg" xmlns:xlink="http://www.w3.org/1999/xlink" x="0px" y="0px"
	 viewBox="0 0 40 40" style="enable-background:new 0 0 40 40;" xml:space="preserve">
<style type="text/css">
	.st0{fill:#FAC012;}
</style>
<g id="XMLID_25_">
	<path id="XMLID_29_" class="st0" d="M2.2,7l17.9,17.2L37.9,7.1C37.9,7,38,7,38.1,6.9c-0.8-0.7-1.9-1.1-3-1.1H4.9
		c-1.1,0-2.1,0.4-3,1C2,6.9,2.1,7,2.2,7z"/>
	<path id="XMLID_28_" class="st0" d="M39.2,30.7c0.2,0.1,0.3,0.2,0.5,0.3c0.2-0.6,0.4-1.2,0.4-1.8V10.8c0-0.3,0-0.6-0.1-0.9L29,20.5
		C33.4,25.1,38.1,29.9,39.2,30.7z"/>
	<path id="XMLID_27_" class="st0" d="M26.5,22.9l-5.2,5c-0.3,0.3-0.8,0.5-1.2,0.5c-0.4,0-0.9-0.2-1.2-0.5l-5.3-5.1L2.7,33.6
		c0.7,0.3,1.4,0.5,2.2,0.5h30.2c0.8,0,1.5-0.2,2.2-0.5C35.8,32.6,33.1,29.8,26.5,22.9z"/>
	<path id="XMLID_26_" class="st0" d="M0.1,9.8C0,10.1,0,10.4,0,10.8v18.5c0,0.6,0.1,1.3,0.4,1.8l10.8-10.7L0.1,9.8z"/>
</g>
</svg>
