<?xml version="1.0" encoding="utf-8"?>
<!-- Generator: Adobe Illustrator 19.0.0, SVG Export Plug-In . SVG Version: 6.00 Build 0)  -->
<svg version="1.1" id="Слой_1" xmlns="http://www.w3.org/2000/svg" xmlns:xlink="http://www.w3.org/1999/xlink" x="0px" y="0px"
	 viewBox="0 0 1000 500" style="enable-background:new 0 0 1000 500;" xml:space="preserve">
<style type="text/css">
	.st0{opacity:0.7;}
	.st1{fill-rule:evenodd;clip-rule:evenodd;fill:none;stroke:#1A1A1A;stroke-width:0.7087;stroke-miterlimit:22.9256;}
	
		.st2{fill-rule:evenodd;clip-rule:evenodd;fill:none;stroke:#000000;stroke-width:1.9843;stroke-linecap:round;stroke-linejoin:round;stroke-miterlimit:22.9256;}
	.st3{fill-rule:evenodd;clip-rule:evenodd;fill:#CCCCCC;}
	.st4{fill-rule:evenodd;clip-rule:evenodd;fill:#E0A307;}
	.st5{fill-rule:evenodd;clip-rule:evenodd;fill:#F5CF00;}
	.st6{fill-rule:evenodd;clip-rule:evenodd;fill:#FFFFFF;}
	
		.st7{fill-rule:evenodd;clip-rule:evenodd;fill:none;stroke:#191919;stroke-width:1.9843;stroke-linecap:round;stroke-linejoin:round;stroke-miterlimit:22.9256;}
	.st8{fill-rule:evenodd;clip-rule:evenodd;fill:#4C4C4C;}
	
		.st9{fill-rule:evenodd;clip-rule:evenodd;fill:none;stroke:#2B2A29;stroke-width:1.9843;stroke-linecap:round;stroke-linejoin:round;stroke-miterlimit:22.9256;}
	.st10{fill-rule:evenodd;clip-rule:evenodd;fill:#898989;}
	.st11{fill-rule:evenodd;clip-rule:evenodd;fill:#999999;}
	.st12{fill-rule:evenodd;clip-rule:evenodd;fill:#666666;}
	.st13{fill-rule:evenodd;clip-rule:evenodd;fill:#FEFEFE;}
	.st14{fill-rule:evenodd;clip-rule:evenodd;fill:#E5E5E5;}
	.st15{fill-rule:evenodd;clip-rule:evenodd;fill:#FF6600;}
	.st16{fill-rule:evenodd;clip-rule:evenodd;fill:#2B2B2B;}
	.st17{fill-rule:evenodd;clip-rule:evenodd;fill:#1A1A1A;}
	.st18{fill-rule:evenodd;clip-rule:evenodd;fill:#FFCC00;}
	.st19{fill-rule:evenodd;clip-rule:evenodd;fill:#535353;}
	.st20{fill-rule:evenodd;clip-rule:evenodd;fill:#191919;}
	
		.st21{fill-rule:evenodd;clip-rule:evenodd;fill:none;stroke:#2B2A29;stroke-width:0.5102;stroke-linecap:round;stroke-linejoin:round;stroke-miterlimit:22.9256;}
	.st22{fill-rule:evenodd;clip-rule:evenodd;fill:#5B5B5B;}
	.st23{fill-rule:evenodd;clip-rule:evenodd;fill:#FFBF93;}
	.st24{fill-rule:evenodd;clip-rule:evenodd;fill:#CF5300;}
	.st25{fill:#F5CF00;stroke:#1D1D1B;stroke-miterlimit:22.9256;}
	.st26{fill:#999999;stroke:#1D1D1B;stroke-miterlimit:22.9256;}
	.st27{fill:#CCCCCC;}
	.st28{fill:#F5CF00;stroke:#1D1D1B;stroke-miterlimit:10;}
	.st29{fill:#D18B00;}
	.st30{fill:#E0A307;}
	.st31{fill:#999999;}
	.st32{fill-rule:evenodd;clip-rule:evenodd;fill:#999999;stroke:#1D1D1B;stroke-miterlimit:22.9256;}
	.st33{fill:#4D4D4D;}
	.st34{fill:#F5CF00;}
	.st35{fill:#606054;}
	.st36{fill:#C6DEC3;}
	.st37{fill:#E2EFE1;}
	.st38{fill:#F7B10D;}
	.st39{fill:#F7D077;}
	.st40{fill:#54544A;}
	.st41{display:none;}
</style>
<g id="XMLID_504_" class="st0">
	<path id="XMLID_880_" class="st1" d="M434.4,376.4v-3c0-3,1.1-4.4,2.1-4.4c1,0,2.2,0.7,2.6,4c0.5,4.3-0.1,9.6,0.5,14.1
		c1.1,8.4,2.4,17.6,6.6,24.8c3.7,6.5,11.6,5.3,16.5,0.8"/>
	<path id="XMLID_879_" class="st1" d="M435,376.3v-3c0-3,1.1-4.4,2.1-4.4c1,0,2.3,1.3,2.7,4.6c0.5,4.3-0.1,9.6,0.5,14.1
		c1.1,8.4,2.9,17.1,7.1,24.3c3.7,6.5,11.5,3.6,16.3-0.9"/>
	<g id="XMLID_875_">
		
			<rect id="XMLID_878_" x="387.9" y="422.6" transform="matrix(-0.5962 0.8028 -0.8028 -0.5962 1009.759 339.5209)" class="st2" width="63.2" height="2.1"/>
		<path id="XMLID_876_" class="st3" d="M399.8,448.4l37.7-50.7l1.7,1.3l-37.7,50.7L399.8,448.4z"/>
	</g>
	<g id="XMLID_871_">
		<path id="XMLID_874_" class="st2" d="M436.9,402.9c2.5,0,4.5-2,4.5-4.5s-2-4.5-4.5-4.5c-2.5,0-4.5,2-4.5,4.5
			S434.5,402.9,436.9,402.9z"/>
		<path id="XMLID_872_" class="st4" d="M436.9,402.9c2.5,0,4.5-2,4.5-4.5s-2-4.5-4.5-4.5c-2.5,0-4.5,2-4.5,4.5
			S434.5,402.9,436.9,402.9z"/>
	</g>
	<g id="XMLID_867_">
		<path id="XMLID_870_" class="st2" d="M361.7,435.4c0,0,22.7-7.7,33.1-15.6c8.2-6.1,39-36.8,43.5-39.4c4.2-2.4,8.5,0.1,9.4,3.2
			c0.9,3.1-2.2,6.8-9,13.8c-21.4,21.9-36.2,46.6-68.4,53c-4.5,0.9-8-0.4-9.3-0.9C357.5,448.5,351.3,439.5,361.7,435.4z"/>
		<path id="XMLID_868_" class="st5" d="M361.7,435.4c0,0,22.7-7.7,33.1-15.6c8.2-6.1,39-36.8,43.5-39.4c4.2-2.4,8.5,0.1,9.4,3.2
			c0.9,3.1-2.2,6.8-9,13.8c-21.4,21.9-36.2,46.6-68.4,53c-4.5,0.9-8-0.4-9.3-0.9C357.5,448.5,351.3,439.5,361.7,435.4z"/>
	</g>
	<path id="XMLID_865_" class="st4" d="M445.4,390c-1.5,2-3.8,4.5-6.8,7.5c-21.4,21.9-36.2,46.6-68.4,53c-1.1,0.2-2.2,0.3-3.2,0.3
		c-0.2-1.1-0.1-2.3-0.1-2.3s11.1-3.4,23.2-10.3c19.5-11.1,38.7-33.1,54.9-48.8L445.4,390z"/>
	<polygon id="XMLID_864_" class="st6" points="430,389.4 408.8,409.7 432.7,389.7 	"/>
	<g id="XMLID_860_">
		<path id="XMLID_863_" class="st2" d="M366.5,430.9L366.5,430.9c6.9,0,12.5,5.6,12.5,12.5v24.8h-25v-24.8
			C354,436.5,359.6,430.9,366.5,430.9z"/>
		<path id="XMLID_861_" class="st5" d="M366.5,430.9L366.5,430.9c6.9,0,12.5,5.6,12.5,12.5v24.8h-25v-24.8
			C354,436.5,359.6,430.9,366.5,430.9z"/>
	</g>
	<g id="XMLID_856_">
		<path id="XMLID_859_" class="st7" d="M433.6,379.9h1.7v-3.2c0-0.5-0.4-0.9-0.9-0.9h0c-0.5,0-0.9,0.4-0.9,0.9V379.9z"/>
		<path id="XMLID_857_" class="st8" d="M433.6,379.9h1.7v-3.2c0-0.5-0.4-0.9-0.9-0.9h0c-0.5,0-0.9,0.4-0.9,0.9V379.9z"/>
	</g>
	<g id="XMLID_852_">
		<polygon id="XMLID_855_" class="st2" points="394.6,453.2 415.6,424.9 419.4,427.7 398,456.6 		"/>
		<path id="XMLID_853_" class="st4" d="M394.6,453.2l21.1-28.4l3.8,2.8L398,456.6L394.6,453.2z"/>
	</g>
	<g id="XMLID_848_">
		<rect id="XMLID_851_" x="464.1" y="424.4" class="st9" width="3.7" height="57.7"/>
		<path id="XMLID_849_" class="st10" d="M464.1,482.1h3.7v-57.7h-3.7V482.1z"/>
	</g>
	<g id="XMLID_844_">
		<path id="XMLID_847_" class="st7" d="M464.3,462.6c-3.1-1.2-8.4-2.8-8.2-6.1c0.1-2.7,8.2-4.6,8.2-4.6V462.6z"/>
		<path id="XMLID_845_" class="st11" d="M464.3,462.6c-3.1-1.2-8.4-2.8-8.2-6.1c0.1-2.7,8.2-4.6,8.2-4.6V462.6z"/>
	</g>
	<g id="XMLID_840_">
		<path id="XMLID_843_" class="st7" d="M467.6,450.7c2.9-0.9,7.6-2,7.5-4.2c-0.1-1.9-7.5-3.2-7.5-3.2V450.7z"/>
		<path id="XMLID_841_" class="st12" d="M467.6,450.7c2.9-0.9,7.6-2,7.5-4.2c-0.1-1.9-7.5-3.2-7.5-3.2V450.7z"/>
	</g>
	<g id="XMLID_836_">
		<path id="XMLID_839_" class="st7" d="M464.3,473.4c-3.1-1.2-8.4-2.8-8.2-6.1c0.1-2.7,8.2-4.6,8.2-4.6V473.4z"/>
		<path id="XMLID_837_" class="st11" d="M464.3,473.4c-3.1-1.2-8.4-2.8-8.2-6.1c0.1-2.7,8.2-4.6,8.2-4.6V473.4z"/>
	</g>
	<g id="XMLID_832_">
		<path id="XMLID_835_" class="st7" d="M467.6,462.2c2.9-1.1,7.6-2.5,7.5-5.3c-0.1-2.4-7.5-4-7.5-4V462.2z"/>
		<path id="XMLID_833_" class="st12" d="M467.6,462.2c2.9-1.1,7.6-2.5,7.5-5.3c-0.1-2.4-7.5-4-7.5-4V462.2z"/>
	</g>
	<g id="XMLID_828_">
		<path id="XMLID_831_" class="st7" d="M467.6,472.8c2.9-1,7.6-2.3,7.5-4.9c-0.1-2.2-7.5-3.7-7.5-3.7V472.8z"/>
		<path id="XMLID_829_" class="st12" d="M467.6,472.8c2.9-1,7.6-2.3,7.5-4.9c-0.1-2.2-7.5-3.7-7.5-3.7V472.8z"/>
	</g>
	<g id="XMLID_824_">
		<rect id="XMLID_827_" x="465.9" y="424.4" class="st9" width="0.9" height="57.7"/>
		<path id="XMLID_825_" class="st13" d="M465.9,482.1h0.9v-57.7h-0.9V482.1z"/>
	</g>
	<g id="XMLID_820_">
		<path id="XMLID_823_" class="st7" d="M464.3,484.7c-3.1-1.2-8.4-2.8-8.2-6.1c0.1-2.7,8.2-4.6,8.2-4.6V484.7z"/>
		<path id="XMLID_821_" class="st11" d="M464.3,484.7c-3.1-1.2-8.4-2.8-8.2-6.1c0.1-2.7,8.2-4.6,8.2-4.6V484.7z"/>
	</g>
	<g id="XMLID_816_">
		<path id="XMLID_819_" class="st7" d="M467.6,484.6c2.9-1,7.6-2.3,7.5-4.9c-0.1-2.2-7.5-3.7-7.5-3.7V484.6z"/>
		<path id="XMLID_817_" class="st12" d="M467.6,484.6c2.9-1,7.6-2.3,7.5-4.9c-0.1-2.2-7.5-3.7-7.5-3.7V484.6z"/>
	</g>
	<g id="XMLID_812_">
		<rect id="XMLID_815_" x="464.1" y="424.4" class="st7" width="3.7" height="64.4"/>
		<path id="XMLID_813_" class="st12" d="M464.1,488.8h3.7v-64.4h-3.7V488.8z"/>
	</g>
	<path id="XMLID_810_" class="st13" d="M465.9,488.8h0.9v-64.4h-0.9V488.8z"/>
	<g id="XMLID_806_">
		<path id="XMLID_809_" class="st7" d="M465.5,451c4.5-1.3,9.1-2.6,9.6-4.3c-0.1,2.5-4.3,4.1-9.3,5.5c-4.5,1.3-9.4,2.1-9.8,4.5
			C455.6,453.7,460.6,452.4,465.5,451z"/>
		<path id="XMLID_807_" class="st14" d="M465.5,451c4.5-1.3,9.1-2.6,9.6-4.3c-0.1,2.5-4.3,4.1-9.3,5.5c-4.5,1.3-9.4,2.1-9.8,4.5
			C455.6,453.7,460.6,452.4,465.5,451z"/>
	</g>
	<g id="XMLID_802_">
		<path id="XMLID_805_" class="st7" d="M465.5,461.7c4.5-1.4,9.3-2.5,9.5-4.5c-0.1,2.5-4.3,4.2-9.3,5.7c-4.5,1.4-9.4,2.3-9.8,4.6
			C455.6,464.6,460.6,463.2,465.5,461.7z"/>
		<path id="XMLID_803_" class="st14" d="M465.5,461.7c4.5-1.4,9.3-2.5,9.5-4.5c-0.1,2.5-4.3,4.2-9.3,5.7c-4.5,1.4-9.4,2.3-9.8,4.6
			C455.6,464.6,460.6,463.2,465.5,461.7z"/>
	</g>
	<g id="XMLID_798_">
		<path id="XMLID_801_" class="st7" d="M465.5,472.6c4.5-1.4,9.2-2.6,9.5-4.5c0,2.5-4.3,4.2-9.3,5.7c-4.5,1.4-9.4,2.3-9.8,4.6
			C455.6,475.5,460.6,474.1,465.5,472.6z"/>
		<path id="XMLID_799_" class="st14" d="M465.5,472.6c4.5-1.4,9.2-2.6,9.5-4.5c0,2.5-4.3,4.2-9.3,5.7c-4.5,1.4-9.4,2.3-9.8,4.6
			C455.6,475.5,460.6,474.1,465.5,472.6z"/>
	</g>
	<g id="XMLID_794_">
		<path id="XMLID_797_" class="st7" d="M464.1,485.1c3.1-0.2,10.7-3.2,11-5.1C474.3,484,465.3,485.5,464.1,485.1z"/>
		<path id="XMLID_795_" class="st14" d="M464.1,485.1c3.1-0.2,10.7-3.2,11-5.1C474.3,484,465.3,485.5,464.1,485.1z"/>
	</g>
	<g id="XMLID_790_">
		<polygon id="XMLID_793_" class="st7" points="464.1,488.8 465.9,488.8 467.8,488.8 465.9,492.6 		"/>
		<path id="XMLID_791_" class="st8" d="M464.1,488.8h1.9l1.9,0l-1.9,3.8L464.1,488.8z"/>
	</g>
	<g id="XMLID_786_">
		<rect id="XMLID_789_" x="460.5" y="410.4" class="st7" width="10.9" height="23"/>
		<path id="XMLID_787_" class="st11" d="M460.5,433.3h10.9v-23h-10.9V433.3z"/>
	</g>
	<rect id="XMLID_785_" x="468" y="413" class="st6" width="1.7" height="19.8"/>
	<g id="XMLID_781_">
		<path id="XMLID_784_" class="st2" d="M388.8,407.9h6.1l-0.6-4.1c-0.2-1.3-1.1-2-2.4-2h-0.1c-1.3,0-2.2,0.8-2.4,2L388.8,407.9z"/>
		<path id="XMLID_782_" class="st15" d="M388.8,407.9h6.1l-0.6-4.1c-0.2-1.3-1.1-2-2.4-2h-0.1c-1.3,0-2.2,0.8-2.4,2L388.8,407.9z"/>
	</g>
	<g id="XMLID_777_">
		<path id="XMLID_780_" class="st2" d="M386.9,409.6h9.9v-0.6c0-0.9-0.7-1.6-1.6-1.6h-6.8c-0.9,0-1.6,0.7-1.6,1.6V409.6z"/>
		<path id="XMLID_778_" class="st16" d="M386.9,409.6h9.9v-0.6c0-0.9-0.7-1.6-1.6-1.6h-6.8c-0.9,0-1.6,0.7-1.6,1.6V409.6z"/>
	</g>
	<g id="XMLID_773_">
		<path id="XMLID_776_" class="st2" d="M411.7,456.9h2.3c5.5,0,9.9,4.5,9.9,9.9l0,0h-12.3V456.9z"/>
		<path id="XMLID_774_" class="st5" d="M411.7,456.9h2.3c5.5,0,9.9,4.5,9.9,9.9l0,0h-12.3V456.9z"/>
	</g>
	<g id="XMLID_769_">
		<path id="XMLID_772_" class="st2" d="M367.7,435.9c-9.1,1.7-14.6,3.5-21.7,7.4c-4.3,2.4-4.1,3.9-4.4,11.2l-0.8,20.7l3,0.2l0.6,2.5
			l31.5-0.3l-1.7-21.3l-4.1-0.3L367.7,435.9z"/>
		<path id="XMLID_770_" class="st5" d="M367.7,435.9c-9.1,1.7-14.6,3.5-21.7,7.4c-4.3,2.4-4.1,3.9-4.4,11.2l-0.8,20.7l3,0.2l0.6,2.5
			l31.5-0.3l-1.7-21.3l-4.1-0.3L367.7,435.9z"/>
	</g>
	<g id="XMLID_765_">
		<path id="XMLID_768_" class="st2" d="M363.4,436.8c-6.7,1.5-11.5,3.3-17.4,6.5c-4.3,2.4-4.1,3.9-4.4,11.2l-0.1,1.5
			c4.8-0.7,20.7-3.3,21.4-9.4C363.1,445,363.3,439.7,363.4,436.8z"/>
		<path id="XMLID_766_" class="st5" d="M363.4,436.8c-6.7,1.5-11.5,3.3-17.4,6.5c-4.3,2.4-4.1,3.9-4.4,11.2l-0.1,1.5
			c4.8-0.7,20.7-3.3,21.4-9.4C363.1,445,363.3,439.7,363.4,436.8z"/>
	</g>
	<g id="XMLID_739_">
		<g id="XMLID_752_">
			<polygon id="XMLID_764_" class="st17" points="370.5,434.9 374.6,456.6 374,456.7 370.5,438.2 			"/>
			<path id="XMLID_763_" class="st17" d="M371.5,421.3l6.5,34.5c-0.2,0-0.4,0.1-0.6,0.1l-6.2-33.1
				C371.3,422.3,371.4,421.8,371.5,421.3z"/>
			<path id="XMLID_762_" class="st17" d="M374,415.6l7.4,39.4c-0.2,0-0.4,0.1-0.6,0.1l-7.3-38.7c0-0.1,0.1-0.2,0.1-0.2
				C373.8,415.9,373.9,415.8,374,415.6z"/>
			<path id="XMLID_761_" class="st17" d="M377.1,412.9c2.5,13.3,5.3,28,7.7,41.2c-0.2,0-0.4,0.1-0.6,0.1l-7.7-41.1
				C376.7,413.1,376.9,413,377.1,412.9z"/>
			<path id="XMLID_760_" class="st17" d="M380.6,412.6c2.5,13.1,5.2,27.7,7.6,40.7c-0.2,0-0.4,0.1-0.6,0.1l-7.7-40.8L380.6,412.6z"
				/>
			<path id="XMLID_759_" class="st17" d="M384.2,412.6l7.5,39.9c-0.2,0-0.4,0.1-0.6,0.1l-7.5-40L384.2,412.6z"/>
			<path id="XMLID_758_" class="st17" d="M387.8,412.6l7.3,39.1c-0.2,0-0.4,0.1-0.6,0.1l-7.4-39.2L387.8,412.6z"/>
			<path id="XMLID_757_" class="st17" d="M391.3,412.6l7.2,38.2c-0.2,0-0.4,0.1-0.6,0.1l-7.2-38.3L391.3,412.6z"/>
			<path id="XMLID_756_" class="st17" d="M394.9,412.6l7,37.4c-0.2,0-0.4,0.1-0.6,0.1l-7.1-37.5L394.9,412.6z"/>
			<path id="XMLID_755_" class="st17" d="M398.5,412.6l6.9,36.6c-0.2,0-0.4,0.1-0.6,0.1l-6.9-36.7L398.5,412.6z"/>
			<path id="XMLID_754_" class="st17" d="M402.1,412.6l6.7,35.8c-0.2,0-0.4,0.1-0.6,0.1l-6.7-35.9L402.1,412.6z"/>
			<path id="XMLID_753_" class="st17" d="M405.9,414l6.3,33.6l-0.6,0.1l-6.5-34.3C405.4,413.5,405.6,413.7,405.9,414L405.9,414z"/>
		</g>
		<path id="XMLID_751_" class="st17" d="M375,414.4l31.1-0.1c0.2,0.2,0.4,0.4,0.6,0.6l-32.3,0.2C374.6,414.8,374.8,414.6,375,414.4z
			"/>
		<path id="XMLID_750_" class="st17" d="M372.8,417.7l35.5-0.2c0.1,0.2,0.2,0.4,0.3,0.6l-36.1,0.2
			C372.6,418.1,372.7,417.9,372.8,417.7z"/>
		<path id="XMLID_749_" class="st17" d="M371.6,421l38.1-0.2c0.1,0.2,0.1,0.4,0.2,0.6l-38.4,0.2l0,0
			C371.5,421.4,371.5,421.2,371.6,421z"/>
		<path id="XMLID_748_" class="st17" d="M370.9,424.3c12.8-0.1,26.8-0.1,39.6-0.2c0,0.2,0.1,0.4,0.1,0.6
			c-12.9,0.1-26.9,0.1-39.8,0.2C370.8,424.8,370.9,424.6,370.9,424.3z"/>
		<path id="XMLID_747_" class="st17" d="M370.6,427.7c13.1-0.1,27.3-0.1,40.4-0.2c0,0.2,0.1,0.4,0.1,0.6
			c-13.1,0.1-27.3,0.1-40.5,0.2L370.6,427.7z"/>
		<path id="XMLID_746_" class="st17" d="M370.6,431c13.3-0.1,27.4-0.1,40.7-0.2l0.1,0.6c-13.3,0.1-27.5,0.1-40.8,0.2L370.6,431z"/>
		<path id="XMLID_745_" class="st17" d="M370.5,434.3c13.5-0.1,27.6-0.1,41.1-0.2l0.1,0.6c-13.5,0.1-27.6,0.1-41.1,0.2L370.5,434.3z
			"/>
		<path id="XMLID_744_" class="st17" d="M370.5,437.6c13.6-0.1,27.8-0.1,41.4-0.2l0.1,0.6c-13.6,0.1-27.9,0.1-41.5,0.2L370.5,437.6z
			"/>
		<path id="XMLID_743_" class="st17" d="M370.5,440.9c13.7-0.1,28.1-0.1,41.8-0.2l0.1,0.6c-13.8,0.1-28.1,0.1-41.9,0.2L370.5,440.9z
			"/>
		<polygon id="XMLID_742_" class="st17" points="370.9,444.2 412.6,444.1 412.6,444.7 371,444.9 		"/>
		<polygon id="XMLID_741_" class="st17" points="371.5,447.6 412.9,447.4 413,448 371.6,448.2 		"/>
		<polygon id="XMLID_740_" class="st17" points="372.1,450.9 413.3,450.7 413.3,451.4 372.3,451.5 		"/>
	</g>
	<g id="XMLID_735_">
		<rect id="XMLID_738_" x="372.2" y="453.1" class="st2" width="11" height="11.7"/>
		<path id="XMLID_736_" class="st12" d="M372.2,464.7h11v-11.7h-11V464.7z"/>
	</g>
	<g id="XMLID_731_">
		<path id="XMLID_734_" class="st2" d="M403.1,446.1h11.6v16.7h-30.5v-11.6h11c0,0,3.4-0.1,4.9-2.2
			C401.4,447,401.2,446.1,403.1,446.1z"/>
		<path id="XMLID_732_" class="st12" d="M403.1,446.1h11.6v16.7h-30.5v-11.6h11c0,0,3.4-0.1,4.9-2.2
			C401.4,447,401.2,446.1,403.1,446.1z"/>
	</g>
	<g id="XMLID_727_">
		<rect id="XMLID_730_" x="381.8" y="411.3" class="st2" width="3" height="51.9"/>
		<path id="XMLID_728_" class="st12" d="M381.8,463.2h3v-51.9h-3V463.2z"/>
	</g>
	<g id="XMLID_720_">
		<path id="XMLID_724_" class="st2" d="M340.3,474.6h11.8v5.8h-14v-3.6C338.2,475.6,339.1,474.6,340.3,474.6L340.3,474.6z
			 M341.8,476.3c0.6,0,1.1,0.5,1.1,1.1c0,0.6-0.5,1.1-1.1,1.1c-0.6,0-1.1-0.5-1.1-1.1C340.7,476.8,341.2,476.3,341.8,476.3z"/>
		<path id="XMLID_721_" class="st4" d="M341.8,474.6h10.4v5.8h-10.4v-1.9c0.6,0,1.1-0.5,1.1-1.1c0-0.6-0.5-1.1-1.1-1.1V474.6z
			 M340.3,474.6h1.5v1.7h0c-0.6,0-1.1,0.5-1.1,1.1c0,0.6,0.5,1.1,1.1,1.1h0v1.9h-3.6v-3.6C338.2,475.6,339.1,474.6,340.3,474.6z"/>
	</g>
	<g id="XMLID_716_">
		<polygon id="XMLID_719_" class="st2" points="338.2,480.4 348.2,485.5 352.2,480.4 		"/>
		<path id="XMLID_717_" class="st4" d="M338.2,480.4l10.1,5.1l3.9-5.1H338.2z"/>
	</g>
	<g id="XMLID_712_">
		<rect id="XMLID_715_" x="372.6" y="479.8" class="st2" width="35.2" height="10.9"/>
		<path id="XMLID_713_" class="st4" d="M372.6,490.7h35.2v-10.9h-35.2V490.7z"/>
	</g>
	<g id="XMLID_708_">
		<polygon id="XMLID_711_" class="st2" points="372.2,463.6 412.8,462.1 412.8,482.2 372,482.2 		"/>
		<path id="XMLID_709_" class="st16" d="M372.2,463.6l40.7-1.5v20H372L372.2,463.6z"/>
	</g>
	<g id="XMLID_701_">
		<path id="XMLID_705_" class="st2" d="M367.2,442.1l0.2-14.6c0.1-6.6,3.2-18,11.1-18.1c6.2-0.1,18.4,0,24.2,0c4.1,0,7,3,9.2,8.1
			c1.2,2.8,2.1,6.7,2.6,11.7c1.4,16.2,3.5,34.5,3.5,34.5l-46.2,0.4L367.2,442.1L367.2,442.1z M370.6,427.6l-0.2,14.2l3.9,18.9l40,0
			c-0.7-6-2.1-19.2-3.1-31.2c-0.2-2.3-0.5-4.3-0.9-6c-0.4-1.8-0.9-3.4-1.4-4.6c-0.9-2.1-1.9-3.8-3.1-4.9c-0.9-0.8-1.9-1.3-3.1-1.3
			c-2.5,0-6.2,0-10.2,0c-5.1,0-10.5,0-14,0c-2,0-3.7,1.5-4.9,3.5C371.6,419.5,370.7,424.2,370.6,427.6z"/>
		<path id="XMLID_702_" class="st12" d="M392.4,409.4c4,0,7.8,0,10.3,0c4.1,0,7,3,9.2,8.1c1.2,2.8,2.1,6.7,2.6,11.7
			c1.4,16.2,3.5,34.5,3.5,34.5l-25.5,0.2v-3.2l21.9,0c-0.7-6-2.1-19.2-3.1-31.2c-0.2-2.3-0.5-4.3-0.9-6c-0.4-1.8-0.9-3.4-1.4-4.6
			c-0.9-2.1-1.9-3.8-3.1-4.9c-0.9-0.8-1.9-1.3-3.1-1.3c-2.5,0-6.2,0-10.2,0l-0.2,0V409.4z M367.2,442.1l0.2-14.6
			c0.1-6.6,3.2-18,11.1-18.1c3.5,0,8.8,0,13.8,0v3.2c-5,0-10.3,0-13.8,0c-2,0-3.7,1.5-4.9,3.5c-2.1,3.4-3,8.1-3.1,11.5l-0.2,14.2
			l3.9,18.9l18,0v3.2l-20.7,0.2L367.2,442.1z"/>
	</g>
	<g id="XMLID_694_">
		<path id="XMLID_698_" class="st2" d="M368.8,441.8l0.2-14.2c0-1.9,0.3-4.3,0.9-6.6c0.5-2,1.3-4,2.3-5.7c0.8-1.2,1.7-2.3,2.7-3
			c1-0.7,2.2-1.2,3.5-1.2c3.5,0,8.9,0,13.9,0h0.1c2,0,3.9,0,5.6,0c1.7,0,3.3,0,4.5,0h0c0.8,0,1.6,0.1,2.3,0.4
			c0.7,0.3,1.3,0.7,1.9,1.3c0.7,0.6,1.3,1.4,1.9,2.4c0.6,0.9,1.1,1.9,1.6,3.1c0.3,0.7,0.6,1.5,0.8,2.3c0.3,0.8,0.5,1.7,0.7,2.6
			c0.2,0.9,0.4,1.9,0.5,3c0.2,1,0.3,2.1,0.4,3.3c0.4,5.2,0.9,10.4,1.4,15c0.7,6.6,0.9,11.3,1.3,14.8l0,0c0,0.1,0,0.1,0,0.2
			c0,0.9-0.7,1.6-1.6,1.6l-39.9,0c-0.8,0-1.5-0.5-1.7-1.3l-3.5-17.6l0,0C368.8,442,368.8,441.9,368.8,441.8L368.8,441.8z
			 M370.6,427.6l-0.2,14.2l3.5,17.6l40,0c-0.7-6-1.7-17.9-2.7-29.9c-0.2-2.3-0.5-4.3-0.9-6c-0.4-1.8-0.9-3.4-1.4-4.6
			c-0.9-2.1-1.9-3.8-3.1-4.9c-0.9-0.8-1.9-1.3-3.1-1.3c-2.5,0-6.2,0-10.2,0c-5.1,0-10.5,0-14,0c-2,0-3.7,1.5-4.9,3.5
			C371.6,419.5,370.7,424.2,370.6,427.6z"/>
		<path id="XMLID_695_" class="st12" d="M392.2,411l0.3,0h0.1c2,0,3.9,0,5.6,0c1.7,0,3.3,0,4.5,0h0c0.8,0,1.6,0.1,2.3,0.4
			c0.7,0.3,1.3,0.7,1.9,1.3c0.7,0.6,1.3,1.4,1.9,2.4c0.6,0.9,1.1,1.9,1.6,3.1c0.3,0.7,0.6,1.5,0.8,2.3c0.3,0.8,0.5,1.7,0.7,2.6
			c0.2,0.9,0.4,1.9,0.5,3c0.2,1,0.3,2.1,0.4,3.3c0.4,5.2,0.9,10.4,1.4,15c0.7,6.6,0.9,11.3,1.3,14.8l0,0c0,0.1,0,0.1,0,0.2
			c0,0.9-0.7,1.6-1.6,1.6l-21.7,0v-1.6l21.7,0c-0.7-6-1.7-17.9-2.7-29.9c-0.2-2.3-0.5-4.3-0.9-6c-0.4-1.8-0.9-3.4-1.4-4.6
			c-0.9-2.1-1.9-3.8-3.1-4.9c-0.9-0.8-1.9-1.3-3.1-1.3c-2.5,0-6.2,0-10.2,0l-0.4,0V411z M368.8,441.8l0.2-14.2
			c0-1.9,0.3-4.3,0.9-6.6c0.5-2,1.3-4,2.3-5.7c0.8-1.2,1.7-2.3,2.7-3c1-0.7,2.2-1.2,3.5-1.2c3.4,0,8.6,0,13.6,0v1.6
			c-5,0-10.2,0-13.6,0c-2,0-3.7,1.5-4.9,3.5c-2.1,3.4-3,8.1-3.1,11.5l-0.2,14.2l3.5,17.6l18.2,0v1.6l-18.1,0c-0.8,0-1.5-0.5-1.7-1.3
			l-3.5-17.6l0,0C368.8,442,368.8,441.9,368.8,441.8z"/>
	</g>
	<g id="XMLID_690_">
		<path id="XMLID_693_" class="st7" d="M453.1,387c-9.7-1.8-10-10.9-18-8.9c-2.8,0.7-4,3.7-3.2,6c1.6,4.9,5.9,3.6,9.3,4.8
			c3,1,4.5,1.9,7.7,6c5.8,7.4,10.7,6,12.7,3C464.3,394,462.3,388.7,453.1,387z"/>
		<path id="XMLID_691_" class="st8" d="M453.1,387c-9.7-1.8-10-10.9-18-8.9c-2.8,0.7-4,3.7-3.2,6c1.6,4.9,5.9,3.6,9.3,4.8
			c3,1,4.5,1.9,7.7,6c5.8,7.4,10.7,6,12.7,3C464.3,394,462.3,388.7,453.1,387z"/>
	</g>
	<g id="XMLID_686_">
		<path id="XMLID_689_" class="st2" d="M402.9,450.4h3.6c1,0,1.7,0.8,1.7,1.7v0.3c0,1-0.8,1.7-1.7,1.7h-3.6c-1,0-1.7-0.8-1.7-1.7
			v-0.3C401.2,451.2,402,450.4,402.9,450.4z"/>
		<path id="XMLID_687_" class="st16" d="M402.9,450.4h3.6c1,0,1.7,0.8,1.7,1.7v0.3c0,1-0.8,1.7-1.7,1.7h-3.6c-1,0-1.7-0.8-1.7-1.7
			v-0.3C401.2,451.2,402,450.4,402.9,450.4z"/>
	</g>
	<g id="XMLID_682_">
		<path id="XMLID_685_" class="st2" d="M403,451.7h3.5c0.3,0,0.6,0.3,0.6,0.6v0c0,0.3-0.3,0.6-0.6,0.6H403c-0.3,0-0.6-0.3-0.6-0.6v0
			C402.4,452,402.6,451.7,403,451.7z"/>
		<path id="XMLID_683_" class="st12" d="M403,451.7h3.5c0.3,0,0.6,0.3,0.6,0.6v0c0,0.3-0.3,0.6-0.6,0.6H403c-0.3,0-0.6-0.3-0.6-0.6
			v0C402.4,452,402.6,451.7,403,451.7z"/>
	</g>
	<g id="XMLID_639_">
		<g id="XMLID_678_">
			<path id="XMLID_681_" class="st7" d="M364,499.1c9.9,0,18.1-8.1,18.1-18.1s-8.1-18.1-18.1-18.1c-9.9,0-18.1,8.1-18.1,18.1
				S354,499.1,364,499.1z"/>
			<path id="XMLID_679_" class="st12" d="M364,499.1c9.9,0,18.1-8.1,18.1-18.1s-8.1-18.1-18.1-18.1c-9.9,0-18.1,8.1-18.1,18.1
				S354,499.1,364,499.1z"/>
		</g>
		<g id="XMLID_674_">
			<path id="XMLID_677_" class="st7" d="M364,490.8c5.4,0,9.8-4.4,9.8-9.8c0-5.4-4.4-9.8-9.8-9.8c-5.4,0-9.8,4.4-9.8,9.8
				C354.2,486.4,358.6,490.8,364,490.8z"/>
			<path id="XMLID_675_" class="st18" d="M364,490.8c5.4,0,9.8-4.4,9.8-9.8c0-5.4-4.4-9.8-9.8-9.8c-5.4,0-9.8,4.4-9.8,9.8
				C354.2,486.4,358.6,490.8,364,490.8z"/>
		</g>
		<path id="XMLID_672_" class="st4" d="M364,471.2c5.4,0,9.8,4.4,9.8,9.8c0,0.4,0,0.8-0.1,1.2c-0.6-4.9-4.7-8.6-9.8-8.6
			c-5,0-9.2,3.8-9.8,8.6c0-0.4-0.1-0.8-0.1-1.2C354.2,475.6,358.6,471.2,364,471.2z"/>
		<g id="XMLID_668_">
			<path id="XMLID_671_" class="st7" d="M364,486.2c2.9,0,5.2-2.3,5.2-5.2c0-2.9-2.3-5.2-5.2-5.2s-5.2,2.3-5.2,5.2
				C358.8,483.9,361.1,486.2,364,486.2z"/>
			<path id="XMLID_669_" class="st12" d="M364,486.2c2.9,0,5.2-2.3,5.2-5.2c0-2.9-2.3-5.2-5.2-5.2s-5.2,2.3-5.2,5.2
				C358.8,483.9,361.1,486.2,364,486.2z"/>
		</g>
		<path id="XMLID_667_" class="st6" d="M367.2,480.9c0.1,0.3,0.1,0.5,0.1,0.8c0,1.8-1.5,3.3-3.3,3.3c-1.8,0-3.3-1.5-3.3-3.3
			c0-0.3,0-0.6,0.1-0.8c0.4,1.4,1.7,2.5,3.2,2.5C365.5,483.4,366.8,482.3,367.2,480.9z"/>
		<path id="XMLID_665_" class="st19" d="M364,463c10,0,18.1,8.1,18.1,18.1c0,0.5,0,1-0.1,1.5c-0.8-9.3-8.5-16.5-18-16.5
			c-9.5,0-17.2,7.3-18,16.5c0-0.5-0.1-1-0.1-1.5C345.9,471,354,463,364,463z"/>
		<path id="XMLID_640_" class="st20" d="M364,463c0.3,0,0.6,0,0.9,0l0.3,0.7c0.2,0.5,0,1.1-0.5,1.3l0,0c-0.5,0.2-1.1,0-1.3-0.5
			l-0.6-1.2c0-0.1-0.1-0.2-0.1-0.3C363.1,463,363.6,463,364,463L364,463z M360.6,498.8c-0.7-0.1-1.4-0.3-2.1-0.5l-0.1-0.8
			c-0.1-0.5,0.3-1.1,0.8-1.2l0,0c0.5-0.1,1.1,0.3,1.2,0.8l0.3,1.4C360.6,498.6,360.6,498.7,360.6,498.8L360.6,498.8z M356.1,497.3
			c-0.6-0.3-1.3-0.7-1.9-1.1l0.1-0.8c0-0.5,0.5-1,1.1-0.9l0,0c0.5,0,1,0.5,0.9,1.1l-0.1,1.4C356.2,497.1,356.1,497.2,356.1,497.3
			L356.1,497.3z M352.1,494.7c-0.5-0.5-1.1-1-1.5-1.5l0.3-0.7c0.2-0.5,0.8-0.8,1.3-0.6h0c0.5,0.2,0.8,0.8,0.6,1.3l-0.5,1.3
			C352.3,494.5,352.2,494.6,352.1,494.7L352.1,494.7z M349,491.2c-0.4-0.6-0.8-1.2-1.1-1.8l0.4-0.7c0.3-0.5,0.9-0.6,1.4-0.3h0
			c0.5,0.3,0.6,0.9,0.3,1.4l-0.8,1.1C349.2,491,349.1,491.1,349,491.2L349,491.2z M346.9,487c-0.2-0.7-0.4-1.4-0.6-2.1l0.6-0.5
			c0.4-0.4,1.1-0.3,1.4,0.1l0,0c0.4,0.4,0.3,1.1-0.1,1.4l-1,0.9C347.1,486.9,347,486.9,346.9,487L346.9,487z M345.9,482.3
			c0-0.4,0-0.9,0-1.3c0-0.3,0-0.6,0-0.9l0.7-0.3c0.5-0.2,1.1,0,1.3,0.5h0c0.2,0.5,0,1.1-0.5,1.3l-1.2,0.6
			C346.2,482.3,346.1,482.3,345.9,482.3L345.9,482.3z M346.2,477.6c0.1-0.7,0.3-1.4,0.5-2.1l0.8-0.1c0.5-0.1,1.1,0.3,1.2,0.8l0,0
			c0.1,0.5-0.3,1.1-0.8,1.2l-1.4,0.3C346.4,477.6,346.3,477.6,346.2,477.6L346.2,477.6z M347.7,473.1c0.3-0.6,0.7-1.3,1.1-1.9
			l0.8,0.1c0.5,0,1,0.5,0.9,1.1v0c0,0.5-0.5,1-1.1,0.9l-1.4-0.1C347.9,473.2,347.8,473.2,347.7,473.1L347.7,473.1z M350.3,469.2
			c0.5-0.5,1-1.1,1.5-1.5l0.7,0.3c0.5,0.2,0.8,0.8,0.6,1.3v0c-0.2,0.5-0.8,0.8-1.3,0.6l-1.3-0.5
			C350.5,469.3,350.4,469.3,350.3,469.2L350.3,469.2z M353.8,466.1c0.6-0.4,1.2-0.8,1.8-1.1l0.7,0.4c0.5,0.3,0.6,0.9,0.3,1.4v0
			c-0.3,0.5-0.9,0.6-1.4,0.3l-1.1-0.8C354,466.2,353.9,466.2,353.8,466.1L353.8,466.1z M358.1,464c0.7-0.2,1.4-0.4,2.1-0.6l0.5,0.6
			c0.4,0.4,0.3,1.1-0.1,1.4l0,0c-0.4,0.4-1.1,0.3-1.4-0.1l-0.9-1C358.2,464.2,358.1,464.1,358.1,464L358.1,464z M367.4,463.3
			c0.7,0.1,1.4,0.3,2.1,0.5l0.1,0.8c0.1,0.5-0.3,1.1-0.8,1.2l0,0c-0.5,0.1-1.1-0.3-1.2-0.8l-0.3-1.4
			C367.4,463.5,367.4,463.4,367.4,463.3L367.4,463.3z M371.9,464.8c0.6,0.3,1.3,0.7,1.9,1.1l-0.1,0.8c0,0.5-0.5,1-1.1,0.9l0,0
			c-0.5,0-1-0.5-0.9-1.1l0.1-1.4C371.8,465,371.8,464.9,371.9,464.8L371.9,464.8z M375.8,467.4c0.5,0.5,1.1,1,1.5,1.5l-0.3,0.7
			c-0.2,0.5-0.8,0.8-1.3,0.6l0,0c-0.5-0.2-0.8-0.8-0.6-1.3l0.5-1.3C375.7,467.6,375.8,467.5,375.8,467.4L375.8,467.4z M379,470.9
			c0.4,0.6,0.8,1.2,1.1,1.8l-0.4,0.7c-0.3,0.5-0.9,0.6-1.4,0.3l0,0c-0.5-0.3-0.6-0.9-0.3-1.4l0.8-1.1C378.8,471,378.9,471,379,470.9
			L379,470.9z M381.1,475.1c0.2,0.7,0.4,1.4,0.6,2.1l-0.6,0.5c-0.4,0.4-1.1,0.3-1.4-0.1l0,0c-0.4-0.4-0.3-1.1,0.1-1.4l1-0.9
			C380.9,475.2,381,475.2,381.1,475.1L381.1,475.1z M382,479.8c0,0.4,0,0.9,0,1.3c0,0.3,0,0.6,0,0.9l-0.7,0.3
			c-0.5,0.2-1.1,0-1.3-0.5h0c-0.2-0.5,0-1.1,0.5-1.3l1.2-0.6C381.8,479.8,381.9,479.8,382,479.8L382,479.8z M381.7,484.5
			c-0.1,0.7-0.3,1.4-0.5,2.1l-0.8,0.1c-0.5,0.1-1.1-0.3-1.2-0.8h0c-0.1-0.5,0.3-1.1,0.8-1.2l1.4-0.3
			C381.5,484.4,381.6,484.4,381.7,484.5L381.7,484.5z M380.3,488.9c-0.3,0.6-0.7,1.3-1.1,1.9l-0.8-0.1c-0.5,0-1-0.5-0.9-1.1l0,0
			c0-0.5,0.5-1,1.1-0.9l1.4,0.1C380,488.9,380.2,488.9,380.3,488.9L380.3,488.9z M377.7,492.9c-0.5,0.5-1,1.1-1.5,1.5l-0.7-0.3
			c-0.5-0.2-0.8-0.8-0.6-1.3l0,0c0.2-0.5,0.8-0.8,1.3-0.6l1.3,0.5C377.5,492.8,377.6,492.8,377.7,492.9L377.7,492.9z M374.1,496
			c-0.6,0.4-1.2,0.8-1.8,1.1l-0.7-0.4c-0.5-0.3-0.6-0.9-0.3-1.4l0,0c0.3-0.5,0.9-0.6,1.4-0.3l1.1,0.8
			C374,495.9,374.1,495.9,374.1,496L374.1,496z M369.9,498.1c-0.7,0.2-1.4,0.4-2.1,0.6l-0.5-0.6c-0.4-0.4-0.3-1.1,0.1-1.4v0
			c0.4-0.4,1.1-0.3,1.4,0.1l0.9,1C369.8,497.9,369.9,498,369.9,498.1L369.9,498.1z M365.3,499.1c-0.4,0-0.9,0-1.3,0
			c-0.3,0-0.6,0-0.9,0l-0.3-0.7c-0.2-0.5,0-1.1,0.5-1.3v0c0.5-0.2,1.1,0,1.3,0.5l0.6,1.2C365.2,498.9,365.3,499,365.3,499.1z"/>
	</g>
	<g id="XMLID_596_">
		<g id="XMLID_635_">
			<path id="XMLID_638_" class="st7" d="M417.4,499.1c9.9,0,18.1-8.1,18.1-18.1s-8.1-18.1-18.1-18.1c-9.9,0-18.1,8.1-18.1,18.1
				S407.4,499.1,417.4,499.1z"/>
			<path id="XMLID_636_" class="st12" d="M417.4,499.1c9.9,0,18.1-8.1,18.1-18.1s-8.1-18.1-18.1-18.1c-9.9,0-18.1,8.1-18.1,18.1
				S407.4,499.1,417.4,499.1z"/>
		</g>
		<g id="XMLID_631_">
			<path id="XMLID_634_" class="st7" d="M417.4,490.8c5.4,0,9.8-4.4,9.8-9.8c0-5.4-4.4-9.8-9.8-9.8c-5.4,0-9.8,4.4-9.8,9.8
				C407.5,486.4,411.9,490.8,417.4,490.8z"/>
			<path id="XMLID_632_" class="st18" d="M417.4,490.8c5.4,0,9.8-4.4,9.8-9.8c0-5.4-4.4-9.8-9.8-9.8c-5.4,0-9.8,4.4-9.8,9.8
				C407.5,486.4,411.9,490.8,417.4,490.8z"/>
		</g>
		<path id="XMLID_629_" class="st4" d="M417.4,471.2c5.4,0,9.8,4.4,9.8,9.8c0,0.4,0,0.8-0.1,1.2c-0.6-4.9-4.7-8.6-9.8-8.6
			c-5,0-9.2,3.8-9.8,8.6c0-0.4-0.1-0.8-0.1-1.2C407.5,475.6,411.9,471.2,417.4,471.2z"/>
		<g id="XMLID_625_">
			<path id="XMLID_628_" class="st7" d="M417.4,486.2c2.9,0,5.2-2.3,5.2-5.2c0-2.9-2.3-5.2-5.2-5.2s-5.2,2.3-5.2,5.2
				C412.2,483.9,414.5,486.2,417.4,486.2z"/>
			<path id="XMLID_626_" class="st12" d="M417.4,486.2c2.9,0,5.2-2.3,5.2-5.2c0-2.9-2.3-5.2-5.2-5.2s-5.2,2.3-5.2,5.2
				C412.2,483.9,414.5,486.2,417.4,486.2z"/>
		</g>
		<path id="XMLID_624_" class="st6" d="M420.6,480.9c0.1,0.3,0.1,0.5,0.1,0.8c0,1.8-1.5,3.3-3.3,3.3c-1.8,0-3.3-1.5-3.3-3.3
			c0-0.3,0-0.6,0.1-0.8c0.4,1.4,1.7,2.5,3.2,2.5C418.9,483.4,420.2,482.3,420.6,480.9z"/>
		<path id="XMLID_622_" class="st19" d="M417.4,463c10,0,18.1,8.1,18.1,18.1c0,0.5,0,1-0.1,1.5c-0.8-9.3-8.5-16.5-18-16.5
			c-9.5,0-17.2,7.3-18,16.5c0-0.5-0.1-1-0.1-1.5C399.3,471,407.4,463,417.4,463z"/>
		<path id="XMLID_597_" class="st20" d="M417.4,463c0.3,0,0.6,0,0.9,0l0.3,0.7c0.2,0.5,0,1.1-0.5,1.3l0,0c-0.5,0.2-1.1,0-1.3-0.5
			l-0.6-1.2c0-0.1-0.1-0.2-0.1-0.3C416.5,463,416.9,463,417.4,463L417.4,463z M413.9,498.8c-0.7-0.1-1.4-0.3-2.1-0.5l-0.1-0.8
			c-0.1-0.5,0.3-1.1,0.8-1.2l0,0c0.5-0.1,1.1,0.3,1.2,0.8l0.3,1.4C414,498.6,414,498.7,413.9,498.8L413.9,498.8z M409.5,497.3
			c-0.6-0.3-1.3-0.7-1.9-1.1l0.1-0.8c0-0.5,0.5-1,1.1-0.9l0,0c0.5,0,1,0.5,0.9,1.1l-0.1,1.4C409.5,497.1,409.5,497.2,409.5,497.3
			L409.5,497.3z M405.5,494.7c-0.5-0.5-1.1-1-1.5-1.5l0.3-0.7c0.2-0.5,0.8-0.8,1.3-0.6h0c0.5,0.2,0.8,0.8,0.6,1.3l-0.5,1.3
			C405.6,494.5,405.6,494.6,405.5,494.7L405.5,494.7z M402.4,491.2c-0.4-0.6-0.8-1.2-1.1-1.8l0.4-0.7c0.3-0.5,0.9-0.6,1.4-0.3h0
			c0.5,0.3,0.6,0.9,0.3,1.4l-0.8,1.1C402.6,491,402.5,491.1,402.4,491.2L402.4,491.2z M400.3,487c-0.2-0.7-0.4-1.4-0.6-2.1l0.6-0.5
			c0.4-0.4,1.1-0.3,1.4,0.1l0,0c0.4,0.4,0.3,1.1-0.1,1.4l-1,0.9C400.5,486.9,400.4,486.9,400.3,487L400.3,487z M399.3,482.3
			c0-0.4,0-0.9,0-1.3c0-0.3,0-0.6,0-0.9l0.7-0.3c0.5-0.2,1.1,0,1.3,0.5h0c0.2,0.5,0,1.1-0.5,1.3l-1.2,0.6
			C399.5,482.3,399.4,482.3,399.3,482.3L399.3,482.3z M399.6,477.6c0.1-0.7,0.3-1.4,0.5-2.1l0.8-0.1c0.5-0.1,1.1,0.3,1.2,0.8l0,0
			c0.1,0.5-0.3,1.1-0.8,1.2l-1.4,0.3C399.8,477.6,399.7,477.6,399.6,477.6L399.6,477.6z M401.1,473.1c0.3-0.6,0.7-1.3,1.1-1.9
			l0.8,0.1c0.5,0,1,0.5,0.9,1.1v0c0,0.5-0.5,1-1.1,0.9l-1.4-0.1C401.3,473.2,401.2,473.2,401.1,473.1L401.1,473.1z M403.7,469.2
			c0.5-0.5,1-1.1,1.5-1.5l0.7,0.3c0.5,0.2,0.8,0.8,0.6,1.3v0c-0.2,0.5-0.8,0.8-1.3,0.6l-1.3-0.5
			C403.9,469.3,403.8,469.3,403.7,469.2L403.7,469.2z M407.2,466.1c0.6-0.4,1.2-0.8,1.8-1.1l0.7,0.4c0.5,0.3,0.6,0.9,0.3,1.4v0
			c-0.3,0.5-0.9,0.6-1.4,0.3l-1.1-0.8C407.4,466.2,407.3,466.2,407.2,466.1L407.2,466.1z M411.4,464c0.7-0.2,1.4-0.4,2.1-0.6
			l0.5,0.6c0.4,0.4,0.3,1.1-0.1,1.4l0,0c-0.4,0.4-1.1,0.3-1.4-0.1l-0.9-1C411.5,464.2,411.5,464.1,411.4,464L411.4,464z
			 M420.8,463.3c0.7,0.1,1.4,0.3,2.1,0.5l0.1,0.8c0.1,0.5-0.3,1.1-0.8,1.2l0,0c-0.5,0.1-1.1-0.3-1.2-0.8l-0.3-1.4
			C420.8,463.5,420.8,463.4,420.8,463.3L420.8,463.3z M425.3,464.8c0.6,0.3,1.3,0.7,1.9,1.1l-0.1,0.8c0,0.5-0.5,1-1.1,0.9l0,0
			c-0.5,0-1-0.5-0.9-1.1l0.1-1.4C425.2,465,425.2,464.9,425.3,464.8L425.3,464.8z M429.2,467.4c0.5,0.5,1.1,1,1.5,1.5l-0.3,0.7
			c-0.2,0.5-0.8,0.8-1.3,0.6l0,0c-0.5-0.2-0.8-0.8-0.6-1.3l0.5-1.3C429.1,467.6,429.1,467.5,429.2,467.4L429.2,467.4z M432.3,470.9
			c0.4,0.6,0.8,1.2,1.1,1.8l-0.4,0.7c-0.3,0.5-0.9,0.6-1.4,0.3l0,0c-0.5-0.3-0.6-0.9-0.3-1.4l0.8-1.1
			C432.2,471,432.2,471,432.3,470.9L432.3,470.9z M434.5,475.1c0.2,0.7,0.4,1.4,0.6,2.1l-0.6,0.5c-0.4,0.4-1.1,0.3-1.4-0.1l0,0
			c-0.4-0.4-0.3-1.1,0.1-1.4l1-0.9C434.3,475.2,434.3,475.2,434.5,475.1L434.5,475.1z M435.4,479.8c0,0.4,0,0.9,0,1.3
			c0,0.3,0,0.6,0,0.9l-0.7,0.3c-0.5,0.2-1.1,0-1.3-0.5h0c-0.2-0.5,0-1.1,0.5-1.3l1.2-0.6C435.2,479.8,435.3,479.8,435.4,479.8
			L435.4,479.8z M435.1,484.5c-0.1,0.7-0.3,1.4-0.5,2.1l-0.8,0.1c-0.5,0.1-1.1-0.3-1.2-0.8h0c-0.1-0.5,0.3-1.1,0.8-1.2l1.4-0.3
			C434.9,484.4,435,484.4,435.1,484.5L435.1,484.5z M433.6,488.9c-0.3,0.6-0.7,1.3-1.1,1.9l-0.8-0.1c-0.5,0-1-0.5-0.9-1.1l0,0
			c0-0.5,0.5-1,1.1-0.9l1.4,0.1C433.4,488.9,433.5,488.9,433.6,488.9L433.6,488.9z M431,492.9c-0.5,0.5-1,1.1-1.5,1.5l-0.7-0.3
			c-0.5-0.2-0.8-0.8-0.6-1.3l0,0c0.2-0.5,0.8-0.8,1.3-0.6l1.3,0.5C430.8,492.8,430.9,492.8,431,492.9L431,492.9z M427.5,496
			c-0.6,0.4-1.2,0.8-1.8,1.1l-0.7-0.4c-0.5-0.3-0.6-0.9-0.3-1.4l0,0c0.3-0.5,0.9-0.6,1.4-0.3l1.1,0.8
			C427.4,495.9,427.4,495.9,427.5,496L427.5,496z M423.3,498.1c-0.7,0.2-1.4,0.4-2.1,0.6l-0.5-0.6c-0.4-0.4-0.3-1.1,0.1-1.4v0
			c0.4-0.4,1.1-0.3,1.4,0.1l0.9,1C423.2,497.9,423.2,498,423.3,498.1L423.3,498.1z M418.7,499.1c-0.4,0-0.9,0-1.3,0
			c-0.3,0-0.6,0-0.9,0l-0.3-0.7c-0.2-0.5,0-1.1,0.5-1.3v0c0.5-0.2,1.1,0,1.3,0.5l0.6,1.2C418.6,498.9,418.6,499,418.7,499.1z"/>
	</g>
	<g id="XMLID_576_">
		<path id="XMLID_588_" class="st2" d="M453.2,405h27.6v3.5c0,2.4-1.9,4.3-4.3,4.3h-18.9c-2.4,0-4.3-1.9-4.3-4.3V405z"/>
		<path id="XMLID_580_" class="st4" d="M453.2,405h27.6v3.5c0,2.4-1.9,4.3-4.3,4.3h-18.9c-2.4,0-4.3-1.9-4.3-4.3V405z"/>
	</g>
	<g id="XMLID_560_">
		<rect id="XMLID_572_" x="448.2" y="400.2" class="st7" width="35.5" height="6.3"/>
		<path id="XMLID_564_" class="st8" d="M448.2,406.5h35.5v-6.3h-35.5V406.5z"/>
	</g>
	<g id="XMLID_525_">
		<path id="XMLID_556_" class="st2" d="M454,395.6h23.7c1.6,0,2.9,1.3,2.9,2.9v0c0,1.6-1.3,2.9-2.9,2.9H454c-1.6,0-2.9-1.3-2.9-2.9
			v0C451.1,396.9,452.4,395.6,454,395.6z"/>
		<path id="XMLID_526_" class="st5" d="M454,395.6h23.7c1.6,0,2.9,1.3,2.9,2.9v0c0,1.6-1.3,2.9-2.9,2.9H454c-1.6,0-2.9-1.3-2.9-2.9
			v0C451.1,396.9,452.4,395.6,454,395.6z"/>
	</g>
	<path id="XMLID_519_" class="st6" d="M454.9,396.4h22c1.5,0,2.7,1.2,2.7,2.7l0,0c0,0.2,0,0.3,0,0.5c-0.2-1.3-1.3-2.3-2.7-2.3h-22
		c-1.3,0-2.5,1-2.7,2.3c0-0.1,0-0.3,0-0.5l0,0C452.2,397.6,453.4,396.4,454.9,396.4z"/>
	<path id="XMLID_515_" class="st6" d="M342.3,454.9c0,0,0.2-4.2,0.6-5.9c1.3-5.7,13.9-9.3,19-10.7c-8,3.8-13.4,5.5-16.5,9.1
		C343.9,449.1,343.4,450.8,342.3,454.9z"/>
	<g id="XMLID_499_">
		<path id="XMLID_511_" class="st2" d="M436.1,384c1.1,0,1.9-0.9,1.9-1.9c0-1.1-0.9-1.9-1.9-1.9s-1.9,0.9-1.9,1.9
			C434.2,383.2,435,384,436.1,384z"/>
		<path id="XMLID_503_" class="st3" d="M436.1,384c1.1,0,1.9-0.9,1.9-1.9c0-1.1-0.9-1.9-1.9-1.9s-1.9,0.9-1.9,1.9
			C434.2,383.2,435,384,436.1,384z"/>
	</g>
	<path id="XMLID_498_" class="st6" d="M390.8,402.4c0.9-0.4,2.6-0.2,2.8,0.6c-0.2-0.2-0.5-0.3-0.7-0.3c-1.5-0.4-3.1,0.4-3.2,1.7
		C389.6,403.8,389.9,402.8,390.8,402.4z"/>
</g>
<g id="XMLID_2_" class="st0">
	<g id="XMLID_422_">
		
			<rect id="XMLID_425_" x="109.9" y="435.8" transform="matrix(0.8091 0.5876 -0.5876 0.8091 279.8947 18.6412)" class="st7" width="2.7" height="8.6"/>
		<path id="XMLID_423_" class="st11" d="M109.8,444.5l-2.2-1.6l5.1-7l2.2,1.6L109.8,444.5z"/>
	</g>
	<g id="XMLID_418_">
		<path id="XMLID_421_" class="st7" d="M109.3,443L109.3,443c-1.2-0.9-2.8-0.6-3.7,0.6l-5.5,7.5l4.3,3.1l5.5-7.5
			C110.7,445.5,110.5,443.9,109.3,443z"/>
		<path id="XMLID_419_" class="st11" d="M109.9,446.7l-5.5,7.5l-4.3-3.1l5.5-7.5c0.9-1.2,2.5-1.4,3.7-0.6l0,0
			C110.5,443.9,110.7,445.5,109.9,446.7z"/>
	</g>
	<g id="XMLID_414_">
		<path id="XMLID_417_" class="st7" d="M116.6,438.7l-5.5-4c-0.2-0.1-0.3-0.2-0.5,0l0,0c-0.1,0.2,0,0.3,0.2,0.5l5.5,4
			c0.2,0.1,0.3,0.2,0.5,0l0,0C116.9,439,116.8,438.8,116.6,438.7z"/>
		<path id="XMLID_415_" class="st11" d="M116.8,439.2L116.8,439.2c-0.1,0.2-0.3,0.1-0.5,0l-5.5-4c-0.2-0.1-0.3-0.3-0.2-0.5l0,0
			c0.1-0.2,0.3-0.1,0.5,0l5.5,4C116.8,438.8,116.9,439,116.8,439.2z"/>
	</g>
	<g id="XMLID_407_">
		<path id="XMLID_411_" class="st7" d="M132.7,441.3v5.6h-7v-2.8c0-1.5,1.3-2.8,2.8-2.8H132.7L132.7,441.3z M131.8,446.3h-5.4v-2.2
			c0-1.2,1-2.2,2.2-2.2h3.3V446.3z"/>
		<path id="XMLID_408_" class="st12" d="M129.1,442h-0.6c-1.2,0-2.2,1-2.2,2.2v2.2h2.7v0.6h-3.5v-2.8c0-1.5,1.3-2.8,2.8-2.8h0.7V442
			z M132.7,446.9h-3.5v-0.6h2.7V442h-2.7v-0.6h3.5V446.9z"/>
	</g>
	<g id="XMLID_403_">
		<path id="XMLID_406_" class="st7" d="M134.6,445.3h-11.3c-0.9,0-1.6,0.6-1.6,1.4v0c0,0.8,0.7,1.4,1.6,1.4h11.3V445.3z"/>
		<path id="XMLID_404_" class="st12" d="M134.6,448.1h-11.3c-0.9,0-1.6-0.6-1.6-1.4v0c0-0.8,0.7-1.4,1.6-1.4h11.3V448.1z"/>
	</g>
	<g id="XMLID_399_">
		<path id="XMLID_402_" class="st7" d="M135.5,430.8L135.5,430.8c-1-0.2-1.9,0.5-2.1,1.5l-2.4,15.2l3.6,0.6l2.4-15.2
			C137.2,431.9,136.5,430.9,135.5,430.8z"/>
		<path id="XMLID_400_" class="st12" d="M137,432.9l-2.4,15.2l-3.6-0.6l2.4-15.2c0.2-1,1.1-1.7,2.1-1.5l0,0
			C136.5,430.9,137.2,431.9,137,432.9z"/>
	</g>
	<g id="XMLID_358_">
		<line id="XMLID_398_" class="st21" x1="112.2" y1="446.9" x2="97.5" y2="446.9"/>
		<path id="XMLID_397_" class="st21" d="M112.2,445.6c-4.8,0-9.6,0-14.4,0"/>
		<path id="XMLID_396_" class="st21" d="M112.2,444.3c-4.7,0-9.3,0-14,0"/>
		<path id="XMLID_395_" class="st21" d="M112.2,443.1c-4.5,0-9.1,0-13.6,0"/>
		<path id="XMLID_394_" class="st21" d="M112.2,441.8c-4.4,0-8.8,0-13.2,0"/>
		<path id="XMLID_393_" class="st21" d="M112.2,440.5c-4.3,0-8.6,0-12.9,0"/>
		<path id="XMLID_392_" class="st21" d="M112.2,439.2c-4.2,0-8.3,0-12.5,0"/>
		<path id="XMLID_391_" class="st21" d="M112.2,438c-4,0-8.1,0-12.1,0"/>
		<path id="XMLID_390_" class="st21" d="M112.2,436.7c-3.9,0-7.8,0-11.7,0"/>
		<path id="XMLID_389_" class="st21" d="M112.2,435.4c-3.8,0-7.6,0-11.4,0"/>
		<path id="XMLID_388_" class="st21" d="M112.2,434.1c-3.7,0-7.3,0-11,0"/>
		<path id="XMLID_387_" class="st21" d="M112.2,432.9c-3.6,0-7.1,0-10.7,0"/>
		<path id="XMLID_386_" class="st21" d="M112.2,431.6c-2.8,0-5.7,0-8.5,0"/>
		<path id="XMLID_385_" class="st21" d="M112.2,430.3c-2.8,0-5.7,0-8.5,0"/>
		<path id="XMLID_384_" class="st21" d="M112.2,429c-2.8,0-5.6,0-8.5,0"/>
		<path id="XMLID_383_" class="st21" d="M103.7,430.3c0,5.5,0,11.1,0,16.6"/>
		<path id="XMLID_382_" class="st21" d="M102.6,432.9c0,4.7,0,9.4,0,14"/>
		<path id="XMLID_381_" class="st21" d="M101.6,432.8c0,4.7,0,9.4,0,14.1"/>
		<path id="XMLID_380_" class="st21" d="M100.5,436.6c0,3.4,0,6.9,0,10.3"/>
		<path id="XMLID_379_" class="st21" d="M99.4,440.2c0,2.2,0,4.4,0,6.7"/>
		<path id="XMLID_378_" class="st21" d="M98.4,443.9c0,1,0,2,0,3"/>
		<path id="XMLID_377_" class="st21" d="M111.1,427.8c-2.1,0-4.3,0-6.4,0"/>
		<path id="XMLID_376_" class="st21" d="M112.2,426.5c-2.4,0-4.9,0-7.3,0"/>
		<path id="XMLID_375_" class="st21" d="M112.2,425.2c-2.1,0-4.3,0-6.4,0"/>
		<path id="XMLID_374_" class="st21" d="M112.2,423.9c-1.8,0-3.5,0-5.3,0"/>
		<path id="XMLID_373_" class="st21" d="M112.2,422.7c-1.4,0-2.8,0-4.3,0"/>
		<path id="XMLID_372_" class="st21" d="M112.2,421.4c-1.1,0-2.1,0-3.2,0"/>
		<path id="XMLID_369_" class="st21" d="M110.1,420.1h2.1 M107.9,420.1L107.9,420.1"/>
		<line id="XMLID_368_" class="st21" x1="112.2" y1="420.1" x2="112.2" y2="446.9"/>
		<path id="XMLID_367_" class="st21" d="M111.1,420.1c0,8.9,0,17.9,0,26.8"/>
		<path id="XMLID_366_" class="st21" d="M110.1,420.1c0,8.9,0,17.9,0,26.8"/>
		<path id="XMLID_365_" class="st21" d="M109,421.3c0,8.5,0,17,0,25.6"/>
		<path id="XMLID_362_" class="st21" d="M107.9,420.1C107.9,420.1,107.9,420.1,107.9,420.1 M107.9,446.9c0-8.1,0-16.2,0-24.2"/>
		<path id="XMLID_361_" class="st21" d="M106.9,423.9c0,7.7,0,15.3,0,23"/>
		<path id="XMLID_360_" class="st21" d="M105.8,425.2c0,7.2,0,14.5,0,21.7"/>
		<path id="XMLID_359_" class="st21" d="M104.8,427.8c0,6.4,0,12.8,0,19.1"/>
	</g>
	<g id="XMLID_315_">
		<g id="XMLID_337_">
			<path id="XMLID_357_" class="st21" d="M136.8,445.6c-7.5,0-14.9,0-22.4,0"/>
			<path id="XMLID_356_" class="st21" d="M136.8,444.3c-7.5,0-14.9,0-22.4,0"/>
			<path id="XMLID_355_" class="st21" d="M136.8,443.1c-7.5,0-14.9,0-22.4,0"/>
			<path id="XMLID_354_" class="st21" d="M136.8,441.8c-7.5,0-14.9,0-22.4,0"/>
			<path id="XMLID_353_" class="st21" d="M136.8,440.5c-7.5,0-14.9,0-22.4,0"/>
			<path id="XMLID_352_" class="st21" d="M136.8,439.2c-7.5,0-14.9,0-22.4,0"/>
			<path id="XMLID_351_" class="st21" d="M136.8,438c-7.5,0-14.9,0-22.4,0"/>
			<path id="XMLID_350_" class="st21" d="M136.8,436.7c-7.5,0-14.9,0-22.4,0"/>
			<path id="XMLID_349_" class="st21" d="M136.8,435.4c-7.5,0-14.9,0-22.4,0"/>
			<path id="XMLID_348_" class="st21" d="M136.8,434.1c-7.5,0-14.9,0-22.4,0"/>
			<path id="XMLID_347_" class="st21" d="M136.8,432.9c-7.5,0-14.9,0-22.4,0"/>
			<path id="XMLID_346_" class="st21" d="M136.8,431.6c-7.5,0-14.9,0-22.4,0"/>
			<path id="XMLID_345_" class="st21" d="M136.8,430.3c-7.5,0-14.9,0-22.4,0"/>
			<path id="XMLID_344_" class="st21" d="M136.8,429c-7.5,0-14.9,0-22.4,0"/>
			<path id="XMLID_343_" class="st21" d="M136.8,427.8c-7.5,0-14.9,0-22.4,0"/>
			<path id="XMLID_342_" class="st21" d="M136.8,426.5c-7.5,0-14.9,0-22.4,0"/>
			<path id="XMLID_341_" class="st21" d="M136.8,425.2c-7.5,0-14.9,0-22.4,0"/>
			<path id="XMLID_340_" class="st21" d="M136.8,423.9c-7.5,0-14.9,0-22.4,0"/>
			<path id="XMLID_339_" class="st21" d="M136.8,422.7c-7.5,0-14.9,0-22.4,0"/>
			<path id="XMLID_338_" class="st21" d="M136.8,421.4c-7.5,0-14.9,0-22.4,0"/>
		</g>
		<g id="XMLID_316_">
			<path id="XMLID_336_" class="st21" d="M135.8,420.1c0,8.9,0,17.9,0,26.8"/>
			<path id="XMLID_335_" class="st21" d="M134.7,420.1c0,8.9,0,17.9,0,26.8"/>
			<path id="XMLID_334_" class="st21" d="M133.6,420.1c0,8.9,0,17.9,0,26.8"/>
			<path id="XMLID_333_" class="st21" d="M132.6,420.1c0,8.9,0,17.9,0,26.8"/>
			<path id="XMLID_332_" class="st21" d="M131.5,420.1c0,8.9,0,17.9,0,26.8"/>
			<path id="XMLID_331_" class="st21" d="M130.4,420.1c0,8.9,0,17.9,0,26.8"/>
			<path id="XMLID_330_" class="st21" d="M129.4,420.1c0,8.9,0,17.9,0,26.8"/>
			<path id="XMLID_329_" class="st21" d="M128.3,420.1c0,8.9,0,17.9,0,26.8"/>
			<path id="XMLID_328_" class="st21" d="M127.2,420.1c0,8.9,0,17.9,0,26.8"/>
			<path id="XMLID_327_" class="st21" d="M126.2,420.1c0,8.9,0,17.9,0,26.8"/>
			<path id="XMLID_326_" class="st21" d="M125.1,420.1c0,8.9,0,17.9,0,26.8"/>
			<path id="XMLID_325_" class="st21" d="M124,420.1c0,8.9,0,17.9,0,26.8"/>
			<path id="XMLID_324_" class="st21" d="M123,420.1c0,8.9,0,17.9,0,26.8"/>
			<path id="XMLID_323_" class="st21" d="M121.9,420.1c0,8.9,0,17.9,0,26.8"/>
			<path id="XMLID_322_" class="st21" d="M120.9,420.1c0,8.9,0,17.9,0,26.8"/>
			<path id="XMLID_321_" class="st21" d="M119.8,420.1c0,8.9,0,17.9,0,26.8"/>
			<path id="XMLID_320_" class="st21" d="M118.7,420.1c0,8.9,0,17.9,0,26.8"/>
			<path id="XMLID_319_" class="st21" d="M117.7,420.1c0,8.9,0,17.9,0,26.8"/>
			<path id="XMLID_318_" class="st21" d="M116.6,420.1c0,8.9,0,17.9,0,26.8"/>
			<path id="XMLID_317_" class="st21" d="M115.5,420.1c0,8.9,0,17.9,0,26.8"/>
		</g>
	</g>
	<g id="XMLID_311_">
		<path id="XMLID_314_" class="st7" d="M152.3,433.3c0,0,25.2,4.1,25.2,25.2c0,12.5-0.1,13.8-0.1,23.7l-11.3,8.5
			c-0.1-4.2,0.1-8.3,0.1-12.5c0-9.9-8.3-18.7-18.7-18.7c-0.8,0-1.5,0-2.2,0.1l-1.1-5.8L152.3,433.3z"/>
		<path id="XMLID_312_" class="st5" d="M144.3,453.9l1.1,5.8c0.7-0.1,1.5-0.1,2.2-0.1c10.4,0,18.7,8.7,18.7,18.7
			c0,4.1-0.1,8.3-0.1,12.5l11.3-8.5c0-9.9,0.1-11.3,0.1-23.7c0-21.1-25.2-25.2-25.2-25.2L144.3,453.9z"/>
	</g>
	<path id="XMLID_309_" class="st6" d="M149.7,436.7c3.4,0.7,24.1,5.7,24.8,25.1c0.1,2,0.2,4.3,0.6,10.9c0-2.5,0.6-8.3,0.6-12.7
		c0-21.1-25.2-25.2-25.2-25.2L149.7,436.7z"/>
	<g id="XMLID_305_">
		<rect id="XMLID_308_" x="44.9" y="405" class="st7" width="11.3" height="18.6"/>
		<path id="XMLID_306_" class="st11" d="M56.3,405H44.9v18.6h11.3V405z"/>
	</g>
	<rect id="XMLID_304_" x="46.7" y="408.7" class="st6" width="1.8" height="14.2"/>
	<g id="XMLID_300_">
		<rect id="XMLID_303_" x="48.7" y="427.9" class="st9" width="3.9" height="60.1"/>
		<path id="XMLID_301_" class="st10" d="M52.5,427.9h-3.9V488h3.9V427.9z"/>
	</g>
	<g id="XMLID_296_">
		<path id="XMLID_299_" class="st7" d="M52.3,468.6c3.3-1.3,8.7-3,8.6-6.3c-0.1-2.9-8.6-4.8-8.6-4.8V468.6z"/>
		<path id="XMLID_297_" class="st11" d="M52.3,457.5c0,0,8.5,1.9,8.6,4.8c0.1,3.4-5.3,5-8.6,6.3V457.5z"/>
	</g>
	<g id="XMLID_292_">
		<path id="XMLID_295_" class="st7" d="M48.9,456.2c-3-0.9-7.9-2.1-7.8-4.4c0.1-2,7.8-3.3,7.8-3.3V456.2z"/>
		<path id="XMLID_293_" class="st12" d="M48.9,448.6c0,0-7.7,1.3-7.8,3.3c-0.1,2.3,4.8,3.5,7.8,4.4V448.6z"/>
	</g>
	<g id="XMLID_288_">
		<path id="XMLID_291_" class="st7" d="M52.3,457.4c3.3-1.1,8.7-2.6,8.6-5.6c-0.1-2.5-8.6-4.2-8.6-4.2V457.4z"/>
		<path id="XMLID_289_" class="st11" d="M52.3,447.5c0,0,8.5,1.7,8.6,4.2c0.1,3-5.3,4.5-8.6,5.6V447.5z"/>
	</g>
	<g id="XMLID_284_">
		<path id="XMLID_287_" class="st7" d="M48.9,446.3c-3-0.9-7.9-2.1-7.8-4.4c0.1-2,7.8-3.3,7.8-3.3V446.3z"/>
		<path id="XMLID_285_" class="st12" d="M48.9,438.6c0,0-7.7,1.3-7.8,3.3c-0.1,2.3,4.8,3.5,7.8,4.4V438.6z"/>
	</g>
	<g id="XMLID_280_">
		<path id="XMLID_283_" class="st7" d="M52.3,479.8c3.3-1.3,8.7-3,8.6-6.3c-0.1-2.9-8.6-4.8-8.6-4.8V479.8z"/>
		<path id="XMLID_281_" class="st11" d="M52.3,468.7c0,0,8.5,1.9,8.6,4.8c0.1,3.4-5.3,5-8.6,6.3V468.7z"/>
	</g>
	<g id="XMLID_276_">
		<path id="XMLID_279_" class="st7" d="M48.9,468.2c-3-1.1-7.9-2.6-7.8-5.5c0.1-2.5,7.8-4.2,7.8-4.2V468.2z"/>
		<path id="XMLID_277_" class="st12" d="M48.9,458.5c0,0-7.7,1.7-7.8,4.2c-0.1,2.9,4.8,4.4,7.8,5.5V458.5z"/>
	</g>
	<g id="XMLID_272_">
		<path id="XMLID_275_" class="st7" d="M48.9,479.2c-3-1-7.9-2.4-7.8-5.1c0.1-2.3,7.8-3.9,7.8-3.9V479.2z"/>
		<path id="XMLID_273_" class="st12" d="M48.9,470.2c0,0-7.7,1.5-7.8,3.9c-0.1,2.7,4.8,4.1,7.8,5.1V470.2z"/>
	</g>
	<g id="XMLID_268_">
		<rect id="XMLID_271_" x="49.6" y="427.9" class="st9" width="1" height="60.1"/>
		<path id="XMLID_269_" class="st13" d="M50.6,427.9h-1V488h1V427.9z"/>
	</g>
	<path id="XMLID_267_" class="st9" d="M61.1,451.8c-0.4-4.9-20.2-5-20.3-9.8"/>
	<g id="XMLID_263_">
		<path id="XMLID_266_" class="st7" d="M52.3,491.6c3.3-1.3,8.7-3,8.6-6.3c-0.1-2.9-8.6-4.8-8.6-4.8V491.6z"/>
		<path id="XMLID_264_" class="st11" d="M52.3,480.5c0,0,8.5,1.9,8.6,4.8c0.1,3.4-5.3,5-8.6,6.3V480.5z"/>
	</g>
	<g id="XMLID_259_">
		<path id="XMLID_262_" class="st7" d="M48.9,491.5c-3-1-7.9-2.4-7.8-5.1c0.1-2.3,7.8-3.9,7.8-3.9V491.5z"/>
		<path id="XMLID_260_" class="st12" d="M48.9,482.5c0,0-7.7,1.5-7.8,3.9c-0.1,2.7,4.8,4.1,7.8,5.1V482.5z"/>
	</g>
	<g id="XMLID_255_">
		<rect id="XMLID_258_" x="48.7" y="427.9" class="st7" width="3.9" height="67.1"/>
		<path id="XMLID_256_" class="st12" d="M52.5,427.9h-3.9V495h3.9V427.9z"/>
	</g>
	<path id="XMLID_253_" class="st13" d="M50.6,427.9h-1V495h1V427.9z"/>
	<g id="XMLID_249_">
		<path id="XMLID_252_" class="st7" d="M51,446.2c-4.7-1.2-9.9-2.3-9.9-4.2c-0.3,2.6,4.5,4.1,9.6,5.4c4.7,1.2,9.8,1.9,10.2,4.3
			C61.3,448.7,56.1,447.5,51,446.2z"/>
		<path id="XMLID_250_" class="st14" d="M60.9,451.8c-0.4-2.4-5.5-3.1-10.2-4.3c-5.1-1.3-9.9-2.9-9.6-5.4c0,1.9,5.3,3,9.9,4.2
			C56.1,447.5,61.3,448.7,60.9,451.8z"/>
	</g>
	<g id="XMLID_245_">
		<path id="XMLID_248_" class="st7" d="M51,456.5c-4.7-1.3-9.5-2.7-9.9-4.5c0.1,2.6,4.5,4.3,9.6,5.7c4.7,1.3,9.8,2.2,10.2,4.6
			C61.3,459.3,56.1,457.9,51,456.5z"/>
		<path id="XMLID_246_" class="st14" d="M60.9,462.4c-0.4-2.5-5.5-3.3-10.2-4.6c-5.1-1.5-9.6-3.1-9.6-5.7c0.5,1.8,5.3,3.2,9.9,4.5
			C56.1,457.9,61.3,459.3,60.9,462.4z"/>
	</g>
	<g id="XMLID_241_">
		<path id="XMLID_244_" class="st7" d="M51,467.6c-4.7-1.4-9.7-2.6-9.9-4.7c0.1,2.6,4.5,4.3,9.6,5.9c4.7,1.4,9.8,2.4,10.2,4.8
			C61.3,470.6,56.1,469.2,51,467.6z"/>
		<path id="XMLID_242_" class="st14" d="M60.9,473.7c-0.4-2.5-5.5-3.4-10.2-4.8c-5.1-1.5-9.5-3.3-9.6-5.9c0.3,2,5.3,3.3,9.9,4.7
			C56.1,469.2,61.3,470.6,60.9,473.7z"/>
	</g>
	<g id="XMLID_237_">
		<path id="XMLID_240_" class="st7" d="M51,479c-4.7-1.4-9.6-2.7-9.9-4.7c0,2.6,4.5,4.3,9.6,5.9c4.7,1.4,9.8,2.4,10.2,4.8
			C61.3,482,56.1,480.6,51,479z"/>
		<path id="XMLID_238_" class="st14" d="M60.9,485.1c-0.4-2.5-5.5-3.4-10.2-4.8c-5.1-1.5-9.7-3.3-9.6-5.9c0.3,1.9,5.3,3.3,9.9,4.7
			C56.1,480.6,61.3,482,60.9,485.1z"/>
	</g>
	<g id="XMLID_233_">
		<path id="XMLID_236_" class="st7" d="M52.5,492c-3.3-0.2-11.2-3.4-11.4-5.3C41.9,490.9,51.2,492.4,52.5,492z"/>
		<path id="XMLID_234_" class="st14" d="M41.1,486.7c0.3,1.9,8.2,5,11.4,5.3C51.2,492.4,41.9,490.9,41.1,486.7z"/>
	</g>
	<g id="XMLID_229_">
		<polygon id="XMLID_232_" class="st7" points="52.5,495 50.6,495 48.7,495 50.6,499 		"/>
		<path id="XMLID_230_" class="st8" d="M50.6,499l-1.9-3.9l1.9,0h1.9L50.6,499z"/>
	</g>
	<g id="XMLID_225_">
		<rect id="XMLID_228_" x="46" y="425.2" class="st7" width="9.1" height="2.1"/>
		<path id="XMLID_226_" class="st12" d="M55.2,425.2H46v2.1h9.1V425.2z"/>
	</g>
	<g id="XMLID_221_">
		<rect id="XMLID_224_" x="47.5" y="426.2" class="st7" width="6.3" height="5.2"/>
		<path id="XMLID_222_" class="st11" d="M53.7,426.2h-6.3v5.2h6.3V426.2z"/>
	</g>
	<line id="XMLID_220_" class="st21" x1="136.8" y1="446.9" x2="114.5" y2="446.9"/>
	<line id="XMLID_219_" class="st21" x1="136.8" y1="420.1" x2="114.5" y2="420.1"/>
	<line id="XMLID_218_" class="st21" x1="136.8" y1="420.1" x2="136.8" y2="446.9"/>
	<line id="XMLID_217_" class="st21" x1="114.5" y1="420.1" x2="114.5" y2="446.9"/>
	<g id="XMLID_213_">
		<polygon id="XMLID_216_" class="st7" points="139.6,418 142.5,458.2 136.8,458.2 137,418 		"/>
		<path id="XMLID_214_" class="st11" d="M137,418l-0.2,40.2l5.7,0l-2.9-40.2L137,418z"/>
	</g>
	<g id="XMLID_209_">
		<path id="XMLID_212_" class="st7" d="M150.4,400.5c-1.1-1.4-4-1.2-5.7-0.4l-24.1,10.2l10.2,8.8
			C134.8,416.7,155.3,406.8,150.4,400.5z"/>
		<path id="XMLID_210_" class="st15" d="M130.8,419.1l-10.2-8.8l24.1-10.2c1.7-0.7,4.6-1,5.7,0.4
			C155.3,406.8,134.8,416.7,130.8,419.1z"/>
	</g>
	<g id="XMLID_205_">
		<polygon id="XMLID_208_" class="st7" points="93.6,388.2 68.1,390.9 84,377.7 		"/>
		<path id="XMLID_206_" class="st5" d="M84,377.7l-15.8,13.2l25.5-2.7L84,377.7z"/>
	</g>
	<g id="XMLID_201_">
		<polygon id="XMLID_204_" class="st7" points="82.5,375.6 41.8,407.8 51.8,408.6 87.5,380.2 		"/>
		<path id="XMLID_202_" class="st15" d="M87.5,380.2l-35.7,28.4l-10-0.8l40.7-32.2L87.5,380.2z"/>
	</g>
	<g id="XMLID_197_">
		
			<rect id="XMLID_200_" x="28.2" y="388.8" transform="matrix(0.7815 -0.6239 0.6239 0.7815 -231.5509 118.3952)" class="st7" width="50.1" height="2"/>
		<path id="XMLID_198_" class="st14" d="M73.5,374.9l-39.2,31.3l-1.3-1.6l39.2-31.3L73.5,374.9z"/>
	</g>
	<g id="XMLID_193_">
		<polygon id="XMLID_196_" class="st7" points="78.1,367.6 53,387.7 55.2,390.5 80.4,370.5 		"/>
		<path id="XMLID_194_" class="st15" d="M80.4,370.5l-25.1,20l-2.2-2.9l25.1-20L80.4,370.5z"/>
	</g>
	<path id="XMLID_191_" class="st4" d="M166.2,478.8c0,4-0.1,7.9-0.1,11.9l11.3-8.5c0-1.3,0-2.4,0-3.5H166.2z"/>
	<g id="XMLID_187_">
		<rect id="XMLID_190_" x="32.1" y="402.8" class="st7" width="37" height="6.6"/>
		<path id="XMLID_188_" class="st8" d="M69.1,402.8h-37v6.6h37V402.8z"/>
	</g>
	<g id="XMLID_183_">
		
			<rect id="XMLID_186_" x="53" y="386" transform="matrix(0.7815 -0.6239 0.6239 0.7815 -230.8467 118.8609)" class="st7" width="2.5" height="5.9"/>
		<path id="XMLID_184_" class="st15" d="M57.1,390.5l-1.9,1.5l-3.7-4.6l1.9-1.5L57.1,390.5z"/>
	</g>
	<g id="XMLID_179_">
		<path id="XMLID_182_" class="st7" d="M147.1,400.9L147.1,400.9c-1.2,0.1-2.1,1.2-2,2.4l1.7,20.2l4.4-0.4l-1.7-20.2
			C149.4,401.7,148.3,400.8,147.1,400.9z"/>
		<path id="XMLID_180_" class="st5" d="M149.5,402.9l1.7,20.2l-4.4,0.4l-1.7-20.2c-0.1-1.2,0.8-2.3,2-2.4h0
			C148.3,400.8,149.4,401.7,149.5,402.9z"/>
	</g>
	<g id="XMLID_175_">
		<path id="XMLID_178_" class="st7" d="M178.6,475.4h-9.2v6.8h9.2c1.3,0,2.3-1.5,2.3-3.4v0C180.9,476.9,179.9,475.4,178.6,475.4z"/>
		<path id="XMLID_176_" class="st11" d="M180.9,478.8L180.9,478.8c0,1.9-1,3.4-2.3,3.4h-9.2v-6.8h9.2
			C179.9,475.4,180.9,476.9,180.9,478.8z"/>
	</g>
	<path id="XMLID_173_" class="st8" d="M180.9,478.8c0,1.9-1,3.4-2.3,3.4h-9.2v-3.4H180.9z"/>
	<path id="XMLID_171_" class="st10" d="M106.4,455.3l-0.8,0l-2.3-1.1l0.7-1.2L106.4,455.3z"/>
	<g id="XMLID_167_">
		<path id="XMLID_170_" class="st9" d="M106.9,455.4l-3.2-3c-0.1-0.1-0.2-0.1-0.3,0l0,0c-0.1,0.1-0.1,0.2,0,0.3l3.2,3L106.9,455.4z"
			/>
		<path id="XMLID_168_" class="st22" d="M106.6,455.6l-3.2-3c-0.1-0.1-0.1-0.2,0-0.3l0,0c0.1-0.1,0.2-0.1,0.3,0l3.2,3L106.6,455.6z"
			/>
	</g>
	<g id="XMLID_163_">
		<polygon id="XMLID_166_" class="st7" points="140.8,446.9 98.1,446.9 96,457.5 140.8,457.5 		"/>
		<path id="XMLID_164_" class="st11" d="M140.8,457.5H96l2.1-10.6h42.7V457.5z"/>
	</g>
	<g id="XMLID_159_">
		<path id="XMLID_162_" class="st7" d="M112.2,420.1c-0.3,0.1-4.5,1.4-6.9,8.8c-2.5,7.6-6.7,21.6-6.7,21.6l-1.5,7.6l-2.1-0.3
			l1.6-7.9l4.6-15.8c0,0,3.5-15.6,11-16v0h0h2.2h25.1v2.1h-25.1v38.2h-2.2V420.1z"/>
		<path id="XMLID_160_" class="st11" d="M112.2,458.3h2.2v-38.2h25.1V418h-25.1h-2.2h0v0c-7.5,0.4-11,16-11,16l-4.6,15.8l-1.6,7.9
			l2.1,0.3l1.5-7.6c0,0,4.3-14,6.7-21.6c2.4-7.4,6.6-8.7,6.9-8.8V458.3z"/>
	</g>
	<g id="XMLID_155_">
		
			<rect id="XMLID_158_" x="75.8" y="406.4" transform="matrix(0.7225 0.6913 -0.6913 0.7225 311.0548 39.8824)" class="st7" width="60.1" height="2"/>
		<path id="XMLID_156_" class="st14" d="M126.9,429l-43.4-41.6l1.4-1.5l43.4,41.6L126.9,429z"/>
	</g>
	<g id="XMLID_151_">
		<circle id="XMLID_154_" class="st7" cx="83.8" cy="386.4" r="1.4"/>
		<path id="XMLID_152_" class="st14" d="M85.1,386.4c0-0.8-0.6-1.4-1.4-1.4c-0.8,0-1.4,0.6-1.4,1.4c0,0.8,0.6,1.4,1.4,1.4
			C84.5,387.7,85.1,387.1,85.1,386.4z"/>
	</g>
	<g id="XMLID_147_">
		<path id="XMLID_150_" class="st7" d="M63,399.2H38.2c-1.7,0-3.1,1.4-3.1,3.1v0c0,1.7,1.4,3.1,3.1,3.1H63c1.7,0,3.1-1.4,3.1-3.1v0
			C66,400.6,64.6,399.2,63,399.2z"/>
		<path id="XMLID_148_" class="st5" d="M66,402.3L66,402.3c0,1.7-1.4,3.1-3.1,3.1H38.2c-1.7,0-3.1-1.4-3.1-3.1v0
			c0-1.7,1.4-3.1,3.1-3.1H63C64.6,399.2,66,400.6,66,402.3z"/>
	</g>
	<g id="XMLID_143_">
		<path id="XMLID_146_" class="st7" d="M154.5,432.2l-71.6-59l-0.1-0.1L81,368c-0.5-1.3-4-0.9-4,0.7l0.1,3.9
			c-0.1,0.1-0.1,0.1-0.2,0.2l0,0c-1.3,1.5-0.7,4.1,1.3,5.8l71.6,59L154.5,432.2z"/>
		<path id="XMLID_144_" class="st5" d="M149.9,437.7l-71.6-59c-2-1.7-2.6-4.3-1.3-5.8l0,0c0-0.1,0.1-0.1,0.2-0.2l-0.1-3.9
			c0-1.6,3.5-2.1,4-0.7l1.8,5.1l0.1,0.1l71.6,59L149.9,437.7z"/>
	</g>
	<g id="XMLID_139_">
		<path id="XMLID_142_" class="st7" d="M143,426.9l-8.2,32.7h28l-8.2-32.7C153,420.4,144.6,420.5,143,426.9z"/>
		<path id="XMLID_140_" class="st15" d="M154.6,426.9l8.2,32.7h-28l8.2-32.7C144.6,420.5,153,420.4,154.6,426.9z"/>
	</g>
	<g id="XMLID_135_">
		<path id="XMLID_138_" class="st7" d="M149.2,427.6c-1,0-1.9-0.8-1.9-1.9s0.8-1.9,1.9-1.9s1.9,0.8,1.9,1.9S150.2,427.6,149.2,427.6
			z"/>
		<path id="XMLID_136_" class="st14" d="M151,425.8c0-1-0.8-1.9-1.9-1.9s-1.9,0.8-1.9,1.9s0.8,1.9,1.9,1.9S151,426.8,151,425.8z"/>
	</g>
	<g id="XMLID_131_">
		
			<rect id="XMLID_134_" x="95" y="429.6" transform="matrix(0.7226 0.6913 -0.6913 0.7226 334.6213 29.0593)" class="st7" width="72.1" height="3.6"/>
		<path id="XMLID_132_" class="st5" d="M155.9,457.7l-52.1-49.9l2.5-2.6l52.1,49.9L155.9,457.7z"/>
	</g>
	<g id="XMLID_127_">
		
			<rect id="XMLID_130_" x="104.4" y="404" transform="matrix(0.7225 0.6914 -0.6914 0.7225 310.685 39.9409)" class="st7" width="2.5" height="5.9"/>
		<path id="XMLID_128_" class="st5" d="M104.4,410l-1.8-1.7l4.1-4.3l1.8,1.7L104.4,410z"/>
	</g>
	<g id="XMLID_123_">
		<path id="XMLID_126_" class="st7" d="M155.9,452.9l-6.5,7.2l7.1,3.8l2.3-9.4C159.3,452.6,157.1,451.5,155.9,452.9z"/>
		<path id="XMLID_124_" class="st18" d="M158.8,454.5l-2.3,9.4l-7.1-3.8l6.5-7.2C157.1,451.5,159.3,452.6,158.8,454.5z"/>
	</g>
	<g id="XMLID_119_">
		<circle id="XMLID_122_" class="st7" cx="156.3" cy="455.2" r="1.1"/>
		<path id="XMLID_120_" class="st14" d="M157.4,455.2c0-0.6-0.5-1.1-1.1-1.1c-0.6,0-1.1,0.5-1.1,1.1s0.5,1.1,1.1,1.1
			C156.9,456.3,157.4,455.8,157.4,455.2z"/>
	</g>
	<g id="XMLID_115_">
		<path id="XMLID_118_" class="st7" d="M162.2,457.6H95.8c-5,0-9.2,4.3-10.7,10.3h82.2v-3.5C167.3,460.6,165,457.6,162.2,457.6z"/>
		<path id="XMLID_116_" class="st15" d="M167.3,464.4v3.5H85.1c1.5-6,5.8-10.3,10.7-10.3h66.4C165,457.6,167.3,460.6,167.3,464.4z"
			/>
	</g>
	<g id="XMLID_111_">
		<path id="XMLID_114_" class="st7" d="M147.2,405.2c-1.1,0-2-0.9-2-2c0-1.1,0.9-2,2-2s2,0.9,2,2
			C149.2,404.3,148.3,405.2,147.2,405.2z"/>
		<path id="XMLID_112_" class="st14" d="M149.2,403.2c0-1.1-0.9-2-2-2s-2,0.9-2,2c0,1.1,0.9,2,2,2S149.2,404.3,149.2,403.2z"/>
	</g>
	<polygon id="XMLID_110_" class="st6" points="142.8,423.9 82.3,373.9 84.8,377.4 141.9,425.2 	"/>
	<g id="XMLID_106_">
		<circle id="XMLID_109_" class="st7" cx="79.3" cy="369.8" r="1.4"/>
		<path id="XMLID_107_" class="st14" d="M80.6,369.8c0-0.8-0.6-1.4-1.4-1.4c-0.8,0-1.4,0.6-1.4,1.4c0,0.8,0.6,1.4,1.4,1.4
			C80,371.1,80.6,370.5,80.6,369.8z"/>
	</g>
	<rect id="XMLID_105_" x="48.7" y="426.2" class="st6" width="0.9" height="5.2"/>
	<g id="XMLID_101_">
		<rect id="XMLID_104_" x="43.6" y="421.2" class="st7" width="13.9" height="4"/>
		<path id="XMLID_102_" class="st12" d="M57.6,421.2H43.6v4h13.9V421.2z"/>
	</g>
	<path id="XMLID_100_" class="st23" d="M160.8,458.3H96.7c-3,0-5.7,1.5-7.7,4.1c1.9-1.8,4.1-2.9,6.6-2.9h65c2.8,0,5.2,3.2,5.2,7v2
		h0.2v-3.5C165.9,461.4,163.6,458.3,160.8,458.3z"/>
	<g id="XMLID_96_">
		<path id="XMLID_99_" class="st7" d="M84.5,471.6c0,0.4,0,0.7,0,1.1V488h82.8v-14H84.5V471.6z"/>
		<path id="XMLID_97_" class="st15" d="M84.5,474h82.8v14H84.5v-15.2c0-0.4,0-0.7,0-1.1V474z"/>
	</g>
	<path id="XMLID_94_" class="st24" d="M167.3,478.8v9.2H84.5v-9.2H167.3z"/>
	<g id="XMLID_90_">
		<rect id="XMLID_93_" x="84.5" y="467.9" class="st7" width="82.8" height="6.1"/>
		<path id="XMLID_91_" class="st11" d="M167.3,467.9H84.5v6.1h82.8V467.9z"/>
	</g>
	<g id="XMLID_47_">
		<g id="XMLID_86_">
			<path id="XMLID_89_" class="st7" d="M145.8,499c-10.4,0-18.8-8.4-18.8-18.8s8.4-18.8,18.8-18.8c10.4,0,18.8,8.4,18.8,18.8
				S156.1,499,145.8,499z"/>
			<path id="XMLID_87_" class="st12" d="M164.6,480.2c0-10.4-8.4-18.8-18.8-18.8c-10.4,0-18.8,8.4-18.8,18.8s8.4,18.8,18.8,18.8
				C156.1,499,164.6,490.6,164.6,480.2z"/>
		</g>
		<g id="XMLID_82_">
			<path id="XMLID_85_" class="st7" d="M145.8,490.5c-5.6,0-10.2-4.6-10.2-10.2c0-5.6,4.6-10.2,10.2-10.2s10.2,4.6,10.2,10.2
				C156,485.9,151.4,490.5,145.8,490.5z"/>
			<path id="XMLID_83_" class="st5" d="M156,480.2c0-5.6-4.6-10.2-10.2-10.2s-10.2,4.6-10.2,10.2c0,5.6,4.6,10.2,10.2,10.2
				S156,485.9,156,480.2z"/>
		</g>
		<path id="XMLID_80_" class="st4" d="M156,480.2c0,0.4,0,0.8-0.1,1.3c-0.6-5.1-4.9-9-10.2-9c-5.2,0-9.5,3.9-10.2,9
			c-0.1-0.4-0.1-0.8-0.1-1.3c0-5.7,4.6-10.2,10.2-10.2S156,474.6,156,480.2z"/>
		<g id="XMLID_76_">
			<path id="XMLID_79_" class="st7" d="M145.8,485.6c-3,0-5.4-2.4-5.4-5.4c0-3,2.4-5.4,5.4-5.4c3,0,5.4,2.4,5.4,5.4
				C151.2,483.2,148.7,485.6,145.8,485.6z"/>
			<path id="XMLID_77_" class="st12" d="M151.2,480.2c0-3-2.4-5.4-5.4-5.4c-3,0-5.4,2.4-5.4,5.4c0,3,2.4,5.4,5.4,5.4
				C148.7,485.6,151.2,483.2,151.2,480.2z"/>
		</g>
		<path id="XMLID_75_" class="st6" d="M142.4,480.1c-0.1,0.3-0.1,0.6-0.1,0.9c0,1.9,1.6,3.5,3.5,3.5c1.9,0,3.5-1.6,3.5-3.5
			c0-0.3,0-0.6-0.1-0.9c-0.4,1.5-1.7,2.6-3.4,2.6C144.1,482.7,142.8,481.6,142.4,480.1z"/>
		<path id="XMLID_73_" class="st19" d="M164.6,480.2c0,0.5,0,1.1-0.1,1.6c-0.8-9.6-8.9-17.2-18.7-17.2c-9.9,0-17.9,7.6-18.7,17.2
			c0-0.5-0.1-1-0.1-1.6c0-10.4,8.4-18.8,18.8-18.8C156.1,461.4,164.6,469.8,164.6,480.2z"/>
		<path id="XMLID_48_" class="st20" d="M145.8,461.4c0.5,0,0.9,0,1.3,0c0,0.1,0,0.2-0.1,0.3l-0.6,1.3c-0.3,0.5-0.9,0.7-1.4,0.5l0,0
			c-0.5-0.2-0.7-0.9-0.5-1.4l0.4-0.7C145.2,461.4,145.5,461.4,145.8,461.4L145.8,461.4z M149.3,498.7c0-0.1,0-0.2,0-0.3l0.3-1.4
			c0.1-0.6,0.7-0.9,1.2-0.8l0,0c0.6,0.1,0.9,0.7,0.8,1.2l-0.2,0.8C150.8,498.4,150.1,498.6,149.3,498.7L149.3,498.7z M154,497.2
			c0-0.1-0.1-0.2-0.1-0.3l-0.1-1.4c0-0.6,0.4-1.1,1-1.1l0,0c0.6,0,1.1,0.4,1.1,1l0.1,0.8C155.3,496.5,154.7,496.9,154,497.2
			L154,497.2z M158.1,494.5c-0.1-0.1-0.1-0.2-0.2-0.3l-0.5-1.4c-0.2-0.5,0.1-1.1,0.6-1.3h0c0.5-0.2,1.1,0.1,1.3,0.6l0.3,0.8
			C159.2,493.5,158.6,494,158.1,494.5L158.1,494.5z M161.3,490.8c-0.1-0.1-0.2-0.2-0.2-0.2l-0.8-1.2c-0.3-0.5-0.2-1.1,0.3-1.4h0
			c0.5-0.3,1.1-0.2,1.4,0.3l0.5,0.7C162.1,489.6,161.8,490.2,161.3,490.8L161.3,490.8z M163.5,486.4c-0.1,0-0.2-0.1-0.3-0.2
			l-1.1-0.9c-0.4-0.4-0.5-1-0.1-1.5l0,0c0.4-0.4,1-0.5,1.5-0.1l0.6,0.5C164,485,163.8,485.7,163.5,486.4L163.5,486.4z M164.5,481.6
			c-0.1,0-0.2,0-0.3-0.1l-1.3-0.6c-0.5-0.3-0.7-0.9-0.5-1.4h0c0.2-0.5,0.9-0.7,1.4-0.5l0.7,0.4c0,0.3,0,0.6,0,0.9
			C164.6,480.7,164.6,481.2,164.5,481.6L164.5,481.6z M164.2,476.7c-0.1,0-0.2,0-0.3,0l-1.4-0.3c-0.6-0.1-0.9-0.7-0.8-1.2l0,0
			c0.1-0.6,0.7-0.9,1.2-0.8l0.8,0.2C163.9,475.2,164.1,476,164.2,476.7L164.2,476.7z M162.7,472c-0.1,0-0.2,0.1-0.3,0.1l-1.4,0.1
			c-0.6,0-1.1-0.4-1.1-1v0c0-0.6,0.4-1.1,1-1.1l0.8-0.1C162,470.7,162.4,471.4,162.7,472L162.7,472z M160,467.9
			c-0.1,0.1-0.2,0.1-0.3,0.2l-1.4,0.5c-0.5,0.2-1.1-0.1-1.3-0.6v0c-0.2-0.5,0.1-1.1,0.6-1.3l0.8-0.3
			C159,466.8,159.5,467.4,160,467.9L160,467.9z M156.3,464.7c-0.1,0.1-0.1,0.2-0.2,0.2l-1.2,0.8c-0.5,0.3-1.1,0.2-1.4-0.3v0
			c-0.3-0.5-0.2-1.1,0.3-1.4l0.7-0.5C155,463.9,155.7,464.2,156.3,464.7L156.3,464.7z M151.9,462.5c0,0.1-0.1,0.2-0.2,0.3l-0.9,1.1
			c-0.4,0.4-1,0.5-1.5,0.1l0,0c-0.4-0.4-0.5-1-0.1-1.5l0.5-0.6C150.5,462,151.2,462.2,151.9,462.5L151.9,462.5z M142.2,461.8
			c0,0.1,0,0.2,0,0.3l-0.3,1.4c-0.1,0.6-0.7,0.9-1.2,0.8l0,0c-0.6-0.1-0.9-0.7-0.8-1.2l0.2-0.8C140.7,462.1,141.5,461.9,142.2,461.8
			L142.2,461.8z M137.5,463.3c0,0.1,0.1,0.2,0.1,0.3l0.1,1.4c0,0.6-0.4,1.1-1,1.1l0,0c-0.6,0-1.1-0.4-1.1-1l-0.1-0.8
			C136.2,464,136.9,463.6,137.5,463.3L137.5,463.3z M133.4,466c0.1,0.1,0.1,0.2,0.2,0.3l0.5,1.4c0.2,0.5-0.1,1.1-0.6,1.3l0,0
			c-0.5,0.2-1.1-0.1-1.3-0.6l-0.3-0.8C132.3,467,132.9,466.5,133.4,466L133.4,466z M130.2,469.7c0.1,0.1,0.2,0.2,0.2,0.2l0.8,1.2
			c0.3,0.5,0.2,1.1-0.3,1.4l0,0c-0.5,0.3-1.1,0.2-1.4-0.3l-0.5-0.7C129.4,471,129.7,470.3,130.2,469.7L130.2,469.7z M128,474.1
			c0.1,0,0.2,0.1,0.3,0.2l1.1,0.9c0.4,0.4,0.5,1,0.1,1.5l0,0c-0.4,0.4-1,0.5-1.5,0.1l-0.6-0.5C127.5,475.5,127.7,474.8,128,474.1
			L128,474.1z M127,478.9c0.1,0,0.2,0,0.3,0.1l1.3,0.6c0.5,0.3,0.7,0.9,0.5,1.4h0c-0.2,0.5-0.9,0.7-1.4,0.5l-0.7-0.4
			c0-0.3,0-0.6,0-0.9C126.9,479.8,126.9,479.4,127,478.9L127,478.9z M127.3,483.8c0.1,0,0.2,0,0.3,0l1.4,0.3
			c0.6,0.1,0.9,0.7,0.8,1.2h0c-0.1,0.6-0.7,0.9-1.2,0.8l-0.8-0.2C127.6,485.3,127.4,484.6,127.3,483.8L127.3,483.8z M128.8,488.5
			c0.1,0,0.2-0.1,0.3-0.1l1.4-0.1c0.6,0,1.1,0.4,1.1,1l0,0c0,0.6-0.4,1.1-1,1.1l-0.8,0.1C129.5,489.8,129.1,489.2,128.8,488.5
			L128.8,488.5z M131.5,492.6c0.1-0.1,0.2-0.1,0.3-0.2l1.4-0.5c0.5-0.2,1.1,0.1,1.3,0.6l0,0c0.2,0.5-0.1,1.1-0.6,1.3l-0.8,0.3
			C132.5,493.7,132,493.1,131.5,492.6L131.5,492.6z M135.2,495.8c0.1-0.1,0.1-0.2,0.2-0.2l1.2-0.8c0.5-0.3,1.1-0.2,1.4,0.3l0,0
			c0.3,0.5,0.2,1.1-0.3,1.4l-0.7,0.5C136.5,496.6,135.8,496.3,135.2,495.8L135.2,495.8z M139.6,498.1c0-0.1,0.1-0.2,0.2-0.3l0.9-1.1
			c0.4-0.4,1-0.5,1.5-0.1v0c0.4,0.4,0.5,1,0.1,1.5l-0.5,0.6C141,498.5,140.3,498.3,139.6,498.1L139.6,498.1z M144.5,498.7l0.6-1.3
			c0.3-0.5,0.9-0.7,1.4-0.5v0c0.5,0.2,0.7,0.9,0.5,1.4l-0.4,0.7c-0.3,0-0.6,0-0.9,0c-0.5,0-0.9,0-1.3,0
			C144.4,498.9,144.5,498.8,144.5,498.7z"/>
	</g>
	<g id="XMLID_4_">
		<g id="XMLID_43_">
			<path id="XMLID_46_" class="st7" d="M96.5,499c-10.4,0-18.8-8.4-18.8-18.8s8.4-18.8,18.8-18.8s18.8,8.4,18.8,18.8
				S106.9,499,96.5,499z"/>
			<path id="XMLID_44_" class="st12" d="M115.3,480.2c0-10.4-8.4-18.8-18.8-18.8s-18.8,8.4-18.8,18.8S86.2,499,96.5,499
				S115.3,490.6,115.3,480.2z"/>
		</g>
		<g id="XMLID_39_">
			<path id="XMLID_42_" class="st7" d="M96.5,490.5c-5.6,0-10.2-4.6-10.2-10.2c0-5.6,4.6-10.2,10.2-10.2c5.6,0,10.2,4.6,10.2,10.2
				C106.8,485.9,102.2,490.5,96.5,490.5z"/>
			<path id="XMLID_40_" class="st5" d="M106.8,480.2c0-5.6-4.6-10.2-10.2-10.2c-5.6,0-10.2,4.6-10.2,10.2c0,5.6,4.6,10.2,10.2,10.2
				C102.2,490.5,106.8,485.9,106.8,480.2z"/>
		</g>
		<path id="XMLID_37_" class="st4" d="M106.8,480.2c0,0.4,0,0.8-0.1,1.3c-0.6-5.1-4.9-9-10.2-9c-5.2,0-9.5,3.9-10.2,9
			c-0.1-0.4-0.1-0.8-0.1-1.3c0-5.7,4.6-10.2,10.2-10.2C102.2,470,106.8,474.6,106.8,480.2z"/>
		<g id="XMLID_33_">
			<path id="XMLID_36_" class="st7" d="M96.5,485.6c-3,0-5.4-2.4-5.4-5.4c0-3,2.4-5.4,5.4-5.4c3,0,5.4,2.4,5.4,5.4
				C101.9,483.2,99.5,485.6,96.5,485.6z"/>
			<path id="XMLID_34_" class="st12" d="M101.9,480.2c0-3-2.4-5.4-5.4-5.4c-3,0-5.4,2.4-5.4,5.4c0,3,2.4,5.4,5.4,5.4
				C99.5,485.6,101.9,483.2,101.9,480.2z"/>
		</g>
		<path id="XMLID_32_" class="st6" d="M93.2,480.1c-0.1,0.3-0.1,0.6-0.1,0.9c0,1.9,1.6,3.5,3.5,3.5c1.9,0,3.5-1.6,3.5-3.5
			c0-0.3,0-0.6-0.1-0.9c-0.4,1.5-1.7,2.6-3.4,2.6C94.9,482.7,93.6,481.6,93.2,480.1z"/>
		<path id="XMLID_30_" class="st19" d="M115.3,480.2c0,0.5,0,1.1-0.1,1.6c-0.8-9.6-8.9-17.2-18.7-17.2c-9.9,0-17.9,7.6-18.7,17.2
			c0-0.5-0.1-1-0.1-1.6c0-10.4,8.4-18.8,18.8-18.8C106.9,461.4,115.3,469.8,115.3,480.2z"/>
		<path id="XMLID_5_" class="st20" d="M96.5,461.4c0.5,0,0.9,0,1.3,0c0,0.1,0,0.2-0.1,0.3l-0.6,1.3c-0.3,0.5-0.9,0.7-1.4,0.5l0,0
			c-0.5-0.2-0.7-0.9-0.5-1.4l0.4-0.7C95.9,461.4,96.2,461.4,96.5,461.4L96.5,461.4z M100.1,498.7c0-0.1,0-0.2,0-0.3l0.3-1.4
			c0.1-0.6,0.7-0.9,1.2-0.8l0,0c0.6,0.1,0.9,0.7,0.8,1.2l-0.2,0.8C101.6,498.4,100.8,498.6,100.1,498.7L100.1,498.7z M104.8,497.2
			c0-0.1-0.1-0.2-0.1-0.3l-0.1-1.4c0-0.6,0.4-1.1,1-1.1l0,0c0.6,0,1.1,0.4,1.1,1l0.1,0.8C106.1,496.5,105.4,496.9,104.8,497.2
			L104.8,497.2z M108.9,494.5c-0.1-0.1-0.1-0.2-0.2-0.3l-0.5-1.4c-0.2-0.5,0.1-1.1,0.6-1.3h0c0.5-0.2,1.1,0.1,1.3,0.6l0.3,0.8
			C110,493.5,109.4,494,108.9,494.5L108.9,494.5z M112.1,490.8c-0.1-0.1-0.2-0.2-0.2-0.2l-0.8-1.2c-0.3-0.5-0.2-1.1,0.3-1.4h0
			c0.5-0.3,1.1-0.2,1.4,0.3l0.5,0.7C112.9,489.6,112.5,490.2,112.1,490.8L112.1,490.8z M114.3,486.4c-0.1,0-0.2-0.1-0.3-0.2
			l-1.1-0.9c-0.4-0.4-0.5-1-0.1-1.5l0,0c0.4-0.4,1-0.5,1.5-0.1l0.6,0.5C114.8,485,114.6,485.7,114.3,486.4L114.3,486.4z
			 M115.3,481.6c-0.1,0-0.2,0-0.3-0.1l-1.3-0.6c-0.5-0.3-0.7-0.9-0.5-1.4h0c0.2-0.5,0.9-0.7,1.4-0.5l0.7,0.4c0,0.3,0,0.6,0,0.9
			C115.4,480.7,115.3,481.2,115.3,481.6L115.3,481.6z M115,476.7c-0.1,0-0.2,0-0.3,0l-1.4-0.3c-0.6-0.1-0.9-0.7-0.8-1.2l0,0
			c0.1-0.6,0.7-0.9,1.2-0.8l0.8,0.2C114.7,475.2,114.9,476,115,476.7L115,476.7z M113.5,472c-0.1,0-0.2,0.1-0.3,0.1l-1.4,0.1
			c-0.6,0-1.1-0.4-1.1-1v0c0-0.6,0.4-1.1,1-1.1l0.8-0.1C112.8,470.7,113.1,471.4,113.5,472L113.5,472z M110.8,467.9
			c-0.1,0.1-0.2,0.1-0.3,0.2l-1.4,0.5c-0.5,0.2-1.1-0.1-1.3-0.6v0c-0.2-0.5,0.1-1.1,0.6-1.3l0.8-0.3
			C109.7,466.8,110.3,467.4,110.8,467.9L110.8,467.9z M107.1,464.7c-0.1,0.1-0.1,0.2-0.2,0.2l-1.2,0.8c-0.5,0.3-1.1,0.2-1.4-0.3v0
			c-0.3-0.5-0.2-1.1,0.3-1.4l0.7-0.5C105.8,463.9,106.5,464.2,107.1,464.7L107.1,464.7z M102.7,462.5c0,0.1-0.1,0.2-0.2,0.3
			l-0.9,1.1c-0.4,0.4-1,0.5-1.5,0.1l0,0c-0.4-0.4-0.5-1-0.1-1.5l0.5-0.6C101.3,462,102,462.2,102.7,462.5L102.7,462.5z M93,461.8
			c0,0.1,0,0.2,0,0.3l-0.3,1.4c-0.1,0.6-0.7,0.9-1.2,0.8l0,0c-0.6-0.1-0.9-0.7-0.8-1.2l0.2-0.8C91.5,462.1,92.2,461.9,93,461.8
			L93,461.8z M88.3,463.3c0,0.1,0.1,0.2,0.1,0.3l0.1,1.4c0,0.6-0.4,1.1-1,1.1l0,0c-0.6,0-1.1-0.4-1.1-1l-0.1-0.8
			C87,464,87.6,463.6,88.3,463.3L88.3,463.3z M84.2,466c0.1,0.1,0.1,0.2,0.2,0.3l0.5,1.4c0.2,0.5-0.1,1.1-0.6,1.3l0,0
			c-0.5,0.2-1.1-0.1-1.3-0.6l-0.3-0.8C83.1,467,83.6,466.5,84.2,466L84.2,466z M80.9,469.7c0.1,0.1,0.2,0.2,0.2,0.2l0.8,1.2
			c0.3,0.5,0.2,1.1-0.3,1.4l0,0c-0.5,0.3-1.1,0.2-1.4-0.3l-0.5-0.7C80.1,471,80.5,470.3,80.9,469.7L80.9,469.7z M78.7,474.1
			c0.1,0,0.2,0.1,0.3,0.2l1.1,0.9c0.4,0.4,0.5,1,0.1,1.5l0,0c-0.4,0.4-1,0.5-1.5,0.1l-0.6-0.5C78.3,475.5,78.5,474.8,78.7,474.1
			L78.7,474.1z M77.7,478.9c0.1,0,0.2,0,0.3,0.1l1.3,0.6c0.5,0.3,0.7,0.9,0.5,1.4h0c-0.2,0.5-0.9,0.7-1.4,0.5l-0.7-0.4
			c0-0.3,0-0.6,0-0.9C77.7,479.8,77.7,479.4,77.7,478.9L77.7,478.9z M78,483.8c0.1,0,0.2,0,0.3,0l1.4,0.3c0.6,0.1,0.9,0.7,0.8,1.2h0
			c-0.1,0.6-0.7,0.9-1.2,0.8l-0.8-0.2C78.4,485.3,78.2,484.6,78,483.8L78,483.8z M79.6,488.5c0.1,0,0.2-0.1,0.3-0.1l1.4-0.1
			c0.6,0,1.1,0.4,1.1,1l0,0c0,0.6-0.4,1.1-1,1.1l-0.8,0.1C80.3,489.8,79.9,489.2,79.6,488.5L79.6,488.5z M82.3,492.6
			c0.1-0.1,0.2-0.1,0.3-0.2l1.4-0.5c0.5-0.2,1.1,0.1,1.3,0.6l0,0c0.2,0.5-0.1,1.1-0.6,1.3l-0.8,0.3
			C83.3,493.7,82.8,493.1,82.3,492.6L82.3,492.6z M86,495.8c0.1-0.1,0.1-0.2,0.2-0.2l1.2-0.8c0.5-0.3,1.1-0.2,1.4,0.3l0,0
			c0.3,0.5,0.2,1.1-0.3,1.4l-0.7,0.5C87.2,496.6,86.6,496.3,86,495.8L86,495.8z M90.4,498.1c0-0.1,0.1-0.2,0.2-0.3l0.9-1.1
			c0.4-0.4,1-0.5,1.5-0.1v0c0.4,0.4,0.5,1,0.1,1.5l-0.5,0.6C91.8,498.5,91.1,498.3,90.4,498.1L90.4,498.1z M95.3,498.7l0.6-1.3
			c0.3-0.5,0.9-0.7,1.4-0.5v0c0.5,0.2,0.7,0.9,0.5,1.4l-0.4,0.7c-0.3,0-0.6,0-0.9,0c-0.5,0-0.9,0-1.3,0
			C95.2,498.9,95.2,498.8,95.3,498.7z"/>
	</g>
	<path id="XMLID_3_" class="st6" d="M62,400.1H39.1c-1.6,0-2.8,1.3-2.8,2.8l0,0c0,0.2,0,0.3,0,0.5c0.2-1.3,1.4-2.4,2.8-2.4H62
		c1.4,0,2.6,1,2.8,2.4c0-0.2,0-0.3,0-0.5l0,0C64.9,401.4,63.6,400.1,62,400.1z"/>
</g>
<g id="XMLID_426_">
	<g id="XMLID_494_">
		<g id="XMLID_495_">
			<g id="XMLID_529_">
				<polygon id="XMLID_548_" class="st25" points="852.1,425.3 837.7,432.5 832.5,422.1 830.8,418.6 827.3,411.6 841.7,404.4 
					848.7,418.6 850.5,422.1 				"/>
				<polygon id="XMLID_547_" class="st26" points="839.3,405.6 829.7,410.4 805.8,362.5 804.1,359 813.6,354.2 815.4,357.7 				"/>
				
					<rect id="XMLID_546_" x="793.4" y="380.5" transform="matrix(0.4462 0.8949 -0.8949 0.4462 797.2615 -524.1772)" class="st27" width="57.4" height="3.2"/>
				<polygon id="XMLID_545_" class="st28" points="816,353 801.7,360.2 792.8,342.4 789.1,334.9 803.4,327.8 815.2,351.3 				"/>
				
					<rect id="XMLID_544_" x="804.4" y="356.4" transform="matrix(0.895 -0.446 0.446 0.895 -74.8295 398.7553)" class="st27" width="10.7" height="3.9"/>
				<path id="XMLID_543_" class="st25" d="M936.7,422.1H786.3c-3,0-5.4,2.4-5.4,5.4v8.3h155.8V422.1z"/>
				<polygon id="XMLID_542_" class="st26" points="622.1,214.8 616.8,224 613.4,222.1 584.3,205.4 589.6,196.1 618.7,212.8 				"/>
				
					<rect id="XMLID_541_" x="587.1" y="209" transform="matrix(0.8676 0.4973 -0.4973 0.8676 184.9895 -273.4019)" class="st27" width="37.4" height="3.2"/>
				
					<rect id="XMLID_540_" x="617" y="220.7" transform="matrix(0.8676 0.4973 -0.4973 0.8676 197.9338 -285.8514)" class="st26" width="37.4" height="16.1"/>
				
					<rect id="XMLID_539_" x="612.4" y="216.5" transform="matrix(0.4974 -0.8675 0.8675 0.4974 120.9707 645.6707)" class="st27" width="10.7" height="3.9"/>
				
					<rect id="XMLID_538_" x="617.7" y="225.5" transform="matrix(0.8676 0.4973 -0.4973 0.8676 197.4447 -286.6115)" class="st27" width="38.2" height="3.7"/>
				
					<rect id="XMLID_537_" x="649.4" y="236.6" transform="matrix(0.8676 0.4973 -0.4973 0.8676 211.5043 -299.5465)" class="st26" width="37.4" height="21.4"/>
				<polygon id="XMLID_536_" class="st27" points="685,255.4 652.6,236.8 655,232.6 687.4,251.2 				"/>
				<polygon id="XMLID_535_" class="st29" points="815.2,351.3 792.8,342.4 789.1,334.9 803.4,327.8 				"/>
				<polyline id="XMLID_549_" class="st28" points="908.5,403.6 676.4,270.6 692.4,242.7 913.5,369.5 				"/>
				<polygon id="XMLID_533_" class="st30" points="690.4,246.3 687.7,250.9 901.7,373.6 904.6,369.1 				"/>
				<polygon id="XMLID_532_" class="st27" points="655.9,231.1 647.9,245 644.6,243 652.5,229.1 				"/>
				<polygon id="XMLID_531_" class="st27" points="689.8,247.4 679.1,265.9 675.7,264 686.4,245.5 				"/>
				<path id="XMLID_530_" class="st30" d="M864.4,428.6h-75.1c-1,0-1.9-0.8-1.9-1.9c0-1,0.8-1.9,1.9-1.9h75.1c1,0,1.9,0.8,1.9,1.9
					C866.2,427.8,865.4,428.6,864.4,428.6z"/>
			</g>
			<g id="XMLID_508_">
				<g id="XMLID_523_">
					<circle id="XMLID_524_" class="st31" cx="586.9" cy="200.8" r="5.4"/>
				</g>
			</g>
			<g id="XMLID_496_">
				<line id="XMLID_1_" class="st29" x1="981.1" y1="413.1" x2="981.1" y2="378.6"/>
			</g>
		</g>
	</g>
	<path id="XMLID_485_" class="st32" d="M592.3,209.8l0-13.7c0-1.2-1.3-2.1-2.8-2.1l-44.6,0c-1.5,0-2.8,0.9-2.8,2.1l0,13.7
		c0,1.2,1.3,2.1,2.8,2.1l44.6,0C591,211.9,592.3,210.9,592.3,209.8z"/>
	<g id="XMLID_592_">
		<rect id="XMLID_595_" x="565.8" y="243.6" class="st9" width="5" height="149.8"/>
		<path id="XMLID_593_" class="st10" d="M570.8,243.6h-5v149.8h5V243.6z"/>
		<path id="XMLID_591_" class="st7" d="M570.5,342.8c4.3-3.2,11.4-7.4,11.2-15.8c-0.1-7.1-11.2-11.9-11.2-11.9V342.8z"/>
		<path id="XMLID_589_" class="st11" d="M570.5,315.1c0,0,11.1,4.8,11.2,11.9c0.2,8.4-6.9,12.6-11.2,15.8V315.1z"/>
		<path id="XMLID_587_" class="st7" d="M566.1,312c-3.9-2.2-10.4-5.1-10.2-10.9c0.1-4.9,10.2-8.2,10.2-8.2V312z"/>
		<path id="XMLID_585_" class="st12" d="M566.1,292.9c0,0-10.1,3.3-10.2,8.2c-0.2,5.8,6.3,8.7,10.2,10.9V292.9z"/>
		<path id="XMLID_583_" class="st7" d="M570.5,370.7c4.3-3.2,11.4-7.4,11.2-15.8c-0.1-7.1-11.2-11.9-11.2-11.9V370.7z"/>
		<path id="XMLID_581_" class="st11" d="M570.5,343.1c0,0,11.1,4.8,11.2,11.9c0.2,8.4-6.9,12.6-11.2,15.8V343.1z"/>
		<path id="XMLID_579_" class="st7" d="M566.1,341.8c-3.9-2.8-10.4-6.5-10.2-13.8c0.1-6.2,10.2-10.4,10.2-10.4V341.8z"/>
		<path id="XMLID_577_" class="st12" d="M566.1,317.6c0,0-10.1,4.2-10.2,10.4c-0.2,7.3,6.3,11,10.2,13.8V317.6z"/>
		<path id="XMLID_575_" class="st7" d="M566.1,369.3c-3.9-2.6-10.4-6-10.2-12.8c0.1-5.8,10.2-9.6,10.2-9.6V369.3z"/>
		<path id="XMLID_573_" class="st12" d="M566.1,346.9c0,0-10.1,3.9-10.2,9.6c-0.2,6.8,6.3,10.2,10.2,12.8V346.9z"/>
		<rect id="XMLID_571_" x="567" y="243.6" class="st9" width="1.3" height="149.8"/>
		<path id="XMLID_569_" class="st13" d="M568.3,243.6H567v149.8h1.3V243.6z"/>
		<path id="XMLID_567_" class="st7" d="M570.5,400.1c4.3-3.2,11.4-7.4,11.2-15.8c-0.1-7.1-11.2-11.9-11.2-11.9V400.1z"/>
		<path id="XMLID_565_" class="st11" d="M570.5,372.4c0,0,11.1,4.8,11.2,11.9c0.2,8.4-6.9,12.6-11.2,15.8V372.4z"/>
		<path id="XMLID_563_" class="st7" d="M566.1,400c-3.9-2.6-10.4-6-10.2-12.8c0.1-5.8,10.2-9.6,10.2-9.6V400z"/>
		<path id="XMLID_561_" class="st12" d="M566.1,377.5c0,0-10.1,3.9-10.2,9.6c-0.2,6.8,6.3,10.2,10.2,12.8V377.5z"/>
		<rect id="XMLID_559_" x="565.8" y="243.6" class="st7" width="5" height="167.2"/>
		<path id="XMLID_557_" class="st12" d="M570.8,243.6h-5v167.2h5V243.6z"/>
		<path id="XMLID_554_" class="st13" d="M568.3,243.6H567v167.2h1.3V243.6z"/>
		<path id="XMLID_553_" class="st7" d="M568.8,312.6c-6.1-3.3-12.4-6.8-13-11.2c0.1,6.5,5.9,10.6,12.6,14.2
			c6.1,3.3,12.8,5.4,13.3,11.6C582.2,319.6,575.5,316.2,568.8,312.6z"/>
		<path id="XMLID_551_" class="st14" d="M581.7,327.3c-0.5-6.1-7.2-8.3-13.3-11.6c-6.7-3.6-12.5-7.8-12.6-14.2
			c0.6,4.4,6.9,7.9,13,11.2C575.5,316.2,582.2,319.6,581.7,327.3z"/>
		<path id="XMLID_534_" class="st7" d="M568.8,340.4c-6.1-3.5-12.6-6.6-13-11.6c0.1,6.5,5.9,10.8,12.6,14.7
			c6.1,3.5,12.8,5.9,13.3,12C582.2,347.9,575.5,344.3,568.8,340.4z"/>
		<path id="XMLID_527_" class="st14" d="M581.7,355.5c-0.5-6.1-7.2-8.5-13.3-12c-6.7-3.9-12.5-8.2-12.6-14.7
			c0.4,5.1,6.9,8.1,13,11.6C575.5,344.3,582.2,347.9,581.7,355.5z"/>
		<path id="XMLID_522_" class="st7" d="M568.8,368.8c-6.1-3.5-12.6-6.8-13-11.6c0,6.5,5.9,10.8,12.6,14.7c6.1,3.5,12.8,5.9,13.3,12
			C582.2,376.3,575.5,372.7,568.8,368.8z"/>
		<path id="XMLID_520_" class="st14" d="M581.7,383.9c-0.5-6.1-7.2-8.5-13.3-12c-6.7-3.9-12.6-8.2-12.6-14.7
			c0.4,4.8,6.9,8.1,13,11.6C575.5,372.7,582.2,376.3,581.7,383.9z"/>
		<path id="XMLID_518_" class="st7" d="M570.8,401.2c-4.3-0.6-14.6-8.4-14.9-13.1C556.9,398.4,569.1,402.1,570.8,401.2z"/>
		<path id="XMLID_516_" class="st14" d="M555.9,388c0.3,4.7,10.7,12.5,14.9,13.1C569.1,402.1,556.9,398.4,555.9,388z"/>
		<polygon id="XMLID_514_" class="st7" points="570.8,410.9 568.3,410.9 565.8,410.9 568.3,420.7 		"/>
		<path id="XMLID_512_" class="st8" d="M568.3,420.7l-2.5-9.8l2.5,0h2.5L568.3,420.7z"/>
		<rect id="XMLID_510_" x="560.9" y="224.6" class="st7" width="14.8" height="31.2"/>
		<path id="XMLID_507_" class="st11" d="M575.7,224.6h-14.8v31.2h14.8V224.6z"/>
		<rect id="XMLID_505_" x="563.2" y="228.1" class="st6" width="2.3" height="26.9"/>
		<path id="XMLID_502_" class="st2" d="M585.6,217.3h-37.4v4.8c0,3.2,2.6,5.9,5.9,5.9h25.7c3.2,0,5.9-2.6,5.9-5.9V217.3z"/>
		<path id="XMLID_500_" class="st4" d="M585.6,222.1c0,3.2-2.6,5.9-5.9,5.9H554c-3.2,0-5.9-2.6-5.9-5.9v-4.8h37.4V222.1z"/>
		<path id="XMLID_488_" class="st2" d="M582.7,213.3h-32.2c-2.2,0-4,1.8-4,4v0c0,2.2,1.8,4,4,4h32.2c2.2,0,4-1.8,4-4v0
			C586.7,215.1,584.9,213.3,582.7,213.3z"/>
		<path id="XMLID_486_" class="st5" d="M586.7,217.3L586.7,217.3c0,2.2-1.8,4-4,4h-32.2c-2.2,0-4-1.8-4-4v0c0-2.2,1.8-4,4-4h32.2
			C584.9,213.3,586.7,215.1,586.7,217.3z"/>
		<path id="XMLID_484_" class="st6" d="M581.6,214.4h-29.9c-2,0-3.7,1.7-3.7,3.7l0,0c0,0.2,0,0.4,0.1,0.6c0.3-1.8,1.8-3.1,3.7-3.1
			h29.9c1.8,0,3.4,1.3,3.7,3.1c0-0.2,0.1-0.4,0.1-0.6l0,0C585.3,216.1,583.6,214.4,581.6,214.4z"/>
	</g>
	<g id="XMLID_427_">
		<polygon id="XMLID_493_" class="st33" points="981.7,435.9 664.6,435.9 672.6,467 973.7,467 		"/>
		<g id="XMLID_483_">
			<path id="XMLID_492_" class="st25" d="M981.7,357v78.9h-91.5V357c0-3.7,4.8-6.7,10.7-6.7H971C977,350.3,981.7,353.3,981.7,357z"
				/>
			<path id="XMLID_491_" class="st30" d="M970.5,357.1H902c-1,0-1.9-0.8-1.9-1.9c0-1,0.8-1.9,1.9-1.9h68.5c1,0,1.9,0.8,1.9,1.9
				C972.4,356.3,971.5,357.1,970.5,357.1z"/>
		</g>
		<g id="XMLID_458_">
			<path id="XMLID_482_" class="st34" d="M762.6,339.6v116.7H652.3v-63.2l24.9-45.2c2.8-5.1,8.2-8.3,14.1-8.3H762.6z"/>
			<path id="XMLID_481_" class="st35" d="M693,406.5h-17.2c-1.5,0-2.7-1.2-2.7-2.7c0-1.5,1.2-2.7,2.7-2.7H693c1.5,0,2.7,1.2,2.7,2.7
				C695.7,405.3,694.5,406.5,693,406.5z"/>
			<g id="XMLID_475_">
				<path id="XMLID_480_" class="st36" d="M734.2,346.5v58.3c0,3-2.4,5.4-5.4,5.4h-18l-12.6-15.5l-39.1,0.2l20.7-37.6l3.3-6.1
					c1.6-2.9,4.7-4.7,8-4.7H734.2z"/>
				<path id="XMLID_479_" class="st37" d="M723.2,346.5v51.7c0,1.8-1.1,3.4-2.8,4c-1.7,0.6-3.6,0.1-4.8-1.3l-35.7-43.6l3.3-6.1
					c1.6-2.9,4.7-4.7,8-4.7H723.2z"/>
				<path id="XMLID_476_" class="st35" d="M735.5,404.9c0,3.7-3,6.7-6.7,6.7h-18c-0.4,0-0.8-0.2-1-0.5l-12.2-15l-38.4,0.2
					c0,0,0,0,0,0c-0.5,0-0.9-0.2-1.1-0.7c-0.2-0.4-0.3-0.9,0-1.3l24-43.6c1.8-3.3,5.3-5.4,9.1-5.4h43c0.7,0,1.3,0.6,1.3,1.3V404.9z
					 M711.5,408.9h17.3c2.2,0,4-1.8,4-4v-57h-41.7c-2.8,0-5.4,1.5-6.8,4l-22.9,41.6l36.8-0.2c0,0,0,0,0,0c0.4,0,0.8,0.2,1,0.5
					L711.5,408.9z"/>
			</g>
			<g id="XMLID_468_">
				<path id="XMLID_474_" class="st36" d="M646.2,426.6c-3.3,2.6-5.2,6.5-5.2,10.7c0,4.2,1.9,8.1,5.2,10.7V426.6z"/>
				<circle id="XMLID_473_" class="st37" cx="646.2" cy="437.3" r="4.2"/>
				<path id="XMLID_472_" class="st29" d="M663.5,441.5c0,5.9-4.8,10.7-10.7,10.7h-0.6v-21.4h0.6
					C658.7,430.8,663.5,435.6,663.5,441.5z"/>
				<path id="XMLID_471_" class="st38" d="M652.8,448c5.9,0,10.7-4.8,10.7-10.7c0-5.9-4.8-10.7-10.7-10.7h-6.6V448H652.8z"/>
				<path id="XMLID_470_" class="st39" d="M659.6,435.1c-0.6,0-1.1-0.3-1.4-0.9c-1.1-2.2-3.4-3.5-5.8-3.5h-0.5
					c-0.9,0-1.6-0.7-1.6-1.6c0-0.9,0.7-1.6,1.6-1.6h0.5c3.6,0,7,2,8.6,5.2c0.4,0.8,0.1,1.8-0.7,2.2
					C660.1,435,659.9,435.1,659.6,435.1z"/>
				<rect id="XMLID_469_" x="646.2" y="426.6" class="st35" width="3.1" height="21.4"/>
			</g>
			<g id="XMLID_459_">
				<path id="XMLID_467_" class="st30" d="M758.5,347.6c0,1-0.8,1.9-1.9,1.9h-13.4c-1,0-1.9-0.8-1.9-1.9c0-1,0.8-1.9,1.9-1.9h13.4
					C757.7,345.7,758.5,346.6,758.5,347.6z"/>
				<path id="XMLID_466_" class="st30" d="M758.5,356.4c0,1-0.8,1.9-1.9,1.9h-13.4c-1,0-1.9-0.8-1.9-1.9s0.8-1.9,1.9-1.9h13.4
					C757.7,354.6,758.5,355.4,758.5,356.4z"/>
				<path id="XMLID_465_" class="st30" d="M758.5,365.2c0,1-0.8,1.9-1.9,1.9h-13.4c-1,0-1.9-0.8-1.9-1.9c0-1,0.8-1.9,1.9-1.9h13.4
					C757.7,363.4,758.5,364.2,758.5,365.2z"/>
				<path id="XMLID_464_" class="st30" d="M758.5,374.1c0,1-0.8,1.9-1.9,1.9h-13.4c-1,0-1.9-0.8-1.9-1.9c0-1,0.8-1.9,1.9-1.9h13.4
					C757.7,372.2,758.5,373,758.5,374.1z"/>
				<path id="XMLID_463_" class="st30" d="M756.7,384.7h-13.4c-1,0-1.9-0.8-1.9-1.9c0-1,0.8-1.9,1.9-1.9h13.4c1,0,1.9,0.8,1.9,1.9
					C758.5,383.9,757.7,384.7,756.7,384.7z"/>
				<path id="XMLID_462_" class="st30" d="M756.7,393.6h-13.4c-1,0-1.9-0.8-1.9-1.9s0.8-1.9,1.9-1.9h13.4c1,0,1.9,0.8,1.9,1.9
					S757.7,393.6,756.7,393.6z"/>
				<path id="XMLID_461_" class="st30" d="M756.7,402.4h-13.4c-1,0-1.9-0.8-1.9-1.9s0.8-1.9,1.9-1.9h13.4c1,0,1.9,0.8,1.9,1.9
					S757.7,402.4,756.7,402.4z"/>
				<path id="XMLID_460_" class="st30" d="M756.7,411.2h-13.4c-1,0-1.9-0.8-1.9-1.9c0-1,0.8-1.9,1.9-1.9h13.4c1,0,1.9,0.8,1.9,1.9
					C758.5,410.4,757.7,411.2,756.7,411.2z"/>
			</g>
		</g>
		<g id="XMLID_428_">
			<g id="XMLID_453_">
				<path id="XMLID_457_" class="st35" d="M756.7,467c0,17.7-14.4,32.1-32.1,32.1c-17.7,0-32.1-14.4-32.1-32.1c0-0.2,0-0.4,0-0.6
					c0.3-17.4,14.6-31.5,32.1-31.5c17.5,0,31.8,14,32.1,31.5C756.7,466.5,756.7,466.8,756.7,467z"/>
				<path id="XMLID_456_" class="st27" d="M743.3,467c0,10.3-8.4,18.7-18.7,18.7c-10.3,0-18.7-8.4-18.7-18.7c0-0.1,0-0.2,0-0.3
					c0.2-10.2,8.5-18.4,18.7-18.4c10.2,0,18.5,8.2,18.7,18.4C743.3,466.7,743.3,466.9,743.3,467z"/>
				<circle id="XMLID_455_" class="st35" cx="724.6" cy="467" r="8.6"/>
				<path id="XMLID_454_" class="st31" d="M743.3,466.6c-0.3-6.9-8.6-13.6-18.7-13.6c-10.2,0-18.5,6.6-18.7,13.6
					c0.2-10.2,8.5-18.4,18.7-18.4C734.8,448.2,743.1,456.4,743.3,466.6z"/>
			</g>
			<g id="XMLID_448_">
				<circle id="XMLID_452_" class="st35" cx="861.3" cy="467" r="32.1"/>
				<path id="XMLID_451_" class="st27" d="M880.1,467c0,10.3-8.4,18.7-18.7,18.7c-10.3,0-18.7-8.4-18.7-18.7c0-0.1,0-0.2,0-0.3
					c0.2-10.2,8.5-18.4,18.7-18.4c10.2,0,18.5,8.2,18.7,18.4C880.1,466.7,880.1,466.9,880.1,467z"/>
				<circle id="XMLID_450_" class="st35" cx="861.3" cy="467" r="8.6"/>
				<path id="XMLID_449_" class="st31" d="M880.1,466.6c-0.3-6.9-8.6-13.6-18.7-13.6c-10.2,0-18.5,6.6-18.7,13.6
					c0.2-10.2,8.5-18.4,18.7-18.4C871.6,448.2,879.9,456.4,880.1,466.6z"/>
			</g>
			<g id="XMLID_443_">
				<circle id="XMLID_447_" class="st35" cx="932.5" cy="467" r="32.1"/>
				<path id="XMLID_446_" class="st27" d="M951.2,467c0,10.3-8.4,18.7-18.7,18.7c-10.3,0-18.7-8.4-18.7-18.7c0-0.1,0-0.2,0-0.3
					c0.2-10.2,8.5-18.4,18.7-18.4c10.2,0,18.5,8.2,18.7,18.4C951.2,466.7,951.2,466.9,951.2,467z"/>
				<circle id="XMLID_445_" class="st35" cx="932.5" cy="467" r="8.6"/>
				<path id="XMLID_444_" class="st31" d="M951.2,466.6c-0.3-6.9-8.6-13.6-18.7-13.6c-10.2,0-18.5,6.6-18.7,13.6
					c0.2-10.2,8.5-18.4,18.7-18.4C942.7,448.2,951,456.4,951.2,466.6z"/>
			</g>
			<g id="XMLID_429_">
				<g id="XMLID_437_">
					<path id="XMLID_441_" class="st25" d="M970,472.3c-3,0-5.4-2.4-5.4-5.4c0-17.7-14.4-32.1-32.1-32.1c-13.9,0-26.1,8.9-30.5,22
						c-0.9,2.8-3.9,4.3-6.8,3.4c-2.8-0.9-4.3-4-3.4-6.8c5.8-17.6,22.1-29.4,40.7-29.4c23.6,0,42.8,19.2,42.8,42.8
						C975.3,469.9,972.9,472.3,970,472.3z"/>
					<path id="XMLID_436_" class="st30" d="M896.9,457.1c-0.2,0-0.4,0-0.6-0.1c-1-0.3-1.5-1.4-1.2-2.4c5.3-16.1,20.3-27,37.4-27
						c1,0,1.9,0.8,1.9,1.9c0,1-0.8,1.9-1.9,1.9c-15.4,0-29,9.8-33.8,24.4C898.4,456.6,897.7,457.1,896.9,457.1z"/>
					<path id="XMLID_440_" class="st25" d="M823.9,472.3c-3,0-5.4-2.4-5.4-5.4c0-23.6,19.2-42.8,42.8-42.8
						c18.5,0,34.9,11.8,40.7,29.4c0.9,2.8-0.6,5.8-3.4,6.8c-2.8,0.9-5.8-0.6-6.8-3.4c-4.3-13.2-16.6-22-30.5-22
						c-17.7,0-32.1,14.4-32.1,32.1C829.2,469.9,826.8,472.3,823.9,472.3z"/>
					<path id="XMLID_439_" class="st29" d="M733.1,424.2c11.4,0,21.8,4.5,29.5,11.8v18.3c-4.9-11.4-16.3-19.4-29.5-19.4
						C719.1,434.9,713.2,424.2,733.1,424.2z"/>
					<path id="XMLID_438_" class="st25" d="M762,472.3c-3,0-5.4-2.4-5.4-5.4c0-17.7-14.4-32.1-32.1-32.1
						c-17.7,0-32.1,14.4-32.1,32.1c0,3-2.4,5.4-5.4,5.4c-3,0-5.4-2.4-5.4-5.4c0-23.6,19.2-42.8,42.8-42.8s42.8,19.2,42.8,42.8
						C767.4,469.9,765,472.3,762,472.3z"/>
				</g>
				<g id="XMLID_433_">
					<path id="XMLID_435_" class="st30" d="M823.9,468.8c-1,0-1.9-0.8-1.9-1.9c0-21.7,17.6-39.3,39.3-39.3c1,0,1.9,0.8,1.9,1.9
						c0,1-0.8,1.9-1.9,1.9c-19.6,0-35.6,16-35.6,35.6C825.8,468,824.9,468.8,823.9,468.8z"/>
					<path id="XMLID_434_" class="st30" d="M687.1,468.8c-1,0-1.9-0.8-1.9-1.9c0-21.7,17.6-39.3,39.3-39.3c1,0,1.9,0.8,1.9,1.9
						c0,1-0.8,1.9-1.9,1.9c-19.6,0-35.6,16-35.6,35.6C689,468,688.1,468.8,687.1,468.8z"/>
				</g>
				<path id="XMLID_432_" class="st40" d="M756.7,466.3c-0.4-13.6-14.6-24.5-32.1-24.5c-17.5,0-31.7,10.9-32.1,24.5
					c0.3-17.4,14.6-31.5,32.1-31.5C742.1,434.9,756.3,448.9,756.7,466.3z"/>
				<path id="XMLID_431_" class="st40" d="M893.5,466.3c-0.4-13.6-14.6-24.5-32.1-24.5c-17.5,0-31.7,10.9-32.1,24.5
					c0.3-17.4,14.6-31.5,32.1-31.5C878.9,434.9,893.1,448.9,893.5,466.3z"/>
				<path id="XMLID_430_" class="st40" d="M964.6,466.3c-0.4-13.6-14.6-24.5-32.1-24.5c-17.5,0-31.7,10.9-32.1,24.5
					c0.3-17.4,14.6-31.5,32.1-31.5C950,434.9,964.3,448.9,964.6,466.3z"/>
			</g>
		</g>
		<rect id="XMLID_442_" x="543.8" y="200.9" class="st27" width="47.1" height="3.9"/>
	</g>
</g>
<g id="Слой_2" class="st41">
</g>
</svg>
