<?xml version="1.0" encoding="utf-8"?>
<!-- Generator: Adobe Illustrator 19.0.0, SVG Export Plug-In . SVG Version: 6.00 Build 0)  -->
<svg version="1.1" id="Слой_1" xmlns="http://www.w3.org/2000/svg" xmlns:xlink="http://www.w3.org/1999/xlink" x="0px" y="0px"
	 viewBox="-331 164 336.7 174" style="enable-background:new -331 164 336.7 174;" xml:space="preserve">
<style type="text/css">
	.st0{fill:#E38A42;}
	.st1{font-family:'ArialMT';}
	.st2{font-size:29.4782px;}
	.st3{fill:#F8AC00;}
	.st4{fill:#393939;}
	.st5{fill:#747474;}
	.st6{fill:#FFFFFF;}
	
		.st7{fill-rule:evenodd;clip-rule:evenodd;fill:none;stroke:#000000;stroke-width:1.9843;stroke-linecap:round;stroke-linejoin:round;stroke-miterlimit:22.9256;}
	.st8{fill-rule:evenodd;clip-rule:evenodd;fill:#E0A307;}
	
		.st9{fill-rule:evenodd;clip-rule:evenodd;fill:none;stroke:#F8AC00;stroke-width:1.9843;stroke-linecap:round;stroke-linejoin:round;stroke-miterlimit:22.9256;}
	.st10{fill-rule:evenodd;clip-rule:evenodd;fill:#F8AC00;}
	.st11{fill-rule:evenodd;clip-rule:evenodd;}
	.st12{fill-rule:evenodd;clip-rule:evenodd;fill:#A6A6A6;}
	.st13{fill-rule:evenodd;clip-rule:evenodd;fill:#868686;}
	
		.st14{fill-rule:evenodd;clip-rule:evenodd;fill:none;stroke:#A6A6A6;stroke-width:1.9843;stroke-linecap:round;stroke-linejoin:round;stroke-miterlimit:22.9256;}
	
		.st15{fill-rule:evenodd;clip-rule:evenodd;fill:none;stroke:#666666;stroke-width:1.9843;stroke-linecap:round;stroke-linejoin:round;stroke-miterlimit:22.9256;}
	.st16{fill-rule:evenodd;clip-rule:evenodd;fill:#666666;}
	.st17{fill-rule:evenodd;clip-rule:evenodd;fill:#2B2B2B;}
	.st18{fill-rule:evenodd;clip-rule:evenodd;fill:#99CCCC;}
	.st19{fill-rule:evenodd;clip-rule:evenodd;fill:#FEBF10;}
	
		.st20{fill-rule:evenodd;clip-rule:evenodd;fill:none;stroke:#FEBF10;stroke-width:1.9843;stroke-linecap:round;stroke-linejoin:round;stroke-miterlimit:22.9256;}
	.st21{fill-rule:evenodd;clip-rule:evenodd;fill:#0C0C0C;}
	
		.st22{fill-rule:evenodd;clip-rule:evenodd;fill:none;stroke:#868686;stroke-width:1.9843;stroke-linecap:round;stroke-linejoin:round;stroke-miterlimit:22.9256;}
	.st23{fill-rule:evenodd;clip-rule:evenodd;fill:#5D5D5D;}
	.st24{fill-rule:evenodd;clip-rule:evenodd;fill:#535353;}
	.st25{fill-rule:evenodd;clip-rule:evenodd;fill:#191919;}
	.st26{fill-rule:evenodd;clip-rule:evenodd;fill:#CCCCCC;}
	.st27{fill-rule:evenodd;clip-rule:evenodd;fill:#757575;}
	.st28{fill-rule:evenodd;clip-rule:evenodd;fill:#FFFFFF;}
	.st29{fill-rule:evenodd;clip-rule:evenodd;fill:#0A0A0A;}
	
		.st30{fill-rule:evenodd;clip-rule:evenodd;fill:none;stroke:#2B2B2B;stroke-width:1.9843;stroke-linecap:round;stroke-linejoin:round;stroke-miterlimit:22.9256;}
	.st31{fill-rule:evenodd;clip-rule:evenodd;fill:#ABFDFF;}
	.st32{fill-rule:evenodd;clip-rule:evenodd;fill:#C5E8E8;}
	.st33{fill-rule:evenodd;clip-rule:evenodd;fill:#868686;stroke:#000000;stroke-miterlimit:10;}
	.st34{fill-rule:evenodd;clip-rule:evenodd;fill:#070707;}
	.st35{fill-rule:evenodd;clip-rule:evenodd;fill:none;stroke:#000000;stroke-width:0.216;stroke-miterlimit:22.9256;}
</style>
<g id="Layer_1">
	<g id="Слой_5">
		<g id="Слой_9">
			<g id="Слой_9_1_">
				<polygon id="XMLID_569_" class="st0" points="-262.6,295.1 -267.1,287.2 -262.6,279.4 -253.5,279.4 -249,287.2 -253.5,295.1 
									"/>
				<polygon id="XMLID_571_" class="st0" points="-307.9,309.7 -313.3,300.5 -307.9,291.2 -297.3,291.2 -291.9,300.5 -297.3,309.7 
									"/>
				<polygon id="XMLID_572_" class="st0" points="-275.6,285.6 -279,279.6 -275.6,273.7 -268.7,273.7 -265.3,279.6 -268.7,285.6 
									"/>
				<polygon id="XMLID_583_" class="st0" points="-256.2,278 -258,274.9 -256.2,271.8 -252.6,271.8 -250.8,274.9 -252.6,278 				"/>
				<polygon id="XMLID_584_" class="st0" points="-293.6,290.5 -296.5,285.3 -293.6,280.2 -287.6,280.2 -284.6,285.3 -287.6,290.5 
									"/>
				<polygon id="XMLID_595_" class="st0" points="-284.2,309.3 -290.5,298.5 -284.2,287.6 -271.7,287.6 -265.5,298.5 -271.7,309.3 
									"/>
			</g>
			<polygon id="XMLID_1_" class="st0" points="-263.7,276.3 -265.5,273.2 -263.7,270.1 -260.1,270.1 -258.3,273.2 -260.1,276.3 			
				"/>
		</g>
	</g>
	<g id="Слой_3">
		<g id="XMLID_300_">
			<g id="XMLID_550_">
				<g id="XMLID_551_">
					<path id="XMLID_554_" class="st0" d="M-77.9,315c-0.2-1.8-2.3-3-4.8-3h-0.1c-2.5,0-4.6,1.3-4.8,3c-0.2,1.5-0.2,2.2-0.3,3.6
						c4.1,0,6.2,0,10.3,0C-77.6,317.2-77.7,316.5-77.9,315z"/>
					<path id="XMLID_553_" class="st0" d="M-87.2,334.8c3.6,0,5.3,0,8.9,0c0.3-1.9,0.4-2.8,0.6-4.7c-4,0-6,0-10.1,0
						C-87.6,332-87.4,332.9-87.2,334.8z"/>
					<path id="XMLID_552_" class="st0" d="M-88,322.3c0,1.7,0,2.5,0,4.2c4.2,0,6.3,0,10.5,0c0.1-1.7,0.1-2.5,0-4.2
						C-81.6,322.3-83.8,322.3-88,322.3z"/>
				</g>
			</g>
		</g>
		<g id="XMLID_4_">
			<g id="XMLID_559_">
				<g id="XMLID_560_">
					<path id="XMLID_563_" class="st0" d="M-43.9,315c-0.2-1.8-2.3-3-4.8-3h-0.1c-2.5,0-4.6,1.3-4.8,3c-0.2,1.5-0.2,2.2-0.3,3.6
						c4.1,0,6.2,0,10.3,0C-43.6,317.2-43.7,316.5-43.9,315z"/>
					<path id="XMLID_562_" class="st0" d="M-53.2,334.8c3.6,0,5.3,0,8.9,0c0.3-1.9,0.4-2.8,0.6-4.7c-4,0-6,0-10.1,0
						C-53.6,332-53.4,332.9-53.2,334.8z"/>
					<path id="XMLID_561_" class="st0" d="M-54,322.3c0,1.7,0,2.5,0,4.2c4.2,0,6.3,0,10.5,0c0.1-1.7,0.1-2.5,0-4.2
						C-47.6,322.3-49.8,322.3-54,322.3z"/>
				</g>
			</g>
		</g>
		<g id="XMLID_573_">
			<g id="XMLID_585_">
				<g id="XMLID_586_">
					<path id="XMLID_589_" class="st0" d="M-203.4,200.6c-0.2-1.8-2.3-3-4.8-3h-0.1c-2.5,0-4.6,1.3-4.8,3c-0.2,1.5-0.2,2.2-0.3,3.6
						c4.1,0,6.2,0,10.3,0C-203.2,202.8-203.3,202-203.4,200.6z"/>
					<path id="XMLID_588_" class="st0" d="M-212.7,220.4c3.6,0,5.3,0,8.9,0c0.3-1.9,0.4-2.8,0.6-4.7c-4,0-6,0-10.1,0
						C-213.1,217.6-213,218.5-212.7,220.4z"/>
					<path id="XMLID_587_" class="st0" d="M-213.6,207.9c0,1.7,0,2.5,0,4.2c4.2,0,6.3,0,10.5,0c0.1-1.7,0.1-2.5,0-4.2
						C-207.2,207.9-209.3,207.9-213.6,207.9z"/>
				</g>
			</g>
		</g>
		<g id="XMLID_547_">
			<g id="XMLID_590_">
				<g id="XMLID_591_">
					<path id="XMLID_594_" class="st0" d="M-3.6,174.5c-0.2-1.8-2.3-3-4.8-3h-0.1c-2.5,0-4.6,1.3-4.8,3c-0.2,1.5-0.2,2.2-0.3,3.6
						c4.1,0,6.2,0,10.3,0C-3.4,176.7-3.5,175.9-3.6,174.5z"/>
					<path id="XMLID_593_" class="st0" d="M-12.9,194.3c3.6,0,5.3,0,8.9,0c0.3-1.9,0.4-2.8,0.6-4.7c-4,0-6,0-10.1,0
						C-13.3,191.5-13.2,192.4-12.9,194.3z"/>
					<path id="XMLID_592_" class="st0" d="M-13.8,181.8c0,1.7,0,2.5,0,4.2c4.2,0,6.3,0,10.5,0c0.1-1.7,0.1-2.5,0-4.2
						C-7.4,181.8-9.5,181.8-13.8,181.8z"/>
				</g>
			</g>
		</g>
	</g>
</g>
<g id="Слой_2">
	<text id="XMLID_570_" transform="matrix(1 0 0 1 -311.7784 206.9413)" class="st0 st1 st2">A</text>
	<text id="XMLID_603_" transform="matrix(1 0 0 1 -254.4175 206.9404)" class="st0 st1 st2">A</text>
	<rect id="XMLID_382_" x="-315.4" y="179.5" class="st3" width="80.5" height="11.2"/>
	<polygon id="XMLID_387_" class="st4" points="-312.7,190.7 -305.5,179.5 -299.4,179.5 -306.9,190.7 	"/>
	<polygon id="XMLID_388_" class="st4" points="-273.4,190.7 -266.2,179.5 -260.1,179.5 -267.6,190.7 	"/>
	<polygon id="XMLID_390_" class="st4" points="-299.4,190.7 -292.3,179.5 -286.1,179.5 -293.6,190.7 	"/>
	<polygon id="XMLID_391_" class="st4" points="-261.2,190.7 -254.1,179.5 -247.9,179.5 -255.3,190.7 	"/>
	<polygon id="XMLID_392_" class="st4" points="-248.7,190.7 -241.5,179.5 -235.4,179.5 -242.9,190.7 	"/>
	<polygon id="XMLID_389_" class="st4" points="-286.1,190.7 -279,179.5 -273,179.5 -280.4,190.7 	"/>
</g>
<g id="Слой_8">
	<rect id="XMLID_383_" x="-13.6" y="300.2" class="st5" width="1.1" height="34.6"/>
	
		<rect id="XMLID_384_" x="-23.9" y="278.4" transform="matrix(0.7071 0.7071 -0.7071 0.7071 200.6218 93.9614)" class="st0" width="21.6" height="21.6"/>
	
		<rect id="XMLID_386_" x="-22.3" y="279.9" transform="matrix(0.7071 0.7071 -0.7071 0.7071 200.6382 93.8793)" class="st6" width="18.5" height="18.5"/>
	
		<rect id="XMLID_415_" x="-21.5" y="280.8" transform="matrix(0.7071 0.7071 -0.7071 0.7071 200.6385 93.9208)" class="st0" width="16.8" height="16.8"/>
</g>
<g>
	<g>
		<rect x="-165.7" y="276.6" class="st7" width="1.8" height="15.4"/>
		<path class="st8" d="M-163.9,276.6h-1.8V292h1.8V276.6z"/>
	</g>
	<g>
		<path class="st9" d="M-235.9,274.4c0,0-4.4-1.3-5.5-1.1c-1,0.2-2.2,0.4-2.3,1.1c-0.1,0.7,0.9,10,0.9,10s1.4,2.7,1.1,3.7
			c-0.4,1.1-5.9,17-5.9,17l-5.4,2.1l0.4,1.1l6.2-0.4c0,0,8.2-0.8,14.3-2.6c6.1-1.7,8.2-2.1,10.5-4.2c2.3-2.1,1.7-6,0.8-7.9
			c-1-1.8-5.6-7.6-5.6-7.6L-235.9,274.4z"/>
		<path class="st10" d="M-226.5,285.6c0,0,4.6,5.8,5.6,7.6c1,1.8,1.6,5.8-0.8,7.9c-2.3,2.1-4.4,2.4-10.5,4.2
			c-6.1,1.7-14.3,2.6-14.3,2.6l-6.2,0.4l-0.4-1.1l5.4-2.1c0,0,5.5-15.9,5.9-17c0.4-1.1-1.1-3.7-1.1-3.7s-1-9.4-0.9-10
			c0.1-0.7,1.3-0.8,2.3-1.1c1-0.2,5.5,1.1,5.5,1.1L-226.5,285.6z"/>
	</g>
	<g>
		<rect x="-74.9" y="280.3" class="st7" width="9.5" height="0.9"/>
		<path class="st10" d="M-65.3,280.3h-9.5v0.9h9.5V280.3z"/>
	</g>
	<g>
		<rect x="-68.3" y="279.7" class="st7" width="5" height="2"/>
		<path class="st10" d="M-63.3,279.7h-5v2h5V279.7z"/>
	</g>
	<path class="st11" d="M-61.5,281.5L-61.5,281.5L-61.5,281.5C-61.5,281.5-61.5,281.5-61.5,281.5L-61.5,281.5z M-61.5,281.5
		L-61.5,281.5L-61.5,281.5L-61.5,281.5L-61.5,281.5L-61.5,281.5z M-62.2,281.8c-0.1-0.2-0.2-0.6-6.6-2.1L-76,278l0.2-0.7l7.3,1.7
		c6.7,1.5,7,2.2,7.1,2.5v0l-0.1,0l-0.5,0.4C-62.1,281.9-62.2,281.8-62.2,281.8L-62.2,281.8z"/>
	<g>
		<path class="st7" d="M-69.9,274.1H-72v0c0,0.5,0.4,0.8,0.8,0.8h0.4C-70.3,274.9-69.9,274.5-69.9,274.1L-69.9,274.1z"/>
		<path class="st12" d="M-69.9,274.1c0,0.5-0.4,0.8-0.8,0.8h-0.4c-0.5,0-0.8-0.4-0.8-0.8v0L-69.9,274.1L-69.9,274.1z"/>
	</g>
	<path class="st11" d="M-62.4,279.7c0,0-8.5-5-13.6-4.2l0.1,0.7c4.8-0.8,13,4.1,13.1,4.1L-62.4,279.7z"/>
	<g>
		<path class="st7" d="M-69.5,289.7h-2.1v0c0,0.5,0.4,0.8,0.8,0.8h0.4C-69.9,290.5-69.5,290.1-69.5,289.7L-69.5,289.7z"/>
		<path class="st13" d="M-69.5,289.7c0,0.5-0.4,0.8-0.8,0.8h-0.4c-0.5,0-0.8-0.4-0.8-0.8v0L-69.5,289.7L-69.5,289.7z"/>
	</g>
	<g>
		<rect x="-82.5" y="286.3" class="st7" width="14.5" height="2.7"/>
		<path class="st10" d="M-68,286.3h-14.5v2.7H-68V286.3z"/>
	</g>
	<g>
		<path class="st7" d="M-69.5,284h-2.1v0c0-0.5,0.4-0.8,0.8-0.8h0.4C-69.9,283.2-69.5,283.6-69.5,284L-69.5,284z"/>
		<path class="st13" d="M-69.5,284c0-0.5-0.4-0.8-0.8-0.8h-0.4c-0.5,0-0.8,0.4-0.8,0.8v0L-69.5,284L-69.5,284z"/>
	</g>
	<g>
		<rect x="-71.6" y="269.7" class="st7" width="5" height="1.1"/>
		<path class="st10" d="M-66.6,269.7h-5v1.1h5V269.7z"/>
	</g>
	<g>
		<path class="st7" d="M-69.9,266.6H-72v0c0-0.5,0.4-0.8,0.8-0.8h0.4C-70.3,265.8-69.9,266.1-69.9,266.6L-69.9,266.6z"/>
		<path class="st12" d="M-69.9,266.6c0-0.5-0.4-0.8-0.8-0.8h-0.4c-0.5,0-0.8,0.4-0.8,0.8v0L-69.9,266.6L-69.9,266.6z"/>
	</g>
	<g>
		<rect x="-79.4" y="267.6" class="st7" width="11.7" height="1.4"/>
		<path class="st10" d="M-67.7,267.6h-11.7v1.4h11.7V267.6z"/>
	</g>
	<g>
		<rect x="-79.4" y="271.7" class="st7" width="11.7" height="1.4"/>
		<path class="st10" d="M-67.7,271.7h-11.7v1.4h11.7V271.7z"/>
	</g>
	<g>
		
			<rect x="-89" y="244" transform="matrix(0.3116 0.9502 -0.9502 0.3116 182.9419 237.6597)" class="st14" width="32.9" height="2.2"/>
		<path class="st12" d="M-66.4,260.4l-10.3-31.3l-2.1,0.7l10.3,31.3L-66.4,260.4z"/>
	</g>
	<g>
		
			<rect x="-86.3" y="252" transform="matrix(-0.3119 -0.9501 0.9501 -0.3119 -332.5948 266.9268)" class="st15" width="33.4" height="3.7"/>
		<path class="st16" d="M-73.1,237.5l10.4,31.7l-3.6,1.2l-10.4-31.7L-73.1,237.5z"/>
	</g>
	<g>
		
			<rect x="-67.9" y="200.3" transform="matrix(-0.7156 0.6985 -0.6985 -0.7156 52.4965 381.464)" class="st14" width="32.9" height="2.2"/>
		<path class="st12" d="M-62.4,213.7l23.5-23l-1.5-1.6l-23.5,23L-62.4,213.7z"/>
	</g>
	<g>
		
			<rect x="-81.4" y="214.1" transform="matrix(0.7156 -0.6985 0.6985 0.7156 -169.6643 15.1492)" class="st15" width="30.4" height="3.7"/>
		<path class="st16" d="M-54,206.7l-21.8,21.2l-2.6-2.7l21.8-21.2L-54,206.7z"/>
	</g>
	<g>
		
			<rect x="-18.3" y="227" transform="matrix(0.9622 -0.2723 0.2723 0.9622 -66.5814 4.3859)" class="st14" width="1.6" height="30.1"/>
		<path class="st12" d="M-12.6,256.3l-1.5,0.4l-8.2-29l1.5-0.4L-12.6,256.3z"/>
	</g>
	<g>
		<rect x="-138.6" y="267.9" class="st7" width="57" height="21.2"/>
		<path class="st10" d="M-81.6,267.9h-57v21.2h57V267.9z"/>
	</g>
	<g>
		<path class="st7" d="M-93,226c-1.2-4.6-3.2-8.9-4.1-10.6l-2.3-1.2h-41.2c-0.9,0.2-1.7,0.1-2.1,0.9c-0.8,1.6-1.8,5.4-2.7,9.8
			c-1.2,5.7-2.4,12.4-2.9,16.8c-0.6,5.3-1,10.2-1.1,15c-0.2,4.9-0.2,9.8-0.2,15v0.9h0.9h0.4H-91h0.5l0.3-0.5l3-5.3l0.1-0.3l0-0.3
			c-0.1-1.6-0.2-2.9-0.3-4.2C-88.5,248.7-89.1,240.9-93,226z"/>
		<path class="st16" d="M-87.4,262.1c0.1,1.3,0.2,2.5,0.3,4.2l0,0.3l-0.1,0.3l-3,5.3l-0.3,0.5H-91h-57.4h-0.4h-0.9v-0.9
			c0-5.2,0-10,0.2-15c0.2-4.9,0.5-9.8,1.1-15c0.5-4.4,1.7-11.2,2.9-16.8c0.9-4.4,1.9-8.2,2.7-9.8c0.4-0.8,1.2-0.7,2.1-0.9h41.2
			l2.3,1.2c0.9,1.7,2.9,6,4.1,10.6C-89.1,240.9-88.5,248.7-87.4,262.1z"/>
	</g>
	<g>
		<rect x="-163.9" y="277.2" class="st7" width="25.3" height="8.1"/>
		<path class="st10" d="M-138.6,277.2h-25.3v8.1h25.3V277.2z"/>
	</g>
	<g>
		<rect x="-163.9" y="285.3" class="st7" width="25.3" height="6.1"/>
		<path class="st10" d="M-138.6,285.3h-25.3v6.1h25.3V285.3z"/>
	</g>
	<g>
		<rect x="-162.2" y="219" class="st7" width="1.8" height="28.1"/>
		<path class="st17" d="M-160.4,219h-1.8v28.1h1.8V219z"/>
	</g>
	<g>
		<path class="st7" d="M-89.6,267.3l-2,3.5h-43.7c1.2-1.5,2.4-2.7,5.9-5.9c5.1-4.6,11.4-6.6,18-6.3c3.8,0.1,7.8,1.2,11.4,2.4
			C-97.2,261.7-91.6,265.2-89.6,267.3L-89.6,267.3z"/>
		<path class="st17" d="M-89.6,267.2c-2-2-7.6-5.5-10.3-6.4c-3.6-1.1-7.6-2.2-11.4-2.4c-6.6-0.2-12.8,1.7-18,6.3
			c-3.5,3.2-4.8,4.4-5.9,5.9h43.7L-89.6,267.2L-89.6,267.2z"/>
	</g>
	<g>
		<path class="st7" d="M-137.6,270.3h-9.7c0-4.7,0.1-9.1,0.2-13.4c0.1-2.1,0.2-4.5,0.4-6.7c2-0.6,8.4-1.2,28.2-1.6l0.1,0.8
			c-0.2,0.1-0.3,0.2-0.3,0.2c-7.9,6.2-13,10.6-18.3,19.2C-137.4,269.4-137.6,269.9-137.6,270.3z"/>
		<path class="st18" d="M-137.1,268.9c5.3-8.6,10.5-13,18.3-19.2c0,0,0.1-0.1,0.3-0.2l-0.1-0.8c-19.8,0.4-26.2,1-28.2,1.6
			c-0.2,2.2-0.3,4.6-0.4,6.7c-0.2,4.3-0.2,8.7-0.2,13.4h9.7C-137.6,269.9-137.4,269.4-137.1,268.9z"/>
	</g>
	<g>
		<path class="st7" d="M-99.1,217c0.7,1.4,2.7,5.8,3.9,10.2c3.6,13.9,4.2,21.3,5.3,33.9l0.2,2.4c-2.6-2.9-4.3-4.4-7.7-7.1
			c-1.7-1.3-4.8-3.4-7.7-5.1c-2.9-1.7-5.1-2.9-7.7-3.6c-0.6-0.2-1.1-0.2-1.6-0.2l0,0l-2.2-30.6H-99.1z"/>
		<path class="st18" d="M-116.7,217l2.2,30.6l0,0c0.5,0,1,0,1.6,0.2c2.6,0.7,4.8,1.8,7.7,3.6c2.9,1.7,6,3.8,7.7,5.1
			c3.4,2.7,5,4.2,7.7,7.1l-0.2-2.4c-1-12.6-1.6-20-5.3-33.9c-1.2-4.4-3.2-8.8-3.9-10.2H-116.7z"/>
	</g>
	<g>
		<path class="st7" d="M-146.2,246.6c0.1-1.7,0.3-3.5,0.5-5.3c0.5-4.1,1.5-10.4,2.7-15.6c0.9-4,1.7-7.4,2.3-8.6h20l1.7,28.2
			C-127.3,245.5-138.1,245.3-146.2,246.6z"/>
		<path class="st18" d="M-118.9,245.2l-1.7-28.2h-20c-0.6,1.3-1.5,4.6-2.3,8.6c-1.1,5.3-2.2,11.5-2.7,15.6c-0.2,1.8-0.4,3.6-0.5,5.3
			C-138.1,245.3-127.3,245.5-118.9,245.2z"/>
	</g>
	<g>
		<rect x="-83.4" y="249.1" class="st7" width="5.6" height="43.7"/>
		<path class="st19" d="M-77.8,249.1h-5.6v43.7h5.6V249.1z"/>
	</g>
	<path class="st10" d="M-77.8,267.7v25.1h-5.6v-25.1H-77.8z"/>
	<g>
		<rect x="-86" y="292.8" class="st7" width="11" height="2.3"/>
		<path class="st10" d="M-75.1,292.8h-11v2.3h11V292.8z"/>
	</g>
	<g>
		<path class="st20" d="M-235.9,274.4c0,0-4.4-1.3-5.5-1.1c-1,0.2-2.2,0.4-2.3,1.1c-0.1,0.6,0.8,9.4,0.9,10
			c2.1,1.9,5.3,4.1,9.1,10.3c2,3.2,3.5,6.9,4.5,9.9c3.9-1.1,5.6-1.7,7.5-3.3c2.3-2.1,1.7-6,0.8-7.9c-1-1.8-5.6-7.6-5.6-7.6
			L-235.9,274.4z"/>
		<path class="st19" d="M-226.5,285.6c0,0,4.6,5.8,5.6,7.6c1,1.8,1.6,5.8-0.8,7.9c-1.9,1.7-3.6,2.2-7.5,3.3c-1-3-2.5-6.6-4.5-9.9
			c-3.8-6.2-7-8.3-9.1-10.3c-0.1-0.6-1-9.4-0.9-10c0.1-0.7,1.3-0.8,2.3-1.1c1-0.2,5.5,1.1,5.5,1.1L-226.5,285.6z"/>
	</g>
	<g>
		<path class="st7" d="M-164.1,247c0,0-7.3,1.2-15.2,3.8c-7.9,2.6-14.8,5.3-14.8,5.3s-5.4,2.3-5.6,3.9c-0.2,1.6,0,18.8,0,18.8v7.8
			h50.1v-27.8l-2.6-0.7v-11.4C-152.2,246.2-163,247-164.1,247z"/>
		<path class="st19" d="M-152.2,246.6V258l2.6,0.7v27.8h-50.1v-7.8c0,0-0.2-17.2,0-18.8c0.2-1.6,5.6-3.9,5.6-3.9s6.8-2.7,14.8-5.3
			c7.9-2.6,15.2-3.8,15.2-3.8C-163,247-152.2,246.2-152.2,246.6z"/>
	</g>
	<path class="st10" d="M-149.6,267.7v18.8h-50.1v-7.8c0,0-0.1-5.8-0.1-11H-149.6z"/>
	<g>
		<path class="st7" d="M-196.6,257.3c-1.4,0.8-2.9,1.8-3.1,2.6c-0.2,1.6,0,18.8,0,18.8v7.8h3.1V257.3z"/>
		<path class="st10" d="M-196.6,286.5h-3.1v-7.8c0,0-0.2-17.2,0-18.8c0.1-0.8,1.6-1.9,3.1-2.6V286.5z"/>
	</g>
	<g>
		<path class="st10" d="M-156.6,263.7l-11,6.2c-0.6,0.3-1.3,0.1-1.6-0.5l0,0c-0.3-0.6-0.1-1.3,0.5-1.6l11-6.2
			c0.6-0.3,1.3-0.1,1.6,0.5v0C-155.8,262.7-156,263.4-156.6,263.7z"/>
	</g>
	<g>
		<path class="st9" d="M-186,263.7c0,0-6.3,2.2-10,5.5c-3.7,3.3-11.8,11-11.8,11l-10.8,10l-3.8,3.2l-2.9,2.6l-1.5,2.7l0.5,2.1
			c0,0,0.6,1.3,3.5,0.2c2.9-1.1,5.1-2.4,5.1-2.4l14.7-11.9c2.9-2.5,9.5-9.5,11.8-11c7-4.6,22.2-10.5,31.2-15.9c2.4-1.5,4.7-2.6,6-4
			c1.7-1.8,0.3-4.9-2.4-4.2c-1.1,0.3-2.7,0.9-4.4,1.5C-169.3,256.3-183.5,262.7-186,263.7z"/>
		<path class="st10" d="M-160.7,253.3c1.7-0.6,3.3-1.2,4.4-1.5c2.7-0.7,4.1,2.3,2.4,4.2c-1.3,1.4-3.5,2.5-6,4
			c-9.1,5.4-24.3,11.3-31.2,15.9c-2.3,1.5-8.9,8.4-11.8,11l-14.7,11.9c0,0-2.2,1.3-5.1,2.4c-2.9,1.1-3.5-0.2-3.5-0.2l-0.5-2.1
			l1.5-2.7l2.9-2.6l3.8-3.2l10.8-10c0,0,8-7.7,11.8-11c3.7-3.3,10-5.5,10-5.5C-183.5,262.7-169.3,256.3-160.7,253.3z"/>
	</g>
	<g>
		<path class="st10" d="M-167.6,270.2c1.2-0.1,2.4-0.8,1.9-3.7c-1-5.8-1.7-9.6-1.2-15.6c0.3-2.8-3-2.6-3.5-1c-0.3,1.1-0.4,1-0.4,1.5
			c-0.2,1.9,0.1,9.6,0.8,14.7C-169.6,269.3-168.7,270.3-167.6,270.2z"/>
	</g>
	<g>
		<path class="st21" d="M-166.7,268.4c0,0.4-0.3,0.8-0.7,0.8c-0.4,0-0.8-0.3-0.8-0.7c0-0.4,0.3-0.8,0.7-0.8
			C-167.1,267.6-166.7,267.9-166.7,268.4z"/>
	</g>
	<g>
		<path class="st21" d="M-156.5,262.8c0,0.4-0.4,0.7-0.8,0.6s-0.7-0.4-0.6-0.8c0-0.4,0.4-0.7,0.8-0.6
			C-156.7,262-156.5,262.4-156.5,262.8z"/>
	</g>
	<g>
		<path class="st21" d="M-167.6,259.9c0-0.6-0.5-1.1-1.1-1.1c-0.6,0-1.1,0.5-1.1,1.1c0,0.6,0.5,1.1,1.1,1.1
			C-168.1,261-167.6,260.5-167.6,259.9z"/>
	</g>
	<g>
		<polygon class="st9" points="-168.2,249.5 -191,257.8 -190.4,259.9 -167.9,250.8 		"/>
		<path class="st10" d="M-167.9,250.8l-22.2,9l-0.9-2l22.3-8.8L-167.9,250.8z"/>
	</g>
	<g>
		
			<rect x="-210.6" y="263.4" transform="matrix(0.9188 -0.3946 0.3946 0.9188 -120.7351 -58.8528)" class="st14" width="14.3" height="1.3"/>
		<path class="st12" d="M-196.6,261.9l-13.2,5.7l-0.5-1.2l13.2-5.7L-196.6,261.9z"/>
	</g>
	<g>
		<rect x="-194.2" y="272.7" class="st22" width="26.6" height="1.4"/>
		<path class="st13" d="M-167.7,272.7h-26.6v1.4h26.6V272.7z"/>
	</g>
	<g>
		<circle class="st7" cx="-194.2" cy="273.4" r="1.1"/>
		<path class="st13" d="M-193.1,273.4c0-0.6-0.5-1.1-1.1-1.1c-0.6,0-1.1,0.5-1.1,1.1c0,0.6,0.5,1.1,1.1,1.1
			C-193.6,274.6-193.1,274.1-193.1,273.4z"/>
	</g>
	<g>
		<path class="st7" d="M-44.4,239.3c-2.6,4.2-6.3,12-2.2,16.5c4.5,4.9,11.4,4.8,17.9,3.4c0.1,0,0.2-0.1,0.3-0.2
			c2.5-1.3,2.8-1.8,4.8-4.1c-0.7-1-1.3-2-2-3.1c-0.8,0-1.7,0.1-2.5,0.1c-1.3,0-1,0.1-1.9-0.9c-3.8-4-8.9-8.8-11.1-14
			c-0.3-0.7,1.3-3.8,0.6-5.5c-0.2-0.5-0.2-0.4-0.7-0.6L-44.4,239.3z"/>
		<path class="st16" d="M-41.2,231.1c0.5,0.2,0.5,0.1,0.7,0.6c0.7,1.7-0.9,4.8-0.6,5.5c2.2,5.2,7.3,9.9,11.1,14c0.9,1,0.6,1,1.9,0.9
			c0.8,0,1.7-0.1,2.5-0.1c0.7,1,1.3,2,2,3.1c-2.1,2.3-2.3,2.7-4.8,4.1c-0.1,0.1-0.2,0.1-0.3,0.2c-6.5,1.4-13.3,1.6-17.9-3.4
			c-4.1-4.5-0.4-12.3,2.2-16.5L-41.2,231.1z"/>
	</g>
	<g>
		<path class="st7" d="M-27.3,258.4c1.6-0.9,2-1.6,3.8-3.5c-0.7-1-1.3-2-2-3.1c-0.8,0-1.7,0.1-2.5,0.1c-1.3,0-1,0.1-1.9-0.9
			c-3.8-4-8.9-8.8-11.1-14c-0.3-0.7,1.3-3.8,0.6-5.5c-0.2-0.5-0.2-0.4-0.7-0.6l-3.3,8.3c0,0,10.5,12.8,12.2,14.6
			C-31.2,255.1-28.8,257.2-27.3,258.4z"/>
		<path class="st17" d="M-32.3,253.9c-1.7-1.8-12.2-14.6-12.2-14.6l3.3-8.3c0.5,0.2,0.5,0.1,0.7,0.6c0.7,1.7-0.9,4.8-0.6,5.5
			c2.2,5.2,7.3,9.9,11.1,14c0.9,1,0.6,1,1.9,0.9c0.8,0,1.7-0.1,2.5-0.1c0.7,1,1.3,2,2,3.1c-1.7,1.9-2.2,2.5-3.8,3.5
			C-28.8,257.2-31.2,255.1-32.3,253.9z"/>
	</g>
	<g>
		<path class="st7" d="M-38.5,259.9l4.9,4.5c0,0,2.3,0.7,4.6-0.5c2.3-1.2,8.7-6.7,8.7-6.7c1.1-1.6,0.1-2.9-1-3
			c-0.7-0.1-1.2,0.1-2.3,0.7c0,0,0,0-0.1,0.1c-2,2.2-2.3,2.7-4.8,4c-0.1,0.1-0.2,0.1-0.3,0.2C-32,259.9-35.4,260.3-38.5,259.9
			L-38.5,259.9z"/>
		<path class="st17" d="M-38.5,259.9c3.1,0.4,6.5,0,9.8-0.7c0.1,0,0.2-0.1,0.3-0.2c2.5-1.3,2.8-1.8,4.8-4c0,0,0,0,0.1-0.1
			c1.1-0.6,1.6-0.8,2.3-0.7c1,0.1,2,1.4,1,3c0,0-6.4,5.5-8.7,6.7c-2.3,1.2-4.6,0.5-4.6,0.5L-38.5,259.9L-38.5,259.9z"/>
	</g>
	<g>
		<path class="st7" d="M-16,259.1l-15.2,1.6c-0.8,0.1-1.4,0.8-1.3,1.6v0c0.1,0.8,0.8,1.4,1.6,1.3l15.2-1.6c0.8-0.1,1.4-0.8,1.3-1.6
			v0C-14.4,259.6-15.2,259-16,259.1z"/>
		<path class="st23" d="M-14.4,260.4L-14.4,260.4c0.1,0.8-0.5,1.5-1.3,1.6l-15.2,1.6c-0.8,0.1-1.5-0.5-1.6-1.3v0
			c-0.1-0.8,0.5-1.5,1.3-1.6l15.2-1.6C-15.2,259-14.4,259.6-14.4,260.4z"/>
	</g>
	<g>
		
			<rect x="-27.3" y="193.9" transform="matrix(0.9622 -0.2724 0.2724 0.9622 -58.8045 0.9728)" class="st15" width="2.7" height="36.8"/>
		<path class="st16" d="M-19.6,229.6l-2.6,0.7l-10-35.4l2.6-0.7L-19.6,229.6z"/>
	</g>
	<g>
		<path class="st20" d="M-18.2,257.5c0,0-0.9,0.8-2.2,0.8c-1.3,0.1-4-0.3-5-1.5c-1-1.2-4.2-9.6-4.2-9.6l-11.9-37.9
			c-0.7-2.3-2.7-7.7-1.7-9.5c0.4-0.8,1.3-1.1,2.2-1c1.1,0.1,2.2,0.4,2.3-0.3c0.3-4.5-3.4-7.4-3.3-10.1c0.1-1.5,0.9-3,2.9-3.2
			c1.2-0.1,3.1,0.7,3.7,2.4c0.6,1.7-0.5,2.9,1,3.9c0.8,0.5,1.7,0.5,2.4,0.7c3.3,0.9,5.2,5.8,3.5,8.9c-1.2,2.2-2.2,2.5-1.7,4.6
			c0.5,2.1,13.9,45.6,13.9,45.6S-15.3,255.3-18.2,257.5z"/>
		<path class="st19" d="M-16.3,251.4c0,0-13.4-43.5-13.9-45.6c-0.5-2.1,0.4-2.4,1.7-4.6c1.7-3.1-0.2-8-3.5-8.9
			c-0.7-0.2-1.7-0.2-2.4-0.7c-1.5-1-0.4-2.1-1-3.9c-0.6-1.7-2.4-2.6-3.7-2.4c-1.9,0.2-2.8,1.7-2.9,3.2c-0.1,2.7,3.6,5.6,3.3,10.1
			c-0.1,0.8-1.2,0.4-2.3,0.3c-0.9-0.1-1.8,0.2-2.2,1c-1,1.8,1,7.2,1.7,9.5l11.9,37.9c0,0,3.2,8.4,4.2,9.6c1,1.2,3.7,1.5,5,1.5
			c1.3-0.1,2.2-0.8,2.2-0.8C-15.3,255.3-16.3,251.4-16.3,251.4z"/>
	</g>
	<path class="st10" d="M-24.8,258l-14.7-54.7l-4.2,2.2c0.5,1.7,1,3.4,1.4,4.4l11.9,37.9c0,0,3.2,8.4,4.2,9.6
		c0.3,0.4,0.9,0.7,1.5,0.9L-24.8,258z"/>
	<g>
		<path class="st20" d="M-39.8,205.6l-9.1,14.8c0,0-2.9,3.7-3.9,6.4c-1,2.6-1.7,8.7-1.3,15.3c0.4,6.5,4.6,32.2,4.6,32.2
			c0.7,4-1.1,8.8-5.1,10.3c-2.4,0.8-3.8-0.4-3-2.8c0.7-2.1,2.5-5.2,0.9-7.5c-1.2-1.8-2.2-3.7-2.6-5c-3.1-10.1-4.5-20-10.8-28.5
			c-2.3-3.1-5.2-6.8-7-8.1c-2.4-1.8-4.1-3.9-3.5-5.6c0.3-1,1-2,3.4-2.4c2.8-0.4,8.3-1.3,13.3-5.7c4.2-3.6,11.4-9.6,15.6-14.2
			c1.7-1.9,3.2-3.9,3.8-4.6c2.8-3.5,5.1-2.8,6.3-0.9C-37.4,200.5-38.1,202.7-39.8,205.6z"/>
		<path class="st19" d="M-38.3,199.1c-1.3-1.9-3.5-2.6-6.3,0.9c-0.6,0.7-2.1,2.7-3.8,4.6c-4.2,4.7-11.5,10.6-15.6,14.2
			c-5,4.3-10.5,5.3-13.3,5.7c-2.4,0.3-3.1,1.4-3.4,2.4c-0.6,1.8,1.1,3.9,3.5,5.6c1.8,1.3,4.7,5.1,7,8.1c6.3,8.5,7.7,18.4,10.8,28.5
			c0.4,1.3,1.3,3.2,2.6,5c1.6,2.4-0.2,5.4-0.9,7.5c-0.8,2.4,0.6,3.6,3,2.8c4-1.4,5.8-6.3,5.1-10.3c0,0-4.1-25.7-4.6-32.2
			c-0.4-6.5,0.3-12.6,1.3-15.3c1-2.6,3.9-6.4,3.9-6.4l9.1-14.8C-38.1,202.7-37.4,200.5-38.3,199.1z"/>
	</g>
	<path class="st10" d="M-38.3,202.7L-38.3,202.7l-15.4,18.7c0,0-5.4,4-5.1,19c0.3,15-1,27.8-1,27.8l10.2,5.9
		c-0.4-2.2-4.1-25.8-4.6-32c-0.4-6.5,0.3-12.6,1.3-15.3c1-2.6,3.9-6.4,3.9-6.4l9.1-14.8C-39.2,204.6-38.7,203.6-38.3,202.7z"/>
	<path class="st10" d="M-59.8,267.7c0.1,0.5,0.3,1,0.4,1.4c0.4,1.3,1.3,3.2,2.6,5c1.6,2.4-0.2,5.4-0.9,7.5c-0.8,2.4,0.6,3.6,3,2.8
		c4-1.4,5.8-6.3,5.1-10.3c0,0-0.4-2.7-1-6.6H-59.8z"/>
	<g>
		<circle class="st7" cx="-78.3" cy="227.7" r="1.2"/>
		<path class="st12" d="M-77.1,227.7c0-0.7-0.5-1.2-1.2-1.2c-0.7,0-1.2,0.5-1.2,1.2c0,0.7,0.5,1.2,1.2,1.2
			C-77.6,228.9-77.1,228.4-77.1,227.7z"/>
	</g>
	<g>
		<circle class="st7" cx="-38.7" cy="188.9" r="1.2"/>
		<path class="st12" d="M-37.5,188.9c0-0.7-0.6-1.2-1.2-1.2c-0.7,0-1.2,0.6-1.2,1.2c0,0.7,0.6,1.2,1.2,1.2
			C-38,190.1-37.5,189.5-37.5,188.9z"/>
	</g>
	<g>
		<circle class="st7" cx="-41.3" cy="201.6" r="1.2"/>
		<path class="st12" d="M-40,201.6c0-0.7-0.6-1.2-1.2-1.2c-0.7,0-1.2,0.6-1.2,1.2c0,0.7,0.6,1.2,1.2,1.2
			C-40.6,202.8-40,202.3-40,201.6z"/>
	</g>
	<g>
		<path class="st7" d="M-56.4,278c-3.8-4.4-3.5-10.9-7.5-11.2c-0.9-0.1-2.5,0.1-3.2,0.3c-1.8,0.5-1.5,1.5-0.7,4.1
			c1.5,4.8,9,12.7-0.6,13.4c-1.1,0.1-2.2-0.1-3.3,0.1c-0.4,0.1-0.7,0.2-0.7,0.5l0,1.7c0,0,1.8,0,4.4,0c0.2,0,0.3,0,0.5,0
			c5.5-0.4,13.7-1.4,14.6-3.5c1.3-3.2,1.6-3.9,0-4.5C-54.6,278.3-54.6,278.2-56.4,278z"/>
		<path class="st19" d="M-53,278.9c1.6,0.6,1.3,1.3,0,4.5c-0.8,2.1-9.1,3.1-14.6,3.5c-0.2,0-0.3,0-0.5,0c-2.7,0-4.4,0-4.4,0l0-1.7
			c0-0.3,0.3-0.4,0.7-0.5c1.1-0.2,2.2-0.1,3.3-0.1c9.6-0.7,2.1-8.6,0.6-13.4c-0.8-2.6-1.1-3.6,0.7-4.1c0.7-0.2,2.3-0.4,3.2-0.3
			c4,0.3,3.7,6.8,7.5,11.2C-54.6,278.2-54.6,278.3-53,278.9z"/>
	</g>
	<path class="st10" d="M-53,278.9c1.6,0.6,1.3,1.3,0,4.5c-0.8,2.1-9.1,3.1-14.6,3.5c-0.2,0-0.3,0-0.5,0c-2.7,0-4.4,0-4.4,0l0-1.7
		c0-0.3,0.3-0.4,0.7-0.5c1.1-0.2,2.2-0.1,3.3-0.1c9.6-0.7,2.1-8.6,0.6-13.4c-0.6-1.8-0.9-2.9-0.4-3.5h6.3c2.1,2,2.5,6.8,5.5,10.3
		C-54.6,278.2-54.6,278.3-53,278.9z"/>
	<g>
		<rect x="-81.2" y="268.1" class="st7" width="7.1" height="19.3"/>
		<path class="st10" d="M-74.1,268.1h-7.1v19.3h7.1V268.1z"/>
	</g>
	<g>
		<rect x="-150.2" y="272" class="st7" width="12" height="8.5"/>
		<path class="st10" d="M-138.2,272h-12v8.5h12V272z"/>
	</g>
	<g>
		<path class="st20" d="M-88.9,266.6c-2-2-7.6-5.5-10.3-6.4c-3.6-1.1-7.6-2.2-11.4-2.4c-6.6-0.2-12.8,1.7-18,6.3
			c-3.8,3.4-5,4.6-6.2,6.3c0,0-1.6,1.4-2,0.9c-0.4-0.4-0.6-1.4,0.3-2.8c5.6-9,11-13.6,19.2-20.1c0,0,2-1.8,4.7-1.1
			c2.7,0.7,5.1,1.9,8.1,3.8c3,1.8,6.4,4,8.1,5.4c3.8,3.1,5.6,4.7,8.8,8.3c0,0,1.1,1.3,0.6,1.9C-87.6,267.5-88.9,266.6-88.9,266.6z"
			/>
		<path class="st19" d="M-87.1,266.8c0.5-0.6-0.6-1.9-0.6-1.9c-3.2-3.6-4.9-5.2-8.8-8.3c-1.8-1.4-5.1-3.6-8.1-5.4
			c-3-1.8-5.4-3-8.1-3.8c-2.7-0.7-4.7,1.1-4.7,1.1c-8.2,6.5-13.6,11.1-19.2,20.1c-0.9,1.4-0.7,2.4-0.3,2.8c0.4,0.4,2-0.9,2-0.9
			c1.3-1.7,2.4-2.9,6.2-6.3c5.1-4.6,11.4-6.6,18-6.3c3.8,0.1,7.8,1.2,11.4,2.4c2.7,0.9,8.4,4.3,10.3,6.4
			C-88.9,266.6-87.6,267.5-87.1,266.8z"/>
	</g>
	<g>
		<path class="st7" d="M-99.2,213.5h-41.5c-1.3,0-2.4,1.1-2.4,2.4l0,0h46.2l0,0C-96.9,214.5-97.9,213.5-99.2,213.5z"/>
		<path class="st17" d="M-96.9,215.8L-96.9,215.8h-46.2l0,0c0-1.3,1.1-2.4,2.4-2.4h41.5C-97.9,213.5-96.9,214.5-96.9,215.8z"/>
	</g>
	<g>
		<path class="st7" d="M-111.1,308.7c-13.3,0-24.1-10.8-24.1-24.1c0-13.3,10.8-24.1,24.1-24.1S-87,271.4-87,284.6
			C-87,297.9-97.9,308.7-111.1,308.7z"/>
		<path class="st16" d="M-87,284.6c0-13.3-10.8-24.1-24.1-24.1s-24.1,10.8-24.1,24.1c0,13.3,10.8,24.1,24.1,24.1S-87,297.9-87,284.6
			z"/>
	</g>
	<path class="st24" d="M-135.2,284.7c0,0.7,0,1.3,0.1,2c1-12.4,11.4-22.1,24-22.1c12.6,0,23,9.7,24,22.1c0.1-0.7,0.1-1.3,0.1-2
		c0-13.3-10.8-24.1-24.1-24.1C-124.4,260.6-135.2,271.4-135.2,284.7z"/>
	<path class="st25" d="M-111.1,260.6c-0.6,0-1.2,0-1.7,0.1c0,0.1,0.1,0.3,0.1,0.4l0.8,1.7c0.3,0.7,1.1,0.9,1.8,0.6l0,0
		c0.7-0.3,0.9-1.1,0.6-1.8l-0.5-0.9C-110.3,260.6-110.7,260.6-111.1,260.6L-111.1,260.6z M-115.7,308.4c0-0.1,0-0.3,0-0.4l-0.3-1.8
		c-0.1-0.7-0.8-1.2-1.6-1.1l0,0c-0.7,0.1-1.2,0.8-1.1,1.6l0.2,1C-117.5,307.9-116.6,308.2-115.7,308.4L-115.7,308.4z M-121.6,306.4
		c0.1-0.1,0.1-0.3,0.1-0.4l0.1-1.8c0.1-0.7-0.5-1.4-1.2-1.4l0,0c-0.7-0.1-1.4,0.5-1.4,1.2l-0.1,1
		C-123.3,305.5-122.5,306-121.6,306.4L-121.6,306.4z M-126.9,302.9c0.1-0.1,0.2-0.2,0.2-0.4l0.6-1.7c0.2-0.7-0.1-1.5-0.8-1.7h0
		c-0.7-0.2-1.5,0.1-1.7,0.8l-0.3,1C-128.3,301.6-127.6,302.3-126.9,302.9L-126.9,302.9z M-131.1,298.2c0.1-0.1,0.2-0.2,0.3-0.3
		l1-1.5c0.4-0.6,0.3-1.4-0.4-1.9h0c-0.6-0.4-1.4-0.3-1.9,0.4l-0.6,0.9C-132.1,296.6-131.6,297.4-131.1,298.2L-131.1,298.2z
		 M-133.9,292.6c0.1-0.1,0.3-0.1,0.4-0.2l1.4-1.2c0.6-0.5,0.6-1.3,0.1-1.9l0,0c-0.5-0.6-1.3-0.6-1.9-0.1l-0.8,0.7
		C-134.5,290.8-134.2,291.7-133.9,292.6L-133.9,292.6z M-135.1,286.4c0.1,0,0.3-0.1,0.4-0.1l1.7-0.8c0.7-0.3,0.9-1.1,0.6-1.8h0
		c-0.3-0.7-1.1-0.9-1.8-0.6l-0.9,0.5c0,0.4,0,0.8,0,1.1C-135.2,285.3-135.2,285.8-135.1,286.4L-135.1,286.4z M-134.8,280.1
		c0.1,0,0.3,0,0.4,0l1.8-0.3c0.7-0.1,1.2-0.8,1.1-1.6l0,0c-0.1-0.7-0.8-1.2-1.6-1.1l-1,0.2C-134.4,278.3-134.6,279.2-134.8,280.1
		L-134.8,280.1z M-132.8,274.2c0.1,0.1,0.3,0.1,0.4,0.1l1.8,0.1c0.7,0.1,1.4-0.5,1.4-1.2v0c0.1-0.7-0.5-1.4-1.2-1.4l-1-0.1
		C-131.9,272.5-132.4,273.3-132.8,274.2L-132.8,274.2z M-129.3,268.9c0.1,0.1,0.2,0.2,0.4,0.2l1.7,0.6c0.7,0.2,1.5-0.1,1.7-0.8v0
		c0.2-0.7-0.1-1.5-0.8-1.7l-1-0.3C-128,267.5-128.7,268.2-129.3,268.9L-129.3,268.9z M-124.6,264.7c0.1,0.1,0.2,0.2,0.3,0.3l1.5,1
		c0.6,0.4,1.4,0.3,1.9-0.4v0c0.4-0.6,0.3-1.4-0.4-1.9l-0.9-0.6C-123,263.7-123.8,264.2-124.6,264.7L-124.6,264.7z M-119,261.9
		c0.1,0.1,0.1,0.3,0.2,0.4l1.2,1.4c0.5,0.6,1.3,0.6,1.9,0.1l0,0c0.6-0.5,0.6-1.3,0.1-1.9l-0.7-0.8
		C-117.2,261.3-118.1,261.6-119,261.9L-119,261.9z M-106.6,261c0,0.1,0,0.3,0,0.4l0.3,1.8c0.1,0.7,0.8,1.2,1.6,1.1l0,0
		c0.7-0.1,1.2-0.8,1.1-1.6l-0.2-1C-104.7,261.4-105.6,261.2-106.6,261L-106.6,261z M-100.6,263c-0.1,0.1-0.1,0.3-0.1,0.4l-0.1,1.8
		c-0.1,0.7,0.5,1.4,1.2,1.4l0,0c0.7,0.1,1.4-0.5,1.4-1.2l0.1-1C-98.9,263.9-99.7,263.4-100.6,263L-100.6,263z M-95.3,266.5
		c-0.1,0.1-0.2,0.2-0.2,0.4l-0.6,1.7c-0.2,0.7,0.1,1.5,0.8,1.7l0,0c0.7,0.2,1.5-0.1,1.7-0.8l0.3-1
		C-93.9,267.8-94.6,267.1-95.3,266.5L-95.3,266.5z M-91.2,271.2c-0.1,0.1-0.2,0.2-0.3,0.3l-1,1.5c-0.4,0.6-0.3,1.4,0.4,1.9l0,0
		c0.6,0.4,1.4,0.3,1.9-0.4l0.6-0.9C-90.1,272.8-90.6,272-91.2,271.2L-91.2,271.2z M-88.3,276.8c-0.1,0.1-0.3,0.1-0.4,0.2l-1.4,1.2
		c-0.6,0.5-0.6,1.3-0.1,1.9l0,0c0.5,0.6,1.3,0.6,1.9,0.1l0.8-0.7C-87.8,278.6-88,277.7-88.3,276.8L-88.3,276.8z M-87.1,283
		c-0.1,0-0.3,0.1-0.4,0.1l-1.7,0.8c-0.7,0.3-0.9,1.1-0.6,1.8h0c0.3,0.7,1.1,0.9,1.8,0.6l0.9-0.5c0-0.4,0-0.8,0-1.1
		C-87,284.1-87,283.5-87.1,283L-87.1,283z M-87.4,289.3c-0.1,0-0.3,0-0.4,0l-1.8,0.3c-0.7,0.1-1.2,0.8-1.1,1.6h0
		c0.1,0.7,0.8,1.2,1.6,1.1l1-0.2C-87.9,291.1-87.6,290.2-87.4,289.3L-87.4,289.3z M-89.4,295.2c-0.1-0.1-0.3-0.1-0.4-0.1l-1.8-0.1
		c-0.7-0.1-1.4,0.5-1.4,1.2l0,0c-0.1,0.7,0.5,1.4,1.2,1.4l1,0.1C-90.3,296.9-89.8,296.1-89.4,295.2L-89.4,295.2z M-92.9,300.5
		c-0.1-0.1-0.2-0.2-0.4-0.2l-1.7-0.6c-0.7-0.2-1.5,0.1-1.7,0.8l0,0c-0.2,0.7,0.1,1.5,0.8,1.7l1,0.3
		C-94.2,301.9-93.5,301.2-92.9,300.5L-92.9,300.5z M-97.6,304.7c-0.1-0.1-0.2-0.2-0.3-0.3l-1.5-1c-0.6-0.4-1.4-0.3-1.9,0.4l0,0
		c-0.4,0.6-0.3,1.4,0.4,1.9l0.9,0.6C-99.2,305.7-98.4,305.2-97.6,304.7L-97.6,304.7z M-103.2,307.5c-0.1-0.1-0.1-0.3-0.2-0.4
		l-1.2-1.4c-0.5-0.6-1.3-0.6-1.9-0.1v0c-0.6,0.5-0.6,1.3-0.1,1.9l0.7,0.8C-105,308-104.1,307.8-103.2,307.5L-103.2,307.5z
		 M-109.5,308.3l-0.8-1.7c-0.3-0.7-1.1-0.9-1.8-0.6v0c-0.7,0.3-0.9,1.1-0.6,1.8l0.5,0.9c0.4,0,0.8,0,1.1,0c0.6,0,1.2,0,1.7-0.1
		C-109.4,308.6-109.4,308.5-109.5,308.3z"/>
	<g>
		<path class="st7" d="M-111.1,301.1c-9.1,0-16.5-7.4-16.5-16.5c0-9.1,7.4-16.5,16.5-16.5s16.5,7.4,16.5,16.5
			C-94.6,293.7-102,301.1-111.1,301.1z"/>
		<path class="st8" d="M-94.6,284.6c0-9.1-7.4-16.5-16.5-16.5s-16.5,7.4-16.5,16.5c0,9.1,7.4,16.5,16.5,16.5S-94.6,293.7-94.6,284.6
			z"/>
	</g>
	<g>
		<path class="st7" d="M-111.1,297.7c-7.2,0-13.1-5.9-13.1-13.1c0-7.2,5.9-13.1,13.1-13.1c7.2,0,13.1,5.9,13.1,13.1
			C-98,291.9-103.9,297.7-111.1,297.7z"/>
		<path class="st26" d="M-98,284.6c0-7.2-5.9-13.1-13.1-13.1c-7.2,0-13.1,5.9-13.1,13.1c0,7.2,5.9,13.1,13.1,13.1
			C-103.9,297.7-98,291.9-98,284.6z"/>
	</g>
	<path class="st27" d="M-124.2,284.6c0,0.5,0,1.1,0.1,1.6c0.8-6.5,6.3-11.5,13-11.5c6.7,0,12.2,5,13,11.5c0.1-0.5,0.1-1.1,0.1-1.6
		c0-7.2-5.9-13.1-13.1-13.1C-118.4,271.5-124.2,277.4-124.2,284.6z"/>
	<g>
		<path class="st7" d="M-111.1,292.8c-4.5,0-8.2-3.7-8.2-8.2s3.7-8.2,8.2-8.2s8.2,3.7,8.2,8.2S-106.6,292.8-111.1,292.8z"/>
		<path class="st16" d="M-102.9,284.6c0-4.5-3.7-8.2-8.2-8.2s-8.2,3.7-8.2,8.2s3.7,8.2,8.2,8.2S-102.9,289.2-102.9,284.6z"/>
	</g>
	<path class="st28" d="M-106,284.4c0.1,0.4,0.2,0.9,0.2,1.3c0,2.9-2.4,5.3-5.3,5.3c-2.9,0-5.3-2.4-5.3-5.3c0-0.5,0.1-0.9,0.2-1.3
		c0.6,2.3,2.6,4,5.1,4C-108.7,288.4-106.6,286.7-106,284.4z"/>
	<g>
		<path class="st12" d="M-29.9,262.2c0-0.6-0.5-1-1-1s-1,0.5-1,1c0,0.6,0.5,1,1,1S-29.9,262.8-29.9,262.2z"/>
	</g>
	<g>
		<path class="st9" d="M-20.8,245.6c-0.8-0.9-2.1-1-3-0.2l0,0c-0.9,0.8-0.9,2.1-0.2,3c1.2,1.6,2.5,3.1,3.6,4.7
			c2,2.9,3.1,3.5,2.9,5.6l0,0.3c-0.1,0.9-0.2,2.5,0.6,3.1c0.7,0.5,1.7,0.7,2.6-0.1c0.5-0.4,1.5-1,2.1-2c1.2-1.8,0.9-3,0-4.2
			C-15,252.3-17.9,248.9-20.8,245.6z"/>
		<path class="st19" d="M-12.2,255.8c0.9,1.2,1.1,2.3,0,4.2c-0.6,1-1.6,1.6-2.1,2c-0.9,0.8-1.9,0.6-2.6,0.1
			c-0.8-0.6-0.7-2.2-0.6-3.1l0-0.3c0.2-2.1-0.8-2.7-2.9-5.6c-1.1-1.6-2.4-3.1-3.6-4.7c-0.7-0.9-0.7-2.2,0.2-3l0,0
			c0.9-0.8,2.2-0.7,3,0.2C-17.9,248.9-15,252.3-12.2,255.8z"/>
	</g>
	<g>
		<path class="st29" d="M-14.9,260.5c0-0.5-0.4-0.9-0.9-0.9s-0.9,0.4-0.9,0.9c0,0.5,0.4,0.9,0.9,0.9S-14.9,261-14.9,260.5z"/>
	</g>
	<g>
		<path class="st29" d="M-20.7,255.9c0-0.5-0.4-0.9-0.9-0.9c-0.5,0-0.9,0.4-0.9,0.9c0,0.5,0.4,0.9,0.9,0.9
			C-21.1,256.7-20.7,256.4-20.7,255.9z"/>
	</g>
	<g>
		<path class="st29" d="M-12.2,257.7c0-0.4-0.3-0.7-0.7-0.7c-0.4,0-0.7,0.3-0.7,0.7c0,0.4,0.3,0.7,0.7,0.7
			C-12.6,258.5-12.2,258.1-12.2,257.7z"/>
	</g>
	<g>
		<path class="st29" d="M-21.6,246.8c0-0.5-0.4-0.9-0.9-0.9c-0.5,0-0.9,0.4-0.9,0.9c0,0.5,0.4,0.9,0.9,0.9
			C-22,247.7-21.6,247.3-21.6,246.8z"/>
	</g>
	<g>
		<path class="st13" d="M-53.8,282.2c0-0.7-0.6-1.2-1.2-1.2s-1.2,0.6-1.2,1.2c0,0.7,0.6,1.2,1.2,1.2S-53.8,282.9-53.8,282.2z"/>
	</g>
	<g>
		<path class="st9" d="M-221.2,275.4c-2.6,3-6.8,9-9.8,12.5l2.6,2.2c3-3.5,8.2-8.6,10.8-11.7c2.2-2.6,4.8-6.6,7.5-9.7
			c0.6-0.7,0.5-1.8-0.2-2.4l0,0c-0.7-0.6-1.8-0.5-2.4,0.2C-215.4,269.6-219,272.8-221.2,275.4z"/>
		<path class="st10" d="M-212.8,266.5c0.6-0.7,1.7-0.8,2.4-0.2l0,0c0.7,0.6,0.8,1.7,0.2,2.4c-2.7,3.1-5.3,7.1-7.5,9.7
			c-2.6,3-7.8,8.2-10.8,11.7l-2.6-2.2c3-3.5,7.3-9.5,9.8-12.5C-219,272.8-215.4,269.6-212.8,266.5z"/>
	</g>
	<g>
		<path class="st13" d="M-227.5,287.4c0,0.5-0.5,0.8-0.9,0.8c-0.5,0-0.8-0.5-0.8-0.9c0-0.5,0.5-0.8,0.9-0.8
			C-227.8,286.5-227.4,286.9-227.5,287.4z"/>
	</g>
	<g>
		<path class="st21" d="M-154.2,254.1c0-0.7-0.6-1.3-1.3-1.3s-1.3,0.6-1.3,1.3c0,0.7,0.6,1.3,1.3,1.3S-154.2,254.8-154.2,254.1z"/>
	</g>
	<g>
		
			<rect x="-197.3" y="258.5" transform="matrix(0.9188 -0.3947 0.3947 0.9188 -118.2441 -55.2632)" class="st30" width="7.7" height="2.6"/>
		<path class="st17" d="M-189.4,259.5l-7,3l-1-2.4l7-3L-189.4,259.5z"/>
	</g>
	<g>
		<rect x="-176.7" y="271.9" class="st7" width="18.3" height="3.1"/>
		<path class="st10" d="M-158.5,271.9h-18.3v3.1h18.3V271.9z"/>
	</g>
	<path class="st31" d="M-146.2,246.6c0.1-1.7,0.3-3.5,0.5-5.3c0.5-4.1,1.5-10.4,2.7-15.6c0.9-4,1.7-7.4,2.3-8.6h20l1.5,24.1
		c-2.6,1.5-5.2,2.9-7.7,4.4C-133.5,245.5-140.5,245.7-146.2,246.6z"/>
	<path class="st32" d="M-146.7,250.2c1.4-0.4,4.8-0.9,13.2-1.2c-5,2.7-9.7,5.2-13.6,7C-146.9,254.1-146.8,252.1-146.7,250.2z"/>
	<path class="st31" d="M-116.7,217h17.6c0.7,1.3,2.6,5.6,3.8,9.9c-4.6,2.9-11.8,7.2-19.8,11.8L-116.7,217z"/>
	<path class="st28" d="M-136.9,218l-2.4,0l-5.2,26.5C-144.5,244.5-136.9,218.1-136.9,218z"/>
	<path class="st28" d="M-113.4,217.8l-2,0l2.2,26.5C-113.2,244.3-113.4,217.9-113.4,217.8z"/>
	<path class="st28" d="M-143.9,250.3l-1.8,0.3l-0.3,18.6C-146,269.2-143.9,250.4-143.9,250.3z"/>
	<g>
		<path class="st7" d="M-155.7,271.3h-2.3v4.2h2.3c1.2,0,2.1-1,2.1-2.1l0,0C-153.5,272.3-154.5,271.3-155.7,271.3z"/>
		<path class="st10" d="M-153.5,273.4L-153.5,273.4c0,1.2-1,2.1-2.1,2.1h-2.3v-4.2h2.3C-154.5,271.3-153.5,272.3-153.5,273.4z"/>
	</g>
	<g>
		<path class="st21" d="M-154.9,273.4c0-0.4-0.3-0.7-0.7-0.7c-0.4,0-0.7,0.3-0.7,0.7c0,0.4,0.3,0.7,0.7,0.7
			C-155.2,274.1-154.9,273.8-154.9,273.4z"/>
	</g>
	<path class="st28" d="M-98.7,213.9l0.7,1.3l-42.6-1.1C-140.6,214.1-98.8,214-98.7,213.9z"/>
	<path class="st28" d="M-99.4,256.3c-1.1-1-3.7-3-6.3-4.3c-3.4-1.7-6.5-2.7-8.4-2.4c-2.3,0.3-5.5,2.2-7.3,3.5
		c-3.1,2.3-5.9,5.3-5.9,5.3c3.7-2.6,8.8-7.1,13.3-7.3C-109,250.8-105.4,253.3-99.4,256.3z"/>
	<path class="st28" d="M-36.8,192.1c3.5,0,7.2,1.6,7.5,5.4c0.1,1.2,0,2.7-0.5,3.9C-29.8,196.8-31.9,192.8-36.8,192.1z"/>
	<g>
		<rect x="-86" y="295.1" class="st7" width="11" height="0.7"/>
		<path class="st13" d="M-75.1,295.1h-11v0.7h11V295.1z"/>
	</g>
	<g>
		<path class="st33" d="M-227.5,287c0.2,0.4-0.1,0.9-0.5,1.1c-0.4,0.2-0.9-0.1-1.1-0.5c-0.2-0.4,0.1-0.9,0.5-1.1
			S-227.7,286.5-227.5,287z"/>
	</g>
	<g>
		<path class="st33" d="M-211.1,268c-0.2,0.3-0.6,0.3-0.9,0.1c-0.3-0.2-0.3-0.6-0.1-0.9c0.2-0.3,0.6-0.3,0.9-0.1
			C-210.9,267.3-210.8,267.7-211.1,268z"/>
	</g>
	<g>
		<path class="st9" d="M-218.5,284.6c0.7,2.4,2,5.5,2.9,8.3l2.1-0.6c-0.8-2.8-1.4-6.1-2.1-8.5c-0.6-2-1.8-4.8-2.6-7.2
			c-0.2-0.6-0.8-0.9-1.3-0.7h0c-0.6,0.2-0.9,0.8-0.7,1.3C-219.6,279.6-219.1,282.6-218.5,284.6z"/>
		<path class="st10" d="M-220.4,277.2c-0.2-0.6,0.2-1.2,0.7-1.3h0c0.6-0.2,1.2,0.2,1.3,0.7c0.7,2.5,2,5.2,2.6,7.2
			c0.7,2.4,1.3,5.7,2.1,8.5l-2.1,0.6c-0.8-2.8-2.2-5.9-2.9-8.3C-219.1,282.6-219.6,279.6-220.4,277.2z"/>
	</g>
	<g>
		<path class="st34" d="M-214.1,291.4c0-0.6-0.5-1.1-1.1-1.1c-0.6,0-1.1,0.5-1.1,1.1c0,0.6,0.5,1.1,1.1,1.1
			C-214.5,292.5-214.1,292-214.1,291.4z"/>
	</g>
	<g>
		<path class="st33" d="M-218.5,277.7c-0.2,0.5-0.8,0.7-1.3,0.5c-0.5-0.2-0.7-0.8-0.5-1.3c0.2-0.5,0.8-0.7,1.3-0.5
			C-218.5,276.6-218.3,277.2-218.5,277.7z"/>
	</g>
	<g>
		<path class="st33" d="M-223,298.9c0-0.6-0.5-1.2-1.2-1.2c-0.6,0-1.2,0.5-1.2,1.2c0,0.6,0.5,1.2,1.2,1.2
			C-223.5,300.1-223,299.6-223,298.9z"/>
	</g>
	<path class="st35" d="M-185.9,308.7c-9.2,0-16.7-7.5-16.7-16.7s7.5-16.7,16.7-16.7c9.2,0,16.7,7.5,16.7,16.7
		S-176.7,308.7-185.9,308.7z"/>
	<g>
		<path class="st7" d="M-185.9,308.6c-9.2,0-16.7-7.5-16.7-16.7c0-9.2,7.5-16.7,16.7-16.7c9.2,0,16.7,7.5,16.7,16.7
			C-169.2,301.1-176.7,308.6-185.9,308.6z"/>
		<path class="st16" d="M-169.2,291.9c0-9.2-7.5-16.7-16.7-16.7c-9.2,0-16.7,7.5-16.7,16.7c0,9.2,7.5,16.7,16.7,16.7
			C-176.7,308.6-169.2,301.1-169.2,291.9z"/>
	</g>
	<path class="st24" d="M-202.5,292c0,0.5,0,0.9,0.1,1.4c0.7-8.6,7.9-15.3,16.6-15.3c8.7,0,15.9,6.7,16.6,15.3c0-0.5,0.1-0.9,0.1-1.4
		c0-9.2-7.5-16.7-16.7-16.7C-195.1,275.3-202.5,282.8-202.5,292z"/>
	<path class="st25" d="M-185.9,275.3c-0.4,0-0.8,0-1.2,0c0,0.1,0,0.2,0.1,0.3l0.6,1.1c0.2,0.5,0.8,0.6,1.2,0.4l0,0
		c0.5-0.2,0.7-0.8,0.4-1.2l-0.3-0.7C-185.3,275.3-185.6,275.3-185.9,275.3L-185.9,275.3z M-189,308.4c0-0.1,0-0.2,0-0.3l-0.2-1.2
		c-0.1-0.5-0.6-0.8-1.1-0.7l0,0c-0.5,0.1-0.8,0.6-0.7,1.1l0.1,0.7C-190.3,308.1-189.7,308.2-189,308.4L-189,308.4z M-193.2,307
		c0-0.1,0.1-0.2,0.1-0.3l0.1-1.3c0-0.5-0.3-1-0.9-1l0,0c-0.5,0-1,0.3-1,0.9l-0.1,0.7C-194.3,306.4-193.8,306.7-193.2,307L-193.2,307
		z M-196.8,304.6c0.1-0.1,0.1-0.2,0.1-0.3l0.4-1.2c0.2-0.5-0.1-1-0.6-1.2h0c-0.5-0.2-1,0.1-1.2,0.6l-0.2,0.7
		C-197.8,303.7-197.3,304.2-196.8,304.6L-196.8,304.6z M-199.7,301.3c0.1-0.1,0.2-0.1,0.2-0.2l0.7-1.1c0.3-0.4,0.2-1-0.2-1.3h0
		c-0.4-0.3-1-0.2-1.3,0.2l-0.4,0.6C-200.4,300.2-200.1,300.8-199.7,301.3L-199.7,301.3z M-201.7,297.4c0.1,0,0.2-0.1,0.3-0.2l1-0.8
		c0.4-0.3,0.4-0.9,0.1-1.3l0,0c-0.3-0.4-0.9-0.4-1.3-0.1l-0.6,0.5C-202,296.2-201.9,296.8-201.7,297.4L-201.7,297.4z M-202.5,293.2
		c0.1,0,0.2,0,0.3-0.1l1.1-0.6c0.5-0.2,0.7-0.8,0.4-1.2h0c-0.2-0.5-0.8-0.7-1.2-0.4l-0.7,0.3c0,0.3,0,0.5,0,0.8
		C-202.6,292.4-202.6,292.8-202.5,293.2L-202.5,293.2z M-202.3,288.8c0.1,0,0.2,0,0.3,0l1.2-0.2c0.5-0.1,0.8-0.6,0.7-1.1l0,0
		c-0.1-0.5-0.6-0.8-1.1-0.7l-0.7,0.1C-202,287.5-202.1,288.2-202.3,288.8L-202.3,288.8z M-200.9,284.7c0.1,0,0.2,0.1,0.3,0.1
		l1.3,0.1c0.5,0,1-0.3,1-0.9v0c0-0.5-0.3-1-0.9-1l-0.7-0.1C-200.3,283.5-200.6,284.1-200.9,284.7L-200.9,284.7z M-198.5,281
		c0.1,0.1,0.2,0.1,0.3,0.1l1.2,0.4c0.5,0.2,1-0.1,1.2-0.6v0c0.2-0.5-0.1-1-0.6-1.2l-0.7-0.2C-197.6,280.1-198.1,280.5-198.5,281
		L-198.5,281z M-195.2,278.2c0.1,0.1,0.1,0.2,0.2,0.2l1.1,0.7c0.4,0.3,1,0.2,1.3-0.2v0c0.3-0.4,0.2-1-0.2-1.3l-0.6-0.4
		C-194.1,277.4-194.7,277.8-195.2,278.2L-195.2,278.2z M-191.3,276.2c0,0.1,0.1,0.2,0.2,0.3l0.8,1c0.3,0.4,0.9,0.4,1.3,0.1l0,0
		c0.4-0.3,0.4-0.9,0.1-1.3l-0.5-0.6C-190.1,275.8-190.7,276-191.3,276.2L-191.3,276.2z M-182.7,275.6c0,0.1,0,0.2,0,0.3l0.2,1.2
		c0.1,0.5,0.6,0.8,1.1,0.7l0,0c0.5-0.1,0.8-0.6,0.7-1.1l-0.1-0.7C-181.4,275.9-182.1,275.7-182.7,275.6L-182.7,275.6z M-178.6,277
		c0,0.1-0.1,0.2-0.1,0.3l-0.1,1.3c0,0.5,0.3,1,0.9,1l0,0c0.5,0,1-0.3,1-0.9l0.1-0.7C-177.4,277.6-178,277.3-178.6,277L-178.6,277z
		 M-175,279.4c-0.1,0.1-0.1,0.2-0.1,0.3l-0.4,1.2c-0.2,0.5,0.1,1,0.6,1.2l0,0c0.5,0.2,1-0.1,1.2-0.6l0.2-0.7
		C-174,280.3-174.5,279.8-175,279.4L-175,279.4z M-172.1,282.6c-0.1,0.1-0.2,0.1-0.2,0.2l-0.7,1.1c-0.3,0.4-0.2,1,0.2,1.3l0,0
		c0.4,0.3,1,0.2,1.3-0.2l0.4-0.6C-171.3,283.7-171.7,283.2-172.1,282.6L-172.1,282.6z M-170.1,286.5c-0.1,0-0.2,0.1-0.3,0.2l-1,0.8
		c-0.4,0.3-0.4,0.9-0.1,1.3l0,0c0.3,0.4,0.9,0.4,1.3,0.1l0.6-0.5C-169.7,287.8-169.9,287.1-170.1,286.5L-170.1,286.5z M-169.2,290.8
		c-0.1,0-0.2,0-0.3,0.1l-1.1,0.6c-0.5,0.2-0.6,0.8-0.4,1.2h0c0.2,0.5,0.8,0.7,1.2,0.4l0.7-0.3c0-0.3,0-0.5,0-0.8
		C-169.2,291.6-169.2,291.2-169.2,290.8L-169.2,290.8z M-169.5,295.1c-0.1,0-0.2,0-0.3,0l-1.2,0.2c-0.5,0.1-0.8,0.6-0.7,1.1h0
		c0.1,0.5,0.6,0.8,1.1,0.7l0.7-0.1C-169.8,296.4-169.6,295.8-169.5,295.1L-169.5,295.1z M-170.9,299.3c-0.1,0-0.2-0.1-0.3-0.1
		l-1.3-0.1c-0.5,0-1,0.3-1,0.9l0,0c0,0.5,0.3,1,0.9,1l0.7,0.1C-171.5,300.4-171.2,299.9-170.9,299.3L-170.9,299.3z M-173.3,302.9
		c-0.1-0.1-0.2-0.1-0.3-0.1l-1.2-0.4c-0.5-0.2-1,0.1-1.2,0.6l0,0c-0.2,0.5,0.1,1,0.6,1.2l0.7,0.2
		C-174.2,303.9-173.7,303.4-173.3,302.9L-173.3,302.9z M-176.5,305.8c-0.1-0.1-0.1-0.2-0.2-0.2l-1.1-0.7c-0.4-0.3-1-0.2-1.3,0.2l0,0
		c-0.3,0.4-0.2,1,0.2,1.3l0.6,0.4C-177.6,306.5-177.1,306.2-176.5,305.8L-176.5,305.8z M-180.4,307.8c0-0.1-0.1-0.2-0.2-0.3l-0.8-1
		c-0.3-0.4-0.9-0.4-1.3-0.1v0c-0.4,0.3-0.4,0.9-0.1,1.3l0.5,0.6C-181.7,308.1-181,308-180.4,307.8L-180.4,307.8z M-184.8,308.3
		l-0.6-1.1c-0.2-0.5-0.8-0.7-1.2-0.4v0c-0.5,0.2-0.7,0.8-0.4,1.2l0.3,0.7c0.3,0,0.5,0,0.8,0c0.4,0,0.8,0,1.2,0
		C-184.7,308.5-184.7,308.4-184.8,308.3z"/>
	<g>
		<path class="st7" d="M-185.9,303.3c-6.3,0-11.4-5.1-11.4-11.4c0-6.3,5.1-11.4,11.4-11.4c6.3,0,11.4,5.1,11.4,11.4
			C-174.5,298.2-179.6,303.3-185.9,303.3z"/>
		<path class="st8" d="M-174.5,291.9c0-6.3-5.1-11.4-11.4-11.4c-6.3,0-11.4,5.1-11.4,11.4c0,6.3,5.1,11.4,11.4,11.4
			C-179.6,303.3-174.5,298.2-174.5,291.9z"/>
	</g>
	<g>
		<path class="st7" d="M-185.9,301c-5,0-9.1-4.1-9.1-9.1c0-5,4.1-9.1,9.1-9.1c5,0,9.1,4.1,9.1,9.1C-176.8,296.9-180.9,301-185.9,301
			z"/>
		<path class="st26" d="M-176.8,291.9c0-5-4.1-9.1-9.1-9.1c-5,0-9.1,4.1-9.1,9.1c0,5,4.1,9.1,9.1,9.1
			C-180.9,301-176.8,296.9-176.8,291.9z"/>
	</g>
	<path class="st27" d="M-195,291.9c0,0.4,0,0.7,0.1,1.1c0.5-4.5,4.4-8,9-8c4.6,0,8.5,3.5,9,8c0-0.4,0.1-0.7,0.1-1.1
		c0-5-4.1-9.1-9.1-9.1C-190.9,282.9-195,286.9-195,291.9z"/>
	<g>
		<path class="st7" d="M-185.9,297.6c-3.1,0-5.7-2.5-5.7-5.7c0-3.1,2.5-5.7,5.7-5.7c3.1,0,5.7,2.5,5.7,5.7
			C-180.2,295.1-182.8,297.6-185.9,297.6z"/>
		<path class="st16" d="M-180.2,291.9c0-3.1-2.5-5.7-5.7-5.7c-3.1,0-5.7,2.5-5.7,5.7c0,3.1,2.5,5.7,5.7,5.7
			C-182.8,297.6-180.2,295.1-180.2,291.9z"/>
	</g>
	<path class="st28" d="M-182.4,291.8c0.1,0.3,0.1,0.6,0.1,0.9c0,2-1.6,3.7-3.7,3.7c-2,0-3.7-1.6-3.7-3.7c0-0.3,0-0.6,0.1-0.9
		c0.4,1.6,1.8,2.7,3.5,2.7C-184.2,294.5-182.8,293.4-182.4,291.8z"/>
</g>
</svg>
