<?xml version="1.0" encoding="utf-8"?>
<!-- Generator: Adobe Illustrator 19.0.0, SVG Export Plug-In . SVG Version: 6.00 Build 0)  -->
<svg version="1.1" id="Слой_1" xmlns="http://www.w3.org/2000/svg" xmlns:xlink="http://www.w3.org/1999/xlink" x="0px" y="0px"
	 viewBox="0 0 435.5 143.9" style="enable-background:new 0 0 435.5 143.9;" xml:space="preserve">
<style type="text/css">
	.st0{display:none;fill:#F47C06;}
	.st1{display:none;fill:#F4A506;}
	.st2{display:none;fill:#F6BA02;}
	.st3{display:none;}
</style>
<polygon id="XMLID_111_" class="st0" points="379.4,154.8 285,154.8 341.1,-30.4 435.5,-30.4 "/>
<polygon id="XMLID_110_" class="st1" points="307.3,154.8 171.2,154.8 236,-59.4 372.1,-59.4 "/>
<polygon id="XMLID_109_" class="st2" points="219,154.8 50.2,154.8 122.4,-83.6 291.2,-83.6 "/>
<g id="Слой_1_1_" xmlns:svg="http://www.w3.org/2000/svg">
	<g id="XMLID_50_" transform="translate(-5.1428442,-9.7907362)">
		<path id="XMLID_61_" d="M46,40.7H27L15,80.3h19.3L46,40.7z"/>
		<path id="XMLID_60_" d="M31.8,25.1l4.6-15.3h27.8l15,49.5l43.5-49.5l30.5,0.1L140,53.3l-28.2,25.2l13.2-43.8L84.3,80.3H61.5
			L47.9,35.8l3.2-10.9L31.8,25.1z"/>
		<path id="XMLID_57_" d="M181.7,9.9l-34.6,40.8h13.4l8.8-10h23.5l2.2,10h50.6c10.4,0,12.1-8.5,12.7-14.6c0.3-3.4,0.8-9.5-9.5-9.9
			c0,0-15.4-0.3-20.1-0.4c-3.2-0.1-7.5-0.4-7-3.4c0.5-3.6,3.7-4.5,6.8-4.5H280l-9.6,32.8h11.9l9.3-32.9h18l2.5-7.9h-90.6
			c-9,0-12.5,10.7-12.1,16.1c0.4,5.4,1.9,7,7.7,7.5c5.9,0.6,21.6,0.7,24.2,0.7c3,0,5.3,1.7,5.1,4.2c-0.4,3.3-3.1,4.6-6.8,4.6h-32.8
			l-7.8-33L181.7,9.9z M187.8,18.4l3.2,14h-14.8L187.8,18.4z"/>
		<path id="XMLID_56_" d="M361.9,9.9l-2.2,7.9h-33.5l-2.1,7.4h31.9l-2.4,8.4h-32.3l-2.4,8.1h-27.8l2.3-8.1H310l7.3-23.9L361.9,9.9z"
			/>
		<path id="XMLID_55_" d="M351.9,42.7l-2,7.9h-32.6l2.1-7.9H351.9z"/>
		<path id="XMLID_52_" d="M406.6,50.6c1.5-6.2,3.9-12.4-0.5-15.4c5.9-3.4,7.3-13,7.4-17.7c0.1-2.4-1.1-7.6-7-7.6H368l-12.2,40.8
			h11.6l3.5-12h19.1c3,0,6.3,1.5,5.4,4.9c-1.2,4.5-1.8,7-1.8,7 M376.5,19.8c0,0,16.8,0,21.5,0c2.2,0,3.2,1.4,2.8,3
			c-0.9,3.9-2.2,6.1-5.5,6.1h-21.7L376.5,19.8z"/>
		<path id="XMLID_51_" class="st3" d="M414.2,37.9h16.3l-2.4,7.9H412L414.2,37.9z"/>
	</g>
</g>
<g id="XMLID_16_">
	<path id="XMLID_44_" class="st3" d="M158.4,126.7h-49.9c-14.2-0.8-18-12.3-11.5-34.4c6.5-22.1,17.6-33.5,33.2-34.3l48.7,0
		l-5.1,16.7h-42.9c-3.2,0-5.8,1.1-7.7,3.3c-5.1,8.5-8.1,17-9.1,25.5c-0.2,2.7,1.2,4.5,4,5.2l26.9,0l6-20.1l18.6,0.1L158.4,126.7z"/>
	<path id="XMLID_42_" d="M284.9,57.9l-12.4,41.4h-28.8c-8.4,0.2-11.5-4.2-9.2-13.2l8.4-28.2h11.3l-7.9,25.8c-1,2.7-0.3,3.9,2.3,3.8
		h15.7l8.8-29.6L284.9,57.9z"/>
	<path id="XMLID_28_" d="M279.7,99.4l12.4-41.6h29c8.4-0.2,11.5,4.2,9.3,13.2l-8.4,28.3h-11.4l7.9-26c1-2.7,0.2-3.9-2.3-3.8h-15.8
		l-8.8,29.7H279.7z"/>
	<path id="XMLID_17_" d="M379.1,58l-3.5,11.7l-21.8,0l-4.2,14c-0.5,2.5,0.5,3.8,3.1,4.1l25.9,0l-3.4,11.6h-29.3
		c-9.2-0.5-12.3-5.6-9.2-15.5l4.3-14.4l-3.5,0.1L341,58H379.1z"/>
	<path id="XMLID_13_" d="M226.8,99c1.5-6.2,3.9-12.5-0.5-15.5c5.9-3.4,7.4-13.1,7.5-17.8c0.1-2.4-1.1-7.7-7-7.7h-38.9l-12.3,41.1
		h11.7l3.5-12.1H210c3,0,6.3,1.5,5.4,4.9c-1.2,4.5-1.8,7.1-1.8,7.1 M196.5,68c0,0,16.9,0,21.7,0c2.2,0,3.2,1.4,2.8,3
		c-0.9,3.9-2.2,6.1-5.5,6.1h-21.9L196.5,68z"/>
</g>
<path id="XMLID_47_" d="M100.2,86.5l0.5,9.7l0.2,0.1l5.2,7.9l2.4,0.5l10.8,16.3l1.1-0.7l12.9,17.7l0,0.1c-0.4,1.9,0.8,3.7,2.7,4.1
	l8.3,1.7c1,0.2,2-0.4,2.3-1.4l1-3.3l2.3-0.7l3.2-12c3.5,0,10.8-8.4,10.8-8.4l7.5-30.3l-0.8-0.4l4.9-18.4l4.1-7.1
	c0.6-1.1,0-2.4-1.1-2.7L165.5,56c0,0-0.4-1.3-2.6-2.4c-2.1-1.1-4.1,1.2-4.1,1.2l-0.5-0.3c-0.8-0.5-1.7-0.5-2.5,0l-1.3,0.8l-1.6-0.3
	l-3.9,3.2c0,0-6.5-2.7-11.7,1.5s-2.2,10.6-2.2,10.6L145.8,90l3.3,0.2l1.3-6.5l-0.2-1.7c2.9-9.5,10.3-14.5,10.3-14.5l5.6-2l-1.4,6.6
	l-2,1.3c-5.1,30.1-27.1,47.3-27.1,47.3l-7.5-19.3c-4.9-12.6-7.4-11.8-3.5-24.8l13.5-44.5c0.5-1.7-4.5,1.8-6.2,1.4
	c-3.2-0.6-3.2-3-3.2-3l-2.2-0.4l-5.3-2.8 M115.9,42.8l-0.5,2.3 M117.5,38 M132.9,135.2l-11-15.8l1.4-0.9l10.7,11.5L132.9,135.2z"/>
</svg>
