<?xml version="1.0" encoding="utf-8"?>
<!-- Generator: Adobe Illustrator 19.0.0, SVG Export Plug-In . SVG Version: 6.00 Build 0)  -->
<svg version="1.1" id="Слой_1" xmlns="http://www.w3.org/2000/svg" xmlns:xlink="http://www.w3.org/1999/xlink" x="0px" y="0px"
	 viewBox="0 0 31.7 40" style="enable-background:new 0 0 31.7 40;" xml:space="preserve">
<style type="text/css">
	.st0{fill:#FFFFFF;}
</style>
<g>
	<path class="st0" d="M29.2,27.5c-0.9-1-2-1.5-3.4-1.5h-3l-2-1.9c-1.4,1.2-3.2,1.9-5.1,1.9c-1.8,0-3.4-0.6-4.8-1.7L9.2,26H6.1
		c-1.6,0-2.8,0.5-3.8,1.7C-0.5,30.9,0,37.9,0.2,40h31.4C31.7,37.8,32,30.7,29.2,27.5L29.2,27.5z M29.2,27.5"/>
	<path class="st0" d="M7.7,13.4c-0.6,0.5-0.9,1.2-0.9,2.1c0,1.3,0.8,2.4,1.9,2.5c0.2,2,1,3.7,2.2,5c0.3,0.3,0.5,0.5,0.8,0.7
		c0.4,0.3,0.7,0.5,1.1,0.7c0.9,0.5,1.9,0.7,2.9,0.7c1.1,0,2.1-0.3,2.9-0.7c0.4-0.2,0.8-0.4,1.1-0.7c0.3-0.2,0.5-0.5,0.8-0.7
		c1.2-1.3,2-3,2.2-4.9h0.1c1.3,0,2.2-1.2,2.2-2.6c0-0.9-0.4-1.6-0.9-2.1H7.7z M7.7,13.4"/>
	<path class="st0" d="M24.3,9.1c-0.7-2.4-2.7-4.9-5.1-6.2v6.4c0,0.3-0.1,0.5-0.2,0.7c-0.3,0.6-0.9,1-1.6,1h-3
		c-0.7,0-1.2-0.4-1.6-0.9c-0.1-0.2-0.2-0.4-0.3-0.7c0-0.1,0-0.2,0-0.3V2.9c-2.5,1.3-4.4,3.8-5.1,6.2L7.3,9.6H5.9v2.9h19.9V9.6h-1.3
		L24.3,9.1z M24.3,9.1"/>
	<path class="st0" d="M14.4,10.3h2.9c0.4,0,0.8-0.2,1-0.6c0.1-0.2,0.1-0.3,0.1-0.5V1.5c0-0.2,0-0.4-0.1-0.5C18.1,0.4,17.6,0,17,0
		h-2.6c-0.6,0-1,0.4-1.1,1c0,0,0,0.1,0,0.1v8.1c0,0.2,0.1,0.4,0.2,0.6C13.7,10.1,14,10.3,14.4,10.3L14.4,10.3z M14.4,10.3"/>
</g>
</svg>
