<?xml version="1.0" encoding="utf-8"?>
<!-- Generator: Adobe Illustrator 19.0.0, SVG Export Plug-In . SVG Version: 6.00 Build 0)  -->
<svg version="1.1" id="Слой_1" xmlns="http://www.w3.org/2000/svg" xmlns:xlink="http://www.w3.org/1999/xlink" x="0px" y="0px"
	 viewBox="0 0 50 38.3" style="enable-background:new 0 0 50 38.3;" xml:space="preserve">
<style type="text/css">
	.st0{fill:#FFFFFF;}
</style>
<g>
	<path class="st0" d="M18.5,35.9c0.5,0,0.9-0.4,0.9-0.9c0-0.5-0.4-0.9-0.9-0.9c-0.5,0-0.9,0.4-0.9,0.9C17.6,35.4,18,35.9,18.5,35.9
		L18.5,35.9z M18.5,35.9"/>
	<path class="st0" d="M12.2,35.8c0.5,0,0.8-0.4,0.8-0.8c0-0.5-0.4-0.8-0.8-0.8c-0.5,0-0.8,0.4-0.8,0.8S11.7,35.8,12.2,35.8
		L12.2,35.8z M12.2,35.8"/>
	<path class="st0" d="M25.1,35.8c0.5,0,0.8-0.4,0.8-0.8c0-0.5-0.4-0.8-0.8-0.8c-0.5,0-0.8,0.4-0.8,0.8S24.6,35.8,25.1,35.8
		L25.1,35.8z M25.1,35.8"/>
	<path class="st0" d="M5.3,35.8c0.5,0,0.8-0.4,0.8-0.8c0-0.5-0.4-0.8-0.8-0.8c-0.5,0-0.8,0.4-0.8,0.8S4.8,35.8,5.3,35.8L5.3,35.8z
		 M5.3,35.8"/>
	<path class="st0" d="M33.5,38.3L33.5,38.3c1.6-0.2,2.8-1.8,2.8-3.4c0-1.6-1.2-3.2-2.8-3.4l0,0H2.8l0,0C1.2,31.7,0,33.3,0,34.9
		c0,1.6,1.2,3.2,2.8,3.4l0,0H33.5z M5.3,33.3c0.8,0,1.4,0.5,1.6,1.2h3.8c0.2-0.7,0.8-1.2,1.6-1.2c0.8,0,1.4,0.5,1.6,1.2h3
		c0.2-0.8,0.9-1.3,1.7-1.3c0.8,0,1.5,0.6,1.7,1.3h3.3c0.2-0.7,0.8-1.2,1.6-1.2c0.8,0,1.4,0.5,1.6,1.2H30c0.2-0.7,0.8-1.2,1.6-1.2
		c0.9,0,1.6,0.7,1.6,1.6c0,0.9-0.7,1.6-1.6,1.6c-0.8,0-1.4-0.5-1.6-1.2h-3.4c-0.2,0.7-0.8,1.2-1.6,1.2c-0.8,0-1.4-0.5-1.6-1.2h-3.3
		c-0.2,0.8-0.9,1.3-1.7,1.3c-0.8,0-1.5-0.6-1.7-1.3h-3c-0.2,0.7-0.8,1.2-1.6,1.2c-0.8,0-1.4-0.5-1.6-1.2H6.8C6.7,36,6,36.6,5.3,36.6
		c-0.9,0-1.6-0.7-1.6-1.6C3.6,34,4.4,33.3,5.3,33.3L5.3,33.3z M5.3,33.3"/>
	<path class="st0" d="M31.6,35.8c0.5,0,0.8-0.4,0.8-0.8c0-0.5-0.4-0.8-0.8-0.8c-0.5,0-0.8,0.4-0.8,0.8S31.1,35.8,31.6,35.8
		L31.6,35.8z M31.6,35.8"/>
	<path class="st0" d="M30.7,21.6L28,16.9h-8.6l0,4.5l-4.8,0l0-1.2l-6.3,0v1H6.1v2.8h8.6v1.2H6.1v3.7h24.6V21.6z M29,24.1h-8v-5.7h6
		l2,2.9V24.1z M29,24.1"/>
	<g>
		<path class="st0" d="M26.9,11.2l8.2-6.2V1.4l-10.1,6l-4,8.2h5.9V11.2z M26.9,11.2"/>
		<path class="st0" d="M49.4,21L37.9,0l-1.6,1.4v2.9L46.6,21H49.4z M49.4,21"/>
		<path class="st0" d="M47.3,22.9c0.1,5.8-5.4,6-5.4,6c11.2,4.4,7.5-6,7.5-6H47.3z M47.3,22.9"/>
	</g>
</g>
</svg>
