<?xml version="1.0" encoding="utf-8"?>
<!-- Generator: Adobe Illustrator 19.0.0, SVG Export Plug-In . SVG Version: 6.00 Build 0)  -->
<svg version="1.1" id="Слой_1" xmlns="http://www.w3.org/2000/svg" xmlns:xlink="http://www.w3.org/1999/xlink" x="0px" y="0px"
	 viewBox="0 0 20 20" style="enable-background:new 0 0 20 20;" xml:space="preserve">
<style type="text/css">
	.st0{fill:#4F8A10;}
</style>
<path id="XMLID_2_" class="st0" d="M0.4,11.1l2.1,2.1c0.6,0.6,1.5,1.5,2.1,2.1l2.1,2.1c0.6,0.6,1.5,0.6,2.1,0c0,0,0,0,0,0l2.1-2.1
	c0.6-0.6,1.5-1.5,2.1-2.1l2.1-2.1c0.2-0.2,0.4-0.4,0.7-0.7c0.4-0.4,0.9-0.9,1.3-1.3c0.1-0.1,0.1-0.1,0.2-0.2l2.1-2.1
	c0.6-0.6,0.6-1.5,0-2.1l-2.1-2.1c-0.6-0.6-1.5-0.6-2.1,0l-2.1,2.1c0,0-0.1,0.1-0.1,0.1c-0.4,0.4-0.9,0.9-1.3,1.3
	c-0.1,0.1-0.2,0.2-0.3,0.3c-0.1,0.1-0.3,0.3-0.4,0.4L8.9,8.9c0,0,0,0,0,0c-0.6,0.6-1.5,0.6-2.1,0L4.7,6.8c-0.6-0.6-1.5-0.6-2.1,0
	L1.8,7.6L0.4,8.9C-0.1,9.5-0.1,10.5,0.4,11.1z"/>
</svg>
