<?xml version="1.0" encoding="utf-8"?>
<!-- Generator: Adobe Illustrator 19.0.0, SVG Export Plug-In . SVG Version: 6.00 Build 0)  -->
<svg version="1.1" id="Слой_1" xmlns="http://www.w3.org/2000/svg" xmlns:xlink="http://www.w3.org/1999/xlink" x="0px" y="0px"
	 viewBox="0 0 50 50" style="enable-background:new 0 0 50 50;" xml:space="preserve">
<style type="text/css">
	.st0{fill:#FFFFFF;}
</style>
<path class="st0" d="M24.6,33.2l2.8-2.5L24.6,28l17.5-17.5l3.7-1.2l3.4-6.8l-2.2-2.2L40,3.4l-1.5,3.7L21.2,24.6l-2.8-2.8L16,24.6
	c0,0,2.5,1.8-0.3,4.6c-1.5,1.5-4-0.3-8.6,4.3L0.6,40c0,0-1.8,3.1,1.8,6.8c3.7,3.7,6.8,1.8,6.8,1.8l6.5-6.5c4.3-4.3,2.8-7.1,4-8.3
	C22.5,31.1,24.6,33.2,24.6,33.2L24.6,33.2z M15.1,32l2.1,2.1L5.5,45.9l-2.2-2.2L15.1,32z M15.1,32"/>
<path class="st0" d="M11.1,24.6l2.8-1.8l4.6-5.2l2.8,2.8l2.8-2.8l-0.3-0.3c0.6-1.5,0.9-3.1,0.9-4.9C24.6,5.5,19.1,0,12.3,0
	c-1.8,0-3.4,0.3-4.9,0.9l8.9,8.9l-6.5,6.5L0.9,7.4C0.3,8.9,0,10.5,0,12.3C0,18.8,4.9,23.7,11.1,24.6L11.1,24.6z"/>
<path class="st0" d="M31.7,25.2L28.9,28l2.8,2.8L28,34.5l13.2,13.2c1.8,1.8,4.6,1.8,6.5,0c1.8-1.8,1.8-4.6,0-6.5L31.7,25.2z
	 M43.7,46.2c-1.2,0-2.5-0.9-2.5-2.5c0-1.2,0.9-2.5,2.5-2.5c1.5,0,2.5,0.9,2.5,2.5C46.2,45.2,45.2,46.2,43.7,46.2L43.7,46.2z
	 M43.7,46.2"/>
</svg>
